<svg width="424" height="644" viewBox="0 0 424 644" fill="none" xmlns="http://www.w3.org/2000/svg">
<path d="M103.619 412.597C103.619 412.597 130.209 346.176 211.747 298.241C211.747 298.241 232.55 244.072 262.368 225.228C272.339 218.923 284.558 229.336 280.23 240.299L250.508 315.724H337.833L103.667 412.597H103.619Z" fill="#D57205"/>
<g clip-path="url(#clip0_3_2)">
<path d="M261.051 293H167.949C163.594 293 160 287.801 160 281.5C160 275.199 163.594 270 167.949 270H261.051C265.406 270 269 275.199 269 281.5C269 287.801 265.406 293 261.051 293Z" fill="url(#paint0_linear_3_2)"/>
<path d="M261.051 317H167.949C163.594 317 160 311.574 160 305C160 298.426 163.594 293 167.949 293H261.051C265.406 293 269 298.426 269 305C269 311.574 265.406 317 261.051 317Z" fill="url(#paint1_linear_3_2)"/>
<path d="M172.869 317.013C177.138 328.068 187.831 336 200.342 336H228.322C240.832 336 251.568 328.068 255.795 317.013H172.869Z" fill="url(#paint2_linear_3_2)"/>
<path d="M91.5494 101.307C86.9424 149.618 110.696 192.782 148.101 216.242C158.118 222.529 164.416 233.33 164.416 245.187V270.292H212.768V38.8181C212.81 10.3796 182.97 -8.56532 157.357 3.88179C119.276 22.4048 95.5224 59.7039 91.5494 101.307Z" fill="url(#paint3_radial_3_2)"/>
<path d="M204.409 240.35C202.359 215.956 195.485 197.371 183.962 185.087C182.662 183.693 180.467 183.635 179.081 184.942C177.695 186.248 177.637 188.455 178.936 189.849C201.088 213.459 198.402 259.4 197.449 270H204.38C204.842 264.802 205.507 253.592 204.38 240.35H204.409Z" fill="#D47205"/>
<path d="M202.236 183.143L194.185 176.543C192.915 175.514 191.069 175.514 189.799 176.543L181.719 183.171L173.639 176.543C172.167 175.343 170.003 175.543 168.791 177C167.579 178.457 167.781 180.6 169.253 181.8L179.526 190.229C180.795 191.257 182.642 191.257 183.912 190.229L191.992 183.6L200.072 190.229C200.707 190.743 201.486 191 202.265 191C203.044 191 203.852 190.714 204.487 190.171L213 182.971V174L202.207 183.114L202.236 183.143Z" fill="#D47205"/>
<path d="M259.392 269.944C258.208 269.944 230.82 269.944 224.776 269.648C222.113 269.522 220 267.286 220 264.627V29.8623C220 19.9468 224.818 11.9301 233.525 7.24657C246.628 0.242432 266.492 2.05676 280.736 11.5503L281.666 12.1832C296.332 22.3519 298.615 37.1618 297.22 47.6258C300.009 47.6258 303.306 48.1322 306.645 49.6089C313.239 52.5203 318.226 58.3008 321.523 66.7817C326.003 78.3428 322.157 88.1317 317.634 94.1232C322.452 98.2581 329.342 105.726 331.328 116.064C333.061 125.051 330.821 134.249 324.608 143.321C328.496 157.835 322.664 170.198 316.958 178.215C310.28 187.582 299.46 189.818 293.162 190.282C291.429 198.594 285.935 209.691 271.099 221.717C259.603 230.999 262.266 255.218 264.295 263.784C264.633 265.26 264.295 266.864 263.323 268.045C262.35 269.269 260.913 269.944 259.392 269.944Z" fill="url(#paint4_linear_3_2)"/>
<path fill-rule="evenodd" clip-rule="evenodd" d="M259.514 270.672C258.331 270.672 230.942 270.672 224.898 270.376C222.236 270.25 220.122 268.014 220.122 265.355V30.5904C220.122 20.6749 224.941 12.6581 233.647 7.97459C246.75 0.970459 266.615 2.78478 280.858 12.2783L281.788 12.9112C296.454 23.0799 298.737 37.8898 297.342 48.3539C300.132 48.3539 303.428 48.8602 306.767 50.337C313.361 53.2483 318.348 59.0288 321.645 67.5097C326.125 79.0708 322.279 88.8597 317.756 94.8512C322.575 98.9862 329.464 106.454 331.451 116.792C333.184 125.779 330.943 134.977 324.73 144.049C324.862 144.54 324.982 145.029 325.092 145.515C326.223 149.427 326.019 152.372 325.998 152.614C325.996 152.649 325.992 152.684 325.989 152.718C325.987 152.737 325.985 152.755 325.983 152.774C326.207 163.5 321.604 172.587 317.08 178.943C310.402 188.31 299.582 190.546 293.285 191.01C291.552 199.322 286.057 210.419 271.222 222.445C268.681 224.496 266.831 227.278 265.514 230.459C265.506 230.486 265.498 230.511 265.49 230.534C265.484 230.553 265.479 230.57 265.474 230.586C265.466 230.608 265.46 230.628 265.454 230.645C265.444 230.675 265.437 230.698 265.431 230.715C265.352 230.947 265.258 231.17 265.151 231.382C260.978 242.539 262.879 258.021 264.417 264.512C264.755 265.988 264.417 267.592 263.445 268.773C262.473 269.997 261.036 270.672 259.514 270.672ZM255.991 227.092C251.404 238.669 252.363 252.673 253.47 260.588C246.961 260.588 236.648 260.545 230.182 260.419L230.097 260.461V103.199C233.918 108.342 238.837 113.412 244.763 116.37C245.482 116.75 246.243 116.918 247.003 116.918L246.961 116.834C248.821 116.834 250.596 115.821 251.484 114.049C252.752 111.56 251.737 108.522 249.243 107.298C238.36 101.886 231.13 85.3897 230.097 82.9231V30.5482C230.097 24.3457 232.887 19.7466 238.297 16.8352C248.145 11.561 263.994 13.2066 275.152 20.6327L275.871 21.139C291.456 31.9569 287.267 48.3505 286.121 51.9027C284.104 53.9884 277.182 60.1267 266.488 59.7039H266.319C263.614 59.7039 261.374 61.8558 261.289 64.5562C261.205 67.341 263.36 69.7038 266.15 69.7882H267.46C281.312 69.7882 290.407 61.8918 293.422 58.8208C295.128 58.4015 298.819 57.8533 302.625 59.5352C306.683 61.3073 309.895 65.2313 312.177 71.1384C315.966 80.8981 310.658 87.9549 308.192 90.5348C303.359 90.8845 296.735 92.5639 291.408 96.7147C289.665 96.7054 285.963 96.022 283.352 90.8428C282.126 88.3534 279.083 87.3407 276.59 88.6065C274.096 89.8301 273.124 92.8681 274.349 95.3575C277.06 100.77 280.89 103.787 284.589 105.344C283.925 106.826 283.39 108.444 283.014 110.21C282.465 112.952 284.197 115.61 286.902 116.201C287.241 116.328 287.621 116.328 287.959 116.328V116.243C290.284 116.243 292.397 114.64 292.904 112.277C294.941 102.802 304.756 100.952 308.656 100.592C311.603 102.745 319.648 109.335 321.476 118.733C322.466 123.835 321.501 129.201 318.581 134.706C317.466 133.617 316.185 132.559 314.713 131.56C312.389 129.998 309.261 130.589 307.697 132.91C306.133 135.23 306.767 138.353 309.05 139.914C312.73 142.407 314.446 145.41 315.245 147.783C316.489 153.132 316.002 158.613 313.793 164.189C306.405 163.445 300.784 160.856 297.046 156.454C290.092 148.3 291.299 136.093 291.416 134.901L291.417 134.9C291.422 134.847 291.425 134.816 291.425 134.809C291.805 132.066 289.861 129.534 287.114 129.155C284.367 128.775 281.788 130.716 281.408 133.458L281.403 133.499C281.352 133.916 281.058 136.342 281.18 139.829C268.815 133.115 255.282 137.468 254.15 137.832C254.131 137.838 254.116 137.843 254.104 137.846C251.484 138.733 250.089 141.602 250.976 144.218C251.864 146.876 254.738 148.268 257.359 147.382L257.384 147.374C258.351 147.07 273.474 142.316 282.718 154.175C283.257 154.877 283.951 155.397 284.722 155.721C285.857 158.207 287.34 160.665 289.269 162.952C293.942 168.517 300.383 172.095 308.444 173.65C302.531 181.241 291.311 181.124 289.647 181.062C289.454 181.034 289.258 181.017 289.058 181.01C288.509 181.01 275.956 180.462 269.573 169.534C268.179 167.129 265.093 166.327 262.684 167.719C260.738 168.844 259.84 171.071 260.302 173.153C256.452 173.019 252.047 173.34 247.384 174.555C244.721 175.272 243.073 178.015 243.791 180.715C244.51 183.373 247.257 185.019 249.962 184.302C261.078 181.39 270.461 185.145 270.63 185.23C270.825 185.308 271.025 185.374 271.226 185.428C275.48 188.164 279.814 189.583 283.117 190.317C281.571 196.218 277.334 203.948 267.108 212.743C266.355 207.332 264.167 201.685 259.134 197.339C257.02 195.525 253.85 195.736 252.033 197.846C250.216 199.955 250.427 203.12 252.54 204.934C260.139 211.48 256.685 224.702 255.991 227.092Z" fill="url(#paint5_linear_3_2)"/>
</g>
<path d="M214.043 511.357V442.643L366.312 350.833C388.239 337.626 403.375 315.605 407.846 290.431L422.982 205.5C423.963 200.031 420.113 194.848 414.589 194.298C405.646 193.415 392.399 195.875 382.309 213.979L383.695 169.149C383.887 163.273 378.77 158.616 372.911 159.333L369.683 159.739C351.463 162.008 337.809 177.484 337.809 195.803V271.133L321.788 197.738C320.593 192.292 314.232 189.832 309.689 193.057L304.142 196.973C290.99 206.288 284.582 222.505 287.81 238.293L301.942 307.245L261.914 243.117C259.666 239.511 254.597 239.081 251.775 242.257C243.645 251.381 241.732 264.469 246.969 275.528L267.844 319.689L237.189 347.991C237.189 347.991 88.6027 360.124 88.6027 446.751V511.428H214.067L214.043 511.357Z" fill="url(#paint6_linear_3_2)"/>
<path d="M88.5786 456.5L214.043 433V511.357H88.5786V456.5Z" fill="url(#paint7_linear_3_2)"/>
<path d="M304.572 310.78L306.796 313.766C313.419 322.722 312.319 335.189 304.213 342.832L246.993 396.81" stroke="#1B2536" stroke-width="1.07483" stroke-linecap="round" stroke-linejoin="round"/>
<path d="M339.507 282.072L341.467 291.41C345.7 311.473 339.507 332.299 324.968 346.773L281.497 390.098" stroke="#1B2536" stroke-width="1.07483" stroke-linecap="round" stroke-linejoin="round"/>
<path d="M382.284 220.857L380.395 291.745C379.893 310.923 371.142 328.98 356.412 341.304L316.767 374.478" stroke="#1B2536" stroke-width="1.07483" stroke-linecap="round" stroke-linejoin="round"/>
<path d="M266.206 493.444H81.1777V564.475H266.206V493.444Z" fill="#C6E7F7"/>
<path d="M274.359 549.547H0V643.435H274.359V549.547Z" fill="url(#paint8_linear_3_2)"/>
<path d="M176.549 616.374V549.547" stroke="#FFDFBB" stroke-width="1.43311" stroke-miterlimit="10"/>
<path d="M208.974 569.49C208.974 574.912 204.574 579.306 199.146 579.306C193.718 579.306 189.318 574.912 189.318 569.49C189.318 564.068 193.718 559.674 199.146 559.674C204.574 559.674 208.974 564.068 208.974 569.49Z" stroke="#FFDFBB" stroke-width="1.43311" stroke-miterlimit="10"/>
<path d="M208.974 604.599C208.974 610.021 204.574 614.416 199.146 614.416C193.718 614.416 189.318 610.021 189.318 604.599C189.318 599.178 193.718 594.783 199.146 594.783C204.574 594.783 208.974 599.178 208.974 604.599Z" stroke="#FFDFBB" stroke-width="1.43311" stroke-miterlimit="10"/>
<defs>
<linearGradient id="paint0_linear_3_2" x1="171" y1="277.5" x2="280.5" y2="293" gradientUnits="userSpaceOnUse">
<stop stop-color="#65A3BF"/>
<stop offset="1" stop-color="#196F97"/>
</linearGradient>
<linearGradient id="paint1_linear_3_2" x1="168" y1="293" x2="274" y2="317" gradientUnits="userSpaceOnUse">
<stop stop-color="#4E93B3"/>
<stop offset="1" stop-color="#2E7EA2"/>
</linearGradient>
<linearGradient id="paint2_linear_3_2" x1="214.332" y1="317.013" x2="214.332" y2="336" gradientUnits="userSpaceOnUse">
<stop stop-color="#2B7495"/>
<stop offset="1" stop-color="#3885A7"/>
</linearGradient>
<radialGradient id="paint3_radial_3_2" cx="0" cy="0" r="1" gradientUnits="userSpaceOnUse" gradientTransform="translate(152 35.5) rotate(2.89084) scale(333.511 332.941)">
<stop offset="0.23" stop-color="#FFD440"/>
<stop offset="0.578813" stop-color="#FDBE0C"/>
<stop offset="1" stop-color="#FAAA2D"/>
<stop offset="1" stop-color="#FAAA2D"/>
</radialGradient>
<linearGradient id="paint4_linear_3_2" x1="275.948" y1="3" x2="275.948" y2="269.944" gradientUnits="userSpaceOnUse">
<stop stop-color="#FFA875"/>
<stop offset="1" stop-color="#FB7525"/>
</linearGradient>
<linearGradient id="paint5_linear_3_2" x1="156" y1="-114.5" x2="229.5" y2="265" gradientUnits="userSpaceOnUse">
<stop offset="0.338364" stop-color="#FFA26C"/>
<stop offset="0.623206" stop-color="#EC671A"/>
<stop offset="0.785932" stop-color="#FC7525"/>
</linearGradient>
<linearGradient id="paint6_linear_3_2" x1="394" y1="168.5" x2="149" y2="499" gradientUnits="userSpaceOnUse">
<stop stop-color="#FFDBB5"/>
</linearGradient>
<linearGradient id="paint7_linear_3_2" x1="151" y1="427" x2="151" y2="550.5" gradientUnits="userSpaceOnUse">
<stop stop-color="#D47205" stop-opacity="0"/>
<stop offset="1" stop-color="#D47205"/>
</linearGradient>
<linearGradient id="paint8_linear_3_2" x1="274" y1="581.5" x2="-32" y2="596" gradientUnits="userSpaceOnUse">
<stop stop-color="#5992AD"/>
<stop offset="1" stop-color="#C0DAE7"/>
</linearGradient>
<clipPath id="clip0_3_2">
<rect width="241" height="347" fill="white" transform="translate(91)"/>
</clipPath>
</defs>
</svg>
