<svg width="768" height="866" viewBox="0 0 768 866" fill="none" xmlns="http://www.w3.org/2000/svg">
<path d="M724.069 656.267C722.985 645.3 719.014 635.331 713.04 627.334C720.117 617.883 724.382 605.65 724.382 592.315C724.382 562.322 702.857 538 676.315 538C649.773 538 628.248 562.322 628.248 592.315C628.248 594.33 628.359 596.324 628.542 598.276C621.98 594.475 614.536 592.315 606.651 592.315C589.244 592.315 573.987 602.783 565.55 618.444C563.694 618.506 561.856 618.673 560.054 618.943C551.673 602.991 536.306 592.315 518.697 592.315C501.088 592.315 486.622 602.389 478.093 617.572C469.564 602.389 454.583 592.315 437.489 592.315C410.947 592.315 389.422 616.637 389.422 646.63C389.422 647.149 389.441 647.668 389.459 648.187C380.691 637.553 368.192 630.886 354.296 630.886C336.227 630.886 320.493 642.164 312.295 658.822C310.126 659.632 308.031 660.608 306.009 661.73C299.576 658.116 292.315 656.08 284.65 656.08C282.224 656.08 279.834 656.288 277.481 656.683C269.008 641.209 253.862 630.886 236.583 630.886C219.305 630.886 204.398 641.042 195.888 656.309C194.987 656.413 194.086 656.516 193.204 656.662C184.73 641.188 169.584 630.865 152.306 630.865C133.006 630.865 116.371 643.743 108.724 662.291C102.052 658.323 94.4422 656.06 86.3729 656.06C67.7896 656.06 51.6877 667.982 43.6919 685.408C19.2083 687.901 0 711.164 0 739.474C0 769.466 21.5243 793.789 48.0666 793.789C66.6499 793.789 82.7518 781.866 90.7476 764.44C108.173 762.654 122.896 750.378 129.955 733.243C136.627 737.21 144.237 739.474 152.306 739.474C154.732 739.474 157.122 739.266 159.475 738.871C167.948 754.346 183.094 764.668 200.373 764.668C217.651 764.668 232.558 754.512 241.068 739.245C241.969 739.141 242.87 739.038 243.752 738.892C252.226 754.366 267.372 764.689 284.65 764.689C292.333 764.689 299.576 762.654 306.009 759.04C312.442 762.654 319.703 764.689 327.368 764.689C333.139 764.689 338.672 763.547 343.8 761.428C351.539 767.452 360.913 770.983 371.023 770.983C381.831 770.983 391.812 766.953 399.845 760.14C405.745 763.048 412.252 764.689 419.09 764.689C429.916 764.689 439.915 760.639 447.948 753.805C451.459 754.74 455.135 755.239 458.903 755.239C460.098 755.239 461.293 755.176 462.469 755.072C470.226 761.137 479.619 764.689 489.765 764.689C503.974 764.689 516.73 757.731 525.516 746.66C532.483 766.953 549.908 781.347 570.329 781.347C584.078 781.347 596.467 774.825 605.217 764.357C612.055 768.573 619.885 770.983 628.23 770.983C650.875 770.983 669.845 753.286 674.936 729.462C681.774 750.046 699.347 764.689 719.933 764.689C746.476 764.689 768 740.367 768 710.374C768 681.94 748.663 658.635 724.032 656.267H724.069Z" fill="url(#paint0_linear_0_5)"/>
<path d="M341.767 381.794H325.232V717H341.767V381.794Z" fill="url(#paint1_linear_0_5)"/>
<path d="M373.257 279.878H275.76V717H373.257V279.878Z" fill="url(#paint2_linear_0_5)"/>
<path d="M363.088 279.878H285.89V717H363.088V279.878Z" fill="url(#paint3_linear_0_5)"/>
<path d="M351.833 279.878H297.224V717H351.833V279.878Z" fill="url(#paint4_linear_0_5)"/>
<path d="M345.274 279.878H303.744V717H345.274V279.878Z" fill="url(#paint5_linear_0_5)"/>
<path d="M341.354 381.794H307.664V717H341.354V381.794Z" fill="url(#paint6_linear_0_5)"/>
<path d="M336.929 381.794H312.128V717H336.929V381.794Z" fill="url(#paint7_linear_0_5)"/>
<path d="M303.744 304.733C288.49 307.308 209.623 330.29 207.061 418.12C175.7 316.672 223.712 249.327 267.958 234.851L303.705 304.733H303.744Z" fill="url(#paint8_linear_0_5)"/>
<path d="M345.273 304.733C360.527 307.308 439.395 330.29 441.956 418.12C473.317 316.672 425.305 249.327 381.059 234.851L345.312 304.733H345.273Z" fill="url(#paint9_linear_0_5)"/>
<path d="M250.609 329.47C272.538 312.419 296.098 306.02 303.744 304.733L267.997 234.851C257.207 238.402 246.146 245.113 236.093 254.672C239.625 281.478 244.787 306.606 250.609 329.47Z" fill="url(#paint10_linear_0_5)"/>
<path d="M412.924 254.672C402.872 245.113 391.849 238.363 381.02 234.851L345.273 304.733C352.92 306.02 376.44 312.419 398.408 329.47C404.23 306.606 409.392 281.478 412.924 254.672Z" fill="url(#paint11_linear_0_5)"/>
<path d="M381.059 395.528H267.997L272.344 350.15H376.673L381.059 395.528Z" fill="#2084B4"/>
<path d="M376.673 350.15H359.052L363.438 395.528H381.059L376.673 350.15Z" fill="url(#paint12_linear_0_5)"/>
<path d="M381.059 354.832H267.997L272.344 337.976H376.673L381.059 354.832Z" fill="#FFD057"/>
<path d="M361.691 354.832H381.059L376.673 337.976H357.888L361.691 354.832Z" fill="url(#paint13_linear_0_5)"/>
<path d="M265.552 79.2852C254.18 106.364 245.68 140.973 245.68 184.127C245.68 243.591 257.363 297.514 270.132 338.835H378.924C391.732 297.514 403.376 243.552 403.376 184.127C403.376 140.973 394.876 106.364 383.504 79.2852H265.552Z" fill="url(#paint14_linear_0_5)"/>
<path d="M280.844 79.2852H265.513C254.141 106.364 245.641 140.973 245.641 184.127C245.641 243.591 257.324 297.514 270.093 338.835H285.424C272.616 297.514 260.972 243.552 260.972 184.127C260.972 140.973 269.472 106.364 280.844 79.2852Z" fill="#F3F7FB"/>
<path d="M383.504 79.2852H361.187C372.559 106.364 381.059 140.973 381.059 184.127C381.059 243.591 369.376 297.514 356.607 338.835H378.924C391.732 297.514 403.376 243.552 403.376 184.127C403.376 140.973 394.876 106.364 383.504 79.2852Z" fill="url(#paint15_linear_0_5)"/>
<path d="M265.552 79.2852H383.504C360.139 23.7231 324.509 0 324.509 0C324.509 0 288.879 23.7231 265.552 79.2852Z" fill="url(#paint16_linear_0_5)"/>
<path d="M327.691 2.34109C335.221 16.1926 348.689 43.2323 361.226 79.2461H383.465C364.331 33.7118 336.89 9.55948 327.691 2.34109Z" fill="url(#paint17_linear_0_5)"/>
<path d="M324.509 215.459C350.039 215.459 370.735 194.653 370.735 168.988C370.735 143.323 350.039 122.517 324.509 122.517C298.979 122.517 278.283 143.323 278.283 168.988C278.283 194.653 298.979 215.459 324.509 215.459Z" fill="#FF8008"/>
<path d="M324.509 201.217C342.215 201.217 356.568 186.788 356.568 168.988C356.568 151.189 342.215 136.759 324.509 136.759C306.803 136.759 292.449 151.189 292.449 168.988C292.449 186.788 306.803 201.217 324.509 201.217Z" fill="url(#paint18_linear_0_5)"/>
<path d="M327.148 130.165C327.148 131.609 325.984 132.818 324.509 132.818C323.034 132.818 321.869 131.648 321.869 130.165C321.869 128.682 323.034 127.512 324.509 127.512C325.984 127.512 327.148 128.682 327.148 130.165Z" fill="#A66541"/>
<path d="M299.047 139.685C300.057 140.7 300.057 142.378 299.047 143.431C298.038 144.446 296.369 144.446 295.321 143.431C294.273 142.417 294.312 140.739 295.321 139.685C296.331 138.671 298 138.671 299.047 139.685Z" fill="#A66541"/>
<path d="M285.89 171.641C287.348 171.641 288.529 170.454 288.529 168.988C288.529 167.523 287.348 166.335 285.89 166.335C284.432 166.335 283.251 167.523 283.251 168.988C283.251 170.454 284.432 171.641 285.89 171.641Z" fill="#A66541"/>
<path d="M295.36 194.584C296.369 193.57 298.038 193.57 299.086 194.584C300.095 195.599 300.095 197.276 299.086 198.33C298.077 199.383 296.408 199.344 295.36 198.33C294.351 197.315 294.351 195.638 295.36 194.584Z" fill="#A66541"/>
<path d="M321.869 207.811C321.869 206.368 323.034 205.158 324.509 205.158C325.984 205.158 327.148 206.329 327.148 207.811C327.148 209.294 325.984 210.465 324.509 210.465C323.034 210.465 321.869 209.294 321.869 207.811Z" fill="#A66541"/>
<path d="M349.97 198.291C348.961 197.276 348.961 195.599 349.97 194.545C350.979 193.531 352.648 193.531 353.696 194.545C354.705 195.56 354.705 197.237 353.696 198.291C352.687 199.305 351.018 199.305 349.97 198.291Z" fill="#A66541"/>
<path d="M363.127 171.641C364.585 171.641 365.767 170.454 365.767 168.988C365.767 167.523 364.585 166.335 363.127 166.335C361.67 166.335 360.488 167.523 360.488 168.988C360.488 170.454 361.67 171.641 363.127 171.641Z" fill="#A66541"/>
<path d="M353.657 143.431C352.648 144.446 350.979 144.446 349.931 143.431C348.922 142.417 348.922 140.739 349.931 139.685C350.94 138.632 352.609 138.671 353.657 139.685C354.666 140.7 354.666 142.378 353.657 143.431Z" fill="#A66541"/>
<path d="M324.082 238.207H324.974C327.652 238.207 329.787 240.392 329.787 243.045V415.378C329.787 418.293 327.424 420.656 324.509 420.656C321.593 420.656 319.23 418.293 319.23 415.378V243.084C319.23 240.392 321.404 238.246 324.043 238.246L324.082 238.207Z" fill="url(#paint19_linear_0_5)"/>
<path d="M332.509 77C336.842 77.5 346.109 81.1 348.509 91.5" stroke="white" stroke-width="5" stroke-linecap="round"/>
<path d="M706.677 671.276C720.081 676.579 730.433 689.203 733.982 704.925C733.982 872.751 269.212 865.038 143.839 865.038C43.5395 865.038 28.7452 802.621 33.8854 771.412C33.8854 748.723 47.7307 729.694 66.3749 724.495C74.0974 715.822 84.7249 710.478 96.4557 710.478C98.1841 710.478 99.8941 710.602 101.567 710.831C101.88 710.79 102.211 710.748 102.523 710.706C107.359 690.014 124.018 674.749 143.839 674.749C154.521 674.749 164.285 679.199 171.768 686.52C179.123 671.962 192.986 662.146 208.873 662.146C210.675 662.146 212.44 662.292 214.186 662.541C221.1 657.072 229.503 653.869 238.586 653.869C255.612 653.869 270.303 665.12 277.18 681.425C281.041 682.444 284.718 684.066 288.101 686.187C295.548 679.054 305.183 674.749 315.7 674.749C319.911 674.749 323.993 675.456 327.835 676.745C335.595 667.74 346.443 662.146 358.431 662.146C368.323 662.146 377.406 665.952 384.651 672.316C385.404 671.962 386.177 671.629 386.949 671.317C394.745 659.567 407.156 651.956 421.148 651.956C436.814 651.956 450.494 661.501 457.94 675.706C459.65 675.31 461.416 675.04 463.199 674.894C468.513 669.363 475.077 665.349 482.358 663.415C489.805 656.261 499.826 651.956 509.957 651.956C520.088 651.956 529.373 655.928 536.691 662.583C543.623 657.093 552.062 653.848 561.182 653.848C571.019 653.848 580.084 657.633 587.31 663.955C594.573 649.023 608.62 638.895 624.764 638.895C625.28 638.895 625.779 638.915 626.294 638.935L626.345 638.937C631.383 618.577 647.895 603.645 667.495 603.645C691.085 603.645 710.226 625.274 710.226 651.977C710.226 658.839 708.957 665.37 706.677 671.276Z" fill="url(#paint20_linear_0_5)"/>
<defs>
<linearGradient id="paint0_linear_0_5" x1="384" y1="538" x2="384" y2="793.789" gradientUnits="userSpaceOnUse">
<stop stop-color="#2084B4"/>
<stop offset="0.863058" stop-color="#2084B4" stop-opacity="0"/>
</linearGradient>
<linearGradient id="paint1_linear_0_5" x1="333.5" y1="717" x2="333.5" y2="381.794" gradientUnits="userSpaceOnUse">
<stop stop-color="white" stop-opacity="0"/>
<stop offset="0.15" stop-color="white" stop-opacity="0.01"/>
<stop offset="0.28" stop-color="white" stop-opacity="0.06"/>
<stop offset="0.4" stop-color="white" stop-opacity="0.13"/>
<stop offset="0.51" stop-color="white" stop-opacity="0.22"/>
<stop offset="0.63" stop-color="white" stop-opacity="0.35"/>
<stop offset="0.74" stop-color="white" stop-opacity="0.51"/>
<stop offset="0.85" stop-color="white" stop-opacity="0.69"/>
<stop offset="0.96" stop-color="white" stop-opacity="0.9"/>
<stop offset="1" stop-color="white"/>
</linearGradient>
<linearGradient id="paint2_linear_0_5" x1="324.509" y1="279.878" x2="324.509" y2="717" gradientUnits="userSpaceOnUse">
<stop stop-color="#FFC220"/>
<stop offset="1" stop-color="#FFC220" stop-opacity="0"/>
</linearGradient>
<linearGradient id="paint3_linear_0_5" x1="324.489" y1="279.878" x2="324.489" y2="717" gradientUnits="userSpaceOnUse">
<stop stop-color="#FFA95A"/>
<stop offset="1" stop-color="#FFA95A" stop-opacity="0"/>
</linearGradient>
<linearGradient id="paint4_linear_0_5" x1="324.528" y1="279.878" x2="324.528" y2="717" gradientUnits="userSpaceOnUse">
<stop stop-color="#FC9231"/>
<stop offset="1" stop-color="#FC9231" stop-opacity="0"/>
</linearGradient>
<linearGradient id="paint5_linear_0_5" x1="324.509" y1="279.878" x2="324.509" y2="717" gradientUnits="userSpaceOnUse">
<stop stop-color="#FFA95A"/>
<stop offset="1" stop-color="#FFA95A" stop-opacity="0"/>
</linearGradient>
<linearGradient id="paint6_linear_0_5" x1="324.509" y1="381.794" x2="324.509" y2="717" gradientUnits="userSpaceOnUse">
<stop stop-color="#FFC220"/>
<stop offset="1" stop-color="#FFC220" stop-opacity="0"/>
</linearGradient>
<linearGradient id="paint7_linear_0_5" x1="324.509" y1="717" x2="324.509" y2="381.794" gradientUnits="userSpaceOnUse">
<stop stop-color="#9F28BC" stop-opacity="0"/>
<stop offset="0.1" stop-color="#AA42B5" stop-opacity="0.12"/>
<stop offset="0.44" stop-color="#CE91A2" stop-opacity="0.49"/>
<stop offset="0.71" stop-color="#E8CC94" stop-opacity="0.77"/>
<stop offset="0.9" stop-color="#F8F18B" stop-opacity="0.94"/>
<stop offset="1" stop-color="#FFFF88"/>
</linearGradient>
<linearGradient id="paint8_linear_0_5" x1="250.372" y1="234.851" x2="250.372" y2="418.12" gradientUnits="userSpaceOnUse">
<stop stop-color="#FF8008"/>
<stop offset="1" stop-color="#FF8008" stop-opacity="0"/>
</linearGradient>
<linearGradient id="paint9_linear_0_5" x1="398.645" y1="234.851" x2="398.645" y2="418.12" gradientUnits="userSpaceOnUse">
<stop stop-color="#FF8008"/>
<stop offset="1" stop-color="#FF8008" stop-opacity="0"/>
</linearGradient>
<linearGradient id="paint10_linear_0_5" x1="269.918" y1="234.851" x2="269.918" y2="329.47" gradientUnits="userSpaceOnUse">
<stop stop-color="#E47604" stop-opacity="0"/>
<stop offset="1" stop-color="#D56C00"/>
</linearGradient>
<linearGradient id="paint11_linear_0_5" x1="379.099" y1="234.851" x2="379.099" y2="329.47" gradientUnits="userSpaceOnUse">
<stop stop-color="#E47604" stop-opacity="0"/>
<stop offset="1" stop-color="#D56C00"/>
</linearGradient>
<linearGradient id="paint12_linear_0_5" x1="359.009" y1="350" x2="370.055" y2="395.528" gradientUnits="userSpaceOnUse">
<stop stop-color="#024481"/>
<stop offset="1" stop-color="#024481" stop-opacity="0"/>
</linearGradient>
<linearGradient id="paint13_linear_0_5" x1="376.509" y1="342.5" x2="344.509" y2="346" gradientUnits="userSpaceOnUse">
<stop stop-color="#F1AF01"/>
<stop offset="1" stop-color="#F8B400" stop-opacity="0"/>
</linearGradient>
<linearGradient id="paint14_linear_0_5" x1="261.509" y1="79" x2="423.509" y2="351.5" gradientUnits="userSpaceOnUse">
<stop offset="0.4669" stop-color="white"/>
<stop offset="1" stop-color="#CFE0EF"/>
</linearGradient>
<linearGradient id="paint15_linear_0_5" x1="455.009" y1="246.5" x2="357.009" y2="190.5" gradientUnits="userSpaceOnUse">
<stop stop-color="#D9E6F2"/>
<stop offset="1" stop-color="#D9E6F2" stop-opacity="0"/>
</linearGradient>
<linearGradient id="paint16_linear_0_5" x1="290.509" y1="-7.85098e-07" x2="378.509" y2="79" gradientUnits="userSpaceOnUse">
<stop stop-color="#FFDAB7"/>
<stop offset="1" stop-color="#FF8008"/>
</linearGradient>
<linearGradient id="paint17_linear_0_5" x1="398.009" y1="57" x2="318.509" y2="67" gradientUnits="userSpaceOnUse">
<stop stop-color="#D47205"/>
<stop offset="1" stop-color="#D47205" stop-opacity="0"/>
</linearGradient>
<linearGradient id="paint18_linear_0_5" x1="324.509" y1="136.759" x2="324.509" y2="201.217" gradientUnits="userSpaceOnUse">
<stop stop-color="#FFF6D5"/>
<stop offset="0.96875" stop-color="#FDCA14"/>
<stop offset="1" stop-color="#FDC80E" stop-opacity="0"/>
</linearGradient>
<linearGradient id="paint19_linear_0_5" x1="296.509" y1="191" x2="324.509" y2="420.656" gradientUnits="userSpaceOnUse">
<stop stop-color="white"/>
<stop offset="1" stop-color="#FFC700"/>
</linearGradient>
<linearGradient id="paint20_linear_0_5" x1="383.685" y1="407.97" x2="371.216" y2="777.548" gradientUnits="userSpaceOnUse">
<stop stop-color="#B9D9E7"/>
<stop offset="1" stop-color="white"/>
</linearGradient>
</defs>
</svg>
