<svg width="283" height="276" viewBox="0 0 283 276" fill="none" xmlns="http://www.w3.org/2000/svg">
<path d="M163.189 188.66C112.998 210.152 81.9282 296.546 161.228 271.481C240.519 246.416 253.138 150.139 163.189 188.66Z" fill="#E0F0F8"/>
<path d="M54.1054 13.8566C-3.6472 43.5555 -33.0528 148.219 58.9631 111.794C150.979 75.3692 157.612 -39.3724 54.1054 13.8566Z" fill="#E0F0F8"/>
<path d="M82.7019 45.7226C22.4552 55.846 35.2843 85.9558 19.4818 122.877C3.67942 159.798 -21.9475 215.487 42.3642 247.722C106.676 279.966 170.655 266.416 187.591 211.373C204.526 156.34 294.246 136.718 281.054 94.9127C267.861 53.1069 224.331 21.9244 82.7019 45.7226Z" fill="#CFE9F8"/>
<g clip-path="url(#clip0_245_3020)">
<path d="M139.881 150.858V29.383C139.881 22.6116 144.621 19.8435 150.478 23.2521L227.327 67.7928C233.185 71.1785 237.925 79.4369 237.925 86.2084V207.683C237.925 214.454 233.185 217.222 227.327 213.814L150.478 169.273C144.621 165.887 139.881 157.629 139.881 150.858Z" fill="#D0E8F5"/>
<path d="M137.739 152.093V30.6184C137.739 23.8469 142.479 21.0789 148.336 24.4875L225.185 69.0281C231.042 72.4139 235.783 80.6723 235.783 87.4438V208.918C235.783 215.69 231.042 218.458 225.185 215.049L148.336 170.509C142.479 167.123 137.739 158.864 137.739 152.093Z" fill="white"/>
<path d="M223.909 92.5452C223.59 92.5452 223.271 92.4537 222.974 92.2936L177.052 65.6882C176.163 65.162 175.867 64.0411 176.368 63.1489C176.87 62.2567 178.009 61.9593 178.898 62.4626L224.82 89.068C225.709 89.5942 226.006 90.7151 225.504 91.6073C225.162 92.2021 224.547 92.5452 223.886 92.5452H223.909Z" fill="#D0E8F5"/>
<path d="M223.909 101.787C223.59 101.787 223.271 101.696 222.974 101.536L177.052 74.9302C176.163 74.4041 175.867 73.2831 176.368 72.3909C176.87 71.4988 178.009 71.2014 178.898 71.7046L224.82 98.3101C225.709 98.8362 226.006 99.9572 225.504 100.849C225.162 101.444 224.547 101.787 223.886 101.787H223.909Z" fill="#D0E8F5"/>
<path d="M195.033 182.542C194.714 182.542 194.395 182.45 194.099 182.29L148.176 155.685C147.288 155.158 146.991 154.037 147.493 153.145C147.994 152.253 149.134 151.956 150.023 152.459L195.945 179.064C196.834 179.591 197.13 180.711 196.629 181.604C196.287 182.198 195.672 182.542 195.011 182.542H195.033Z" fill="#D0E8F5"/>
<path d="M216.297 178.287L157.224 144.04C151.504 140.723 146.855 132.648 146.855 125.991V77.8584C146.855 71.2242 151.504 68.5248 157.224 71.8419L216.297 106.088C222.017 109.405 226.667 117.481 226.667 124.138V172.293C226.667 178.927 222.017 181.626 216.297 178.309V178.287Z" fill="#D0E8F5"/>
<path d="M160.005 140.06C159.777 140.06 159.526 139.991 159.321 139.854C158.751 139.465 158.592 138.71 158.979 138.138L170.055 121.37C170.26 121.072 170.579 120.866 170.944 120.821C171.309 120.775 171.673 120.889 171.947 121.164L185.006 133.631L212.742 110.366C213.266 109.931 214.041 110 214.497 110.526C214.93 111.052 214.861 111.83 214.337 112.288L185.758 136.262C185.279 136.674 184.573 136.651 184.117 136.217L171.332 124.023L161.076 139.557C160.848 139.923 160.438 140.106 160.05 140.106L160.005 140.06Z" fill="#467A93"/>
<path d="M116.908 107.438C116.908 109.794 115.358 112.173 112.236 113.98C105.992 117.595 95.8955 117.595 89.6509 113.98C86.5286 112.173 84.9789 109.794 84.9789 107.438C84.9789 105.081 86.5286 102.702 89.6509 100.895C95.8955 97.2806 105.992 97.2806 112.236 100.895C115.358 102.702 116.908 105.059 116.908 107.438Z" fill="#467A93"/>
<path d="M116.908 107.438V183.068C116.908 185.447 115.358 187.803 112.236 189.61C105.992 193.225 95.8955 193.225 89.6509 189.61C86.5286 187.803 84.9789 185.447 84.9789 183.068V107.438C84.9789 109.794 86.5286 112.173 89.6509 113.98C95.8955 117.595 105.992 117.595 112.236 113.98C115.358 112.173 116.908 109.794 116.908 107.438Z" fill="#325F75"/>
<path d="M87.3034 130.314C87.3034 132.671 85.7537 135.05 82.6314 136.857C76.3869 140.472 66.2907 140.472 60.0462 136.857C56.9239 135.05 55.3741 132.671 55.3741 130.314C55.3741 127.958 56.9239 125.579 60.0462 123.772C66.2907 120.157 76.3869 120.157 82.6314 123.772C85.7537 125.579 87.3034 127.935 87.3034 130.314Z" fill="#69AFCE"/>
<path d="M87.3034 130.314V200.225C87.3034 202.604 85.7537 204.961 82.6314 206.768C76.3869 210.382 66.2907 210.382 60.0462 206.768C56.9239 204.961 55.3741 202.604 55.3741 200.225V130.314C55.3741 132.671 56.9239 135.05 60.0462 136.857C66.2907 140.472 76.3869 140.472 82.6314 136.857C85.7537 135.05 87.3034 132.671 87.3034 130.314Z" fill="#599BB8"/>
<path d="M57.7217 170.348C57.7217 172.705 56.1719 175.084 53.0496 176.891C46.8051 180.505 36.7089 180.505 30.4644 176.891C27.3421 175.084 25.7924 172.705 25.7924 170.348C25.7924 167.992 27.3421 165.613 30.4644 163.806C36.7089 160.191 46.8051 160.191 53.0496 163.806C56.1719 165.613 57.7217 167.969 57.7217 170.348Z" fill="#A6D4ED"/>
<path d="M57.7217 170.348V217.382C57.7217 219.762 56.1719 222.118 53.0496 223.925C46.8051 227.54 36.7089 227.54 30.4644 223.925C27.3421 222.118 25.7924 219.762 25.7924 217.382V170.348C25.7924 172.705 27.3421 175.084 30.4644 176.891C36.7089 180.505 46.8051 180.505 53.0496 176.891C56.1719 175.084 57.7217 172.705 57.7217 170.348Z" fill="#85C4E7"/>
<path d="M102.55 97.4178V100.277L71.9428 119.539L71.7605 119.768L48.4003 149.096L48.1041 149.256L17.3599 167.077V164.217L45.6655 147.838L48.1041 146.397L48.4003 146.236L70.2107 118.853L71.7605 116.909L71.9428 116.68L100.203 98.9048L102.55 97.4178Z" fill="#325F75"/>
<path d="M120.486 81.1755V84.0351C120.486 84.1724 120.441 84.2867 120.372 84.424L109.957 106.957C109.273 108.467 106.014 108.971 104.123 107.85L75.6576 91.3556C74.9511 90.9438 74.6321 90.4405 74.6321 89.9373V87.0777C74.6321 87.581 74.9511 88.0843 75.6576 88.496L104.123 104.99C106.014 106.088 109.273 105.585 109.957 104.098L119.848 82.7083L120.372 81.5644C120.441 81.4272 120.463 81.2899 120.486 81.1755Z" fill="#325F75"/>
<path d="M120.486 80.9925V81.1984C120.486 81.3357 120.441 81.4501 120.372 81.5873L119.848 82.7311L109.957 104.121C109.273 105.631 106.014 106.134 104.123 105.013L75.6576 88.5189C74.9739 88.1071 74.6321 87.6039 74.6321 87.1006C74.6321 86.2313 75.5893 85.4077 77.2074 85.1332L116.111 79.0938C118.344 78.7506 120.418 79.7114 120.509 80.9697L120.486 80.9925Z" fill="#3493BD"/>
<path d="M102.55 97.4178L100.203 98.9048L71.9428 116.68L71.7605 116.909L59.2714 109.611L56.924 108.238L87.8049 88.7933L102.55 97.4178Z" fill="#3493BD"/>
<path d="M71.7604 116.909L70.2107 118.853L48.4003 146.236L48.104 146.397L34.9312 138.71L33.3586 137.795L56.9239 108.239L59.2713 109.611L71.7604 116.909Z" fill="#337B9E"/>
<path d="M48.1041 146.397L45.6655 147.838L17.3599 164.217L5.07586 157.057L2.6145 155.616L33.3587 137.795L34.9312 138.71L48.1041 146.397Z" fill="#3493BD"/>
<path d="M17.3599 164.217V167.077L2.6145 158.475V155.616L5.07586 157.057L17.3599 164.217Z" fill="#467A93"/>
<path d="M207.773 204.251V219.418C207.773 220.951 207.614 222.484 207.295 223.994V208.827C207.614 207.294 207.773 205.761 207.773 204.251Z" fill="#171A42"/>
<path d="M144.325 204.274H144.257H144.234L144.257 204.251V204.274H144.325Z" fill="#2E3192"/>
<path d="M207.773 197.892C207.773 199.424 207.614 200.957 207.295 202.467L144.279 197.892L143.163 161.106C159.777 160.923 176.505 164.515 189.176 171.881C201.574 179.064 207.773 188.489 207.773 197.892Z" fill="#467A93"/>
<path d="M207.272 202.467V219.281L202.463 219.03L146.558 216.033L144.257 215.895V197.892L207.272 202.467Z" fill="#325F75"/>
<path d="M143.163 161.083L143.14 212.83L144.257 215.895V197.892L143.163 161.083Z" fill="#171A42"/>
<path d="M207.773 197.892V204.274C207.773 205.807 207.614 207.34 207.295 208.849V202.467C207.614 200.934 207.773 199.401 207.773 197.892Z" fill="#171A42"/>
<path d="M207.272 208.849V224.017C205.586 231.863 199.546 239.435 189.176 245.452C178.625 251.583 165.269 255.083 151.481 255.998V240.831C165.247 239.916 178.602 236.416 189.176 230.285C192.846 228.157 195.991 225.824 198.566 223.376C202.349 219.762 204.97 215.873 206.429 211.846C206.793 210.863 207.067 209.856 207.295 208.849H207.272Z" fill="#599BB8"/>
<path d="M207.272 208.849C207.067 209.856 206.771 210.863 206.406 211.846C204.947 215.873 202.349 219.762 198.543 223.376C195.968 225.847 192.823 228.157 189.154 230.285C178.602 236.393 165.247 239.916 151.458 240.831L148.701 226.945L147.242 219.647L144.188 204.274H144.279L183.274 207.111L204.947 208.689L207.204 208.849H207.272Z" fill="#69AFCE"/>
<path d="M95.5765 227.906V243.05C88.8078 238.383 84.3636 232.984 82.2441 227.334V212.19C84.0902 217.062 87.6683 221.775 92.9784 225.984C93.7989 226.648 94.6649 227.288 95.5993 227.906H95.5765Z" fill="#325F75"/>
<path d="M144.211 204.297L143.801 204.503L114.059 218.938L101.889 224.84L95.5765 227.906C94.6649 227.265 93.7988 226.625 92.9556 225.984C87.6454 221.775 84.0673 217.085 82.2213 212.19L105.787 209.193L143.778 204.366L144.188 204.32L144.211 204.297Z" fill="#337B9E"/>
<path d="M82.2441 212.167V227.311C81.2641 224.703 80.7627 222.049 80.7627 219.395V204.251C80.7627 206.791 81.2185 209.33 82.1301 211.823C82.1757 211.938 82.1985 212.052 82.2441 212.167Z" fill="#D1D9E8"/>
<path d="M144.257 204.251H144.234L143.824 204.32L105.832 209.147L82.2669 212.144C82.2213 212.029 82.1757 211.915 82.1529 211.801C81.2413 209.307 80.7855 206.768 80.7855 204.228C80.7855 194.826 86.9845 185.401 99.3825 178.218C111.507 171.195 127.301 167.603 143.186 167.443L143.596 181.42L143.641 182.587L144.302 204.228L144.257 204.251Z" fill="#EDF4FF"/>
<path d="M151.481 240.831C150.501 240.9 149.498 240.945 148.496 240.991C135.528 241.494 122.355 239.71 110.914 235.615C106.812 234.151 102.915 232.367 99.3596 230.308C98.015 229.53 96.7615 228.729 95.5764 227.906L101.889 224.84L114.059 218.938L143.801 204.503L144.211 204.297L147.265 219.647L148.724 226.945L151.481 240.831Z" fill="#3493BD"/>
<path d="M151.481 240.831V255.998C132.907 257.234 113.604 253.711 99.3596 245.452C98.015 244.674 96.7615 243.874 95.5764 243.05V227.906C96.7615 228.729 98.015 229.53 99.3596 230.308C102.915 232.367 106.812 234.151 110.914 235.615C122.355 239.71 135.528 241.517 148.496 240.991C149.498 240.968 150.478 240.9 151.481 240.831Z" fill="#237AA0"/>
</g>
<defs>
<clipPath id="clip0_245_3020">
<rect width="235.31" height="234.439" fill="white" transform="translate(2.6145 21.788)"/>
</clipPath>
</defs>
</svg>
