<svg width="116" height="119" viewBox="0 0 116 119" fill="none" xmlns="http://www.w3.org/2000/svg">
<g clip-path="url(#clip0_124_8847)">
<path d="M72.1646 90.8662C72.1646 90.8662 74.6049 88.0027 72.3024 86.1952C72.3024 86.1952 70.6217 85.1836 69.2537 85.2703C69.2537 85.2703 71.2012 88.5162 70.575 88.8416C69.9488 89.1669 68.6652 85.068 68.6652 85.068C68.6652 85.068 64.845 84.7086 63.6186 85.3022C63.6186 85.3022 66.8904 87.9649 66.2034 88.1257C65.5164 88.2865 61.983 85.6742 61.983 85.6742C61.983 85.6742 58.4303 86.2886 58.626 88.4569C58.8216 90.6246 60.0481 91.2908 60.5861 91.2315C61.1241 91.1722 64.27 89.9621 64.3396 90.4023C64.4093 90.8432 62.5181 92.2898 61.1908 92.3609C61.1908 92.3609 63.7045 95.1177 65.3675 94.3151C67.0304 93.5133 67.1698 92.2483 68.2065 91.771C69.2433 91.2938 70.1296 91.293 69.702 91.7777C69.2744 92.2623 67.3973 92.7374 66.8066 93.7897C66.216 94.8413 65.6854 95.5512 67.4076 95.2874C69.1299 95.0236 71.9274 93.7549 72.046 92.3105L72.1653 90.8662H72.1646Z" fill="#A4D1E8"/>
<path d="M60.3718 88.5103C60.3718 88.5103 70.0243 88.1116 72.1645 90.8669C72.1645 90.8669 72.6403 92.2779 74.0942 93.5592L74.3217 94.1751C74.3217 94.1751 72.644 92.4158 72.0452 92.3105C72.0452 92.3105 72.9715 88.8875 60.3718 88.5103Z" fill="#C8DBF4"/>
<path d="M74.0938 93.5592C74.0938 93.5592 76.1703 95.0858 76.3214 97.8233L75.9457 97.8582C75.9457 97.8582 75.2758 95.0287 74.0767 93.9246C72.8777 92.8204 74.0938 93.5585 74.0938 93.5585V93.5592Z" fill="#C8DBF4"/>
<path d="M85.1108 83.317C85.1108 83.317 81.2099 81.1464 83.0195 78.1813C83.0195 78.1813 84.4683 76.3598 86.0253 75.8877C86.0253 75.8877 85.2064 80.3045 86.0379 80.406C86.8694 80.5076 86.5952 75.4194 86.5952 75.4194C86.5952 75.4194 90.6926 73.4348 92.3029 73.586C92.3029 73.586 89.77 77.9034 90.6007 77.7975C91.4314 77.6915 94.2757 73.3214 94.2757 73.3214C94.2757 73.3214 98.4798 72.5307 99.1616 75.0214C99.8433 77.5122 98.7562 78.7616 98.1337 78.9195C97.5112 79.0766 93.5124 79.0358 93.6176 79.5553C93.7228 80.074 96.4255 80.8981 97.9306 80.4261C97.9306 80.4261 96.2803 84.5331 94.0986 84.3315C91.9168 84.1299 91.238 82.7812 89.8878 82.6811C88.5376 82.5811 87.5519 82.9472 88.2278 83.3088C88.9037 83.6705 91.1884 83.42 92.2815 84.3441C93.3745 85.2682 94.2586 85.8374 92.2348 86.2583C90.2109 86.6792 86.5745 86.4295 85.843 84.874L85.1116 83.3177L85.1108 83.317Z" fill="#A4D1E8"/>
<path d="M97.2421 75.8047C97.2421 75.8047 86.3461 79.3663 85.1108 83.3162C85.1108 83.3162 85.1678 85.0814 84.0822 87.1097L84.0844 87.8886C84.0844 87.8886 85.2197 85.237 85.8415 84.8717C85.8415 84.8717 83.3915 81.4509 97.2414 75.804L97.2421 75.8047Z" fill="#C8DBF4"/>
<path d="M84.0831 87.1105C84.0831 87.1105 82.4082 89.6687 83.3761 92.7753L83.8081 92.6582C83.8081 92.6582 83.379 89.2352 84.2535 87.5107C85.1287 85.7862 84.0831 87.1113 84.0831 87.1113V87.1105Z" fill="#C8DBF4"/>
<path d="M78.9059 80.3259C78.9059 80.3259 84.0318 77.4365 81.6256 73.5414C81.6256 73.5414 79.7025 71.1507 77.6468 70.5401C77.6468 70.5401 78.7584 76.356 77.6631 76.4953C76.5685 76.6354 76.8916 69.9257 76.8916 69.9257C76.8916 69.9257 71.4766 67.3394 69.3549 67.5506C69.3549 67.5506 72.7246 73.2227 71.6293 73.0893C70.5332 72.9552 66.753 67.2156 66.753 67.2156C66.753 67.2156 61.2054 66.2041 60.3243 69.4922C59.4431 72.7803 60.8852 74.4196 61.7078 74.6226C62.5297 74.8257 67.8009 74.7427 67.666 75.4274C67.5312 76.1122 63.974 77.2171 61.9872 76.6065C61.9872 76.6065 64.1926 82.0081 67.0673 81.7265C69.9419 81.4449 70.8267 79.6627 72.606 79.5204C74.3853 79.3788 75.6874 79.8538 74.7989 80.3355C73.9103 80.8172 70.8971 80.503 69.4631 81.7295C68.0292 82.956 66.8672 83.7119 69.5387 84.2521C72.2103 84.7923 77.0013 84.4366 77.9536 82.3809L78.9066 80.3244L78.9059 80.3259Z" fill="#A4D1E8"/>
<path d="M62.8622 70.5127C62.8622 70.5127 77.2508 75.1281 78.9079 80.326C78.9079 80.326 78.8456 82.6537 80.2907 85.3193L80.2936 86.3464C80.2936 86.3464 78.7782 82.8597 77.9556 82.3824C77.9556 82.3824 81.1607 77.8552 62.8629 70.5127H62.8622Z" fill="#D4E4F8"/>
<path d="M80.2913 85.3192C80.2913 85.3192 82.5175 88.68 81.2651 92.781L80.6944 92.6291C80.6944 92.6291 81.2354 88.1138 80.0697 85.8469C78.9033 83.5799 80.292 85.3185 80.292 85.3185L80.2913 85.3192Z" fill="#D4E4F8"/>
<path d="M112.378 116.551L70.2249 116.656C63.9547 109.477 63.3166 99.7724 71.6462 91.6007C72.6934 90.5728 74.7024 89.8443 76.8678 89.3315C80.86 88.3851 85.3864 88.1688 85.4213 88.1502C85.4346 88.145 87.8142 86.2175 89.2459 84.4849C93.6953 79.1032 97.4777 79.5671 97.4777 79.5671C102.011 78.6868 105.877 78.4296 108.743 80.0259C108.743 80.0259 108.743 80.0264 108.744 80.0273C111.398 81.5087 113.194 84.5827 113.865 90.2304C113.993 91.2983 114.079 92.4588 114.124 93.7171C114.286 98.3007 115.188 102.378 115.723 105.831C115.724 105.831 115.724 105.831 115.724 105.831C116.499 110.833 116.504 114.524 112.377 116.551H112.378Z" fill="#4B8EAF"/>
<path d="M106.495 85.6826C103.744 87.1795 103.438 92.1151 99.132 93.3875C94.8272 94.6607 87.5195 94.5413 83.3732 99.0352C79.3729 103.371 74.9672 92.3337 76.8673 89.2308C80.8594 88.2845 85.3859 88.0681 85.4207 88.0496C85.4341 88.0444 87.8137 86.1169 89.2454 84.3842C93.6948 79.0026 97.4772 79.4665 97.4772 79.4665C102.01 78.5861 105.877 78.3289 108.742 79.9259C108.742 79.9259 108.742 79.9264 108.743 79.9274C110.197 81.5148 109.245 84.1864 106.494 85.6833L106.495 85.6826Z" fill="#327393"/>
<path d="M89.6095 87.0951C89.6095 87.0951 75.8071 86.9135 73.9692 88.0896C72.1314 89.2657 75.8649 107.958 75.8649 107.958C75.8649 107.958 79.4346 108.061 79.7162 107.117C79.7162 107.117 79.05 98.3549 79.608 96.8401C80.1661 95.3247 79.8133 93.2274 79.8133 93.2274C79.8133 93.2274 86.7979 94.2731 89.0137 93.7432C91.2295 93.2126 89.6103 87.0951 89.6103 87.0951H89.6095Z" fill="#123749"/>
<path d="M92.8025 77.4336C92.8018 77.4447 90.8602 81.9608 89.9138 82.4418C88.9675 82.9227 85.5393 86.8608 84.8049 86.7926C84.0697 86.7237 85.6645 87.3899 85.6645 87.3899C85.6645 87.3899 91.6553 84.6287 92.0036 84.456C92.3519 84.2833 94.1868 81.2649 94.4388 79.7331C94.6907 78.2006 92.8032 77.4336 92.8032 77.4336H92.8025Z" fill="#FFB27D"/>
<path d="M80.1567 109.351C79.6964 110.239 79.5927 111.871 79.4563 112.425C79.32 112.978 76.9078 114.86 76.7003 114.765C76.1727 114.527 76.6766 113.608 76.9989 112.936C77.0123 112.909 77.0241 112.882 77.0367 112.856C77.3547 112.179 77.0812 110.667 77.2457 109.887C77.4102 109.106 76.6188 107.005 76.6188 107.005L77.9512 105.322C77.9512 105.322 78.8879 107.103 79.5579 107.428C79.6764 107.485 79.7869 107.554 79.8847 107.636C80.339 108.01 80.5353 108.622 80.1574 109.352L80.1567 109.351Z" fill="#FFB27D"/>
<path d="M75.4717 114.55C74.5483 114.931 73.416 116.112 72.9543 116.446C72.4926 116.78 69.4357 116.661 69.3379 116.456C69.0785 115.914 70.1471 115.527 70.8267 115.214C70.837 115.21 70.8467 115.204 70.8563 115.2L70.8585 115.199C71.5307 114.861 72.2821 113.563 72.9024 113.08C73.5316 112.59 74.2823 110.474 74.2823 110.474L76.3862 110.047C76.3862 110.047 75.9527 112.013 76.2558 112.693C76.2839 112.757 76.3084 112.823 76.3284 112.887C76.5211 113.519 76.3084 114.204 75.4717 114.55Z" fill="#FFB27D"/>
<path d="M96.7686 75.4283C96.4877 75.1037 100.926 73.7653 101.872 77.4077C101.872 77.4077 110.041 75.2356 105.02 71.5962C103.281 70.3364 103.107 68.9921 102.855 67.7619C102.604 66.5317 100.869 62.9961 97.8587 64.751C97.8587 64.751 96.4833 64.7569 95.6133 65.5106C93.6339 67.2254 91.4699 78.1258 96.7693 75.4276L96.7686 75.4283Z" fill="#163560"/>
<path d="M95.3769 87.7354C95.3769 87.7354 81.0639 89.1901 79.8063 90.6507C78.5487 92.1114 73.6028 111.109 73.6028 111.109C73.6028 111.109 75.0634 111.923 76.3907 111.162C76.3907 111.162 80.1776 104.718 81.8531 102.695C83.5287 100.671 84.1564 94.425 84.4328 94.3613C84.7092 94.2975 93.6784 95.6137 96.7672 93.243C99.856 90.8723 95.3762 87.7354 95.3762 87.7354H95.3769Z" fill="#174962"/>
<path d="M103.348 74.748C103.348 74.748 99.9341 73.2229 95.6047 73.9195C94.7199 74.0618 93.9232 74.3531 93.2904 75.395C92.3966 76.8668 91.9779 77.6575 91.9779 77.6575C91.9779 77.6575 92.0639 78.34 93.2852 78.8832C92.9524 80.1038 93.589 82.2351 93.0021 83.0629C92.4159 83.8899 88.778 85.9404 88.5979 87.0817C88.2674 89.1774 94.8133 92.9777 96.7652 92.5723C102.383 91.4051 106.2 76.3547 103.347 74.7488L103.348 74.748Z" fill="white"/>
<path d="M101.416 70.4297C101.416 70.4297 102.09 69.1054 102.179 68.019C102.242 67.2431 101.587 64.4523 98.7839 65.1266C98.7839 65.1266 97.9665 65.286 97.2395 65.8825C96.6615 66.3576 95.8559 67.341 97.0839 69.7146L97.4211 70.5239L101.416 70.429V70.4297Z" fill="#163560"/>
<path d="M97.5721 74.8962C97.2882 75.1949 97.4001 76.1894 98.7267 76.1146C99.5974 76.0657 101.464 74.9889 101.29 74.2448C101.207 73.8914 100.538 72.9791 100.38 70.8796L100.222 70.9241L97.5632 71.6711C97.5632 71.6711 97.6914 72.5159 97.7559 73.317C97.8107 73.9892 97.6892 74.7725 97.5721 74.8962Z" fill="#FFB27D"/>
<path d="M97.5631 71.6718C97.5631 71.6718 97.6913 72.5166 97.7558 73.3177C99.2639 73.1562 99.9546 71.7148 100.221 70.9248L97.5624 71.6718H97.5631Z" fill="#F4A269"/>
<path d="M97.5067 72.9005C97.5067 72.9005 100.986 72.026 100.407 69.8673C99.8292 67.7093 99.8885 66.1427 97.643 66.6103C95.3976 67.0779 95.1886 68.0161 95.2064 68.7839C95.2242 69.5509 96.587 73.0724 97.5067 72.9005Z" fill="#FFB27D"/>
<path d="M96.051 66.9822C96.051 66.9822 97.219 69.2077 99.4222 69.4478C100.712 69.5878 101.065 70.4378 101.065 70.4378C101.065 70.4378 100.678 68.0086 100.031 66.5228C100.031 66.5228 96.4423 65.5846 96.051 66.9822Z" fill="#163560"/>
<path d="M96.4504 67.2764C96.4504 67.2764 95.6885 68.0538 95.4536 68.6022C95.1053 69.4137 95.7841 71.1241 96.0643 71.4924C96.0643 71.4924 94.4458 68.746 94.9867 67.5566C95.5603 66.2952 96.4504 67.2764 96.4504 67.2764Z" fill="#163560"/>
<path d="M85.8394 87.3098C85.8394 87.3098 85.1465 88.0434 85.062 88.0827C84.604 88.2969 84.0252 88.1724 83.7459 88.2428C83.4665 88.3132 83.5146 88.139 83.7207 87.9975C83.9267 87.8559 84.4343 87.9115 84.2268 87.8604C84.0193 87.8093 82.8995 87.6003 82.4779 87.7129C81.8102 87.8915 81.284 87.6818 81.2418 87.6136C81.2003 87.5454 82.7662 86.7799 83.213 86.8058C83.6606 86.8318 84.9471 86.7703 84.9471 86.7703L85.8394 87.3105V87.3098Z" fill="#FFB27D"/>
<path d="M104.526 76.1013C104.526 76.1013 104.942 86.3051 103.742 87.7354C102.551 89.156 95.2504 87.5775 95.2504 87.5775L94.7443 86.832C94.7443 86.832 101.225 85.8835 101.66 85.7604C102.285 85.5833 101.85 78.5572 101.85 78.5572L104.526 76.1013Z" fill="#FFB27D"/>
<path d="M102.915 74.5879C103.019 74.5909 104.308 75.014 105.235 76.8482C106.144 78.6497 106.476 79.5242 106.476 79.5242C106.476 79.5242 102.439 82.6515 100.834 81.4999C99.2291 80.3475 101.435 74.5501 102.915 74.5886V74.5879Z" fill="white"/>
<path d="M95.2495 87.5773C95.2495 87.5773 94.6685 88.1657 94.4476 88.4666C94.2268 88.7667 92.6824 89.3114 92.6476 89.1513C92.6127 88.9905 93.3383 88.4999 93.4042 88.3176C93.4702 88.1353 94.2616 87.2164 94.7433 87.1119C95.2258 87.0074 95.2495 87.5773 95.2495 87.5773Z" fill="#FFB27D"/>
<path d="M94.7435 86.8318C94.7435 86.8318 92.3625 87.3824 91.9586 87.5477C91.5547 87.7129 90.6973 88.9253 91.0374 89.1076C91.2523 89.2225 92.192 88.7267 92.6685 88.6229C93.1458 88.5192 94.4967 88.7541 95.1148 87.5328C95.1844 87.395 94.7428 86.8318 94.7428 86.8318H94.7435Z" fill="#FFB27D"/>
<path d="M75.4717 114.55C74.5483 114.931 73.416 116.112 72.9543 116.446C72.4926 116.78 69.4357 116.661 69.3379 116.456C69.0785 115.914 70.1471 115.527 70.8267 115.214C70.837 115.21 70.8467 115.205 70.8563 115.2L70.8585 115.199L70.9541 115.167C70.9541 115.167 72.2725 115.638 73.3685 115.167C74.2237 114.801 75.4917 113.441 76.3276 112.887C76.5203 113.519 76.3076 114.204 75.471 114.55H75.4717Z" fill="#2E3552"/>
<path d="M80.1567 109.352C79.6964 110.239 79.5927 111.871 79.4563 112.425C79.32 112.978 76.9078 114.86 76.7003 114.765C76.1727 114.527 76.6766 113.608 76.9989 112.936C77.1887 112.924 77.4399 112.859 77.7356 112.662C78.3381 112.26 79.3607 110.744 79.4526 109.85C79.5267 109.12 79.4801 108.076 79.8854 107.635C80.3397 108.009 80.5361 108.622 80.1581 109.352H80.1567Z" fill="#2E3552"/>
<path d="M91.6726 89.4153H81.3013L78.1814 81.657H88.5364L91.6726 89.4153Z" fill="#4B8EAF"/>
<path d="M81.1803 89.1128H94.8753V89.4152H81.3018L81.1803 89.1128Z" fill="#2A6886"/>
<path d="M83.919 85.5365C83.8411 85.2638 83.9983 85.043 84.271 85.043C84.5437 85.043 84.8282 85.2638 84.9061 85.5365C84.9839 85.8092 84.8268 86.0301 84.5541 86.0301C84.2813 86.0301 83.9968 85.8092 83.919 85.5365Z" fill="white"/>
<path d="M103.546 89.3679C103.546 89.3679 102.19 90.6381 96.5159 90.8182C90.8415 90.9983 83.4427 97.2655 83.373 99.0359C83.3033 100.806 94.7959 103.5 94.9737 103.247C95.1516 102.994 102.264 96.889 102.264 96.889L103.546 89.3694V89.3679Z" fill="#59A0C4"/>
<path d="M115.723 105.731C112.669 100.23 105.693 107.816 103.959 105.25C102.225 102.683 106.41 99.4256 110.185 96.6185C113.883 93.8691 113.868 90.2749 113.865 90.1296C113.993 91.1975 114.08 92.358 114.124 93.6164C114.286 98.1999 115.188 102.277 115.723 105.73V105.731Z" fill="#327393"/>
<path d="M84.1263 30.6547C84.1706 38.115 81.5516 44.9627 77.166 50.304C73.3893 54.9027 71.2611 60.6361 71.2611 66.589V75.1683C71.2611 77.5945 70.3755 79.827 68.9105 81.553C67.227 83.54 64.763 84.8832 62.0148 85.0695C61.7925 85.0843 61.5849 85.0695 61.3589 85.0695H45.5149C45.3018 85.0695 45.0712 85.0834 44.8618 85.0695C39.7096 84.7393 35.6155 80.4007 35.6155 75.1692V66.6047C35.6155 60.6638 33.5186 54.9276 29.7401 50.3418C25.3738 45.0411 22.7502 38.2469 22.7502 30.841C22.7502 13.8171 36.5703 0.151123 53.4392 0.151123C70.3081 0.151123 84.0276 13.7286 84.1273 30.6547H84.1263Z" fill="url(#paint0_linear_124_8847)"/>
<path d="M62.0153 85.0686C61.936 85.683 60.5993 95.9403 60.5864 96.0381C60.3659 97.7309 58.4305 99.0233 56.1168 99.0233H50.9028C48.6113 99.0233 46.6787 97.7512 46.436 96.0695C46.1833 94.3001 45.2119 87.5188 44.8613 85.0686H62.0144H62.0153Z" fill="#2A6886"/>
<path d="M59.9441 85.0686H56.9977C52.2421 86.4441 47.5254 87.802 45.34 88.4191L45.4544 89.2208L45.4571 89.2383L45.5734 90.0501C47.3436 89.5603 51.5918 88.3426 61.9792 85.3324L62.0133 85.0686H59.9441Z" fill="#4B8EAF"/>
<path d="M46.1312 93.9404V93.9423L46.1331 93.9598V93.9617L46.2512 94.7762C48.2982 94.2015 52.5205 92.9903 61.3138 90.4414L61.4301 89.5567V89.5493L61.5445 88.6702C55.9873 90.279 49.2613 92.2218 46.0168 93.1443L46.1312 93.9414V93.9404Z" fill="#4B8EAF"/>
<path d="M48.0878 98.2945L48.1164 98.3111C48.4817 98.5242 48.8894 98.6958 49.3304 98.8157H49.3322C51.7446 98.1248 55.3239 97.0906 60.6486 95.5482L60.763 94.6617L60.7648 94.6543L60.8792 93.7751C56.1237 95.1515 50.668 96.7281 47.2981 97.6921C47.526 97.9172 47.7907 98.1192 48.0878 98.2936V98.2945Z" fill="#4B8EAF"/>
<path d="M47.2331 85.0685L40.6012 45.922L41.9702 45.6904L48.6399 85.0685H47.2331Z" fill="white"/>
<path d="M59.0287 85.0684H57.6127L64.7141 46.301L66.0794 46.5501L59.0287 85.0684Z" fill="white"/>
<path d="M57.1011 52.9284C56.9231 52.9284 56.7248 52.9063 56.5015 52.8556C56.1297 52.7707 55.8945 52.5142 55.8216 52.1111C55.663 51.2439 56.3438 49.6526 57.2995 48.3039C56.8004 47.4321 56.1353 46.7126 55.4379 46.5013C54.4074 46.1886 52.8263 47.1406 51.7248 48.3556C51.9259 48.6416 52.1076 48.9386 52.2663 49.2384C52.8299 50.3039 53.2358 51.6655 52.6814 52.2956C52.4757 52.529 52.056 52.7412 51.2239 52.4266C50.1842 52.0345 49.8106 51.1535 50.198 50.0096C50.3881 49.4487 50.7386 48.8666 51.1842 48.3251C50.3309 47.2126 49.1916 46.3676 48.0689 46.5087C47.4683 46.5844 46.9545 46.7947 46.5265 47.0908C47.2451 48.4275 47.4102 50.1231 46.9121 51.0336C46.5726 51.6535 45.9794 51.8491 45.2423 51.588C44.7128 51.3998 44.4361 50.6701 44.5375 49.731C44.6418 48.7689 45.1224 47.7154 45.9776 46.9838C45.7543 46.636 45.4868 46.327 45.1796 46.089C43.2451 44.5871 41.6446 46.1988 41.5782 46.2689L41.2765 45.9764C41.2959 45.9571 43.2101 44.0281 45.4379 45.7578C45.7755 46.0198 46.068 46.3537 46.3124 46.7292C46.7875 46.4063 47.3549 46.1775 48.0172 46.0936C49.2765 45.9358 50.532 46.8233 51.4646 48.0059C52.663 46.7043 54.3696 45.7421 55.5606 46.101C56.3133 46.3288 57.0227 47.0548 57.5652 47.9488C58.0707 47.2938 58.6334 46.7227 59.1805 46.3602C60.0568 45.7799 60.6288 45.9128 60.9526 46.1268C61.2856 46.3454 61.5698 46.6406 61.8041 46.9783C62.0679 46.7689 62.3447 46.5899 62.6196 46.4534C63.6352 45.9469 64.5679 45.9847 65.2459 46.5576L64.9747 46.8786C64.2441 46.2596 63.3022 46.5825 62.8068 46.8298C62.5347 46.9654 62.2709 47.1379 62.0255 47.3353C62.7017 48.5548 62.8327 50.1434 62.4452 50.9128C62.2007 51.3971 61.7662 51.5659 61.257 51.3786C60.3391 51.0428 60.115 50.41 60.0891 49.9395C60.0393 49.0382 60.6639 48.0124 61.4793 47.2569C61.269 46.9423 61.0153 46.6711 60.722 46.4783C60.3253 46.2172 59.7912 46.4608 59.4129 46.7117C58.8668 47.0733 58.2949 47.6683 57.7884 48.3436C58.4185 49.5419 58.745 50.9395 58.5061 51.8408C58.3908 52.2781 58.0578 52.9303 57.1039 52.9303L57.1011 52.9284ZM57.5172 48.7163C56.686 49.9294 56.1002 51.3002 56.234 52.0364C56.2764 52.2698 56.3908 52.3998 56.5938 52.446C57.4166 52.6323 57.9222 52.3925 58.0965 51.7319C58.2985 50.969 58.0338 49.7762 57.5163 48.7163H57.5172ZM51.4425 48.6858C51.0578 49.1655 50.7561 49.6701 50.5947 50.1452C50.2764 51.0843 50.5375 51.7199 51.3705 52.0345C51.7063 52.1609 52.151 52.2615 52.365 52.0188C52.6953 51.6443 52.5015 50.5825 51.8936 49.4358C51.7589 49.1821 51.6076 48.9294 51.4416 48.6858H51.4425ZM46.1907 47.3547C45.4573 48.0087 45.0449 48.9321 44.9536 49.7762C44.8761 50.493 45.0514 51.0751 45.3816 51.1923C45.9158 51.3823 46.3069 51.2615 46.5421 50.8325C46.9693 50.0521 46.8134 48.553 46.1907 47.3547ZM61.6934 47.6231C60.9637 48.3242 60.4674 49.2227 60.5061 49.9146C60.5338 50.4165 60.8345 50.7762 61.3991 50.9829C61.709 51.0973 61.9212 51.0133 62.0679 50.7227C62.3926 50.0779 62.2542 48.6978 61.6934 47.6231Z" fill="white"/>
<path d="M69.2797 11.9527C71.8027 14.329 71.4863 18.7026 68.241 19.6759C65.7945 20.4093 62.146 19.4296 60.3425 16.3069C58.5399 13.1842 59.3711 10.6178 61.5832 9.34014C63.7954 8.06339 66.6552 9.47944 69.2797 11.9527Z" fill="white"/>
<path d="M1.91605 116.833H1.89086C1.74264 116.833 1.62333 116.711 1.62704 116.563L2.02796 99.1989L3.20774 99.061L2.20137 116.564C2.19247 116.716 2.06797 116.833 1.91605 116.833Z" fill="#6092AB"/>
<path d="M20.8918 116.833H20.917C21.0652 116.833 21.1845 116.711 21.1808 116.563L20.7799 99.1989L19.6001 99.061L20.6065 116.564C20.6154 116.716 20.7399 116.833 20.8918 116.833Z" fill="#6092AB"/>
<path d="M1.13452 98.1221V86.2234C1.13452 84.1299 2.83157 82.4321 4.92584 82.4321H13.4985C15.5921 82.4321 17.2899 84.1292 17.2899 86.2234V98.5771L1.13526 98.1228L1.13452 98.1221Z" fill="url(#paint1_linear_124_8847)"/>
<path d="M1.13428 98.1221H18.8244V100.001H2.27256C1.64413 100.001 1.13428 99.4908 1.13428 98.8624V98.1221Z" fill="#6092AB"/>
<path d="M20.8076 98.1221H8.2857C7.82076 98.1221 7.44385 98.499 7.44385 98.9639V99.1588C7.44385 99.6238 7.82076 100.001 8.2857 100.001H20.8076C21.2725 100.001 21.6494 99.6238 21.6494 99.1588V98.9639C21.6494 98.499 21.2725 98.1221 20.8076 98.1221Z" fill="#77AFCA"/>
<path d="M20.3214 95.157C19.0934 97.2942 17.5483 98.1198 17.5483 98.1198H11.1217C11.1217 98.1198 21.2573 93.5266 20.3206 95.157H20.3214Z" fill="#2A6886"/>
<path d="M15.3845 111.696C15.2171 111.887 15.1956 112.102 15.2786 112.331C15.2786 112.331 15.2786 112.333 15.28 112.334C15.4334 112.757 15.9396 113.23 16.528 113.702C16.6029 113.763 16.6703 113.818 16.7281 113.869C16.7437 113.882 16.7585 113.896 16.7733 113.909C16.7852 113.919 16.7963 113.931 16.8081 113.94C17.3565 114.446 17.1505 114.562 18.1354 115.588C19.2589 116.757 20.0325 116.778 20.2526 116.671C20.4386 116.58 20.0607 115.96 19.6412 115.263C19.6212 115.23 19.6012 115.196 19.5805 115.162C19.5249 115.069 19.4693 114.975 19.4137 114.881C18.9224 114.043 19.0484 113.649 19.1647 112.401C19.2596 111.387 20.7425 106.734 20.7425 106.734L18.5889 106.364C18.5889 106.364 17.9405 110.068 17.2261 110.639C16.8437 110.943 16.4161 110.946 16.0493 111.172C16.0233 111.188 15.9981 111.204 15.9729 111.221C15.764 111.359 15.552 111.501 15.3838 111.694L15.3845 111.696Z" fill="#FFB27D"/>
<path d="M15.3845 111.696C15.2171 111.888 15.1956 112.102 15.2786 112.331C15.2786 112.331 15.2786 112.333 15.28 112.334C15.4675 112.757 15.9611 113.227 16.5302 113.698C16.6043 113.759 16.6703 113.817 16.7281 113.869C16.7437 113.882 16.7585 113.896 16.7733 113.909C16.7852 113.92 16.7963 113.931 16.8081 113.94C17.3565 114.446 17.1505 114.562 18.1354 115.588C19.2589 116.757 20.0325 116.778 20.2526 116.671C20.4386 116.58 20.0607 115.96 19.6412 115.263C19.4226 115.183 18.4066 114.77 17.6381 113.787C16.9615 112.924 16.5102 111.814 16.0493 111.172C16.0233 111.187 15.9981 111.203 15.9729 111.22C15.764 111.358 15.552 111.501 15.3838 111.693L15.3845 111.696Z" fill="#233862"/>
<path d="M32.7474 110.351C32.88 111.015 33.8279 110.904 34.8861 110.645C35.9444 110.387 35.6931 110.694 37.1997 110.528C38.7063 110.361 39.1628 109.799 39.2088 109.575C39.2503 109.377 38.5055 109.306 37.7074 109.214C37.6073 109.203 37.5058 109.191 37.405 109.178C36.5039 109.065 35.8436 108.483 35.0247 108.006C34.2488 107.553 33.092 105.71 33.092 105.71L31.0259 105.874C31.0259 105.874 32.1101 107.52 32.5295 108.236C32.7763 108.657 32.7629 109.214 32.7326 109.644C32.7163 109.878 32.7014 110.117 32.7481 110.351L32.7474 110.351Z" fill="#FFB27D"/>
<path d="M34.8866 110.645C35.9448 110.387 35.6936 110.694 37.2002 110.528C38.7068 110.361 39.1633 109.799 39.2092 109.575C39.2507 109.377 38.5059 109.306 37.7078 109.214L37.7004 109.23C37.7004 109.23 36.797 109.87 35.5431 109.901C34.5212 109.926 33.4385 109.632 32.733 109.644C32.7167 109.878 32.7019 110.117 32.7486 110.351C32.8812 111.016 33.829 110.905 34.8873 110.646L34.8866 110.645Z" fill="#233862"/>
<path d="M24.8306 97.1402L22.8994 102.337L20.3783 109.123C20.3783 109.123 19.6943 109.188 19.0384 109C18.4352 108.826 17.743 108.37 17.743 108.37C17.743 108.37 18.4434 101.084 19.7491 96.9015C20.0841 95.8277 20.4591 94.9599 20.8726 94.4708C22.8972 92.0779 24.8306 97.1402 24.8306 97.1402Z" fill="#2A6886"/>
<path d="M22.8671 88.8876C21.6021 88.4793 17.9931 89.0032 14.3685 89.7132L13.6097 88.4615L5.7795 87.8501C5.7795 87.8501 3.19613 93.5801 4.61009 97.2306C4.81833 97.7671 5.23111 98.1117 5.93512 98.1228H6.04925C6.04925 98.1228 10.7091 98.1199 12.2224 98.1199C16.116 98.1199 20.4631 95.4431 21.0256 95.3305C21.946 95.1467 22.3143 96.9875 23.2347 98.9202C24.1551 100.853 31.8867 107.48 31.8867 107.48C31.8867 107.48 33.0746 107.492 33.566 107.308C34.0936 107.111 34.287 106.853 34.287 106.853C34.287 106.853 25.7202 89.8087 22.8664 88.8883L22.8671 88.8876Z" fill="#4B8EAF"/>
<path d="M13.3008 65.6617C12.2981 65.1348 10.7715 65.0637 10.5232 65.0303C7.556 64.6316 5.77076 68.9432 5.66552 70.2497C5.4721 72.6574 4.1982 73.025 2.40481 74.5331C-1.19012 77.5566 -0.13632 81.0701 1.82974 82.3758C3.00953 83.1591 5.08823 82.3758 5.08823 82.3758C5.11787 82.3966 10.7737 79.2137 13.5624 77.6789C17.742 77.0846 15.8567 67.0045 13.3 65.6625L13.3008 65.6617Z" fill="#164156"/>
<path d="M11.2259 76.371C11.2385 76.3791 9.85413 76.8512 8.92854 76.4414C8.05778 76.0568 7.39822 74.6243 7.41082 74.6235C7.80729 74.605 8.24156 74.2589 8.57653 71.9868L8.74549 72.0476L11.5816 73.068C11.5816 73.068 11.3763 73.9781 11.2429 74.8444C11.131 75.5721 11.071 76.2687 11.2259 76.3717V76.371Z" fill="#FFB27D"/>
<path d="M11.5816 73.0681C11.5816 73.0681 11.3763 73.9781 11.2429 74.8444C9.61402 74.5509 8.97522 72.9287 8.74548 72.0476L11.5816 73.0681Z" fill="#ED975D"/>
<path d="M12.0041 73.9713C12.0041 73.9713 8.1246 73.4503 8.4855 71.0396C8.84714 68.6281 8.58999 66.937 11.0822 67.1675C13.5744 67.398 13.9168 68.3902 13.9924 69.224C14.0672 70.0584 13.0231 74.0439 12.0041 73.9705V73.9713Z" fill="#FFB27D"/>
<path d="M13.8505 67.9026C13.8505 67.9026 11.3672 70.0428 9.67757 70.2155C7.98793 70.3882 7.34839 69.8457 7.34839 69.8457C7.34839 69.8457 8.34439 69.0187 8.94317 67.6847C9.11955 67.2912 9.49305 67.0215 9.92213 66.9844C11.1286 66.8799 13.4155 66.8325 13.8498 67.9026H13.8505Z" fill="#164156"/>
<path d="M12.2993 67.7109C12.2993 67.7109 13.1301 68.5142 13.3917 69.11C13.6444 69.6851 13.7199 71.0605 13.5191 71.6067C13.5191 71.6067 14.8138 69.0893 14.0809 67.8665C13.3035 66.5697 12.2993 67.7109 12.2993 67.7109Z" fill="#164156"/>
<path d="M14.4943 82.0868C14.3772 89.9407 14.4624 88.2992 13.6028 89.0447C13.396 89.2241 12.8135 89.3308 12.048 89.3819C9.6395 89.542 5.40651 89.1448 5.24569 88.7001C4.68989 87.1602 5.08266 86.6814 4.61875 84.3241C4.57058 84.0736 4.51055 83.8024 4.44015 83.5067C4.05405 81.8875 3.67759 81.3368 5.04857 78.7349C6.29209 76.3783 7.58303 74.4656 7.69938 74.5353C10.9794 76.4821 11.2439 74.8458 11.2439 74.8458C11.2439 74.8458 14.5513 78.257 14.4943 82.0875V82.0868Z" fill="white"/>
<path d="M22.8994 102.337L20.3783 109.123C20.3783 109.123 19.6943 109.189 19.0384 109C18.4352 108.826 17.743 108.37 17.743 108.37C17.743 108.37 18.4434 101.084 19.7491 96.9016L22.8994 102.337Z" fill="#2A6886"/>
<path d="M11.2421 74.8442C11.2421 74.8442 14.6169 75.4163 15.0134 76.8696C15.4098 78.3228 17.742 86.8652 17.742 86.8652C17.742 86.8652 16.0264 87.1734 15.2335 86.3805C14.4405 85.5875 12.4752 79.0268 12.4752 79.0268L11.2421 74.8442Z" fill="white"/>
<path d="M12.0474 89.3811C9.63892 89.5412 5.40592 89.144 5.24511 88.6994C4.68931 87.1594 5.08207 86.6807 4.61816 84.3233L5.77942 81.053C5.77942 81.053 5.58748 84.6953 6.6613 85.6536C7.73437 86.6118 11.0588 87.5025 11.5813 88.3029C11.8332 88.6868 11.9985 89.0721 12.0474 89.3819V89.3811Z" fill="#ADD9EF"/>
<path d="M9.28735 87.8494C9.28735 87.8494 11.6632 87.3203 12.0464 87.5315C12.4295 87.7427 13.3669 88.5104 13.484 88.7772C13.6011 89.0447 12.6303 88.5742 12.3146 88.4897C12.1101 88.4348 11.5721 88.6216 11.3053 88.7105C10.184 89.084 9.49708 88.8921 9.49708 88.8921L9.28735 87.8494Z" fill="#FFB27D"/>
<path d="M7.69623 74.5322C7.69623 74.5322 4.50592 74.7286 3.40172 76.2693C1.84696 78.4377 -1.23664 87.6781 0.530814 88.9105C2.52133 90.2985 9.58966 89.2736 9.58966 89.2736C9.58966 89.2736 9.82458 88.1739 9.49777 87.6425C9.17022 87.1104 3.85229 86.2515 3.607 86.0062C3.3617 85.7609 6.67503 81.2196 6.67503 80.483C6.67503 79.7464 7.69697 74.5322 7.69697 74.5322H7.69623Z" fill="white"/>
<path d="M12.1614 88.1924C12.1614 88.1924 12.6594 88.8341 12.8224 88.9112C12.9855 88.9875 13.0907 88.969 13.0907 88.969L12.755 88.365L12.1606 88.1924H12.1614Z" fill="#FFB27D"/>
<path d="M12.0474 87.5315L13.4947 88.234C13.4947 88.234 13.4332 88.3348 13.2546 88.3267C13.0767 88.3185 12.6269 88.154 12.6269 88.154L12.0474 87.5308V87.5315Z" fill="#FFB27D"/>
<path d="M12.823 89.8946H24.2718L27.7156 81.3308H16.2845L12.823 89.8946Z" fill="#4B8EAF"/>
<path d="M24.4062 89.561H9.2876V89.8945H24.272L24.4062 89.561Z" fill="#2A6886"/>
<path d="M21.3818 85.6128C21.4677 85.3119 21.2943 85.0674 20.9927 85.0674C20.6911 85.0674 20.3776 85.3112 20.2917 85.6128C20.2057 85.9137 20.3791 86.1582 20.6807 86.1582C20.9823 86.1582 21.2958 85.9144 21.3818 85.6128Z" fill="white"/>
<path d="M49.0984 117.072H49.1318C49.3282 117.072 49.4853 116.894 49.4808 116.678L48.951 91.3419L47.3903 91.1411L48.7212 116.68C48.7331 116.9 48.8983 117.073 49.0984 117.073V117.072Z" fill="#174962"/>
<path d="M9.66633 117.072H9.63298C9.4366 117.072 9.27875 116.894 9.28394 116.678L9.8138 91.3419L11.3745 91.1411L10.0435 116.68C10.0324 116.9 9.86642 117.073 9.66633 117.073V117.072Z" fill="#174962"/>
<path d="M7.69073 89.8948H51.6622C52.0105 89.8948 52.2936 90.1779 52.2936 90.5262V91.076C52.2936 91.4243 52.0105 91.7074 51.6622 91.7074H7.68999C7.34168 91.7074 7.05859 91.4243 7.05859 91.076V90.5262C7.05859 90.1779 7.34168 89.8948 7.68999 89.8948H7.69073Z" fill="#174962"/>
</g>
<defs>
<linearGradient id="paint0_linear_124_8847" x1="53.4388" y1="0.151123" x2="53.4388" y2="85.0761" gradientUnits="userSpaceOnUse">
<stop stop-color="#A4D1E8"/>
<stop offset="1" stop-color="#80B9D6"/>
</linearGradient>
<linearGradient id="paint1_linear_124_8847" x1="9.2122" y1="89.1743" x2="9.2122" y2="98.5771" gradientUnits="userSpaceOnUse">
<stop stop-color="#56879F"/>
<stop offset="1" stop-color="#ADD9EF" stop-opacity="0"/>
</linearGradient>
<clipPath id="clip0_124_8847">
<rect width="116" height="118.698" fill="white" transform="translate(0 0.151123)"/>
</clipPath>
</defs>
</svg>
