<svg width="282" height="295" viewBox="0 0 282 295" fill="none" xmlns="http://www.w3.org/2000/svg">
<path opacity="0.15" d="M147.41 194.47C89.82 219.13 54.17 318.26 145.16 289.5C236.14 260.74 250.62 150.27 147.41 194.47Z" fill="#FFBB77"/>
<path opacity="0.15" d="M53.29 13.43C-2.34996 42.22 -30.68 143.68 57.97 108.37C146.62 73.06 153.01 -38.17 53.29 13.43Z" fill="#FFBB77"/>
<path d="M81 44.7799C23.05 54.4999 35.39 83.4099 20.19 118.86C4.98998 154.31 -19.66 207.78 42.2 238.73C104.06 269.69 165.6 256.68 181.89 203.83C198.18 150.99 284.48 132.15 271.79 92.0099C259.1 51.8699 217.23 21.9299 81 44.7799Z" fill="url(#paint0_linear_245_3276)"/>
<g opacity="0.25">
<path d="M32.3999 78.2999C59.8699 80.3699 87.4999 80.3599 114.97 78.2299C142.35 76.1199 169.57 71.9299 196.31 65.6899C211.57 62.1299 226.62 57.7599 241.84 54.0899C242.83 53.8499 242.41 52.3299 241.42 52.5699C227.83 55.8399 214.39 59.6899 200.81 62.9899C187.23 66.2899 173.99 68.9699 160.44 71.1799C133.4 75.5999 106.02 77.9499 78.6199 78.2199C63.1999 78.3699 47.7699 77.8599 32.3899 76.6999C31.3799 76.6199 31.3799 78.1999 32.3899 78.2799L32.3999 78.2999Z" fill="white"/>
<path d="M20.88 118.85C35.69 112.56 51.53 108.91 67.47 106.97C84.22 104.93 101.12 104.64 117.98 104.6C134.41 104.56 150.85 104.77 167.25 103.81C183.65 102.85 199.1 100.89 214.49 96.5899C229.99 92.2599 244.38 85.0299 259.37 79.3299C261.28 78.5999 263.2 77.9099 265.14 77.2399C266.1 76.9099 265.68 75.3899 264.72 75.7199C249.46 80.9599 235.07 88.4599 219.69 93.3799C204.31 98.2999 188.11 100.76 171.96 101.92C155.81 103.08 139.11 103 122.68 103.01C105.82 103.01 88.92 103.13 72.13 104.86C56.24 106.5 40.42 109.63 25.46 115.32C23.66 116.01 21.87 116.73 20.09 117.49C19.16 117.89 19.96 119.25 20.89 118.85H20.88Z" fill="white"/>
<path d="M4.11997 167.23C18.39 159.81 34.19 156.04 50.09 154.15C58.17 153.19 66.3 152.68 74.42 152.34C82.54 152 90.74 151.14 98.58 152.83C104.83 154.18 111.28 157.78 113.79 163.99C116.5 170.72 113.79 178.28 109.94 183.97C102.1 195.55 89.2 202.53 76.72 208.05C62.73 214.24 48.32 219.4 36.14 228.94C34.64 230.11 33.18 231.34 31.76 232.6C31 233.27 32.12 234.39 32.88 233.72C39.01 228.31 45.78 223.83 53.08 220.17C60.16 216.62 67.55 213.72 74.82 210.59C87.83 204.99 101.09 198.24 109.88 186.74C114.02 181.32 117.23 174.4 116.3 167.42C115.43 160.91 110.69 155.92 104.87 153.25C97.7 149.96 89.61 150.23 81.91 150.49C73.37 150.77 64.84 151.14 56.33 151.93C40.01 153.44 23.71 156.53 8.68997 163.28C6.86997 164.1 5.08997 164.97 3.31997 165.88C2.41997 166.35 3.21997 167.71 4.11997 167.24V167.23Z" fill="white"/>
<path d="M120.23 255C126.25 249.93 131.57 244.18 135.85 237.56C139.77 231.49 142.81 224.87 145.15 218.03C149.95 203.99 151.83 189.09 152.58 174.33C152.98 166.45 152.91 158.38 155.22 150.75C157.53 143.12 162.06 137.69 168.29 133.44C174.52 129.19 181.1 126.7 187.91 124.33C196.19 121.45 204.59 118.94 213.09 116.79C230.25 112.46 247.67 109.85 265.3 108.37C267.54 108.18 269.78 107.99 272.02 107.77C273.02 107.67 273.03 106.09 272.02 106.19C263.23 107.04 254.43 107.66 245.68 108.86C236.93 110.06 228.21 111.64 219.59 113.6C210.89 115.58 202.28 117.94 193.79 120.69C186.57 123.02 179.28 125.47 172.57 129.03C166.49 132.26 160.84 136.59 157.17 142.51C153.04 149.18 151.95 157.13 151.47 164.82C150.99 172.55 150.8 180.27 149.94 187.98C149.1 195.52 147.82 203.03 145.85 210.36C141.9 225.06 135 238.9 123.96 249.56C122.4 251.06 120.79 252.49 119.14 253.89C118.36 254.55 119.48 255.66 120.26 255.01L120.23 255Z" fill="white"/>
<path d="M160.5 238.01C164 218.99 167.72 199.57 176.83 182.3C181.15 174.12 186.68 166.64 193.53 160.4C200.38 154.16 208.33 149.21 216.72 145.32C227.08 140.52 238.15 137.42 249.33 135.21C250.33 135.01 249.9 133.49 248.91 133.69C229.71 137.49 210.64 144.15 195.36 156.74C180.08 169.33 171.9 185.95 166.49 203.95C163.18 214.97 161.05 226.29 158.97 237.59C158.79 238.58 160.31 239.01 160.49 238.01H160.5Z" fill="white"/>
</g>
<path d="M56.99 153.07L62.97 61.49C63.13 59.05 65.03 57.08 67.46 56.83L222.12 33.33C224.44 33.09 228.03 37.86 227.88 40.19L220.59 142.82L56.99 153.08V153.07Z" fill="url(#paint1_linear_245_3276)"/>
<path d="M218.62 135.12L199.66 144.09L56.76 153.05L8.51003 226.75L0.530029 229.73L2.23003 237.18C2.23003 237.18 2.23003 237.18 2.24003 237.18C2.32003 238.39 3.33003 239.47 4.71003 239.41L180.19 232.29C183.17 232.17 185.79 230.3 186.89 227.53L220.36 142.78L218.63 135.11L218.62 135.12Z" fill="url(#paint2_linear_245_3276)"/>
<path d="M55.02 145.38L61 53.8C61.16 51.36 63.06 49.39 65.49 49.14L220.95 33.26C223.27 33.02 225.24 34.93 225.09 37.25L218.63 135.12L55.03 145.38H55.02Z" fill="url(#paint3_linear_245_3276)"/>
<path d="M220.05 42.9899L219.67 49.1099L217.97 76.0799L214.7 128L115.05 134.08L60.79 137.39L65.37 63.3099L65.69 58.1499C65.84 55.9099 67.63 54.1099 69.91 53.8799L216.16 39.3399C218.34 39.1199 220.2 40.8699 220.06 42.9999L220.05 42.9899Z" fill="url(#paint4_linear_245_3276)"/>
<g style="mix-blend-mode:overlay" opacity="0.15">
<path d="M220.05 42.9899L219.67 49.1099L118.95 58.3799L65.37 63.3099L65.69 58.1499C65.84 55.9099 67.63 54.1099 69.91 53.8799L216.16 39.3399C218.34 39.1199 220.2 40.8699 220.06 42.9999L220.05 42.9899Z" fill="white"/>
</g>
<g style="mix-blend-mode:overlay" opacity="0.15">
<path d="M217.97 76.0699L214.7 127.99L115.05 134.07L117.79 89.8799C117.94 87.6399 119.73 85.8399 122.02 85.6199L217.98 76.0699H217.97Z" fill="black"/>
</g>
<path d="M218.62 135.12L206.65 165.44L185.15 219.87C184.06 222.64 181.43 224.51 178.45 224.63L2.98001 231.75C1.05001 231.82 -0.15999 229.69 0.90001 228.07L54.39 146.37L55.03 145.39L218.63 135.13L218.62 135.12Z" fill="url(#paint5_linear_245_3276)"/>
<g style="mix-blend-mode:overlay">
<path d="M77.0601 152.77L70.9201 153.15L68.6801 156.36L74.8601 155.98L77.0601 152.77Z" fill="black"/>
<path d="M73.5601 157.87L67.3701 158.24L63.1801 164.24L69.4401 163.88L73.5601 157.87Z" fill="black"/>
<path d="M71.14 163.79L77.45 163.43L81.49 157.39L75.25 157.77L71.14 163.79Z" fill="black"/>
<path d="M79.16 163.33L85.51 162.96L89.47 156.91L83.19 157.29L79.16 163.33Z" fill="black"/>
<path d="M87.24 162.86L93.64 162.5L97.51 156.43L91.18 156.81L87.24 162.86Z" fill="black"/>
<path d="M95.38 162.4L101.83 162.03L105.62 155.94L99.24 156.33L95.38 162.4Z" fill="black"/>
<path d="M103.59 161.93L110.08 161.55L113.78 155.45L107.35 155.84L103.59 161.93Z" fill="black"/>
<path d="M111.85 161.45L118.4 161.08L122.01 154.96L115.53 155.35L111.85 161.45Z" fill="black"/>
<path d="M120.18 160.98L126.78 160.6L130.29 154.46L123.77 154.85L120.18 160.98Z" fill="black"/>
<path d="M128.57 160.49L135.22 160.11L138.65 153.96L132.07 154.35L128.57 160.49Z" fill="black"/>
<path d="M137.03 160.01L143.73 159.62L147.06 153.46L140.44 153.85L137.03 160.01Z" fill="black"/>
<path d="M145.55 159.52L152.31 159.13L155.54 152.95L148.86 153.35L145.55 159.52Z" fill="black"/>
<path d="M164.08 152.43L157.36 152.84L154.14 159.03L160.95 158.64L164.08 152.43Z" fill="black"/>
<path d="M48.8401 184.8L44.1801 191.48L50.7301 191.19L55.3201 184.49L48.8401 184.8Z" fill="black"/>
<path d="M57.08 184.41L52.51 191.11L59.11 190.81L63.6 184.09L57.08 184.41Z" fill="black"/>
<path d="M65.38 184.01L60.9 190.73L67.55 190.43L71.96 183.69L65.38 184.01Z" fill="black"/>
<path d="M73.7501 183.61L69.3601 190.35L76.0601 190.05L80.3701 183.29L73.7501 183.61Z" fill="black"/>
<path d="M82.18 183.2L77.88 189.97L119.65 188.09L123.48 181.22L82.18 183.2Z" fill="black"/>
<path d="M125.35 181.13L121.55 188L128.59 187.69L132.31 180.8L125.35 181.13Z" fill="black"/>
<path d="M134.2 180.7L130.5 187.6L137.59 187.28L141.21 180.37L134.2 180.7Z" fill="black"/>
<path d="M143.11 180.28L139.52 187.2L146.67 186.87L150.18 179.94L143.11 180.28Z" fill="black"/>
<path d="M148.62 186.79L155.83 186.46L157.33 183.38L150.16 183.71L148.62 186.79Z" fill="black"/>
<path d="M157.79 186.37L165.06 186.05L166.51 182.96L159.28 183.29L157.79 186.37Z" fill="black"/>
<path d="M167.04 185.96L174.37 185.63L175.77 182.53L168.48 182.86L167.04 185.96Z" fill="black"/>
<path d="M168.63 178.46L161.46 178.8L159.99 181.83L167.2 181.49L168.63 178.46Z" fill="black"/>
<path d="M165.91 152.32L162.8 158.53L169.66 158.14L172.69 151.92L165.91 152.32Z" fill="black"/>
<path d="M181.37 151.4L174.54 151.81L171.52 158.03L178.43 157.63L181.37 151.4Z" fill="black"/>
<path d="M183.23 151.28L181.54 154.91L179.08 160.17L173.18 160.5L170.09 166.97L177.13 166.59L183.14 166.27L188.47 154.51L190.11 150.87L183.23 151.28Z" fill="black"/>
<path d="M70.3701 166.28L61.4101 166.78L57.0701 173L66.1301 172.52L70.3701 166.28Z" fill="black"/>
<path d="M74.2701 172.08L78.4301 165.83L72.0801 166.18L67.8601 172.43L74.2701 172.08Z" fill="black"/>
<path d="M76.02 171.99L82.48 171.64L86.55 165.37L80.16 165.73L76.02 171.99Z" fill="black"/>
<path d="M94.74 164.91L88.3 165.27L84.24 171.55L90.76 171.2L94.74 164.91Z" fill="black"/>
<path d="M102.99 164.45L96.49 164.81L92.53 171.11L99.09 170.76L102.99 164.45Z" fill="black"/>
<path d="M111.3 163.98L104.75 164.35L100.88 170.66L107.5 170.31L111.3 163.98Z" fill="black"/>
<path d="M119.67 163.51L113.08 163.88L109.3 170.21L115.96 169.86L119.67 163.51Z" fill="black"/>
<path d="M128.11 163.04L121.47 163.41L117.78 169.76L124.5 169.4L128.11 163.04Z" fill="black"/>
<path d="M136.61 162.56L129.92 162.93L126.33 169.3L133.1 168.94L136.61 162.56Z" fill="black"/>
<path d="M145.18 162.08L138.44 162.46L134.94 168.84L141.77 168.48L145.18 162.08Z" fill="black"/>
<path d="M153.82 161.59L147.02 161.97L143.62 168.38L150.5 168.01L153.82 161.59Z" fill="black"/>
<path d="M155.67 161.49L152.37 167.91L159.31 167.54L162.53 161.1L155.67 161.49Z" fill="black"/>
<path d="M171.3 160.61L164.39 161L161.2 167.44L168.18 167.07L171.3 160.61Z" fill="black"/>
<path d="M66.56 175.04L55.24 175.63L50.75 182.08L62.19 181.51L66.56 175.04Z" fill="black"/>
<path d="M70.4801 181.1L74.7601 174.61L68.3101 174.95L63.9501 181.42L70.4801 181.1Z" fill="black"/>
<path d="M83.03 174.18L76.52 174.52L72.25 181.02L78.83 180.69L83.03 174.18Z" fill="black"/>
<path d="M91.3501 173.75L84.8001 174.09L80.6201 180.6L87.2501 180.28L91.3501 173.75Z" fill="black"/>
<path d="M99.7501 173.31L93.1401 173.66L89.0601 180.19L95.7401 179.86L99.7501 173.31Z" fill="black"/>
<path d="M108.21 172.87L101.55 173.22L97.5601 179.77L104.29 179.44L108.21 172.87Z" fill="black"/>
<path d="M116.73 172.42L110.02 172.77L106.12 179.35L112.91 179.01L116.73 172.42Z" fill="black"/>
<path d="M125.32 171.98L118.56 172.33L114.76 178.92L121.6 178.58L125.32 171.98Z" fill="black"/>
<path d="M133.98 171.52L127.16 171.88L123.46 178.49L130.36 178.15L133.98 171.52Z" fill="black"/>
<path d="M142.71 171.07L135.84 171.43L132.24 178.06L139.19 177.72L142.71 171.07Z" fill="black"/>
<path d="M151.51 170.61L144.58 170.97L141.08 177.63L148.09 177.28L151.51 170.61Z" fill="black"/>
<path d="M160.37 170.15L153.39 170.51L150 177.19L157.06 176.84L160.37 170.15Z" fill="black"/>
<path d="M158.99 176.74L178.84 175.77L181.89 169.02L162.28 170.05L158.99 176.74Z" fill="black"/>
<path d="M82.76 155.5L84.91 152.28L78.73 152.66L76.54 155.88L82.76 155.5Z" fill="black"/>
<path d="M90.7101 155.02L92.8301 151.78L86.6001 152.17L84.4501 155.4L90.7101 155.02Z" fill="black"/>
<path d="M98.73 154.53L100.8 151.29L94.52 151.68L92.42 154.91L98.73 154.53Z" fill="black"/>
<path d="M106.8 154.04L108.83 150.79L102.5 151.18L100.45 154.42L106.8 154.04Z" fill="black"/>
<path d="M114.94 153.54L116.91 150.28L110.55 150.68L108.53 153.93L114.94 153.54Z" fill="black"/>
<path d="M123.14 153.04L125.06 149.78L118.65 150.18L116.68 153.43L123.14 153.04Z" fill="black"/>
<path d="M131.4 152.54L133.27 149.26L126.81 149.67L124.89 152.94L131.4 152.54Z" fill="black"/>
<path d="M139.72 152.03L141.55 148.75L135.03 149.15L133.17 152.43L139.72 152.03Z" fill="black"/>
<path d="M148.1 151.52L149.88 148.23L143.32 148.64L141.5 151.92L148.1 151.52Z" fill="black"/>
<path d="M158.28 147.71L151.67 148.12L149.9 151.41L156.55 151.01L158.28 147.71Z" fill="black"/>
<path d="M166.74 147.18L160.08 147.59L158.36 150.9L165.07 150.49L166.74 147.18Z" fill="black"/>
<path d="M175.27 146.65L168.55 147.06L166.89 150.38L173.65 149.97L175.27 146.65Z" fill="black"/>
<path d="M183.86 146.11L177.09 146.53L175.48 149.85L182.29 149.44L183.86 146.11Z" fill="black"/>
<path d="M185.7 146L184.14 149.33L191 148.91L192.52 145.57L185.7 146Z" fill="black"/>
</g>
<g style="mix-blend-mode:overlay" opacity="0.15">
<path d="M77.7 153.26L71.57 153.65L69.33 156.85L75.5 156.48L77.7 153.26Z" fill="black"/>
<path d="M74.21 158.36L68.02 158.74L63.83 164.74L70.09 164.38L74.21 158.36Z" fill="black"/>
<path d="M71.7899 164.28L78.0899 163.92L82.1299 157.89L75.8899 158.26L71.7899 164.28Z" fill="black"/>
<path d="M79.8099 163.82L86.1599 163.46L90.1199 157.41L83.8299 157.79L79.8099 163.82Z" fill="black"/>
<path d="M87.8899 163.36L94.2899 162.99L98.1599 156.93L91.8299 157.31L87.8899 163.36Z" fill="black"/>
<path d="M96.0299 162.89L102.48 162.52L106.26 156.44L99.8799 156.82L96.0299 162.89Z" fill="black"/>
<path d="M104.23 162.42L110.73 162.05L114.43 155.95L108 156.34L104.23 162.42Z" fill="black"/>
<path d="M112.5 161.95L119.04 161.57L122.65 155.46L116.18 155.84L112.5 161.95Z" fill="black"/>
<path d="M120.83 161.47L127.42 161.09L130.94 154.96L124.41 155.35L120.83 161.47Z" fill="black"/>
<path d="M129.22 160.99L135.87 160.61L139.29 154.46L132.72 154.85L129.22 160.99Z" fill="black"/>
<path d="M137.68 160.51L144.38 160.12L147.71 153.95L141.08 154.35L137.68 160.51Z" fill="black"/>
<path d="M146.2 160.02L152.95 159.63L156.18 153.44L149.51 153.84L146.2 160.02Z" fill="black"/>
<path d="M164.73 152.93L158 153.33L154.79 159.52L161.59 159.13L164.73 152.93Z" fill="black"/>
<path d="M49.49 185.3L44.83 191.98L51.37 191.68L55.96 184.99L49.49 185.3Z" fill="black"/>
<path d="M57.7199 184.9L53.1499 191.6L59.7499 191.31L64.2499 184.59L57.7199 184.9Z" fill="black"/>
<path d="M66.0299 184.51L61.5499 191.23L68.1899 190.93L72.5999 184.19L66.0299 184.51Z" fill="black"/>
<path d="M74.39 184.1L70 190.85L76.71 190.55L81.02 183.79L74.39 184.1Z" fill="black"/>
<path d="M82.8199 183.7L78.5299 190.46L120.3 188.59L124.12 181.72L82.8199 183.7Z" fill="black"/>
<path d="M126 181.63L122.2 188.5L129.23 188.18L132.95 181.29L126 181.63Z" fill="black"/>
<path d="M134.84 181.2L131.15 188.1L138.24 187.78L141.85 180.87L134.84 181.2Z" fill="black"/>
<path d="M143.76 180.77L140.17 187.69L147.32 187.37L150.82 180.43L143.76 180.77Z" fill="black"/>
<path d="M149.26 187.28L156.47 186.96L157.98 183.88L150.81 184.21L149.26 187.28Z" fill="black"/>
<path d="M158.43 186.87L165.7 186.54L167.16 183.45L159.93 183.79L158.43 186.87Z" fill="black"/>
<path d="M167.68 186.46L175.01 186.13L176.42 183.02L169.13 183.36L167.68 186.46Z" fill="black"/>
<path d="M169.28 178.95L162.1 179.3L160.63 182.33L167.85 181.99L169.28 178.95Z" fill="black"/>
<path d="M166.56 152.82L163.44 159.03L170.3 158.64L173.34 152.41L166.56 152.82Z" fill="black"/>
<path d="M182.02 151.89L175.18 152.3L172.17 158.53L179.08 158.13L182.02 151.89Z" fill="black"/>
<path d="M183.87 151.78L182.18 155.41L179.72 160.67L173.83 161L170.73 167.47L177.78 167.09L183.78 166.77L189.11 155L190.76 151.37L183.87 151.78Z" fill="black"/>
<path d="M71.01 166.78L62.06 167.28L57.72 173.5L66.77 173.01L71.01 166.78Z" fill="black"/>
<path d="M74.92 172.58L79.08 166.32L72.73 166.68L68.5 172.92L74.92 172.58Z" fill="black"/>
<path d="M76.6699 172.49L83.1299 172.14L87.1999 165.87L80.7999 166.23L76.6699 172.49Z" fill="black"/>
<path d="M95.3799 165.41L88.9399 165.77L84.8899 172.05L91.3999 171.7L95.3799 165.41Z" fill="black"/>
<path d="M103.63 164.94L97.1399 165.31L93.1799 171.61L99.7399 171.25L103.63 164.94Z" fill="black"/>
<path d="M111.94 164.48L105.4 164.85L101.53 171.16L108.14 170.81L111.94 164.48Z" fill="black"/>
<path d="M120.32 164.01L113.72 164.38L109.94 170.71L116.61 170.35L120.32 164.01Z" fill="black"/>
<path d="M128.75 163.53L122.11 163.91L118.42 170.26L125.14 169.9L128.75 163.53Z" fill="black"/>
<path d="M137.26 163.06L130.56 163.43L126.97 169.8L133.74 169.44L137.26 163.06Z" fill="black"/>
<path d="M145.83 162.57L139.08 162.95L135.59 169.34L142.41 168.98L145.83 162.57Z" fill="black"/>
<path d="M154.47 162.09L147.67 162.47L144.27 168.88L151.15 168.51L154.47 162.09Z" fill="black"/>
<path d="M156.32 161.98L153.02 168.41L159.95 168.04L163.17 161.6L156.32 161.98Z" fill="black"/>
<path d="M171.95 161.11L165.04 161.49L161.84 167.94L168.83 167.57L171.95 161.11Z" fill="black"/>
<path d="M67.2099 175.54L55.8799 176.13L51.3899 182.57L62.8299 182.01L67.2099 175.54Z" fill="black"/>
<path d="M71.12 181.6L75.41 175.11L68.95 175.45L64.6 181.92L71.12 181.6Z" fill="black"/>
<path d="M83.6699 174.68L77.1599 175.02L72.8999 181.51L79.4799 181.19L83.6699 174.68Z" fill="black"/>
<path d="M91.9999 174.25L85.4399 174.59L81.2699 181.1L87.8999 180.77L91.9999 174.25Z" fill="black"/>
<path d="M100.39 173.81L93.78 174.15L89.7 180.68L96.38 180.36L100.39 173.81Z" fill="black"/>
<path d="M108.85 173.37L102.19 173.71L98.2 180.27L104.93 179.93L108.85 173.37Z" fill="black"/>
<path d="M117.37 172.92L110.66 173.27L106.77 179.84L113.56 179.51L117.37 172.92Z" fill="black"/>
<path d="M125.97 172.47L119.2 172.83L115.4 179.42L122.24 179.08L125.97 172.47Z" fill="black"/>
<path d="M134.63 172.02L127.81 172.38L124.11 178.99L131 178.65L134.63 172.02Z" fill="black"/>
<path d="M143.35 171.57L136.48 171.92L132.88 178.56L139.83 178.22L143.35 171.57Z" fill="black"/>
<path d="M152.15 171.11L145.22 171.47L141.73 178.12L148.73 177.78L152.15 171.11Z" fill="black"/>
<path d="M161.02 170.64L154.04 171.01L150.64 177.68L157.71 177.33L161.02 170.64Z" fill="black"/>
<path d="M159.63 177.24L179.48 176.26L182.53 169.52L162.92 170.54L159.63 177.24Z" fill="black"/>
<path d="M83.3999 156L85.5599 152.77L79.3799 153.16L77.1799 156.38L83.3999 156Z" fill="black"/>
<path d="M91.36 155.51L93.47 152.28L87.24 152.67L85.09 155.89L91.36 155.51Z" fill="black"/>
<path d="M99.3699 155.02L101.44 151.78L95.1699 152.18L93.0599 155.41L99.3699 155.02Z" fill="black"/>
<path d="M107.45 154.53L109.47 151.28L103.15 151.68L101.09 154.92L107.45 154.53Z" fill="black"/>
<path d="M115.58 154.04L117.56 150.78L111.19 151.18L109.18 154.43L115.58 154.04Z" fill="black"/>
<path d="M123.78 153.54L125.71 150.27L119.29 150.67L117.33 153.93L123.78 153.54Z" fill="black"/>
<path d="M132.04 153.04L133.92 149.76L127.45 150.16L125.54 153.43L132.04 153.04Z" fill="black"/>
<path d="M140.36 152.53L142.19 149.24L135.68 149.65L133.81 152.93L140.36 152.53Z" fill="black"/>
<path d="M148.75 152.02L150.53 148.73L143.96 149.13L142.15 152.42L148.75 152.02Z" fill="black"/>
<path d="M158.92 148.2L152.31 148.61L150.55 151.91L157.2 151.5L158.92 148.2Z" fill="black"/>
<path d="M167.38 147.67L160.72 148.09L159.01 151.39L165.71 150.99L167.38 147.67Z" fill="black"/>
<path d="M175.91 147.14L169.2 147.56L167.54 150.87L174.29 150.46L175.91 147.14Z" fill="black"/>
<path d="M184.5 146.61L177.74 147.03L176.13 150.35L182.94 149.94L184.5 146.61Z" fill="black"/>
<path d="M186.34 146.49L184.79 149.82L191.65 149.41L193.16 146.07L186.34 146.49Z" fill="black"/>
</g>
<g style="mix-blend-mode:overlay">
<path d="M109.83 213.63L118.83 195.04C119.34 193.98 118.54 192.76 117.36 192.81L79.8901 194.46C79.3801 194.48 78.9101 194.76 78.6301 195.2L66.8801 214.2C66.2201 215.27 67.0301 216.64 68.2801 216.57L108.5 214.51C109.07 214.48 109.57 214.15 109.82 213.63H109.83Z" fill="black"/>
</g>
<g style="mix-blend-mode:overlay" opacity="0.25">
<path d="M110.38 214.76L119.38 196.17C119.89 195.11 119.09 193.89 117.91 193.94L80.44 195.59C79.93 195.61 79.46 195.89 79.18 196.33L67.43 215.33C66.77 216.4 67.58 217.77 68.83 217.7L109.05 215.64C109.62 215.61 110.12 215.28 110.37 214.76H110.38Z" fill="black"/>
</g>
<path d="M217.81 145.38C217.81 146.12 217.59 146.71 217.31 146.71C217.03 146.71 216.81 146.11 216.81 145.38C216.81 144.65 217.03 144.05 217.31 144.05C217.59 144.05 217.81 144.65 217.81 145.38Z" fill="#D7861B"/>
<path d="M216.12 149.85C216.12 150.59 215.9 151.18 215.62 151.18C215.34 151.18 215.12 150.58 215.12 149.85C215.12 149.12 215.34 148.52 215.62 148.52C215.9 148.52 216.12 149.12 216.12 149.85Z" fill="#D7861B"/>
<g style="mix-blend-mode:overlay" opacity="0.25">
<path d="M218.62 135.12L206.65 165.44L54.38 146.37L55.02 145.38L218.62 135.12Z" fill="black"/>
</g>
<path opacity="0.75" d="M121.16 61.53L86.22 65.35C84.04 65.59 82.13 63.88 82.13 61.69V33.08C82.13 31.2 83.55 29.62 85.41 29.42L120.35 25.6C122.53 25.36 124.44 27.07 124.44 29.26V57.87C124.44 59.75 123.02 61.33 121.16 61.53Z" fill="url(#paint6_linear_245_3276)"/>
<g opacity="0.85">
<path d="M118.55 43.6299L89.03 47.1099C88.74 47.1399 88.48 46.9199 88.48 46.6299C88.48 46.3699 88.68 46.1499 88.93 46.1199L118.45 42.6399C118.74 42.6099 119 42.8299 119 43.1199C119 43.3799 118.8 43.5999 118.55 43.6299Z" fill="white"/>
<path d="M118.55 46.02L89.03 49.5C88.74 49.53 88.48 49.31 88.48 49.02C88.48 48.76 88.68 48.54 88.93 48.51L118.45 45.03C118.74 45 119 45.22 119 45.51C119 45.77 118.8 45.99 118.55 46.02Z" fill="white"/>
<path d="M118.55 48.41L89.03 51.89C88.74 51.92 88.48 51.7 88.48 51.41C88.48 51.15 88.68 50.93 88.93 50.9L118.45 47.42C118.74 47.39 119 47.61 119 47.9C119 48.16 118.8 48.38 118.55 48.41Z" fill="white"/>
<path d="M118.55 50.7999L89.03 54.2799C88.74 54.3099 88.48 54.0899 88.48 53.7999C88.48 53.5399 88.68 53.3199 88.93 53.2899L118.45 49.8099C118.74 49.7799 119 49.9999 119 50.2899C119 50.5499 118.8 50.7699 118.55 50.7999Z" fill="white"/>
<path d="M106.94 54.65L89.03 56.68C88.74 56.71 88.48 56.49 88.48 56.2C88.48 55.94 88.68 55.72 88.93 55.69L106.84 53.66C107.13 53.63 107.39 53.85 107.39 54.14C107.39 54.4 107.19 54.62 106.94 54.65Z" fill="white"/>
</g>
<path d="M106.4 34.2599C107.43 36.8099 106.2 39.7099 103.65 40.7399C101.1 41.7699 98.2 40.5399 97.17 37.9899C96.14 35.4399 97.37 32.5399 99.92 31.5099C102.47 30.4799 105.37 31.7099 106.4 34.2599Z" fill="white"/>
<path opacity="0.45" d="M240.01 100.57L203.18 103.43C201.52 103.56 200.12 102.22 200.17 100.56L201.13 70.17C201.18 68.75 202.29 67.58 203.71 67.47L240.54 64.61C242.2 64.48 243.6 65.82 243.55 67.48L242.59 97.87C242.54 99.29 241.43 100.46 240.01 100.57Z" fill="url(#paint7_linear_245_3276)"/>
<g opacity="0.85">
<path d="M237.17 82.66L207.55 85.21C207.26 85.24 207.01 85 207.02 84.71C207.02 84.45 207.23 84.24 207.49 84.22L237.11 81.67C237.4 81.64 237.65 81.88 237.64 82.17C237.64 82.43 237.43 82.64 237.17 82.66Z" fill="white"/>
<path d="M237.1 85.05L207.48 87.6C207.19 87.63 206.94 87.39 206.95 87.1C206.95 86.84 207.16 86.63 207.42 86.61L237.04 84.06C237.33 84.03 237.58 84.27 237.57 84.56C237.57 84.82 237.36 85.03 237.1 85.05Z" fill="white"/>
<path d="M237.02 87.4399L207.4 89.9899C207.11 90.0199 206.86 89.7799 206.87 89.4899C206.87 89.2299 207.08 89.0199 207.34 88.9999L236.96 86.4499C237.25 86.4199 237.5 86.6599 237.49 86.9499C237.49 87.2099 237.28 87.4199 237.02 87.4399Z" fill="white"/>
<path d="M236.95 89.8299L207.33 92.3799C207.04 92.4099 206.79 92.1699 206.8 91.8799C206.8 91.6199 207.01 91.4099 207.27 91.3899L236.89 88.8399C237.18 88.8099 237.43 89.0499 237.42 89.3399C237.42 89.5999 237.21 89.8099 236.95 89.8299Z" fill="white"/>
<path d="M225.22 93.31L207.26 94.77C206.97 94.8 206.72 94.56 206.73 94.27C206.73 94.01 206.94 93.8 207.2 93.78L225.16 92.32C225.45 92.29 225.7 92.53 225.69 92.82C225.69 93.08 225.48 93.29 225.22 93.31Z" fill="white"/>
</g>
<path d="M225.33 72.91C226.28 75.49 224.96 78.35 222.38 79.3C219.8 80.25 216.94 78.93 215.99 76.35C215.04 73.77 216.36 70.91 218.94 69.96C221.52 69.01 224.38 70.33 225.33 72.91Z" fill="white"/>
<path opacity="0.75" d="M90.2901 126.76L27.7801 131.73C26.7601 131.81 25.8901 130.99 25.9201 129.97L26.7301 97.4299C26.7501 96.5499 27.4401 95.8199 28.3201 95.7499L90.8301 90.7799C91.8501 90.6999 92.7201 91.5199 92.6901 92.5399L91.8801 125.08C91.8601 125.96 91.1701 126.69 90.2901 126.76Z" fill="url(#paint8_linear_245_3276)"/>
<path opacity="0.25" d="M65.4301 111.41C65.3201 115.98 61.5201 119.6 56.9401 119.49C52.3601 119.38 48.7501 115.58 48.8601 111C48.9701 106.43 52.7701 102.81 57.3501 102.92C61.9301 103.03 65.5401 106.83 65.4301 111.41Z" stroke="white" stroke-width="1.58" stroke-miterlimit="10"/>
<path d="M65.4301 111.41C65.3201 115.98 61.5201 119.6 56.9401 119.49C52.3701 119.38 48.7501 115.58 48.8601 111C48.9701 106.42 52.7701 102.81 57.3501 102.92" stroke="white" stroke-width="1.58" stroke-miterlimit="10"/>
<path opacity="0.25" d="M58.9601 111.25C58.9401 112.25 58.1001 113.04 57.1001 113.02C56.1001 113 55.3101 112.16 55.3301 111.16C55.3501 110.16 56.1901 109.37 57.1901 109.39C58.1901 109.41 58.9801 110.25 58.9601 111.25Z" stroke="white" stroke-width="1.58" stroke-miterlimit="10"/>
<path d="M217.31 145.38C250.93 138.6 264.93 148.23 274.79 183.99C285.14 221.52 317.79 220.99 317.79 220.99" stroke="#74413B" stroke-width="1.41" stroke-miterlimit="10"/>
<defs>
<linearGradient id="paint0_linear_245_3276" x1="144.21" y1="-556.28" x2="127.71" y2="1204.05" gradientUnits="userSpaceOnUse">
<stop stop-color="#FCE6D2"/>
<stop offset="1" stop-color="#FFC58E"/>
</linearGradient>
<linearGradient id="paint1_linear_245_3276" x1="269.1" y1="46.53" x2="128.77" y2="106.19" gradientUnits="userSpaceOnUse">
<stop stop-color="#FFDCAE"/>
<stop offset="1" stop-color="#DD8714"/>
</linearGradient>
<linearGradient id="paint2_linear_245_3276" x1="96.71" y1="109.89" x2="125.6" y2="270.49" gradientUnits="userSpaceOnUse">
<stop stop-color="#FFF4E2"/>
<stop offset="1" stop-color="#EEB160"/>
</linearGradient>
<linearGradient id="paint3_linear_245_3276" x1="204.37" y1="17.67" x2="46.02" y2="204.16" gradientUnits="userSpaceOnUse">
<stop stop-color="#FFF9F0"/>
<stop offset="1" stop-color="#FFECD0"/>
</linearGradient>
<linearGradient id="paint4_linear_245_3276" x1="141.32" y1="20.7799" x2="139.07" y2="194.13" gradientUnits="userSpaceOnUse">
<stop stop-color="#E78108"/>
<stop offset="1" stop-color="#402570"/>
</linearGradient>
<linearGradient id="paint5_linear_245_3276" x1="94.13" y1="228.75" x2="162.23" y2="22.75" gradientUnits="userSpaceOnUse">
<stop stop-color="#FFF4E2"/>
<stop offset="1" stop-color="#F2C885"/>
</linearGradient>
<linearGradient id="paint6_linear_245_3276" x1="99.01" y1="5.47996" x2="110.76" y2="115.3" gradientUnits="userSpaceOnUse">
<stop stop-color="#FCB169"/>
<stop offset="1" stop-color="#FFDBB9"/>
</linearGradient>
<linearGradient id="paint7_linear_245_3276" x1="221.86" y1="64.6013" x2="221.86" y2="103.439" gradientUnits="userSpaceOnUse">
<stop stop-color="#FFCC45"/>
<stop offset="1" stop-color="#FFE59F"/>
</linearGradient>
<linearGradient id="paint8_linear_245_3276" x1="58.6205" y1="22.1582" x2="59.4195" y2="126.32" gradientUnits="userSpaceOnUse">
<stop stop-color="#F69B47"/>
<stop offset="1" stop-color="#FFBF84"/>
</linearGradient>
</defs>
</svg>
