<svg width="134" height="123" viewBox="0 0 134 123" fill="none" xmlns="http://www.w3.org/2000/svg">
<g clip-path="url(#clip0_124_8753)">
<path d="M116.386 44.0489L113.433 40.5791C112.88 39.9301 112.404 39.2146 112.01 38.4532L107.521 29.7097C106.794 28.2942 105.775 27.0576 104.536 26.0764L90.3164 14.8596L83.6261 26.0713C83.0374 27.0576 82.3003 27.9467 81.4455 28.703L79.27 30.6194C78.4868 31.3092 77.806 32.1064 77.2481 32.9905L63.5297 54.6218H121.858L117.953 46.4609C117.538 45.5921 117.011 44.7847 116.392 44.054L116.386 44.0489Z" fill="url(#paint0_linear_124_8753)"/>
<path d="M116.386 44.0489L113.433 40.5791C112.88 39.9301 112.404 39.2146 112.01 38.4532L107.521 29.7097C106.794 28.2942 105.775 27.0576 104.536 26.0764L90.3162 14.8596L83.6259 26.0713C83.0373 27.0576 82.3002 27.9467 81.4453 28.703L78.0925 31.6567L63.5244 54.6218H121.853L117.948 46.4609C117.533 45.5921 117.006 44.7847 116.386 44.054V44.0489Z" fill="url(#paint1_linear_124_8753)"/>
<path opacity="0.1" d="M92.2511 20.639C91.8416 20.5828 91.3758 20.6697 91.0226 20.8792C90.9151 20.9457 90.8024 21.0172 90.7154 21.1041C90.6284 21.0172 90.5158 20.9405 90.4083 20.8792C90.0551 20.6646 89.5893 20.5828 89.1798 20.639C89.1695 20.639 89.1593 20.6442 89.1593 20.6544C89.1593 20.6646 89.1644 20.6748 89.1798 20.6748C89.5739 20.7259 89.9066 20.8843 90.1216 21.0887C90.2343 21.1909 90.2701 21.3187 90.3622 21.4158C90.4595 21.5231 90.5465 21.6304 90.6847 21.7735C90.6847 21.7735 90.6847 21.7735 90.6949 21.7786C90.6949 21.7786 90.7257 21.7786 90.7359 21.7735C90.8741 21.6304 90.9662 21.5231 91.0584 21.4158C91.1556 21.3136 91.1915 21.1909 91.299 21.0887C91.514 20.8843 91.8467 20.731 92.2408 20.6748C92.2511 20.6748 92.2613 20.6697 92.2613 20.6595C92.2613 20.6493 92.2562 20.639 92.2408 20.639H92.2511Z" fill="#D86800"/>
<path opacity="0.1" d="M104.275 31.3756C103.866 31.3194 103.4 31.4063 103.047 31.6158C102.939 31.6822 102.826 31.7538 102.739 31.8406C102.652 31.7538 102.54 31.6771 102.432 31.6158C102.079 31.4012 101.613 31.3194 101.204 31.3756C101.194 31.3756 101.183 31.3807 101.183 31.3909C101.183 31.4012 101.188 31.4114 101.204 31.4114C101.598 31.4625 101.931 31.6209 102.146 31.8253C102.258 31.9275 102.294 32.0553 102.386 32.1524C102.484 32.2597 102.571 32.367 102.709 32.5101C102.709 32.5101 102.709 32.5101 102.719 32.5152C102.719 32.5152 102.75 32.5152 102.76 32.5101C102.898 32.367 102.99 32.2597 103.082 32.1524C103.18 32.0502 103.216 31.9275 103.323 31.8253C103.538 31.6209 103.871 31.4676 104.265 31.4114C104.275 31.4114 104.285 31.4063 104.285 31.3961C104.285 31.3858 104.28 31.3756 104.265 31.3756H104.275Z" fill="#D86800"/>
<path opacity="0.1" d="M96.2182 45.5768C95.8087 45.5206 95.3429 45.6075 94.9897 45.817C94.8822 45.8834 94.7696 45.9549 94.6826 46.0418C94.5956 45.9549 94.4829 45.8783 94.3755 45.817C94.0223 45.6023 93.5564 45.5206 93.1469 45.5768C93.1367 45.5768 93.1265 45.5819 93.1265 45.5921C93.1265 45.6023 93.1316 45.6126 93.1469 45.6126C93.5411 45.6637 93.8738 45.8221 94.0888 46.0265C94.2014 46.1287 94.2372 46.2564 94.3294 46.3535C94.4266 46.4608 94.5137 46.5682 94.6519 46.7112C94.6519 46.7112 94.6519 46.7112 94.6621 46.7164C94.6621 46.7164 94.6928 46.7164 94.7031 46.7112C94.8413 46.5682 94.9334 46.4608 95.0255 46.3535C95.1228 46.2513 95.1586 46.1287 95.2661 46.0265C95.4811 45.8221 95.8138 45.6688 96.208 45.6126C96.2182 45.6126 96.2285 45.6075 96.2285 45.5972C96.2285 45.587 96.2233 45.5768 96.208 45.5768H96.2182Z" fill="#D86800"/>
<path opacity="0.1" d="M94.6672 29.8324C94.2577 29.7762 93.7919 29.8631 93.4387 30.0726C93.3312 30.139 93.2186 30.2106 93.1316 30.2974C93.0445 30.2106 92.9319 30.1339 92.8244 30.0726C92.4712 29.858 92.0054 29.7762 91.5959 29.8324C91.5857 29.8324 91.5754 29.8375 91.5754 29.8477C91.5754 29.858 91.5806 29.8682 91.5959 29.8682C91.9901 29.9193 92.3228 30.0777 92.5378 30.2821C92.6504 30.3843 92.6862 30.5121 92.7784 30.6091C92.8756 30.7165 92.9626 30.8238 93.1008 30.9669C93.1008 30.9669 93.1008 30.9669 93.1111 30.972C93.1111 30.972 93.1418 30.972 93.152 30.9669C93.2902 30.8238 93.3824 30.7165 93.4745 30.6091C93.5718 30.5069 93.6076 30.3843 93.7151 30.2821C93.9301 30.0777 94.2628 29.9244 94.657 29.8682C94.6672 29.8682 94.6774 29.8631 94.6774 29.8528C94.6774 29.8426 94.6723 29.8324 94.657 29.8324H94.6672Z" fill="#D86800"/>
<path opacity="0.1" d="M107.577 47.442C107.167 47.3858 106.701 47.4727 106.348 47.6822C106.241 47.7486 106.128 47.8202 106.041 47.907C105.954 47.8202 105.841 47.7435 105.734 47.6822C105.381 47.4676 104.915 47.3858 104.505 47.442C104.495 47.442 104.485 47.4471 104.485 47.4574C104.485 47.4676 104.49 47.4778 104.505 47.4778C104.9 47.5289 105.232 47.6873 105.447 47.8917C105.56 47.9939 105.596 48.1217 105.688 48.2188C105.785 48.3261 105.872 48.4334 106.01 48.5765C106.01 48.5765 106.01 48.5765 106.021 48.5816C106.021 48.5816 106.051 48.5816 106.062 48.5765C106.2 48.4334 106.292 48.3261 106.384 48.2188C106.481 48.1166 106.517 47.9939 106.625 47.8917C106.84 47.6873 107.172 47.534 107.567 47.4778C107.577 47.4778 107.587 47.4727 107.587 47.4625C107.587 47.4522 107.582 47.442 107.567 47.442H107.577Z" fill="#D86800"/>
<path opacity="0.1" d="M97.9074 24.7018C97.4979 24.6456 97.0321 24.7325 96.6789 24.942C96.5714 25.0084 96.4588 25.0799 96.3718 25.1668C96.2848 25.0799 96.1722 25.0033 96.0647 24.942C95.7115 24.7273 95.2457 24.6456 94.8362 24.7018C94.8259 24.7018 94.8157 24.7069 94.8157 24.7171C94.8157 24.7273 94.8208 24.7376 94.8362 24.7376C95.2303 24.7887 95.563 24.9471 95.778 25.1515C95.8906 25.2537 95.9265 25.3814 96.0186 25.4785C96.1159 25.5858 96.2029 25.6932 96.3411 25.8362C96.3411 25.8362 96.3411 25.8362 96.3513 25.8414C96.3513 25.8414 96.382 25.8414 96.3923 25.8362C96.5305 25.6932 96.6226 25.5858 96.7148 25.4785C96.812 25.3763 96.8478 25.2537 96.9553 25.1515C97.1703 24.9471 97.503 24.7938 97.8972 24.7376C97.9074 24.7376 97.9177 24.7325 97.9177 24.7222C97.9177 24.712 97.9126 24.7018 97.8972 24.7018H97.9074Z" fill="#D86800"/>
<path opacity="0.1" d="M90.9151 39.6132C90.5056 39.557 90.0398 39.6438 89.6866 39.8533C89.5791 39.9198 89.4665 39.9913 89.3795 40.0782C89.2925 39.9913 89.1798 39.9147 89.0723 39.8533C88.7191 39.6387 88.2533 39.557 87.8438 39.6132C87.8336 39.6132 87.8234 39.6183 87.8234 39.6285C87.8234 39.6387 87.8285 39.6489 87.8438 39.6489C88.238 39.7 88.5707 39.8585 88.7857 40.0629C88.8983 40.1651 88.9341 40.2928 89.0263 40.3899C89.1235 40.4972 89.2106 40.6045 89.3488 40.7476C89.3488 40.7476 89.3488 40.7476 89.359 40.7527C89.359 40.7527 89.3897 40.7527 89.3999 40.7476C89.5382 40.6045 89.6303 40.4972 89.7224 40.3899C89.8197 40.2877 89.8555 40.1651 89.963 40.0629C90.178 39.8585 90.5107 39.7051 90.9049 39.6489C90.9151 39.6489 90.9254 39.6438 90.9254 39.6336C90.9254 39.6234 90.9202 39.6132 90.9049 39.6132H90.9151Z" fill="#D86800"/>
<path opacity="0.1" d="M87.2551 29.5206C86.8456 29.4644 86.3798 29.5513 86.0266 29.7608C85.9191 29.8272 85.8065 29.8988 85.7195 29.9857C85.6324 29.8988 85.5198 29.8221 85.4123 29.7608C85.0591 29.5462 84.5933 29.4644 84.1838 29.5206C84.1736 29.5206 84.1633 29.5257 84.1633 29.536C84.1633 29.5462 84.1685 29.5564 84.1838 29.5564C84.578 29.6075 84.9107 29.7659 85.1257 29.9703C85.2383 30.0725 85.2741 30.2003 85.3663 30.2974C85.4635 30.4047 85.5505 30.512 85.6887 30.6551C85.6887 30.6551 85.6887 30.6551 85.699 30.6602C85.699 30.6602 85.7297 30.6602 85.7399 30.6551C85.8781 30.512 85.9703 30.4047 86.0624 30.2974C86.1597 30.1952 86.1955 30.0725 86.303 29.9703C86.518 29.7659 86.8507 29.6126 87.2449 29.5564C87.2551 29.5564 87.2653 29.5513 87.2653 29.5411C87.2653 29.5309 87.2602 29.5206 87.2449 29.5206H87.2551Z" fill="#D86800"/>
<path opacity="0.1" d="M96.2182 37.1246C95.8087 37.0684 95.3429 37.1553 94.9897 37.3648C94.8822 37.4313 94.7696 37.5028 94.6826 37.5897C94.5956 37.5028 94.4829 37.4261 94.3755 37.3648C94.0223 37.1502 93.5564 37.0684 93.1469 37.1246C93.1367 37.1246 93.1265 37.1298 93.1265 37.14C93.1265 37.1502 93.1316 37.1604 93.1469 37.1604C93.5411 37.2115 93.8738 37.3699 94.0888 37.5743C94.2014 37.6765 94.2372 37.8043 94.3294 37.9014C94.4266 38.0087 94.5137 38.116 94.6519 38.2591C94.6519 38.2591 94.6519 38.2591 94.6621 38.2642C94.6621 38.2642 94.6928 38.2642 94.7031 38.2591C94.8413 38.116 94.9334 38.0087 95.0255 37.9014C95.1228 37.7992 95.1586 37.6765 95.2661 37.5743C95.4811 37.3699 95.8138 37.2166 96.208 37.1604C96.2182 37.1604 96.2285 37.1553 96.2285 37.1451C96.2285 37.1349 96.2233 37.1246 96.208 37.1246H96.2182Z" fill="#D86800"/>
<path d="M15.8735 45.076L18.5096 41.9435C19.0062 41.3558 19.431 40.7119 19.7791 40.0221L23.7871 32.1269C24.4372 30.8493 25.3432 29.7302 26.454 28.8512L39.1589 18.7229L45.1376 28.8461C45.6649 29.7353 46.3201 30.5376 47.0879 31.2172L49.0279 32.9445C49.7241 33.5679 50.3332 34.2885 50.8349 35.0856L63.0944 54.6116H10.9901L14.476 47.2427C14.8446 46.4609 15.3155 45.7301 15.8735 45.0709V45.076Z" fill="url(#paint2_linear_124_8753)"/>
<path d="M15.8735 45.076L18.5096 41.9435C19.0062 41.3558 19.431 40.7119 19.7791 40.0221L23.7871 32.1269C24.4372 30.8493 25.3432 29.7302 26.454 28.8512L39.1589 18.7229L45.1376 28.8461C45.6649 29.7353 46.3201 30.5376 47.0879 31.2172L50.0824 33.8848L63.0944 54.6116H10.9901L14.476 47.2427C14.8446 46.4609 15.3155 45.7301 15.8735 45.0709V45.076Z" fill="url(#paint3_linear_124_8753)"/>
<path d="M60.8473 0.5L72.298 14.8442C72.4567 15.0435 72.6461 15.2122 72.856 15.345L76.3879 17.5833C76.8589 17.8797 77.2018 18.3447 77.3605 18.8813L82.6073 37.1092L87.4702 42.8275L92.2255 54.6217H32.3918L39.3278 39.7818C39.3841 39.6592 39.4507 39.5467 39.5275 39.4394L44.0064 33.0364C44.7793 31.9275 45.3731 30.7011 45.7622 29.398L47.3439 24.1141C47.7483 22.765 48.3472 21.4823 49.1303 20.3172L55.6107 10.6079C56.2967 9.58076 56.916 8.50251 57.4637 7.39361L60.8473 0.5Z" fill="url(#paint4_linear_124_8753)"/>
<path opacity="0.1" d="M36.3691 26.9911C35.9596 26.9349 35.4938 27.0218 35.1406 27.2313C35.0331 27.2977 34.9205 27.3692 34.8335 27.4561C34.7464 27.3692 34.6338 27.2926 34.5263 27.2313C34.1731 27.0166 33.7073 26.9349 33.2978 26.9911C33.2876 26.9911 33.2773 26.9962 33.2773 27.0064C33.2773 27.0166 33.2825 27.0269 33.2978 27.0269C33.692 27.078 34.0247 27.2364 34.2397 27.4408C34.3523 27.543 34.3881 27.6707 34.4803 27.7678C34.5775 27.8752 34.6645 27.9825 34.8027 28.1256C34.8027 28.1256 34.8027 28.1256 34.813 28.1307C34.813 28.1307 34.8437 28.1307 34.8539 28.1256C34.9921 27.9825 35.0843 27.87 35.1764 27.7678C35.2737 27.6656 35.3095 27.543 35.417 27.4408C35.632 27.2364 35.9647 27.0831 36.3589 27.0269C36.3691 27.0269 36.3793 27.0218 36.3793 27.0115C36.3793 27.0013 36.3742 26.9911 36.3589 26.9911H36.3691Z" fill="#D86800"/>
<path opacity="0.1" d="M40.7354 31.0844C40.3259 31.0281 39.8601 31.115 39.5069 31.3245C39.3994 31.391 39.2868 31.4625 39.1998 31.5494C39.1128 31.4625 39.0002 31.3859 38.8927 31.3245C38.5395 31.1099 38.0737 31.0281 37.6642 31.0844C37.6539 31.0844 37.6437 31.0895 37.6437 31.0997C37.6437 31.1099 37.6488 31.1201 37.6642 31.1201C38.0583 31.1712 38.391 31.3296 38.606 31.5341C38.7186 31.6363 38.7545 31.764 38.8466 31.8611C38.9439 31.9684 39.0309 32.0757 39.1691 32.2188C39.1691 32.2188 39.1691 32.2188 39.1793 32.2239C39.1793 32.2239 39.21 32.2239 39.2203 32.2188C39.3585 32.0757 39.4506 31.9684 39.5428 31.8611C39.64 31.7589 39.6758 31.6363 39.7833 31.5341C39.9983 31.3296 40.331 31.1763 40.7252 31.1201C40.7354 31.1201 40.7457 31.115 40.7457 31.1048C40.7457 31.0946 40.7406 31.0844 40.7252 31.0844H40.7354Z" fill="#D86800"/>
<path opacity="0.1" d="M69.196 18.7433C68.7865 18.6871 68.3207 18.774 67.9675 18.9835C67.86 19.0499 67.7474 19.1214 67.6604 19.2083C67.5733 19.1214 67.4607 19.0448 67.3532 18.9835C67 18.7688 66.5342 18.6871 66.1247 18.7433C66.1145 18.7433 66.1042 18.7484 66.1042 18.7586C66.1042 18.7688 66.1094 18.7791 66.1247 18.7791C66.5189 18.8302 66.8516 18.9886 67.0666 19.193C67.1792 19.2952 67.215 19.4229 67.3072 19.52C67.4044 19.6274 67.4914 19.7347 67.6296 19.8777C67.6296 19.8777 67.6297 19.8777 67.6399 19.8829C67.6399 19.8829 67.6706 19.8829 67.6808 19.8777C67.819 19.7347 67.9112 19.6274 68.0033 19.52C68.1006 19.4178 68.1364 19.2952 68.2439 19.193C68.4589 18.9886 68.7916 18.8353 69.1858 18.7791C69.196 18.7791 69.2062 18.774 69.2062 18.7637C69.2062 18.7535 69.2011 18.7433 69.1858 18.7433H69.196Z" fill="#D86800"/>
<path opacity="0.1" d="M62.1269 10.2706C61.7174 10.2144 61.2516 10.3013 60.8984 10.5108C60.7909 10.5772 60.6783 10.6488 60.5913 10.7357C60.5043 10.6488 60.3916 10.5721 60.2841 10.5108C59.9309 10.2962 59.4651 10.2144 59.0556 10.2706C59.0454 10.2706 59.0352 10.2757 59.0352 10.286C59.0352 10.2962 59.0403 10.3064 59.0556 10.3064C59.4498 10.3575 59.7825 10.5159 59.9975 10.7203C60.1101 10.8225 60.1459 10.9503 60.2381 11.0474C60.3353 11.1547 60.4223 11.262 60.5606 11.4051C60.5606 11.4051 60.5606 11.4051 60.5708 11.4102C60.5708 11.4102 60.6015 11.4102 60.6117 11.4051C60.75 11.262 60.8421 11.1547 60.9342 11.0474C61.0315 10.9452 61.0673 10.8225 61.1748 10.7203C61.3898 10.5159 61.7225 10.3626 62.1167 10.3064C62.1269 10.3064 62.1371 10.3013 62.1371 10.2911C62.1371 10.2809 62.132 10.2706 62.1167 10.2706H62.1269Z" fill="#D86800"/>
<path opacity="0.1" d="M50.1899 34.0277C49.7804 33.9715 49.3146 34.0584 48.9614 34.2679C48.8539 34.3343 48.7413 34.4059 48.6543 34.4927C48.5672 34.4059 48.4546 34.3292 48.3471 34.2679C47.9939 34.0533 47.5281 33.9715 47.1186 34.0277C47.1084 34.0277 47.0981 34.0328 47.0981 34.043C47.0981 34.0533 47.1033 34.0635 47.1186 34.0635C47.5128 34.1146 47.8455 34.273 48.0605 34.4774C48.1731 34.5796 48.2089 34.7074 48.3011 34.8045C48.3983 34.9118 48.4853 35.0191 48.6235 35.1622C48.6235 35.1622 48.6235 35.1622 48.6338 35.1673C48.6338 35.1673 48.6645 35.1673 48.6747 35.1622C48.8129 35.0191 48.9051 34.9067 48.9972 34.8045C49.0945 34.7023 49.1303 34.5796 49.2378 34.4774C49.4528 34.273 49.7855 34.1197 50.1797 34.0635C50.1899 34.0635 50.2001 34.0584 50.2001 34.0482C50.2001 34.0379 50.195 34.0277 50.1797 34.0277H50.1899Z" fill="#D86800"/>
<path opacity="0.1" d="M80.7645 44.5802C80.355 44.524 79.8892 44.6109 79.536 44.8204C79.4285 44.8868 79.3159 44.9584 79.2288 45.0452C79.1418 44.9584 79.0292 44.8817 78.9217 44.8204C78.5685 44.6058 78.1027 44.524 77.6932 44.5802C77.683 44.5802 77.6727 44.5853 77.6727 44.5955C77.6727 44.6058 77.6778 44.616 77.6932 44.616C78.0873 44.6671 78.4201 44.8255 78.6351 45.0299C78.7477 45.1321 78.7835 45.2599 78.8756 45.357C78.9729 45.4643 79.0599 45.5716 79.1981 45.7147C79.1981 45.7147 79.1981 45.7147 79.2084 45.7198C79.2084 45.7198 79.2391 45.7198 79.2493 45.7147C79.3875 45.5716 79.4797 45.4592 79.5718 45.357C79.6691 45.2547 79.7049 45.1321 79.8124 45.0299C80.0274 44.8255 80.3601 44.6722 80.7542 44.616C80.7645 44.616 80.7747 44.6109 80.7747 44.6006C80.7747 44.5904 80.7696 44.5802 80.7542 44.5802H80.7645Z" fill="#D86800"/>
<path opacity="0.1" d="M76.6745 29.495C76.265 29.4388 75.7992 29.5257 75.446 29.7352C75.3385 29.8016 75.2259 29.8732 75.1389 29.96C75.0519 29.8732 74.9392 29.7965 74.8318 29.7352C74.4786 29.5206 74.0127 29.4388 73.6032 29.495C73.593 29.495 73.5828 29.5001 73.5828 29.5103C73.5828 29.5206 73.5879 29.5308 73.6032 29.5308C73.9974 29.5819 74.3301 29.7403 74.5451 29.9447C74.6577 30.0469 74.6935 30.1747 74.7857 30.2717C74.8829 30.3791 74.97 30.4864 75.1082 30.6295C75.1082 30.6295 75.1082 30.6295 75.1184 30.6346C75.1184 30.6346 75.1491 30.6346 75.1594 30.6295C75.2976 30.4864 75.3897 30.3791 75.4818 30.2717C75.5791 30.1695 75.6149 30.0469 75.7224 29.9447C75.9374 29.7403 76.2701 29.587 76.6643 29.5308C76.6745 29.5308 76.6848 29.5257 76.6848 29.5154C76.6848 29.5052 76.6796 29.495 76.6643 29.495H76.6745Z" fill="#D86800"/>
<path opacity="0.1" d="M56.6191 24.2008C56.2096 24.1446 55.7438 24.2315 55.3906 24.441C55.2831 24.5074 55.1705 24.579 55.0835 24.6658C54.9964 24.579 54.8838 24.5023 54.7763 24.441C54.4231 24.2264 53.9573 24.1446 53.5478 24.2008C53.5376 24.2008 53.5273 24.2059 53.5273 24.2161C53.5273 24.2264 53.5325 24.2366 53.5478 24.2366C53.942 24.2877 54.2747 24.4461 54.4897 24.6505C54.6023 24.7527 54.6381 24.8805 54.7303 24.9776C54.8275 25.0849 54.9145 25.1922 55.0527 25.3353C55.0527 25.3353 55.0527 25.3353 55.063 25.3404C55.063 25.3404 55.0937 25.3404 55.1039 25.3353C55.2421 25.1922 55.3343 25.0849 55.4264 24.9776C55.5237 24.8754 55.5595 24.7527 55.667 24.6505C55.882 24.4461 56.2147 24.2928 56.6089 24.2366C56.6191 24.2366 56.6293 24.2315 56.6293 24.2213C56.6293 24.211 56.6242 24.2008 56.6089 24.2008H56.6191Z" fill="#D86800"/>
<path opacity="0.1" d="M76.6745 38.0289C76.265 37.9727 75.7992 38.0596 75.446 38.2691C75.3385 38.3355 75.2259 38.4071 75.1389 38.494C75.0519 38.4071 74.9392 38.3304 74.8318 38.2691C74.4786 38.0545 74.0127 37.9727 73.6032 38.0289C73.593 38.0289 73.5828 38.034 73.5828 38.0443C73.5828 38.0545 73.5879 38.0647 73.6032 38.0647C73.9974 38.1158 74.3301 38.2742 74.5451 38.4786C74.6577 38.5808 74.6935 38.7086 74.7857 38.8057C74.8829 38.913 74.97 39.0203 75.1082 39.1634C75.1082 39.1634 75.1082 39.1634 75.1184 39.1685C75.1184 39.1685 75.1491 39.1685 75.1594 39.1634C75.2976 39.0203 75.3897 38.913 75.4818 38.8057C75.5791 38.7035 75.6149 38.5808 75.7224 38.4786C75.9374 38.2742 76.2701 38.1209 76.6643 38.0647C76.6745 38.0647 76.6848 38.0596 76.6848 38.0494C76.6848 38.0392 76.6796 38.0289 76.6643 38.0289H76.6745Z" fill="#D86800"/>
<path opacity="0.1" d="M63.9902 28.9125C63.5807 28.8563 63.1149 28.9431 62.7617 29.1527C62.6542 29.2191 62.5416 29.2906 62.4546 29.3775C62.3675 29.2906 62.2549 29.214 62.1474 29.1527C61.7942 28.938 61.3284 28.8563 60.9189 28.9125C60.9087 28.9125 60.8984 28.9176 60.8984 28.9278C60.8984 28.938 60.9036 28.9483 60.9189 28.9483C61.3131 28.9994 61.6458 29.1578 61.8608 29.3622C61.9734 29.4644 62.0092 29.5921 62.1014 29.6892C62.1986 29.7965 62.2856 29.9039 62.4238 30.0469C62.4238 30.0469 62.4238 30.0469 62.4341 30.0521C62.4341 30.0521 62.4648 30.052 62.475 30.0469C62.6132 29.9039 62.7054 29.7965 62.7975 29.6892C62.8948 29.587 62.9306 29.4644 63.0381 29.3622C63.2531 29.1578 63.5858 29.0045 63.98 28.9483C63.9902 28.9483 64.0004 28.9431 64.0004 28.9329C64.0004 28.9227 63.9953 28.9125 63.98 28.9125H63.9902Z" fill="#D86800"/>
<path opacity="0.1" d="M30.1446 35.9645C29.7351 35.9083 29.2693 35.9951 28.9161 36.2047C28.8086 36.2711 28.696 36.3426 28.609 36.4295C28.522 36.3426 28.4093 36.266 28.3018 36.2047C27.9486 35.99 27.4828 35.9083 27.0733 35.9645C27.0631 35.9645 27.0529 35.9696 27.0529 35.9798C27.0529 35.99 27.058 36.0003 27.0733 36.0003C27.4675 36.0514 27.8002 36.2098 28.0152 36.4142C28.1278 36.5164 28.1636 36.6441 28.2558 36.7412C28.353 36.8485 28.4401 36.9559 28.5783 37.0989C28.5783 37.0989 28.5783 37.0989 28.5885 37.104C28.5885 37.104 28.6192 37.1041 28.6294 37.0989C28.7677 36.9559 28.8598 36.8434 28.9519 36.7412C29.0492 36.639 29.085 36.5164 29.1925 36.4142C29.4075 36.2098 29.7402 36.0565 30.1344 36.0003C30.1446 36.0003 30.1549 35.9951 30.1549 35.9849C30.1549 35.9747 30.1497 35.9645 30.1344 35.9645H30.1446Z" fill="#D86800"/>
<path d="M124.73 52.5624C124.73 52.5011 124.74 52.4398 124.74 52.3784C124.74 50.1249 122.913 48.3005 120.655 48.3005C119.852 48.3005 119.109 48.5356 118.475 48.9342C118.157 48.8575 117.83 48.8116 117.487 48.8116C116.586 48.8116 115.752 49.1079 115.076 49.6036C114.564 49.3737 114.001 49.2459 113.402 49.2459C112.803 49.2459 112.266 49.3686 111.764 49.5883C111.262 49.3686 110.709 49.2459 110.126 49.2459C109.251 49.2459 108.442 49.5219 107.782 49.9869C107.116 49.5219 106.307 49.2459 105.437 49.2459C104.168 49.2459 103.031 49.8234 102.284 50.733C102.156 50.6563 102.018 50.5848 101.88 50.5235C101.204 49.205 99.832 48.3056 98.2452 48.3056C97.4416 48.3056 96.6993 48.5407 96.0646 48.9393C95.7472 48.8627 95.4196 48.8167 95.0767 48.8167C94.1706 48.8167 93.3414 49.1131 92.6657 49.6087C92.1538 49.3788 91.5908 49.251 90.9919 49.251C90.393 49.251 89.8555 49.3737 89.3538 49.5934C88.8522 49.3737 88.2994 49.251 87.7158 49.251C86.8405 49.251 86.0317 49.527 85.3714 49.992C84.706 49.527 83.8972 49.251 83.027 49.251C81.7575 49.251 80.6212 49.8285 79.8738 50.7381C79.7458 50.6614 79.6076 50.5899 79.4694 50.5286C78.7938 49.2101 77.4219 48.3108 75.8351 48.3108C75.0314 48.3108 74.2892 48.5458 73.6545 48.9444C73.3371 48.8678 73.0095 48.8218 72.6666 48.8218C71.7656 48.8218 70.9313 49.1182 70.2556 49.6138C69.7437 49.3839 69.1806 49.2561 68.5817 49.2561C67.9828 49.2561 67.4454 49.3788 66.9437 49.5985C66.4421 49.3788 65.8893 49.2561 65.3057 49.2561C64.4304 49.2561 63.6216 49.5321 62.9613 49.9971C62.2959 49.5321 61.4871 49.2561 60.6169 49.2561C59.3474 49.2561 58.2111 49.8336 57.4637 50.7432C57.3357 50.6665 57.1975 50.595 57.0593 50.5337C56.3836 49.2153 55.0118 48.3159 53.425 48.3159C52.6213 48.3159 51.8791 48.5509 51.2444 48.9495C50.927 48.8729 50.5994 48.8269 50.2564 48.8269C49.3555 48.8269 48.5212 49.1233 47.8455 49.619C47.3336 49.389 46.7705 49.2612 46.1716 49.2612C45.5727 49.2612 45.0353 49.3839 44.5336 49.6036C44.032 49.3839 43.4791 49.2612 42.8956 49.2612C42.0203 49.2612 41.2115 49.5372 40.5512 50.0022C39.8857 49.5372 39.077 49.2612 38.2068 49.2612C36.9373 49.2612 35.8009 49.8387 35.0536 50.7483C34.9256 50.6717 34.7874 50.6001 34.6492 50.5388C33.9735 49.2204 32.6017 48.321 31.0149 48.321C30.2112 48.321 29.469 48.556 28.8342 48.9546C28.5169 48.878 28.1893 48.832 27.8463 48.832C26.9403 48.832 26.111 49.1284 25.4354 49.6241C24.9235 49.3941 24.3604 49.2664 23.7615 49.2664C23.1626 49.2664 22.6251 49.389 22.1235 49.6087C21.6219 49.389 21.069 49.2664 20.4855 49.2664C19.6102 49.2664 18.8014 49.5423 18.1411 50.0073C17.4756 49.5423 16.6669 49.2664 15.7967 49.2664C14.5272 49.2664 13.3908 49.8438 12.6435 50.7534C12.0292 50.3855 11.3126 50.1709 10.5448 50.1709C8.28737 50.1709 6.45996 51.9952 6.45996 54.2488C6.45996 54.6422 6.51627 55.0153 6.62376 55.3781H126.388C126.388 54.1772 125.718 53.1296 124.735 52.588L124.73 52.5624Z" fill="url(#paint5_linear_124_8753)"/>
<path d="M85.8218 59.8086C85.8064 59.8699 85.7808 59.9414 85.7296 60.0181C85.3713 60.5853 84.9106 60.9584 84.0865 61.868C83.2624 62.7776 82.9706 63.677 83.7947 62.6805C84.6189 61.684 85.013 60.7028 85.5249 61.1525C86.0368 61.6022 87.5263 61.4949 87.7618 61.7709C87.9973 62.0468 86.9326 63.6003 87.4649 63.3346C87.9973 63.0689 88.1611 62.0059 88.6167 62.0622C89.0722 62.1184 89.3486 62.379 90.3724 62.5987C91.3962 62.8185 91.7135 62.844 92.0463 63.3039C92.379 63.7587 93.3464 63.677 93.1519 64.3515C92.9574 65.026 93.3413 65.0465 93.6484 64.6581C93.9556 64.2697 94.6824 64.4895 95.1278 64.8063C95.5731 65.1231 95.8188 64.5201 96.259 64.9136C96.6992 65.3071 104.516 64.0653 103.441 71.1531C102.371 78.2358 93.5768 83.2438 92.251 86.6625C90.9252 90.0761 86.1494 90.7404 84.9311 95.0431C83.7128 99.3459 79.5205 99.3255 80.145 98.375C80.7695 97.4245 81.4913 96.5557 80.3959 97.2558C79.2953 97.961 79.8226 98.2881 78.2255 99.7445C76.6284 101.201 76.6847 101.829 75.0262 101.456C73.3677 101.083 73.076 100.649 73.6595 101.686C74.2379 102.724 74.842 103.342 74.284 103.572C73.7261 103.802 70.8646 105.478 69.3904 105.478C67.9162 105.478 69.2062 105.708 68.4383 106.469C67.6705 107.236 66.7184 107.006 66.6775 107.834C66.6365 108.662 65.7049 109.51 64.6453 109.985C63.5857 110.46 65.1981 110.956 64.5583 111.682C63.9184 112.407 61.0161 113.174 61.6559 113.895C62.2958 114.615 64.6811 115.893 64.1437 116.199C63.6062 116.506 60.4735 116.772 58.5027 115.923C56.532 115.075 56.8442 114.83 56.9313 114.61C57.0183 114.385 57.1207 114.089 56.7982 114.089C56.4757 114.089 55.8717 113.746 55.9792 113.527C56.0867 113.302 56.1123 113.102 55.8307 112.76C55.5492 112.418 55.5953 112.52 55.3393 112.361C55.0834 112.203 55.0527 111.82 55.4622 111.835C55.8717 111.85 55.841 111.758 55.8256 111.554C55.8154 111.355 56.1942 111.237 55.9689 111.125C55.7386 111.012 55.6362 111.038 55.3137 111.12C54.9912 111.201 54.1313 111.161 54.1313 110.91C54.1313 110.66 54.9247 110.839 55.2625 110.588C55.6004 110.343 55.7693 109.658 55.9843 109.873C56.1993 110.093 56.6549 110.803 56.7112 110.241C56.7675 109.679 56.6753 108.907 56.8698 108.294C57.0644 107.681 56.9466 106.904 56.6395 107.599C56.3375 108.289 56.3784 108.963 55.7386 108.887C55.1039 108.81 55.1602 108.411 55.5748 108.018C55.9894 107.624 55.8717 107.144 55.8154 106.873C55.7591 106.602 55.6157 106.188 55.9894 105.831C56.3631 105.478 56.404 105.381 56.3068 105.1C56.2095 104.819 55.5799 103.485 55.8154 103.373C56.0508 103.26 56.2044 103.301 56.2556 103.092C56.3068 102.877 56.2556 102.821 56.4552 102.719C56.6549 102.616 57.7042 99.9642 57.3971 98.8706C57.0848 97.772 57.3152 96.198 57.2333 95.3497C57.1514 94.5015 58.3287 87.4086 57.4483 85.0477C56.5678 82.6868 50.8143 81.072 48.8794 78.3687C46.9445 75.6654 43.3511 72.63 43.2385 70.1464C43.1259 67.6629 42.2454 66.1145 42.9058 65.4553C43.5712 64.791 43.8578 61.4234 44.3134 60.1816C44.3646 60.0334 44.4465 59.9006 44.5489 59.7728C20.0759 59.2413 2.57471 57.8258 2.57471 56.1599C2.57471 91.1339 30.9789 119.49 66.012 119.49C101.045 119.49 129.449 91.1339 129.449 56.1599C129.449 57.8616 111.155 59.3027 85.8167 59.8035L85.8218 59.8086Z" fill="url(#paint6_linear_124_8753)"/>
<path d="M44.5488 59.7729C44.4516 59.9007 44.3697 60.0336 44.3134 60.1818C43.8578 61.4235 43.566 64.7911 42.9057 65.4555C42.2403 66.1198 43.1258 67.663 43.2384 70.1466C43.351 72.6301 46.9444 75.6656 48.8794 78.3688C50.8143 81.0721 56.5678 82.6869 57.4482 85.0478C58.3287 87.4087 57.1513 94.5016 57.2332 95.3499C57.3151 96.1982 57.0899 97.7721 57.397 98.8708C57.7093 99.9695 56.6599 102.617 56.4552 102.719C56.2555 102.821 56.3067 102.877 56.2555 103.092C56.2044 103.306 56.0457 103.266 55.8153 103.373C55.5799 103.485 56.2095 104.814 56.3067 105.1C56.404 105.381 56.363 105.478 55.9894 105.831C55.6157 106.183 55.759 106.602 55.8153 106.873C55.8716 107.144 55.9894 107.625 55.5747 108.018C55.1601 108.411 55.1038 108.81 55.7385 108.887C56.3733 108.963 56.3323 108.289 56.6395 107.599C56.9415 106.909 57.0592 107.681 56.8698 108.294C56.6753 108.907 56.7674 109.679 56.7111 110.241C56.6548 110.803 56.1992 110.093 55.9843 109.873C55.7693 109.653 55.6003 110.338 55.2625 110.588C54.9247 110.834 54.1312 110.66 54.1312 110.91C54.1312 111.161 54.9912 111.202 55.3137 111.12C55.6362 111.038 55.7385 111.013 55.9689 111.125C56.1992 111.237 55.8153 111.355 55.8256 111.554C55.8358 111.754 55.8716 111.851 55.4621 111.835C55.0526 111.82 55.0833 112.203 55.3393 112.362C55.5952 112.52 55.5492 112.418 55.8307 112.76C56.1122 113.103 56.0866 113.302 55.9791 113.527C55.8716 113.752 56.4705 114.089 56.7981 114.089C57.1257 114.089 57.0234 114.39 56.9312 114.61C56.8442 114.835 56.532 115.075 58.5027 115.923C60.4734 116.772 63.601 116.501 64.1436 116.199C64.6811 115.893 62.3008 114.62 61.6559 113.895C61.0109 113.169 63.9133 112.403 64.5582 111.682C65.1981 110.956 63.5857 110.461 64.6453 109.985C65.7049 109.51 66.6365 108.662 66.6774 107.834C66.7184 107.006 67.6705 107.236 68.4383 106.47C69.2061 105.703 67.9213 105.478 69.3904 105.478C70.8595 105.478 73.726 103.802 74.284 103.572C74.8419 103.342 74.243 102.724 73.6595 101.686C73.081 100.649 73.3677 101.089 75.0262 101.457C76.6847 101.83 76.6233 101.201 78.2255 99.7446C79.8225 98.2882 79.3004 97.9612 80.3958 97.256C81.4964 96.5508 80.7695 97.4195 80.145 98.3751C79.5205 99.3256 83.7128 99.346 84.9311 95.0433C86.1494 90.7405 90.9252 90.0762 92.251 86.6626C93.5767 83.249 102.371 78.236 103.441 71.1533C104.51 64.0706 96.6992 65.3073 96.259 64.9138C95.8188 64.5203 95.5731 65.1233 95.1277 64.8065C94.6824 64.4896 93.9504 64.2699 93.6484 64.6583C93.3464 65.0466 92.9574 65.0262 93.1519 64.3517C93.3464 63.6771 92.3789 63.7589 92.0462 63.3041C91.7135 62.8493 91.3961 62.8186 90.3724 62.5989C89.3486 62.3791 89.0722 62.1134 88.6166 62.0623C88.161 62.0061 87.9921 63.069 87.4649 63.3347C86.9325 63.6005 87.9972 62.047 87.7618 61.771C87.5263 61.4951 86.0316 61.6075 85.5249 61.1527C85.013 60.703 84.6188 61.6842 83.7947 62.6806C82.9706 63.6771 83.2624 62.7726 84.0865 61.8681C84.9106 60.9585 85.3713 60.5855 85.7296 60.0182C85.7808 59.9416 85.8064 59.8752 85.8218 59.8087C79.5922 59.9314 72.9326 59.9978 66.0171 59.9978C58.4822 59.9978 51.2596 59.916 44.554 59.7729H44.5488Z" fill="url(#paint7_linear_124_8753)"/>
<path d="M70.5422 113.379C69.9075 113.532 69.8358 113.348 69.3086 113.471C69.0885 113.522 68.4998 113.327 68.1876 113.046C67.8753 112.765 67.9674 113.276 67.906 113.583C67.8446 113.895 67.6347 113.976 67.3174 114.012C66.9949 114.048 67.6194 114.682 67.8548 114.641C68.0954 114.6 68.7046 114.447 68.6738 114.585C68.6431 114.728 69.0373 114.763 69.242 114.671C69.4468 114.579 70.8391 114.309 71.4892 114.37C72.1393 114.431 71.4892 113.833 71.9704 113.583C72.4464 113.333 71.1718 113.22 70.5422 113.373V113.379Z" fill="url(#paint8_linear_124_8753)"/>
<path d="M123.158 54.4941C122.524 54.4123 121.843 54.3357 121.121 54.259C111.426 53.2319 94.1349 52.5062 73.8849 52.3529C71.3101 52.3325 68.6842 52.3223 66.0224 52.3223C59.5829 52.3223 53.3687 52.3785 47.5077 52.4909C46.7501 52.5062 46.0028 52.5216 45.2605 52.5369C44.6258 52.5522 43.9962 52.5624 43.3717 52.5778C19.5232 53.1297 2.57996 54.5247 2.57996 56.16C2.57996 57.7952 20.0811 59.2414 44.5541 59.7729C51.2598 59.9211 58.4824 59.9977 66.0173 59.9977C72.9328 59.9977 79.5923 59.9313 85.8219 59.8086C111.16 59.3079 129.455 57.8617 129.455 56.1651C129.455 55.5672 127.192 55 123.158 54.4992V54.4941Z" fill="url(#paint9_linear_124_8753)"/>
<path d="M38.2016 41.0952H23.5771V50.1453H38.2016V41.0952Z" fill="white"/>
<path d="M37.3259 47.0946H33.2667V49.6037H37.3259V47.0946Z" fill="url(#paint10_linear_124_8753)"/>
<path d="M32.9186 47.0946H28.8594V49.6037H32.9186V47.0946Z" fill="url(#paint11_linear_124_8753)"/>
<path d="M28.5114 47.0946H24.4521V49.6037H28.5114V47.0946Z" fill="url(#paint12_linear_124_8753)"/>
<path d="M37.3259 44.3658H33.2667V46.8749H37.3259V44.3658Z" fill="url(#paint13_linear_124_8753)"/>
<path d="M32.9186 44.3658H28.8594V46.8749H32.9186V44.3658Z" fill="url(#paint14_linear_124_8753)"/>
<path d="M28.5114 44.3658H24.4521V46.8749H28.5114V44.3658Z" fill="url(#paint15_linear_124_8753)"/>
<path d="M37.3259 41.637H33.2667V44.1461H37.3259V41.637Z" fill="url(#paint16_linear_124_8753)"/>
<path d="M32.9186 41.637H28.8594V44.1461H32.9186V41.637Z" fill="url(#paint17_linear_124_8753)"/>
<path d="M28.5114 41.637H24.4521V44.1461H28.5114V41.637Z" fill="url(#paint18_linear_124_8753)"/>
<path d="M35.1405 52.0105H26.6331V52.961H35.1405V52.0105Z" fill="#EFC399"/>
<path d="M33.0521 50.1453H28.7267V52.0105H33.0521V50.1453Z" fill="white"/>
<path d="M58.9396 44.2847H44.3152V53.3348H58.9396V44.2847Z" fill="white"/>
<path d="M58.064 50.2841H54.0048V52.7932H58.064V50.2841Z" fill="url(#paint19_linear_124_8753)"/>
<path d="M53.6567 50.2841H49.5975V52.7932H53.6567V50.2841Z" fill="url(#paint20_linear_124_8753)"/>
<path d="M49.2494 50.2841H45.1902V52.7932H49.2494V50.2841Z" fill="url(#paint21_linear_124_8753)"/>
<path d="M58.064 47.5552H54.0048V50.0643H58.064V47.5552Z" fill="url(#paint22_linear_124_8753)"/>
<path d="M53.6567 47.5552H49.5975V50.0643H53.6567V47.5552Z" fill="url(#paint23_linear_124_8753)"/>
<path d="M49.2494 47.5552H45.1902V50.0643H49.2494V47.5552Z" fill="url(#paint24_linear_124_8753)"/>
<path d="M58.064 44.8264H54.0048V47.3355H58.064V44.8264Z" fill="url(#paint25_linear_124_8753)"/>
<path d="M53.6567 44.8264H49.5975V47.3355H53.6567V44.8264Z" fill="url(#paint26_linear_124_8753)"/>
<path d="M49.2494 44.8264H45.1902V47.3355H49.2494V44.8264Z" fill="url(#paint27_linear_124_8753)"/>
<path d="M55.8785 55.2H47.3711V56.1504H55.8785V55.2Z" fill="#EFC399"/>
<path d="M53.7901 53.3347H49.4647V55.1999H53.7901V53.3347Z" fill="white"/>
<path d="M87.654 43.4873H73.0295V52.5374H87.654V43.4873Z" fill="white"/>
<path d="M86.7783 49.4867H82.7191V51.9958H86.7783V49.4867Z" fill="url(#paint28_linear_124_8753)"/>
<path d="M82.371 49.4867H78.3118V51.9958H82.371V49.4867Z" fill="url(#paint29_linear_124_8753)"/>
<path d="M77.9638 49.4867H73.9045V51.9958H77.9638V49.4867Z" fill="url(#paint30_linear_124_8753)"/>
<path d="M86.7783 46.7579H82.7191V49.267H86.7783V46.7579Z" fill="url(#paint31_linear_124_8753)"/>
<path d="M82.371 46.7579H78.3118V49.267H82.371V46.7579Z" fill="url(#paint32_linear_124_8753)"/>
<path d="M77.9638 46.7579H73.9045V49.267H77.9638V46.7579Z" fill="url(#paint33_linear_124_8753)"/>
<path d="M86.7783 44.0291H82.7191V46.5381H86.7783V44.0291Z" fill="url(#paint34_linear_124_8753)"/>
<path d="M82.371 44.0291H78.3118V46.5381H82.371V44.0291Z" fill="url(#paint35_linear_124_8753)"/>
<path d="M77.9638 44.0291H73.9045V46.5381H77.9638V44.0291Z" fill="url(#paint36_linear_124_8753)"/>
<path d="M84.5929 54.4026H76.0854V55.3531H84.5929V54.4026Z" fill="#EFC399"/>
<path d="M82.5045 52.5374H78.1791V54.4026H82.5045V52.5374Z" fill="white"/>
<path d="M109.19 43.4873H94.5652V52.5374H109.19V43.4873Z" fill="white"/>
<path d="M108.314 49.4867H104.255V51.9958H108.314V49.4867Z" fill="url(#paint37_linear_124_8753)"/>
<path d="M103.907 49.4867H99.8475V51.9958H103.907V49.4867Z" fill="url(#paint38_linear_124_8753)"/>
<path d="M99.4994 49.4867H95.4402V51.9958H99.4994V49.4867Z" fill="url(#paint39_linear_124_8753)"/>
<path d="M108.314 46.7579H104.255V49.267H108.314V46.7579Z" fill="url(#paint40_linear_124_8753)"/>
<path d="M103.907 46.7579H99.8475V49.267H103.907V46.7579Z" fill="url(#paint41_linear_124_8753)"/>
<path d="M99.4994 46.7579H95.4402V49.267H99.4994V46.7579Z" fill="url(#paint42_linear_124_8753)"/>
<path d="M108.314 44.0291H104.255V46.5381H108.314V44.0291Z" fill="url(#paint43_linear_124_8753)"/>
<path d="M103.907 44.0291H99.8475V46.5381H103.907V44.0291Z" fill="url(#paint44_linear_124_8753)"/>
<path d="M99.4994 44.0291H95.4402V46.5381H99.4994V44.0291Z" fill="url(#paint45_linear_124_8753)"/>
<path d="M106.129 54.4026H97.6211V55.3531H106.129V54.4026Z" fill="#EFC399"/>
<path d="M104.04 52.5374H99.7147V54.4026H104.04V52.5374Z" fill="white"/>
<path d="M18.9908 54.9131H14.9315C14.435 54.9131 14.0306 55.3168 14.0306 55.8125V55.976H19.8917V55.8125C19.8917 55.3168 19.4873 54.9131 18.9908 54.9131Z" fill="#D1D3D4"/>
<path d="M17.8186 54.9131H16.1038L16.7078 26.6743H17.2094L17.8186 54.9131Z" fill="white"/>
<path d="M17.7367 18.7432C17.7367 23.1227 17.3886 26.6691 16.9586 26.6691C16.5286 26.6691 16.1805 23.1175 16.1805 18.7432C16.1805 14.3689 16.5286 10.8174 16.9586 10.8174C17.3886 10.8174 17.7367 14.3689 17.7367 18.7432Z" fill="white"/>
<path d="M10.8057 31.8098C7.17139 34.2627 4.03357 35.9644 3.79298 35.6118C3.5524 35.2592 6.3012 32.98 9.93554 30.5272C13.5699 28.0743 16.7077 26.3726 16.9483 26.7252C17.1889 27.0778 14.4401 29.3569 10.8057 31.8098Z" fill="white"/>
<path d="M23.1165 31.8098C26.7508 34.2627 29.8886 35.9644 30.1292 35.6118C30.3698 35.2592 27.621 32.98 23.9866 30.5272C20.3523 28.0743 17.2145 26.3726 16.9739 26.7252C16.7333 27.0778 19.4821 29.3569 23.1165 31.8098Z" fill="white"/>
<path d="M18.1512 26.6231C18.1512 27.3079 17.5932 27.8649 16.9073 27.8649C16.2214 27.8649 15.6635 27.3079 15.6635 26.6231C15.6635 25.9384 16.2214 25.3813 16.9073 25.3813C17.5932 25.3813 18.1512 25.9384 18.1512 26.6231Z" fill="#D1D3D4"/>
<path d="M64.9012 53.9062H61.62C61.2976 53.9062 61.0365 54.1669 61.0365 54.4888V54.7137H65.4847V54.4888C65.4847 54.1669 65.2237 53.9062 64.9012 53.9062Z" fill="#D1D3D4"/>
<path d="M64.0567 53.9064H62.4647L63.0687 32.4744H63.4527L64.0567 53.9064Z" fill="white"/>
<path d="M63.2581 32.4744C63.5832 32.4744 63.8468 29.7792 63.8468 26.4546C63.8468 23.13 63.5832 20.4348 63.2581 20.4348C62.933 20.4348 62.6694 23.13 62.6694 26.4546C62.6694 29.7792 62.933 32.4744 63.2581 32.4744Z" fill="white"/>
<path d="M58.5898 36.3682C55.8307 38.2334 53.4505 39.5212 53.2662 39.2555C53.0819 38.9846 55.1704 37.2574 57.9294 35.3922C60.6885 33.527 63.0687 32.2392 63.253 32.5049C63.4373 32.7758 61.3488 34.503 58.5898 36.3682Z" fill="white"/>
<path d="M67.9316 36.3682C70.6907 38.2334 73.0709 39.5212 73.2552 39.2555C73.4395 38.9897 71.351 37.2574 68.5919 35.3922C65.8329 33.527 63.4527 32.2392 63.2684 32.5049C63.0841 32.7758 65.1726 34.503 67.9316 36.3682Z" fill="white"/>
<path d="M64.1641 32.4334C64.1641 32.9547 63.7392 33.3788 63.2171 33.3788C62.695 33.3788 62.2701 32.9547 62.2701 32.4334C62.2701 31.9122 62.695 31.488 63.2171 31.488C63.7392 31.488 64.1641 31.9122 64.1641 32.4334Z" fill="#D1D3D4"/>
<path d="M92.5889 55.3779H89.9527C89.6302 55.3779 89.3691 55.6385 89.3691 55.9605V56.0678H93.1724V55.9605C93.1724 55.6385 92.9114 55.3779 92.5889 55.3779Z" fill="#D1D3D4"/>
<path d="M92.0411 55.3778H90.5055L91.1095 37.0579H91.4371L92.0411 55.3778Z" fill="white"/>
<path d="M91.2734 37.058C91.5532 37.058 91.7801 34.7541 91.7801 31.912C91.7801 29.07 91.5532 26.7661 91.2734 26.7661C90.9935 26.7661 90.7666 29.07 90.7666 31.912C90.7666 34.7541 90.9935 37.058 91.2734 37.058Z" fill="white"/>
<path d="M87.2806 40.3847C84.926 41.9791 82.8887 43.0829 82.73 42.8529C82.5713 42.6229 84.3578 41.1461 86.7124 39.5517C89.0671 37.9574 91.1044 36.8536 91.2631 37.0835C91.4217 37.3135 89.6353 38.7903 87.2806 40.3847Z" fill="white"/>
<path d="M95.2659 40.3847C97.6206 41.9791 99.6578 43.0829 99.8165 42.8529C99.9752 42.6229 98.1887 41.1461 95.8341 39.5517C93.4795 37.9574 91.4422 36.8536 91.2835 37.0835C91.1248 37.3135 92.9113 38.7903 95.2659 40.3847Z" fill="white"/>
<path d="M92.0463 37.0223C92.0463 37.4668 91.6828 37.8297 91.2375 37.8297C90.7921 37.8297 90.4287 37.4668 90.4287 37.0223C90.4287 36.5777 90.7921 36.2148 91.2375 36.2148C91.6828 36.2148 92.0463 36.5777 92.0463 37.0223Z" fill="#D1D3D4"/>
<path d="M116.545 54.7546H113.909C113.586 54.7546 113.325 55.0153 113.325 55.3372V55.4445H117.128V55.3372C117.128 55.0153 116.867 54.7546 116.545 54.7546Z" fill="#D1D3D4"/>
<path d="M115.997 54.7547H114.462L115.066 36.4297H115.393L115.997 54.7547Z" fill="white"/>
<path d="M115.736 31.2888C115.736 34.13 115.511 36.4347 115.229 36.4347C114.948 36.4347 114.723 34.13 114.723 31.2888C114.723 28.4475 114.948 26.1428 115.229 26.1428C115.511 26.1428 115.736 28.4475 115.736 31.2888Z" fill="white"/>
<path d="M111.237 39.7614C108.882 41.3558 106.845 42.4596 106.686 42.2296C106.527 41.9996 108.314 40.5228 110.669 38.9284C113.023 37.3341 115.06 36.2303 115.219 36.4602C115.378 36.6902 113.591 38.167 111.237 39.7614Z" fill="white"/>
<path d="M119.222 39.7614C121.577 41.3558 123.614 42.4596 123.773 42.2296C123.931 41.9996 122.145 40.5228 119.79 38.9284C117.436 37.3341 115.398 36.2303 115.24 36.4602C115.081 36.6902 116.867 38.167 119.222 39.7614Z" fill="white"/>
<path d="M116.002 36.399C116.002 36.8435 115.639 37.2064 115.194 37.2064C114.748 37.2064 114.385 36.8435 114.385 36.399C114.385 35.9544 114.748 35.5916 115.194 35.5916C115.639 35.5916 116.002 35.9544 116.002 36.399Z" fill="#D1D3D4"/>
</g>
<defs>
<linearGradient id="paint0_linear_124_8753" x1="92.694" y1="14.8596" x2="92.694" y2="54.6218" gradientUnits="userSpaceOnUse">
<stop stop-color="#FFC11C"/>
<stop offset="1" stop-color="#FFE6A5"/>
</linearGradient>
<linearGradient id="paint1_linear_124_8753" x1="92.6888" y1="-29.4019" x2="92.6888" y2="54.6218" gradientUnits="userSpaceOnUse">
<stop stop-color="#FFC11C"/>
<stop offset="1" stop-color="#FFE6A5"/>
</linearGradient>
<linearGradient id="paint2_linear_124_8753" x1="10.9901" y1="18.7229" x2="68.5804" y2="34.2052" gradientUnits="userSpaceOnUse">
<stop stop-color="#FFCA3E"/>
<stop offset="1" stop-color="#FFE8AB"/>
</linearGradient>
<linearGradient id="paint3_linear_124_8753" x1="37.0423" y1="0.898761" x2="37.0423" y2="54.6116" gradientUnits="userSpaceOnUse">
<stop stop-color="#FFC11C"/>
<stop offset="0.679937" stop-color="#FFE6A5"/>
</linearGradient>
<linearGradient id="paint4_linear_124_8753" x1="62.3087" y1="-29.402" x2="62.3087" y2="54.6217" gradientUnits="userSpaceOnUse">
<stop stop-color="#FFC11C"/>
<stop offset="1" stop-color="#FFE6A5"/>
</linearGradient>
<linearGradient id="paint5_linear_124_8753" x1="20.9769" y1="134.003" x2="61.4808" y2="62.6779" gradientUnits="userSpaceOnUse">
<stop stop-color="#EFA01F"/>
<stop offset="1" stop-color="#DD770F"/>
</linearGradient>
<linearGradient id="paint6_linear_124_8753" x1="11.1231" y1="56.257" x2="118.344" y2="98.4062" gradientUnits="userSpaceOnUse">
<stop stop-color="#F9E9BD"/>
<stop offset="1" stop-color="#FFC21F"/>
</linearGradient>
<linearGradient id="paint7_linear_124_8753" x1="13.5587" y1="73.461" x2="108.946" y2="55.814" gradientUnits="userSpaceOnUse">
<stop stop-color="#D86800" stop-opacity="0.01"/>
<stop offset="1" stop-color="#D86800"/>
</linearGradient>
<linearGradient id="paint8_linear_124_8753" x1="-43.9246" y1="180.424" x2="124.046" y2="81.5444" gradientUnits="userSpaceOnUse">
<stop stop-color="#D86800"/>
<stop offset="1" stop-color="#D86800"/>
</linearGradient>
<linearGradient id="paint9_linear_124_8753" x1="40.6229" y1="100.726" x2="129.11" y2="30.6693" gradientUnits="userSpaceOnUse">
<stop stop-color="#FFC323"/>
<stop offset="1" stop-color="#E1831B"/>
</linearGradient>
<linearGradient id="paint10_linear_124_8753" x1="37.4882" y1="45.9512" x2="19.9406" y2="45.9511" gradientUnits="userSpaceOnUse">
<stop stop-color="#D86800"/>
<stop offset="1" stop-color="#D86800" stop-opacity="0"/>
</linearGradient>
<linearGradient id="paint11_linear_124_8753" x1="37.4882" y1="45.9512" x2="19.9406" y2="45.9511" gradientUnits="userSpaceOnUse">
<stop stop-color="#D86800"/>
<stop offset="1" stop-color="#D86800" stop-opacity="0"/>
</linearGradient>
<linearGradient id="paint12_linear_124_8753" x1="37.4882" y1="45.9512" x2="19.9406" y2="45.9511" gradientUnits="userSpaceOnUse">
<stop stop-color="#D86800"/>
<stop offset="1" stop-color="#D86800" stop-opacity="0"/>
</linearGradient>
<linearGradient id="paint13_linear_124_8753" x1="37.4882" y1="45.9512" x2="19.9406" y2="45.9511" gradientUnits="userSpaceOnUse">
<stop stop-color="#D86800"/>
<stop offset="1" stop-color="#D86800" stop-opacity="0"/>
</linearGradient>
<linearGradient id="paint14_linear_124_8753" x1="37.4882" y1="45.9512" x2="19.9406" y2="45.9511" gradientUnits="userSpaceOnUse">
<stop stop-color="#D86800"/>
<stop offset="1" stop-color="#D86800" stop-opacity="0"/>
</linearGradient>
<linearGradient id="paint15_linear_124_8753" x1="37.4882" y1="45.9512" x2="19.9406" y2="45.9511" gradientUnits="userSpaceOnUse">
<stop stop-color="#D86800"/>
<stop offset="1" stop-color="#D86800" stop-opacity="0"/>
</linearGradient>
<linearGradient id="paint16_linear_124_8753" x1="37.4882" y1="45.9512" x2="19.9406" y2="45.9511" gradientUnits="userSpaceOnUse">
<stop stop-color="#D86800"/>
<stop offset="1" stop-color="#D86800" stop-opacity="0"/>
</linearGradient>
<linearGradient id="paint17_linear_124_8753" x1="37.4882" y1="45.9512" x2="19.9406" y2="45.9511" gradientUnits="userSpaceOnUse">
<stop stop-color="#D86800"/>
<stop offset="1" stop-color="#D86800" stop-opacity="0"/>
</linearGradient>
<linearGradient id="paint18_linear_124_8753" x1="37.4882" y1="45.9512" x2="19.9406" y2="45.9511" gradientUnits="userSpaceOnUse">
<stop stop-color="#D86800"/>
<stop offset="1" stop-color="#D86800" stop-opacity="0"/>
</linearGradient>
<linearGradient id="paint19_linear_124_8753" x1="58.2263" y1="49.1406" x2="40.6787" y2="49.1406" gradientUnits="userSpaceOnUse">
<stop stop-color="#D86800"/>
<stop offset="1" stop-color="#D86800" stop-opacity="0"/>
</linearGradient>
<linearGradient id="paint20_linear_124_8753" x1="58.2263" y1="49.1406" x2="40.6787" y2="49.1406" gradientUnits="userSpaceOnUse">
<stop stop-color="#D86800"/>
<stop offset="1" stop-color="#D86800" stop-opacity="0"/>
</linearGradient>
<linearGradient id="paint21_linear_124_8753" x1="58.2263" y1="49.1406" x2="40.6787" y2="49.1406" gradientUnits="userSpaceOnUse">
<stop stop-color="#D86800"/>
<stop offset="1" stop-color="#D86800" stop-opacity="0"/>
</linearGradient>
<linearGradient id="paint22_linear_124_8753" x1="58.2263" y1="49.1406" x2="40.6787" y2="49.1406" gradientUnits="userSpaceOnUse">
<stop stop-color="#D86800"/>
<stop offset="1" stop-color="#D86800" stop-opacity="0"/>
</linearGradient>
<linearGradient id="paint23_linear_124_8753" x1="58.2263" y1="49.1406" x2="40.6787" y2="49.1406" gradientUnits="userSpaceOnUse">
<stop stop-color="#D86800"/>
<stop offset="1" stop-color="#D86800" stop-opacity="0"/>
</linearGradient>
<linearGradient id="paint24_linear_124_8753" x1="58.2263" y1="49.1406" x2="40.6787" y2="49.1406" gradientUnits="userSpaceOnUse">
<stop stop-color="#D86800"/>
<stop offset="1" stop-color="#D86800" stop-opacity="0"/>
</linearGradient>
<linearGradient id="paint25_linear_124_8753" x1="58.2263" y1="49.1406" x2="40.6787" y2="49.1406" gradientUnits="userSpaceOnUse">
<stop stop-color="#D86800"/>
<stop offset="1" stop-color="#D86800" stop-opacity="0"/>
</linearGradient>
<linearGradient id="paint26_linear_124_8753" x1="58.2263" y1="49.1406" x2="40.6787" y2="49.1406" gradientUnits="userSpaceOnUse">
<stop stop-color="#D86800"/>
<stop offset="1" stop-color="#D86800" stop-opacity="0"/>
</linearGradient>
<linearGradient id="paint27_linear_124_8753" x1="58.2263" y1="49.1406" x2="40.6787" y2="49.1406" gradientUnits="userSpaceOnUse">
<stop stop-color="#D86800"/>
<stop offset="1" stop-color="#D86800" stop-opacity="0"/>
</linearGradient>
<linearGradient id="paint28_linear_124_8753" x1="86.9406" y1="48.3432" x2="69.393" y2="48.3432" gradientUnits="userSpaceOnUse">
<stop stop-color="#D86800"/>
<stop offset="1" stop-color="#D86800" stop-opacity="0"/>
</linearGradient>
<linearGradient id="paint29_linear_124_8753" x1="86.9406" y1="48.3432" x2="69.393" y2="48.3432" gradientUnits="userSpaceOnUse">
<stop stop-color="#D86800"/>
<stop offset="1" stop-color="#D86800" stop-opacity="0"/>
</linearGradient>
<linearGradient id="paint30_linear_124_8753" x1="86.9406" y1="48.3432" x2="69.393" y2="48.3432" gradientUnits="userSpaceOnUse">
<stop stop-color="#D86800"/>
<stop offset="1" stop-color="#D86800" stop-opacity="0"/>
</linearGradient>
<linearGradient id="paint31_linear_124_8753" x1="86.9406" y1="48.3432" x2="69.393" y2="48.3432" gradientUnits="userSpaceOnUse">
<stop stop-color="#D86800"/>
<stop offset="1" stop-color="#D86800" stop-opacity="0"/>
</linearGradient>
<linearGradient id="paint32_linear_124_8753" x1="86.9406" y1="48.3432" x2="69.393" y2="48.3432" gradientUnits="userSpaceOnUse">
<stop stop-color="#D86800"/>
<stop offset="1" stop-color="#D86800" stop-opacity="0"/>
</linearGradient>
<linearGradient id="paint33_linear_124_8753" x1="86.9406" y1="48.3432" x2="69.393" y2="48.3432" gradientUnits="userSpaceOnUse">
<stop stop-color="#D86800"/>
<stop offset="1" stop-color="#D86800" stop-opacity="0"/>
</linearGradient>
<linearGradient id="paint34_linear_124_8753" x1="86.9406" y1="48.3432" x2="69.393" y2="48.3432" gradientUnits="userSpaceOnUse">
<stop stop-color="#D86800"/>
<stop offset="1" stop-color="#D86800" stop-opacity="0"/>
</linearGradient>
<linearGradient id="paint35_linear_124_8753" x1="86.9406" y1="48.3432" x2="69.393" y2="48.3432" gradientUnits="userSpaceOnUse">
<stop stop-color="#D86800"/>
<stop offset="1" stop-color="#D86800" stop-opacity="0"/>
</linearGradient>
<linearGradient id="paint36_linear_124_8753" x1="86.9406" y1="48.3432" x2="69.393" y2="48.3432" gradientUnits="userSpaceOnUse">
<stop stop-color="#D86800"/>
<stop offset="1" stop-color="#D86800" stop-opacity="0"/>
</linearGradient>
<linearGradient id="paint37_linear_124_8753" x1="108.476" y1="48.3432" x2="90.9287" y2="48.3432" gradientUnits="userSpaceOnUse">
<stop stop-color="#D86800"/>
<stop offset="1" stop-color="#D86800" stop-opacity="0"/>
</linearGradient>
<linearGradient id="paint38_linear_124_8753" x1="108.476" y1="48.3432" x2="90.9287" y2="48.3432" gradientUnits="userSpaceOnUse">
<stop stop-color="#D86800"/>
<stop offset="1" stop-color="#D86800" stop-opacity="0"/>
</linearGradient>
<linearGradient id="paint39_linear_124_8753" x1="108.476" y1="48.3432" x2="90.9287" y2="48.3432" gradientUnits="userSpaceOnUse">
<stop stop-color="#D86800"/>
<stop offset="1" stop-color="#D86800" stop-opacity="0"/>
</linearGradient>
<linearGradient id="paint40_linear_124_8753" x1="108.476" y1="48.3432" x2="90.9287" y2="48.3432" gradientUnits="userSpaceOnUse">
<stop stop-color="#D86800"/>
<stop offset="1" stop-color="#D86800" stop-opacity="0"/>
</linearGradient>
<linearGradient id="paint41_linear_124_8753" x1="108.476" y1="48.3432" x2="90.9287" y2="48.3432" gradientUnits="userSpaceOnUse">
<stop stop-color="#D86800"/>
<stop offset="1" stop-color="#D86800" stop-opacity="0"/>
</linearGradient>
<linearGradient id="paint42_linear_124_8753" x1="108.476" y1="48.3432" x2="90.9287" y2="48.3432" gradientUnits="userSpaceOnUse">
<stop stop-color="#D86800"/>
<stop offset="1" stop-color="#D86800" stop-opacity="0"/>
</linearGradient>
<linearGradient id="paint43_linear_124_8753" x1="108.476" y1="48.3432" x2="90.9287" y2="48.3432" gradientUnits="userSpaceOnUse">
<stop stop-color="#D86800"/>
<stop offset="1" stop-color="#D86800" stop-opacity="0"/>
</linearGradient>
<linearGradient id="paint44_linear_124_8753" x1="108.476" y1="48.3432" x2="90.9287" y2="48.3432" gradientUnits="userSpaceOnUse">
<stop stop-color="#D86800"/>
<stop offset="1" stop-color="#D86800" stop-opacity="0"/>
</linearGradient>
<linearGradient id="paint45_linear_124_8753" x1="108.476" y1="48.3432" x2="90.9287" y2="48.3432" gradientUnits="userSpaceOnUse">
<stop stop-color="#D86800"/>
<stop offset="1" stop-color="#D86800" stop-opacity="0"/>
</linearGradient>
<clipPath id="clip0_124_8753">
<rect width="134" height="122" fill="white" transform="translate(0 0.5)"/>
</clipPath>
</defs>
</svg>
