<svg width="60" height="54" viewBox="0 0 60 54" fill="none" xmlns="http://www.w3.org/2000/svg">
<path d="M42.7652 45.1303H35.2471C34.0891 45.1303 33.1512 44.1923 33.1512 43.0344V8.31278C33.1512 7.15481 34.0891 6.21686 35.2471 6.21686H42.7652C43.9232 6.21686 44.8611 7.15481 44.8611 8.31278V43.0329C44.8611 44.1909 43.9232 45.1289 42.7652 45.1289V45.1303ZM31.3158 43.0344V21.544C31.3158 20.386 30.3778 19.4481 29.2199 19.4481H21.7018C20.5438 19.4481 19.6059 20.386 19.6059 21.544V43.0344C19.6059 44.1923 20.5438 45.1303 21.7018 45.1303H29.2199C30.3778 45.1303 31.3158 44.1923 31.3158 43.0344ZM17.7705 43.0344V32.7227C17.7705 31.5647 16.8325 30.6268 15.6746 30.6268H8.15793C6.99996 30.6268 6.06201 31.5647 6.06201 32.7227V43.0344C6.06201 44.1923 6.99996 45.1303 8.15793 45.1303H15.676C16.834 45.1303 17.7719 44.1923 17.7719 43.0344H17.7705Z" fill="url(#paint0_linear_42_311)"/>
<g filter="url(#filter0_b_42_311)">
<path d="M58.5117 25.5041L49.3247 16.3171C48.9383 15.9307 48.313 15.9307 47.9265 16.3171L38.7395 25.5041C38.1171 26.1266 38.5571 27.1919 39.4386 27.1919H42.6838C42.6838 36.1618 43.6246 40.6402 10.2 45.1302H42.1656C44.8318 45.1302 47.3692 43.6567 49.3522 41.8778C54.7773 37.1793 54.5775 30.149 54.5689 27.1919H57.8141C58.6941 27.1919 59.1356 26.1266 58.5132 25.5041H58.5117Z" fill="url(#paint1_linear_42_311)" fill-opacity="0.8"/>
<path d="M58.335 25.6809L58.3644 25.7103C58.7874 26.1786 58.4578 26.9419 57.8141 26.9419H54.5689H54.3181L54.3189 27.1926C54.3191 27.2774 54.3195 27.3654 54.3199 27.4564C54.3338 30.558 54.3637 37.2068 49.1886 41.6888L49.1885 41.6888L49.1853 41.6917C47.2225 43.4525 44.7428 44.8802 42.1656 44.8802H13.7986C20.3956 43.9216 25.4961 42.9551 29.4391 41.9366C34.0621 40.7424 37.1127 39.472 39.121 38.0448C41.1407 36.6094 42.1026 35.0176 42.5512 33.2077C42.9463 31.6133 42.941 29.8506 42.9352 27.9099C42.9345 27.6732 42.9338 27.4339 42.9338 27.1919V26.9419H42.6838H39.4386C38.7801 26.9419 38.4511 26.1461 38.9162 25.6809L48.1033 16.4939C48.3921 16.2051 48.8591 16.2051 49.1479 16.4939L58.335 25.6809Z" stroke="white" stroke-opacity="0.49" stroke-width="0.5"/>
</g>
<defs>
<filter id="filter0_b_42_311" x="8.19995" y="14.0273" width="52.6045" height="33.103" filterUnits="userSpaceOnUse" color-interpolation-filters="sRGB">
<feFlood flood-opacity="0" result="BackgroundImageFix"/>
<feGaussianBlur in="BackgroundImageFix" stdDeviation="1"/>
<feComposite in2="SourceAlpha" operator="in" result="effect1_backgroundBlur_42_311"/>
<feBlend mode="normal" in="SourceGraphic" in2="effect1_backgroundBlur_42_311" result="shape"/>
</filter>
<linearGradient id="paint0_linear_42_311" x1="-1.29782" y1="-8.356" x2="53.9654" y2="3.8247" gradientUnits="userSpaceOnUse">
<stop stop-color="#FF7B01"/>
<stop offset="1" stop-color="#FFBD80"/>
</linearGradient>
<linearGradient id="paint1_linear_42_311" x1="55" y1="33.5" x2="18.25" y2="36" gradientUnits="userSpaceOnUse">
<stop stop-color="#FFD057"/>
<stop offset="1" stop-color="#FFF9EA" stop-opacity="0.5"/>
</linearGradient>
</defs>
</svg>
