<svg width="50" height="50" viewBox="0 0 50 50" fill="none" xmlns="http://www.w3.org/2000/svg">
<path d="M3.17809 38.0307L6.28705 29.0935C5.1448 26.8147 4.48673 24.2514 4.48673 21.5276C4.48673 12.1943 12.0383 4.62964 21.3526 4.62964C30.667 4.62964 38.2185 12.1943 38.2185 21.5276C38.2185 30.8596 30.6682 38.4256 21.3526 38.4256C18.644 38.4256 16.0943 37.77 13.8273 36.6344L4.89709 39.753C3.83116 40.1253 2.80777 39.0999 3.17935 38.032L3.17809 38.0307Z" fill="url(#paint0_linear_42_332)"/>
<g filter="url(#filter0_b_42_332)">
<path d="M49.5754 47.2244L46.7639 39.1428C47.7973 37.082 48.3919 34.763 48.3919 32.3008C48.3919 23.8618 41.5629 17.0198 33.1399 17.0198C24.7169 17.0198 17.8879 23.8618 17.8879 32.3008C17.8879 40.7398 24.7169 47.5818 33.1399 47.5818C35.589 47.5818 37.895 46.9889 39.9463 45.9621L48.0224 48.7831C48.9865 49.1192 49.9123 48.1917 49.5768 47.2258L49.5754 47.2244Z" fill="url(#paint1_linear_42_332)" fill-opacity="0.8"/>
<path d="M49.3567 47.3004L49.3713 47.3424C49.6045 48.1115 48.8654 48.8319 48.0986 48.5645L40.0226 45.7435L39.9302 45.7112L39.8426 45.7551C37.8218 46.7667 35.5511 47.3503 33.1399 47.3503C24.8452 47.3503 18.1194 40.6124 18.1194 32.3008C18.1194 23.9892 24.8452 17.2513 33.1399 17.2513C41.4347 17.2513 48.1604 23.9892 48.1604 32.3008C48.1604 34.7252 47.5751 37.0088 46.557 39.039L46.5132 39.1264L46.5453 39.2188L49.3567 47.3004Z" stroke="white" stroke-opacity="0.5" stroke-width="0.462963"/>
</g>
<path d="M25.3835 34.4651C26.5665 34.4651 27.5254 33.5044 27.5254 32.3192C27.5254 31.1341 26.5665 30.1733 25.3835 30.1733C24.2006 30.1733 23.2417 31.1341 23.2417 32.3192C23.2417 33.5044 24.2006 34.4651 25.3835 34.4651Z" fill="white"/>
<path d="M35.3186 32.2809C35.3186 33.4666 34.3588 34.4268 33.1768 34.4268C31.9947 34.4268 31.0349 33.4652 31.0349 32.2809C31.0349 31.0966 31.9947 30.135 33.1768 30.135C34.3588 30.135 35.3186 31.0966 35.3186 32.2809Z" fill="white"/>
<path d="M40.896 34.4651C42.0789 34.4651 43.0378 33.5044 43.0378 32.3192C43.0378 31.1341 42.0789 30.1733 40.896 30.1733C39.7131 30.1733 38.7542 31.1341 38.7542 32.3192C38.7542 33.5044 39.7131 34.4651 40.896 34.4651Z" fill="white"/>
<defs>
<filter id="filter0_b_42_332" x="16.0361" y="15.168" width="35.4627" height="35.5372" filterUnits="userSpaceOnUse" color-interpolation-filters="sRGB">
<feFlood flood-opacity="0" result="BackgroundImageFix"/>
<feGaussianBlur in="BackgroundImageFix" stdDeviation="0.925926"/>
<feComposite in2="SourceAlpha" operator="in" result="effect1_backgroundBlur_42_332"/>
<feBlend mode="normal" in="SourceGraphic" in2="effect1_backgroundBlur_42_332" result="shape"/>
</filter>
<linearGradient id="paint0_linear_42_332" x1="-3.5598" y1="-8.55303" x2="46.4563" y2="2.47715" gradientUnits="userSpaceOnUse">
<stop stop-color="#FF7B01"/>
<stop offset="1" stop-color="#FFBD80"/>
</linearGradient>
<linearGradient id="paint1_linear_42_332" x1="22.3542" y1="21.4946" x2="59.5429" y2="59.6716" gradientUnits="userSpaceOnUse">
<stop stop-color="#FFEEC1" stop-opacity="0.5"/>
<stop offset="1" stop-color="#FF9432"/>
<stop offset="1" stop-color="#FFD057"/>
</linearGradient>
</defs>
</svg>
