<svg width="50" height="54" viewBox="0 0 50 54" fill="none" xmlns="http://www.w3.org/2000/svg">
<path d="M20.568 12.3738H20.5666C11.141 12.3738 3.5 20.0148 3.5 29.4404V29.4419C3.5 38.8675 11.141 46.5084 20.5666 46.5084H20.568C29.9936 46.5084 37.6346 38.8675 37.6346 29.4419V29.4404C37.6346 20.0148 29.9936 12.3738 20.568 12.3738Z" fill="url(#paint0_linear_42_322)"/>
<g filter="url(#filter0_b_42_322)">
<g opacity="0.45">
<path d="M27.2314 4.7959C37.1528 4.7959 45.2077 12.8508 45.2077 22.7722C45.2077 32.6936 37.1528 40.7484 27.2314 40.7484C17.31 40.7484 9.25513 32.6936 9.25513 22.7722C9.25513 12.8508 17.31 4.7959 27.2314 4.7959Z" fill="url(#paint1_linear_42_322)"/>
</g>
</g>
<path d="M32.9875 22.7751C32.9875 25.9532 30.4114 28.5292 27.2334 28.5292C24.0553 28.5292 21.4792 25.9532 21.4792 22.7751C21.4792 19.597 24.0553 17.021 27.2334 17.021C30.4114 17.021 32.9875 19.597 32.9875 22.7751Z" fill="white"/>
<path d="M27.2318 36.272C19.7893 36.272 13.7349 30.2176 13.7349 22.7751C13.7349 15.3326 19.7893 9.2782 27.2318 9.2782C34.6743 9.2782 40.7287 15.3326 40.7287 22.7751C40.7287 30.2176 34.6743 36.272 27.2318 36.272ZM27.2318 11.6599C21.1023 11.6599 16.1166 16.6471 16.1166 22.7751C16.1166 28.9031 21.1023 33.8903 27.2318 33.8903C33.3613 33.8903 38.347 28.9031 38.347 22.7751C38.347 16.6471 33.3598 11.6599 27.2318 11.6599Z" fill="white"/>
<path d="M46.4196 7.88419C46.2489 7.49557 45.8558 7.25269 45.4334 7.27183L42.6086 7.39989L42.7366 4.57509C42.7558 4.15115 42.5129 3.7596 42.1243 3.58737C41.7357 3.41662 41.2823 3.50052 40.982 3.80081L36.5071 8.27574C36.3142 8.46858 36.2068 8.7306 36.2068 9.00292V12.1177L26.3899 21.9346C25.9247 22.3997 25.9247 23.1534 26.3899 23.6186C26.6225 23.8512 26.9272 23.9674 27.2319 23.9674C27.5366 23.9674 27.8413 23.8512 28.0739 23.6186L37.8908 13.8017H41.0055C41.2779 13.8017 41.5399 13.6928 41.7327 13.4999L46.2076 9.025C46.5079 8.72471 46.5918 8.27133 46.4211 7.88272L46.4196 7.88419Z" fill="#FCCA4A"/>
<defs>
<filter id="filter0_b_42_322" x="7.25513" y="2.7959" width="39.9526" height="39.9525" filterUnits="userSpaceOnUse" color-interpolation-filters="sRGB">
<feFlood flood-opacity="0" result="BackgroundImageFix"/>
<feGaussianBlur in="BackgroundImageFix" stdDeviation="1"/>
<feComposite in2="SourceAlpha" operator="in" result="effect1_backgroundBlur_42_322"/>
<feBlend mode="normal" in="SourceGraphic" in2="effect1_backgroundBlur_42_322" result="shape"/>
</filter>
<linearGradient id="paint0_linear_42_322" x1="-2.97502" y1="-0.409363" x2="45.631" y2="10.3356" gradientUnits="userSpaceOnUse">
<stop stop-color="#FF7B01"/>
<stop offset="1" stop-color="#FFBD80"/>
</linearGradient>
<linearGradient id="paint1_linear_42_322" x1="44.2495" y1="16" x2="13.4995" y2="34.25" gradientUnits="userSpaceOnUse">
<stop stop-color="#FFD057"/>
<stop offset="1" stop-color="#FFEEC1" stop-opacity="0.5"/>
</linearGradient>
</defs>
</svg>
