<svg width="270" height="536" viewBox="0 0 270 536" fill="none" xmlns="http://www.w3.org/2000/svg">
<path opacity="0.7" d="M268 1.3805e-06C233.068 1.19921e-06 198.479 6.93201 166.206 20.4003C133.934 33.8685 104.61 53.6093 79.9096 78.4954C55.2092 103.381 35.6158 132.926 22.248 165.441C8.88029 197.956 2 232.806 2 268L145.248 268C145.248 251.759 148.423 235.677 154.592 220.672C160.761 205.667 169.802 192.033 181.201 180.548C192.6 169.064 206.132 159.954 221.025 153.739C235.918 147.524 251.88 144.325 268 144.325L268 1.3805e-06Z" fill="url(#paint0_linear_6_5)"/>
<path opacity="0.3" d="M270 536C234.543 536 199.433 529.068 166.675 515.6C133.918 502.131 104.153 482.391 79.0812 457.505C54.0094 432.619 34.1213 403.074 20.5526 370.559C6.98378 338.044 8.30478e-07 303.194 0 268L145.402 268C145.402 284.241 148.625 300.323 154.886 315.328C161.148 330.333 170.326 343.967 181.896 355.452C193.466 366.936 207.201 376.046 222.318 382.261C237.435 388.476 253.638 391.675 270 391.675L270 536Z" fill="url(#paint1_linear_6_5)"/>
<defs>
<linearGradient id="paint0_linear_6_5" x1="580" y1="-56.9999" x2="1112" y2="-56.9999" gradientUnits="userSpaceOnUse">
<stop stop-color="#FFD8AD"/>
<stop offset="1" stop-color="#FFD8AD" stop-opacity="0"/>
</linearGradient>
<linearGradient id="paint1_linear_6_5" x1="681.5" y1="-38.5" x2="1171.5" y2="254" gradientUnits="userSpaceOnUse">
<stop stop-color="#FFDE87"/>
<stop offset="1" stop-color="#FFDE87" stop-opacity="0.6"/>
</linearGradient>
</defs>
</svg>
