<svg width="40" height="40" viewBox="0 0 40 40" fill="none" xmlns="http://www.w3.org/2000/svg">
    <g clip-path="url(#clip0_302_5087)">
        <path fill-rule="evenodd" clip-rule="evenodd"
            d="M20 3.3335C10.8 3.3335 3.33337 10.8002 3.33337 20.0002C3.33337 29.2002 10.8 36.6668 20 36.6668C29.2 36.6668 36.6667 29.2002 36.6667 20.0002C36.6667 10.8002 29.2 3.3335 20 3.3335ZM28.1667 25.8168L25.8334 28.1502C25.5 28.4835 24.9834 28.4835 24.65 28.1502L18.9667 22.4668C16.9334 23.1835 14.5667 22.7502 12.9334 21.1168C11.0834 19.2668 10.7667 16.4668 11.95 14.2835L15.8667 18.2002L18.2167 15.8502L14.3 11.9502C16.5 10.7668 19.2834 11.0835 21.1334 12.9335C22.7667 14.5668 23.2 16.9335 22.4834 18.9668L28.1667 24.6502C28.4834 24.9668 28.4834 25.5002 28.1667 25.8168Z"
            fill="#6D4E00" />
    </g>
    <defs>
        <clipPath id="clip0_302_5087">
            <rect width="40" height="40" fill="white" />
        </clipPath>
    </defs>
</svg>