<svg width="40" height="40" viewBox="0 0 40 40" fill="none" xmlns="http://www.w3.org/2000/svg">
    <g clip-path="url(#clip0_302_4145)">
        <path fill-rule="evenodd" clip-rule="evenodd"
            d="M17.5834 33.3833L20 35.5833L22.4167 33.4L22.4825 33.3402C27.3452 28.9213 31.2662 25.3582 33.743 21.95L30.8072 19.0143L25.3254 23.713L24.9555 24.03L24.629 23.6685L20.4599 19.0527L15.6705 23.6925L15.3226 24.0295L14.9747 23.6925L10.1613 19.0295L6.63081 22.4497C9.12766 25.7157 12.917 29.1519 17.5623 33.3642L17.5834 33.3833ZM6.03353 21.636C4.29778 19.1661 3.33337 16.7657 3.33337 14.1667C3.33337 9.03333 7.36671 5 12.5 5C15.4 5 18.1834 6.35 20 8.48333C21.8167 6.35 24.6 5 27.5 5C32.6334 5 36.6667 9.03333 36.6667 14.1667C36.6667 16.5823 35.8336 18.8265 34.3223 21.1152L31.1869 17.9798L30.8595 17.6524L30.508 17.9537L25.0445 22.6367L20.855 17.9982L20.5079 17.6139L20.136 17.9742L15.3226 22.6372L10.5092 17.9742L10.1613 17.6372L9.81343 17.9742L6.03353 21.636Z"
            fill="#6D4E00" />
    </g>
    <defs>
        <clipPath id="clip0_302_4145">
            <rect width="40" height="40" fill="white" />
        </clipPath>
    </defs>
</svg>