<svg width="24" height="25" viewBox="0 0 24 25" fill="none" xmlns="http://www.w3.org/2000/svg">
    <g clip-path="url(#clip0_333_363)">
        <path d="M11.4833 10.7842H12.3339V15.8878H11.4833V10.7842Z" fill="#6D4E00" />
        <path
            d="M11.9085 8.65743C13.7877 8.65743 15.311 7.13418 15.311 5.25498C15.311 3.376 13.7877 1.85254 11.9085 1.85254C10.0294 1.85254 8.5061 3.376 8.5061 5.25498C8.50818 7.13335 10.0304 8.65535 11.9085 8.65743ZM12.3339 5.68029H11.4832C10.7786 5.68029 10.2073 5.1092 10.2073 4.40437C10.2073 3.69975 10.7786 3.12846 11.4832 3.12846V2.70315H12.3339V3.12846C13.0385 3.12846 13.6098 3.69975 13.6098 4.40437H12.7592C12.7592 4.1695 12.5687 3.97907 12.3339 3.97907H11.4832C11.2484 3.97907 11.0579 4.1695 11.0579 4.40437C11.0579 4.63925 11.2484 4.82968 11.4832 4.82968H12.3339C13.0385 4.82968 13.6098 5.40098 13.6098 6.1056C13.6098 6.81042 13.0385 7.38151 12.3339 7.38151V7.80682H11.4832V7.38151C10.7786 7.38151 10.2073 6.81042 10.2073 6.1056H11.0579C11.0579 6.34047 11.2484 6.5309 11.4832 6.5309H12.3339C12.5687 6.5309 12.7592 6.34047 12.7592 6.1056C12.7592 5.87072 12.5687 5.68029 12.3339 5.68029Z"
            fill="#6D4E00" />
        <path
            d="M11.9086 9.9329C14.4924 9.9329 16.587 7.83835 16.587 5.25453C16.587 2.67072 14.4924 0.576172 11.9086 0.576172C9.32477 0.576172 7.23022 2.67072 7.23022 5.25453C7.23334 7.8371 9.32602 9.92999 11.9086 9.9329ZM11.9086 1.00148C14.2575 1.00148 16.1616 2.9058 16.1616 5.25453C16.1616 7.60348 14.2575 9.50759 11.9086 9.50759C9.55965 9.50759 7.65553 7.60348 7.65553 5.25453C7.65802 2.90684 9.56068 1.00418 11.9086 1.00148Z"
            fill="#6D4E00" />
        <path
            d="M8.70175 14.0656C9.58455 14.4731 10.6104 14.4255 11.4517 13.9379C11.2868 12.9787 10.6619 12.1611 9.77976 11.7497C8.89738 11.3385 7.86942 11.3857 7.02856 11.8762C7.19636 12.835 7.82061 13.652 8.70175 14.0656Z"
            fill="#6D4E00" />
        <path
            d="M14.0372 11.7519C13.1571 12.1652 12.5333 12.9813 12.3655 13.9391C13.2063 14.4296 14.2341 14.4768 15.1165 14.0656C15.9989 13.6542 16.6235 12.8366 16.7886 11.8774C15.9465 11.3902 14.92 11.3432 14.0372 11.7519Z"
            fill="#6D4E00" />
        <path
            d="M5.67787 18.4395H4.25305V23.1179H15.3594C15.5457 23.1177 15.7295 23.077 15.8983 22.9989L23.2676 19.564C23.7147 19.3514 23.9997 18.9007 24.0001 18.4054C23.9999 18.2183 23.9592 18.0333 23.8809 17.8632C23.5831 17.2273 22.8263 16.9532 22.1902 17.2508L16.41 19.9418C16.129 20.0724 15.8229 20.1405 15.5131 20.1407H10.6326V19.2901H14.4604C15.165 19.2901 15.7363 18.719 15.7363 18.0142C15.7363 17.3096 15.165 16.7383 14.4604 16.7383H8.0808C7.18056 16.7368 6.37792 17.3046 6.07929 18.1538C6.0199 18.3247 5.85875 18.4395 5.67787 18.4395Z"
            fill="#6D4E00" />
        <path d="M0 16.7383H3.40245V24.3938H0V16.7383Z" fill="#6D4E00" />
    </g>
    <defs>
        <clipPath id="clip0_333_363">
            <rect width="24" height="24" fill="white" transform="translate(0 0.5)" />
        </clipPath>
    </defs>
</svg>