<svg width="40" height="40" viewBox="0 0 40 40" fill="none" xmlns="http://www.w3.org/2000/svg">
<g clip-path="url(#clip0_224_293)">
<rect width="40" height="40" rx="4" fill="white"/>
<path d="M29.3333 8H10.6667C9.19333 8 8 9.19333 8 10.6667V29.3333C8 30.8067 9.19333 32 10.6667 32H29.3333C30.8067 32 32 30.8067 32 29.3333V10.6667C32 9.19333 30.8067 8 29.3333 8ZM16 26.6667H12.636V17.3333H16V26.6667ZM14.2587 15.6227C13.2307 15.6227 12.544 14.9373 12.544 14.0227C12.544 13.108 13.2293 12.4227 14.372 12.4227C15.4 12.4227 16.0867 13.108 16.0867 14.0227C16.0867 14.9373 15.4013 15.6227 14.2587 15.6227ZM28 26.6667H24.744V21.5653C24.744 20.1547 23.876 19.8293 23.5507 19.8293C23.2253 19.8293 22.14 20.0467 22.14 21.5653C22.14 21.7827 22.14 26.6667 22.14 26.6667H18.776V17.3333H22.14V18.636C22.5733 17.876 23.4413 17.3333 25.0693 17.3333C26.6973 17.3333 28 18.636 28 21.5653V26.6667Z" fill="#4185B8"/>
<path fill-rule="evenodd" clip-rule="evenodd" d="M40 0H0V41H40V0ZM30 10H10V31H30V10Z" fill="#4185B8"/>
</g>
<defs>
<clipPath id="clip0_224_293">
<rect width="40" height="40" rx="4" fill="white"/>
</clipPath>
</defs>
</svg>
