<svg width="40" height="40" viewBox="0 0 40 40" fill="none" xmlns="http://www.w3.org/2000/svg">
    <g clip-path="url(#clip0_302_4157)">
        <path
            d="M25 18.3335V8.3335L20 3.3335L15 8.3335V11.6668H5V35.0002H35V18.3335H25ZM11.6667 31.6668H8.33333V28.3335H11.6667V31.6668ZM11.6667 25.0002H8.33333V21.6668H11.6667V25.0002ZM11.6667 18.3335H8.33333V15.0002H11.6667V18.3335ZM21.6667 31.6668H18.3333V28.3335H21.6667V31.6668ZM21.6667 25.0002H18.3333V21.6668H21.6667V25.0002ZM21.6667 18.3335H18.3333V15.0002H21.6667V18.3335ZM21.6667 11.6668H18.3333V8.3335H21.6667V11.6668ZM31.6667 31.6668H28.3333V28.3335H31.6667V31.6668ZM31.6667 25.0002H28.3333V21.6668H31.6667V25.0002Z"
            fill="#6D4E00" />
    </g>
    <defs>
        <clipPath id="clip0_302_4157">
            <rect width="40" height="40" fill="white" />
        </clipPath>
    </defs>
</svg>