<svg width="40" height="40" viewBox="0 0 40 40" fill="none" xmlns="http://www.w3.org/2000/svg">
    <g clip-path="url(#clip0_302_5964)">
        <path
            d="M33.3334 3.3335H13.3334C11.5 3.3335 10 4.8335 10 6.66683V26.6668C10 28.5002 11.5 30.0002 13.3334 30.0002H33.3334C35.1667 30.0002 36.6667 28.5002 36.6667 26.6668V6.66683C36.6667 4.8335 35.1667 3.3335 33.3334 3.3335ZM30 11.6668H25V20.8335C25 23.1335 23.1334 25.0002 20.8334 25.0002C18.5334 25.0002 16.6667 23.1335 16.6667 20.8335C16.6667 18.5335 18.5334 16.6668 20.8334 16.6668C21.7834 16.6668 22.6334 16.9835 23.3334 17.5168V8.3335H30V11.6668ZM6.66671 10.0002H3.33337V33.3335C3.33337 35.1668 4.83337 36.6668 6.66671 36.6668H30V33.3335H6.66671V10.0002Z"
            fill="#6D4E00" />
    </g>
    <defs>
        <clipPath id="clip0_302_5964">
            <rect width="40" height="40" fill="white" />
        </clipPath>
    </defs>
</svg>