<svg width="40" height="40" viewBox="0 0 40 40" fill="none" xmlns="http://www.w3.org/2000/svg">
    <g clip-path="url(#clip0_302_4140)">
        <path
            d="M20 3.33325C10.8 3.33325 3.33337 10.7999 3.33337 19.9999C3.33337 29.1999 10.8 36.6666 20 36.6666C29.2 36.6666 36.6667 29.1999 36.6667 19.9999C36.6667 10.7999 29.2 3.33325 20 3.33325ZM18.3334 33.2166C11.75 32.3999 6.66671 26.7999 6.66671 19.9999C6.66671 18.9666 6.80004 17.9833 7.01671 17.0166L15 24.9999V26.6666C15 28.4999 16.5 29.9999 18.3334 29.9999V33.2166ZM29.8334 28.9832C29.4 27.6333 28.1667 26.6666 26.6667 26.6666H25V21.6666C25 20.7499 24.25 19.9999 23.3334 19.9999H13.3334V16.6666H16.6667C17.5834 16.6666 18.3334 15.9166 18.3334 14.9999V11.6666H21.6667C23.5 11.6666 25 10.1666 25 8.33325V7.64992C29.8834 9.63325 33.3334 14.4166 33.3334 19.9999C33.3334 23.4666 32 26.6166 29.8334 28.9832Z"
            fill="#6D4E00" />
    </g>
    <defs>
        <clipPath id="clip0_302_4140">
            <rect width="40" height="40" fill="white" />
        </clipPath>
    </defs>
</svg>