<svg width="24" height="25" viewBox="0 0 24 25" fill="none" xmlns="http://www.w3.org/2000/svg">
    <g clip-path="url(#clip0_333_140)">
        <path
            d="M23.8841 2.28453C23.8751 2.24307 23.8539 2.20492 23.823 2.17458C23.7921 2.14424 23.7527 2.12296 23.7096 2.11326C20.8336 1.44129 14.1901 3.83561 10.587 7.27526C9.9448 7.88369 9.35926 8.54434 8.83696 9.24972C7.72635 9.15373 6.61574 9.23457 5.67014 9.62865C2.99992 10.7503 2.22302 13.6796 2.00619 14.9372C1.99444 15.0061 1.99946 15.0766 2.02086 15.1434C2.04225 15.2102 2.07945 15.2713 2.12957 15.3221C2.17968 15.3729 2.24137 15.412 2.30986 15.4364C2.37834 15.4608 2.45178 15.4697 2.52447 15.4626L6.81195 15.013C6.81492 15.3219 6.83433 15.6305 6.87013 15.9375C6.8925 16.1498 6.99162 16.3479 7.15042 16.4978L8.81052 18.0838C8.9676 18.2356 9.17521 18.3303 9.39755 18.3516C9.71703 18.3856 10.0381 18.4041 10.3595 18.4071L9.88939 22.4996C9.88205 22.5689 9.8915 22.639 9.91702 22.7043C9.94253 22.7696 9.98343 22.8284 10.0365 22.8762C10.0897 22.924 10.1536 22.9595 10.2233 22.98C10.2931 23.0004 10.3668 23.0053 10.4389 22.9942C11.7557 22.7921 14.8284 22.0499 15.9956 19.4995C16.4081 18.5951 16.4927 17.5396 16.3976 16.4837C17.1381 15.9852 17.8316 15.4258 18.4702 14.8119C22.0865 11.3763 24.5769 5.16893 23.8841 2.28453ZM15.2557 10.3612C14.9399 10.0596 14.7247 9.67515 14.6376 9.25665C14.5504 8.83815 14.5951 8.40435 14.766 8.01011C14.9369 7.61588 15.2263 7.27892 15.5977 7.04184C15.9691 6.80477 16.4057 6.67823 16.8524 6.67823C17.299 6.67823 17.7357 6.80477 18.107 7.04184C18.4784 7.27892 18.7679 7.61588 18.9388 8.01011C19.1097 8.40435 19.1544 8.83815 19.0672 9.25665C18.98 9.67515 18.7649 10.0596 18.449 10.3612C18.2395 10.5618 17.9906 10.721 17.7167 10.8295C17.4427 10.9381 17.149 10.994 16.8524 10.994C16.5558 10.994 16.2621 10.9381 15.9881 10.8295C15.7141 10.721 15.4653 10.5618 15.2557 10.3612Z"
            stroke="#6D4E00" stroke-width="1.5" stroke-linecap="round" stroke-linejoin="round" />
        <path
            d="M5.37708 18C4.85787 18.0637 4.37484 18.2991 4.00469 18.6687C3.08698 19.5896 3 23 3 23C3 23 6.4125 22.913 7.33073 21.9943C7.70186 21.6247 7.93764 21.1409 8 20.6208"
            stroke="#6D4E00" stroke-width="1.5" stroke-linecap="round" stroke-linejoin="round" />
    </g>
    <defs>
        <clipPath id="clip0_333_140">
            <rect width="24" height="24" fill="white" transform="translate(0 0.5)" />
        </clipPath>
    </defs>
</svg>