<svg width="46" height="86" viewBox="0 0 46 86" fill="none" xmlns="http://www.w3.org/2000/svg">
<path d="M15.7404 80.4761C15.7405 80.4762 15.7407 80.4761 15.7407 80.4759C14.9211 77.5565 13.9031 75.3599 13.6585 75.0866C11.4223 72.5888 9.77052 73.512 7.24555 71.0012C4.69606 68.4663 3.65811 64.2155 3.51158 60.6233C3.48345 59.9337 3.44015 59.3707 3.12405 58.852C2.13362 57.2276 -0.0680922 57.2174 0.00161734 56.2761C0.046034 55.6772 0.840599 55.5872 1.25053 54.5884C1.60463 53.7251 1.19902 53.3341 1.25053 52.2791C1.34553 50.3378 2.53244 49.9471 2.76687 48.038C2.89395 47.0021 2.75977 46.9481 2.49913 45.3513C2.09475 42.8731 2.68358 40.8381 2.94515 39.9336C3.43682 38.234 4.23755 36.8261 6.05771 34.1087C9.01821 29.6894 8.64653 29.9456 12.3815 24.339C15.1338 20.2075 14.9201 20.8304 15.3251 19.987C16.0327 18.5137 16.5632 16.8669 18.1795 15.8125C18.5739 15.5552 18.74 15.5243 19.1576 15.1933C19.1596 15.1917 19.1614 15.1903 19.1633 15.1887C19.2119 15.1489 19.9157 14.5536 21.2001 12.5109C21.2584 12.4185 21.1976 12.2923 21.0881 12.2877C20.7371 12.2723 20.21 12.4735 20.4092 12.1488C21.7473 9.97284 23.3796 6.90005 23.7096 6.66448C24.6671 6.06712 25.9172 5.35459 28.4373 4.46638C29.7081 4.01828 31.3367 4.52965 32.0051 3.64482C32.3348 3.2087 32.1547 2.99248 32.4511 2.31251C32.9203 1.23603 34.1781 -0.0735569 35.6624 0.00322456C37.13 0.0793918 37.7978 1.26951 37.803 1.4243C37.8049 1.47774 37.8181 1.52073 37.8406 1.55636C37.9452 1.72006 38.076 2.13775 38.472 2.24586C38.7068 2.31005 38.9452 1.85427 39.0072 1.95286C39.0945 2.09168 39.146 2.252 38.977 2.70655C38.5889 3.74955 40.9751 3.02166 41.6608 3.73358C42.009 4.09537 41.9729 4.33309 42.575 4.31097C43.2422 4.2864 44.0883 3.97314 44.3813 4.22221C44.5402 4.35704 43.9664 4.53333 43.9689 5.19365C43.9695 5.37271 43.9726 6.26921 44.4874 6.74249C45.0584 7.26706 45.8899 6.93229 45.9926 7.17554C46.1302 7.50109 44.307 8.00877 43.1327 9.35705C42.9914 9.51922 42.063 10.6372 41.9063 12.1716C41.6302 14.874 42.8653 16.335 43.4674 17.5893C43.5772 17.8181 42.7043 17.3632 42.6201 17.5005C42.5507 17.6132 42.9513 17.8377 43.1105 18.3442C43.2073 18.6525 43.2453 19.1605 42.9766 19.4099C42.707 19.6605 42.3005 19.4904 42.2185 19.6765C42.1213 19.8967 42.6713 20.182 42.6198 20.5202C42.5741 20.8199 42.1077 20.8258 41.7277 21.0976C40.9362 21.6636 41.4082 22.7484 40.7018 24.7834C40.4979 25.3709 40.3536 25.7739 39.9884 26.2045C39.3739 26.9284 38.9393 26.7815 38.6059 27.3589C38.1278 28.1863 38.7524 28.9505 38.2046 29.4904C37.894 29.7963 37.5775 29.6655 37.3573 30.0233C37.0926 30.4529 37.3033 31.0408 37.3573 31.1777C37.5846 31.7554 37.9708 31.7963 37.9816 32.1547C37.9939 32.5632 37.4983 32.7168 37.1343 33.2204C36.6386 33.9063 36.7527 34.7352 36.7774 35.1744C36.903 37.4013 35.303 43.4287 34.5566 45.7509C33.4668 49.1415 32.0961 51.484 32.1482 53.1225C32.1568 53.3928 32.2192 54.1124 31.8361 54.8544C31.5631 55.3833 31.279 55.5067 30.944 56.098C30.5813 56.738 30.5927 57.1606 30.4533 57.6523C29.8583 59.7549 27.4101 59.9386 27.2867 61.738C27.251 62.2589 27.4558 62.2469 27.3759 62.7595C27.2966 63.2678 26.6661 64.1981 24.8521 65.672C23.7476 66.5694 23.7667 66.4217 23.4249 66.7822C22.4937 67.7638 22.3466 68.8643 22.0869 69.9352C21.3241 73.0805 20.4188 72.5571 19.9463 75.1309C19.6535 76.7239 19.3065 78.6131 19.9015 80.4153C20.0524 80.8717 20.3093 81.4616 20.0798 82.1029C19.8078 82.8637 19.1079 82.981 18.8756 83.9236C18.8272 84.1207 18.8574 84.4481 18.9928 84.856C19.1023 85.1862 19.1397 85.2703 19.2325 85.5664C19.2603 85.6551 19.2726 86.0111 19.1329 85.9997C19.0073 85.9896 18.7288 86.0105 18.6082 85.5664C18.565 85.4076 18.0993 84.5624 17.4932 84.5449C17.1169 84.5341 17.0512 84.8582 16.4673 84.9445C16.2899 84.9706 15.9984 85.1748 15.7597 84.9002C15.5231 84.6281 15.6548 84.1588 15.681 84.0562C15.768 83.7196 15.6847 83.8357 15.6644 83.6398C15.6304 83.3124 15.219 82.9693 15.0401 82.6794C14.7231 82.1664 15.9201 81.1218 15.7401 80.4762C15.7401 80.476 15.7403 80.4759 15.7404 80.4761Z" fill="#FFD057"/>
</svg>
