<svg width="18" height="18" viewBox="0 0 18 18" fill="none" xmlns="http://www.w3.org/2000/svg">
<path d="M17.3932 2.48675C17.9123 1.9676 17.9123 1.1259 17.3932 0.606748C16.874 0.0876001 16.0323 0.0876004 15.5132 0.606748L8.99984 7.12008L2.4865 0.606747C1.96735 0.0875994 1.12565 0.0876001 0.606504 0.606748C0.087356 1.1259 0.0873562 1.9676 0.606504 2.48675L7.11984 9.00008L0.606503 15.5134C0.0873553 16.0326 0.087356 16.8743 0.606503 17.3934C1.12565 17.9126 1.96736 17.9126 2.4865 17.3934L8.99984 10.8801L15.5132 17.3934C16.0323 17.9126 16.874 17.9126 17.3932 17.3934C17.9123 16.8743 17.9123 16.0326 17.3932 15.5134L10.8798 9.00008L17.3932 2.48675Z" fill="#D86800"/>
</svg>
