<svg width="291" height="290" viewBox="0 0 291 290" fill="none" xmlns="http://www.w3.org/2000/svg">
<rect x="0.666687" width="290" height="290" rx="29.0909" fill="url(#paint0_linear_238_2203)"/>
<g clip-path="url(#clip0_238_2203)">
<path opacity="0.57" d="M103.16 187.791C126.245 160.661 149.6 127.139 168.356 99.846C175.77 89.0611 190.643 86.6007 201.124 94.4307C206.375 98.3553 212.075 102.614 217.361 106.562C227.982 114.498 229.726 129.729 221.191 139.875C198.912 166.358 174.128 198.401 156.215 226.325C147.544 239.841 129.87 242.997 117.007 233.391C113.849 231.033 110.623 228.622 107.481 226.272C95.2029 217.1 93.2231 199.466 103.16 187.791Z" fill="white"/>
<path opacity="0.57" d="M226.561 123.515L226.492 122.713C225.299 122.435 222.077 121.363 221.936 119.902C221.799 118.492 222.954 115.286 223.6 113.624L223.106 112.795C222.529 114.217 221.001 118.203 221.172 119.979C221.393 122.249 226.032 123.393 226.557 123.519L226.561 123.515Z" fill="white"/>
<path opacity="0.57" d="M116.528 198.405C119.774 194.055 124.201 189.533 129.828 186.875L130.155 187.567C117.824 193.393 111.334 208.43 110.616 210.179C115.647 219.062 130.786 226.022 132.743 226.892C146.294 216.062 148.919 201.74 148.946 201.596L149.702 201.729C149.676 201.877 146.985 216.606 133.039 227.638L132.861 227.779L132.652 227.691C131.945 227.387 115.244 220.158 109.859 210.396L109.772 210.24L109.837 210.072C109.875 209.974 112.094 204.353 116.528 198.409V198.405Z" fill="white"/>
<path opacity="0.57" d="M168.155 201.637C167.471 203.029 166.464 207.163 170.526 209.201C175.508 211.703 177.822 206.186 177.75 205.684C177.678 205.185 168.447 201.033 168.155 201.634V201.637Z" fill="white"/>
<path opacity="0.57" d="M123.163 168.028C122.023 169.077 118.352 171.218 115.24 167.902C111.429 163.833 116.057 160.045 116.555 159.973C117.053 159.901 123.653 167.575 123.163 168.028Z" fill="white"/>
<path d="M174.641 176.911C170.127 173.139 157.352 162.685 145.925 155.402C144.865 154.725 143.482 154.885 142.581 155.76L121.875 175.865C120.986 176.729 120.781 178.082 121.396 179.159C123.159 182.243 127.602 188.715 136.862 195.633C146.252 202.649 154.555 205.923 158.359 207.186C159.616 207.604 160.984 207.049 161.608 205.877L175.291 180.284C175.899 179.143 175.633 177.736 174.641 176.907V176.911Z" fill="url(#paint1_linear_238_2203)" stroke="white" stroke-width="4.00352" stroke-miterlimit="10"/>
<path d="M195.602 164.845L216.753 136.491C216.935 136.247 216.681 135.92 216.399 136.034L205.273 140.563C204.699 140.799 204.202 141.191 203.841 141.697L194.686 154.55C194.356 155.014 194.204 155.581 194.257 156.147C194.531 158.996 194.804 161.848 195.074 164.696C195.101 164.963 195.439 165.058 195.595 164.845H195.602Z" fill="url(#paint2_linear_238_2203)" stroke="white" stroke-width="4.00352" stroke-miterlimit="10"/>
<path d="M192.384 168.1C192.144 165.559 191.901 163.015 191.654 160.475C191.608 159.992 190.985 159.825 190.7 160.22L180.816 174.101C180.619 174.382 180.444 174.679 180.303 174.99L168.706 200.245C168.607 200.462 168.904 200.637 169.044 200.447L191.909 169.796C192.273 169.309 192.441 168.704 192.384 168.1Z" fill="url(#paint3_linear_238_2203)" stroke="white" stroke-width="4.00352" stroke-miterlimit="10"/>
<path d="M150.61 131.235L171.761 102.881C171.944 102.638 172.327 102.79 172.297 103.09L171.123 115.054C171.062 115.674 170.826 116.26 170.446 116.75L160.734 129.185C160.384 129.634 159.882 129.942 159.324 130.049C156.516 130.596 153.707 131.144 150.899 131.695C150.637 131.745 150.451 131.448 150.61 131.235Z" fill="url(#paint4_linear_238_2203)" stroke="white" stroke-width="4.00352" stroke-miterlimit="10"/>
<path d="M148.406 135.247C150.911 134.753 153.415 134.266 155.919 133.779C156.398 133.688 156.732 134.235 156.432 134.62L145.944 148.047C145.731 148.317 145.496 148.568 145.237 148.793L124.337 167.1C124.159 167.256 123.908 167.024 124.049 166.834L146.913 136.183C147.278 135.696 147.806 135.361 148.403 135.243L148.406 135.247Z" fill="url(#paint5_linear_238_2203)" stroke="white" stroke-width="4.00352" stroke-miterlimit="10"/>
<path d="M204.004 134.467C200.212 132.756 185.855 125.785 178.012 115.092C177.674 114.632 177.507 114.069 177.51 113.502L177.617 102.588C177.628 101.363 178.476 100.302 179.673 100.048C183.758 99.1843 193.501 98.3971 204.452 106.581C215.446 114.795 217.437 124.409 217.76 128.546C217.855 129.744 217.106 130.843 215.966 131.22L205.9 134.562C205.277 134.768 204.604 134.737 204.004 134.467Z" fill="url(#paint6_linear_238_2203)" stroke="white" stroke-width="4.00352" stroke-miterlimit="10"/>
<path d="M97.9883 197.219C97.9883 197.219 102.848 199.379 104.076 200.934C105.303 202.489 105.539 211.331 99.9301 217.473C99.9301 217.473 93.7665 207.011 97.9845 197.215L97.9883 197.219Z" fill="url(#paint7_linear_238_2203)"/>
<path d="M148.072 234.639C148.072 234.639 144.622 230.589 142.782 229.855C140.943 229.117 132.469 231.3 128.179 238.426C128.179 238.426 139.891 241.472 148.072 234.639Z" fill="url(#paint8_linear_238_2203)"/>
<path opacity="0.57" d="M98.6381 195.325C98.8585 195.405 104.076 197.268 106.075 198.926C106.793 199.523 107.26 201.044 107.348 203.105C107.541 207.49 105.949 214.404 100.986 219.302L100.572 218.632C105.345 213.913 106.766 207.365 106.58 203.14C106.485 200.999 105.983 199.85 105.584 199.515C103.688 197.945 98.4329 196.066 98.3797 196.047L98.6381 195.325Z" fill="white"/>
<path opacity="0.57" d="M127.734 235.498C131.162 230.904 136.178 228.269 139.818 227.36C141.817 226.862 143.409 226.873 144.185 227.394C146.339 228.839 149.562 233.254 149.702 233.441L149.087 233.897C149.052 233.851 145.8 229.398 143.759 228.025C143.326 227.736 142.083 227.58 140.005 228.098C135.901 229.121 130.102 232.212 126.94 238.137L126.18 237.936C126.655 237.05 127.161 236.266 127.738 235.49L127.734 235.498Z" fill="white"/>
<path opacity="0.57" d="M187.28 94.6556C189.047 94.3133 192.486 91.6589 193.653 90.7272L192.722 90.4838C191.331 91.5676 188.542 93.6288 187.136 93.9026C185.692 94.184 183.75 91.3889 183.096 90.248L182.31 90.4116C182.576 90.8831 185.046 95.0929 187.28 94.6594V94.6556Z" fill="white"/>
<path d="M218.448 117.989C218.448 117.989 207.557 102.611 190.066 96.7847L195.458 93.0312C195.458 93.0312 212.33 102.325 218.687 110.448L218.448 117.989Z" fill="url(#paint9_linear_238_2203)" stroke="white" stroke-width="4.00352" stroke-miterlimit="10"/>
<g opacity="0.57">
<path d="M187.558 194.591L187.026 196.051C194.059 197.489 201.405 194.762 205.767 188.913C210.133 183.061 210.662 175.326 207.325 169.001L206.083 169.926C209.02 175.695 208.496 182.688 204.536 187.997C200.576 193.302 193.945 195.808 187.558 194.591Z" fill="white"/>
<path d="M184.271 203.584L183.412 205.934C194.58 208.098 206.189 203.714 213.105 194.438C220.047 185.133 220.94 172.846 215.719 162.757L213.724 164.24C218.315 173.435 217.433 184.536 211.14 192.971C204.87 201.379 194.401 205.391 184.271 203.581V203.584Z" fill="white"/>
<path d="M189.952 188.05C193.596 189.023 197.502 187.685 199.775 184.639C202.058 181.577 202.226 177.478 200.261 174.257L199.649 174.709C201.416 177.66 201.245 181.391 199.163 184.182C197.088 186.962 193.539 188.191 190.21 187.335L189.948 188.05H189.952Z" fill="white"/>
</g>
<g opacity="0.57">
<path d="M122.783 146.199L121.537 147.127C118.159 140.783 118.683 132.965 123.045 127.116C127.412 121.263 134.67 118.56 141.68 119.959L141.148 121.412C134.787 120.233 128.232 122.724 124.273 128.033C120.313 133.337 119.8 140.415 122.783 146.199Z" fill="white"/>
<path d="M115.103 151.911L113.093 153.406C107.845 143.305 108.746 130.923 115.666 121.648C122.608 112.342 134.126 107.992 145.275 110.133L144.42 112.468C134.308 110.677 123.923 114.677 117.63 123.112C111.36 131.52 110.49 142.704 115.103 151.911Z" fill="white"/>
<path d="M128.369 142.043C126.401 138.821 126.572 134.695 128.844 131.649C131.128 128.588 135.008 127.261 138.652 128.231L138.39 128.945C135.061 128.09 131.535 129.314 129.452 132.106C127.377 134.886 127.21 138.643 128.977 141.59L128.365 142.046L128.369 142.043Z" fill="white"/>
</g>
<path opacity="0.57" d="M141.779 263.753L140.958 234.095L133.685 236.662L115.362 251.675C106.2 259.182 107.94 273.675 118.618 278.797C129.532 284.034 142.114 275.858 141.779 263.753Z" fill="white"/>
<path opacity="0.57" d="M72.6424 212.103L101.29 204.459L100.899 212.167L91.7221 234.019C87.1355 244.944 72.7564 247.393 64.8145 238.605C56.6977 229.623 60.9499 215.225 72.6424 212.107V212.103Z" fill="white"/>
<g opacity="0.57">
<path d="M239.234 166.921C242.258 169.18 242.901 173.439 240.67 176.432C238.436 179.425 234.176 180.018 231.151 177.759C228.126 175.5 227.484 171.241 229.715 168.248C231.949 165.255 236.209 164.662 239.234 166.921Z" fill="white"/>
<path d="M98.3189 161.136C100.998 163.137 101.564 166.905 99.5881 169.556C97.6121 172.206 93.8387 172.731 91.1597 170.731C88.4808 168.731 87.9146 164.962 89.8906 162.311C91.8665 159.661 95.6399 159.136 98.3189 161.136Z" fill="white"/>
<path d="M239.583 134.217C240.822 135.141 241.084 136.882 240.168 138.107C239.256 139.331 237.512 139.575 236.273 138.651C235.035 137.727 234.772 135.981 235.684 134.757C236.596 133.532 238.344 133.289 239.579 134.217H239.583Z" fill="white"/>
<path d="M168.018 234.833C169.257 235.757 169.519 237.499 168.603 238.723C167.691 239.948 165.947 240.191 164.708 239.267C163.47 238.343 163.207 236.601 164.123 235.377C165.039 234.152 166.779 233.909 168.018 234.833Z" fill="white"/>
<path d="M190.506 220.808C191.745 221.732 192.007 223.473 191.092 224.698C190.18 225.922 188.435 226.166 187.197 225.242C185.958 224.318 185.696 222.572 186.608 221.351C187.52 220.131 189.268 219.884 190.506 220.808Z" fill="white"/>
<path d="M150.458 86.5627C151.693 87.4868 151.959 89.2285 151.044 90.453C150.132 91.6775 148.384 91.9209 147.149 90.9968C145.91 90.0727 145.648 88.3272 146.56 87.1065C147.475 85.882 149.22 85.6386 150.458 86.5627Z" fill="white"/>
<path d="M102.909 119.568C104.148 120.492 104.41 122.238 103.498 123.458C102.586 124.683 100.838 124.926 99.5995 124.002C98.3607 123.078 98.0985 121.336 99.0143 120.112C99.9301 118.887 101.671 118.644 102.909 119.568Z" fill="white"/>
<path d="M45.4384 159.247C46.6772 160.171 46.9394 161.913 46.0236 163.137C45.1116 164.362 43.3674 164.605 42.1286 163.681C40.8898 162.757 40.6276 161.011 41.5396 159.787C42.4516 158.562 44.1996 158.319 45.4346 159.247H45.4384Z" fill="white"/>
</g>
</g>
<path d="M54.96 62.88C53.3067 63.3067 52.08 62.9333 51.28 61.76C50.1067 59.9467 50.7733 58.76 53.28 58.2C57.7333 57.0533 61.4533 55.4267 64.44 53.32C62.76 51.3467 61.2933 49.08 60.04 46.52C59.32 44.92 59.76 43.88 61.36 43.4C62.7733 42.9733 63.7867 43.4533 64.4 44.84C65.44 46.8933 66.6533 48.6667 68.04 50.16C69.5067 48.56 70.7067 46.8133 71.64 44.92C72.36 43.2933 73.5067 42.72 75.08 43.2C76.8667 43.7067 77.3333 44.88 76.48 46.72C75.1467 49.2 73.5467 51.4133 71.68 53.36C74.6133 55.4933 78.2 57.08 82.44 58.12C85.2133 58.6533 85.96 59.8667 84.68 61.76C83.9067 62.9067 82.7333 63.3067 81.16 62.96C79.0533 62.48 76.9333 61.7867 74.8 60.88C72.16 59.7067 69.8667 58.32 67.92 56.72C64.3733 59.3333 60.0533 61.3867 54.96 62.88ZM55.84 46.16C54.5867 46.9867 53.4133 46.8933 52.32 45.88C51.4933 45.1067 51.1333 44.4133 51.24 43.8C51.3467 43.1867 51.9067 42.5867 52.92 42C55.1867 40.5333 57.12 38.9467 58.72 37.24C59.5733 36.2 60.68 35.9467 62.04 36.48C63.9333 37.2533 64.24 38.3867 62.96 39.88C62.08 40.8667 61.0133 41.92 59.76 43.04C58.48 44.16 57.1733 45.2 55.84 46.16ZM82.04 46.32C81.5067 46.3467 80.96 46.04 80.4 45.4C78.64 43.64 76.5733 41.8267 74.2 39.96C73.4533 39.4 73.08 38.7867 73.08 38.12C73.08 37.4533 73.4533 36.8533 74.2 36.32L75.52 35.36H63H52.84C51.2933 35.36 50.52 34.5867 50.52 33.04C50.52 31.4933 51.2933 30.72 52.84 30.72H65.52V28.48C65.52 26.88 66.32 26.08 67.92 26.08C69.52 26.08 70.32 26.88 70.32 28.48V30.72H83.2C84.7467 30.72 85.52 31.4933 85.52 33.04C85.52 34.5867 84.7467 35.36 83.2 35.36H75.76C79.36 37.84 82.2267 40.08 84.36 42.08C84.9733 42.72 85.24 43.3067 85.16 43.84C85.0533 44.32 84.6267 44.8533 83.88 45.44C83.1333 46 82.52 46.2933 82.04 46.32ZM93.84 61.08C92.2133 62.4933 91 62.3067 90.2 60.52C89.5333 59.1333 89.84 58.0133 91.12 57.16C92.3467 56.3067 93.3733 55.52 94.2 54.8V49.56C94.2 48.92 93.88 48.6 93.24 48.6H92C90.5333 48.6 89.8 47.8667 89.8 46.4C89.8 44.9333 90.5333 44.2 92 44.2H94.24H96.6C97.24 44.2 97.7467 44.3867 98.12 44.76C98.4933 45.1333 98.68 45.64 98.68 46.28V54.48C100.227 56.9067 103.16 58.2267 107.48 58.44C112.493 58.6533 117.92 58.6 123.76 58.28C124.8 58.2 125.467 58.36 125.76 58.76C126.08 59.1333 126.093 59.8267 125.8 60.84C125.587 61.5067 125.307 61.9733 124.96 62.24C124.613 62.5333 124.107 62.6933 123.44 62.72C116.987 62.9333 111.667 62.96 107.48 62.8C104.947 62.6933 102.853 62.3067 101.2 61.64C99.44 60.9467 97.96 59.84 96.76 58.32C96.6 58.48 96.36 58.7067 96.04 59C95.1067 59.9333 94.3733 60.6267 93.84 61.08ZM120.04 56.8C118.627 56.8533 117.76 56.36 117.44 55.32C116.96 53.8267 117.653 53.1067 119.52 53.16C119.6 53.16 119.68 53.16 119.76 53.16C120.16 53.1333 120.36 52.9333 120.36 52.56V50.72H115.68V54.48C115.68 55.8667 114.987 56.56 113.6 56.56C112.187 56.56 111.48 55.8667 111.48 54.48V50.72H106.92V54.52C106.92 55.9867 106.187 56.72 104.72 56.72C103.227 56.72 102.48 55.9867 102.48 54.52V38.72C102.48 37.9467 102.72 37.32 103.2 36.84C103.68 36.36 104.307 36.12 105.08 36.12H111.36C111.227 36.0667 111.027 35.9733 110.76 35.84C109.72 35.36 108.933 35.0133 108.4 34.8C106.827 34.16 106.72 33.28 108.08 32.16C108.8 31.5733 109.533 31.4267 110.28 31.72C111.693 32.28 112.867 32.76 113.8 33.16C114.6 32.68 115.653 31.9733 116.96 31.04H104.64C103.44 31.04 102.84 30.44 102.84 29.24C102.84 28.04 103.44 27.44 104.64 27.44H111.92H121.44C122.453 27.44 123.08 27.72 123.32 28.28C123.56 28.84 123.347 29.64 122.68 30.68C121.48 32.1467 119.827 33.5467 117.72 34.88C117.907 34.9867 118.187 35.1333 118.56 35.32C119.28 35.6667 119.787 35.9333 120.08 36.12H122.6C123.293 36.12 123.84 36.3333 124.24 36.76C124.667 37.16 124.88 37.7067 124.88 38.4V52.6C124.88 53.5867 124.773 54.3333 124.56 54.84C124.293 55.4 123.853 55.84 123.24 56.16C122.467 56.5333 121.4 56.7467 120.04 56.8ZM106.92 47.28H111.48V45.04H109.2H106.92V47.28ZM115.68 47.28H120.36V45.04H118H115.68V47.28ZM106.92 41.72H109.2H111.48V39.56H107.88C107.24 39.56 106.92 39.88 106.92 40.52V41.72ZM115.68 41.72H118H120.36V40.52C120.36 39.88 120.04 39.56 119.4 39.56H115.68V41.72ZM96.08 41.44C95.6 41.4667 95.08 41.2133 94.52 40.68C93.8533 40.0667 93.04 39.4267 92.08 38.76C91.3867 38.3067 91 37.8133 90.92 37.28C90.84 36.72 91.0933 36.16 91.68 35.6C92.48 34.8 93.3733 34.6667 94.36 35.2C94.4933 35.28 94.68 35.4 94.92 35.56C95.6133 35.9867 96.12 36.32 96.44 36.56C96.4933 36.6133 96.5867 36.68 96.72 36.76C97.2 37.1333 97.56 37.4133 97.8 37.6C98.76 38.5067 98.7333 39.4667 97.72 40.48C97.1333 41.0667 96.5867 41.3867 96.08 41.44ZM97.36 33.48C96.8533 33.5067 96.32 33.24 95.76 32.68C95.12 32.12 94.3333 31.48 93.4 30.76C91.9867 29.7733 91.88 28.72 93.08 27.6C93.9333 26.8267 94.8267 26.7067 95.76 27.24C96.48 27.72 97.16 28.2 97.8 28.68C98.2267 28.9733 98.64 29.3067 99.04 29.68C100.053 30.6667 100.027 31.6533 98.96 32.64C98.3733 33.2 97.84 33.48 97.36 33.48ZM137.88 63.48C136.36 63.48 135.6 62.72 135.6 61.2V49.08C134.613 51.2933 133.747 53.0667 133 54.4C132.387 55.3333 131.84 55.7867 131.36 55.76C130.907 55.7067 130.427 55.1733 129.92 54.16C129.627 53.5467 129.493 53.0133 129.52 52.56C129.573 52.1067 129.8 51.6267 130.2 51.12C132.093 48.4267 133.68 45.3067 134.96 41.76H131.84C130.373 41.76 129.64 41.0133 129.64 39.52C129.64 38.0533 130.373 37.32 131.84 37.32H135.6V32.8C135.013 32.9067 134.133 33.04 132.96 33.2C131.733 33.36 130.933 32.88 130.56 31.76C130.133 30.4533 130.667 29.6533 132.16 29.36C135.44 28.7733 138.373 28.0267 140.96 27.12C141.573 26.88 142.107 26.8533 142.56 27.04C142.96 27.2 143.36 27.5733 143.76 28.16C144.8 29.6267 144.467 30.64 142.76 31.2C142.2 31.36 141.333 31.5733 140.16 31.84V37.32H143.2C144.667 37.32 145.4 38.0533 145.4 39.52C145.4 41.0133 144.667 41.76 143.2 41.76H140.16V42.08C140.613 42.5067 141.653 43.6533 143.28 45.52C143.787 46.08 144.147 46.48 144.36 46.72C144.76 47.2 144.947 47.6267 144.92 48C144.893 48.32 144.667 48.76 144.24 49.32C143.627 50.1467 143.08 50.5467 142.6 50.52C142.147 50.4667 141.68 49.9733 141.2 49.04C140.987 48.64 140.64 48.04 140.16 47.24V55.36V61.2C140.16 62.72 139.4 63.48 137.88 63.48ZM159.76 63.44C158.213 63.44 157.44 62.68 157.44 61.16V54.2L147.72 55.88C146.227 56.1733 145.36 55.5467 145.12 54C144.88 52.5067 145.493 51.6267 146.96 51.36L157.44 49.56V37.84V28.4C157.44 26.88 158.213 26.12 159.76 26.12C161.28 26.12 162.04 26.88 162.04 28.4V48.76L163.76 48.48C165.253 48.1867 166.12 48.7867 166.36 50.28C166.6 51.7733 165.987 52.6533 164.52 52.92L162.04 53.36V61.16C162.04 62.68 161.28 63.44 159.76 63.44ZM153.84 46.16C152.693 47.2533 151.64 47.2267 150.68 46.08C150.28 45.6267 149.84 45.1867 149.36 44.76C148.773 44.2 148.173 43.64 147.56 43.08C146.413 42.12 146.4 41.1467 147.52 40.16C148.4 39.36 149.28 39.2933 150.16 39.96C151.68 41.1333 153.013 42.2933 154.16 43.44C154.613 43.9467 154.8 44.4133 154.72 44.84C154.667 45.2133 154.373 45.6533 153.84 46.16ZM154.96 35.6C153.76 36.6933 152.693 36.64 151.76 35.44C151.28 34.9067 150.907 34.5067 150.64 34.24C150.293 33.8933 149.747 33.3733 149 32.68C147.827 31.7467 147.813 30.76 148.96 29.72C149.867 28.8933 150.773 28.8533 151.68 29.6C153.013 30.64 154.24 31.7467 155.36 32.92C155.76 33.4267 155.92 33.8933 155.84 34.32C155.76 34.72 155.467 35.1467 154.96 35.6ZM205.2 61.92C204.427 62.9867 203.307 63.2667 201.84 62.76C198.853 61.6667 196.293 60.24 194.16 58.48C191.813 60.1333 189.107 61.52 186.04 62.64C184.52 63.1467 183.4 62.7867 182.68 61.56C182.147 60.68 182.04 59.96 182.36 59.4C182.653 58.8933 183.333 58.48 184.4 58.16C186.693 57.3867 188.787 56.3867 190.68 55.16C188.547 52.7067 186.827 49.8933 185.52 46.72C185.227 46 185.427 45.5333 186.12 45.32L186.24 45.28H186.16C184.853 45.28 184.2 44.6 184.2 43.24C184.2 41.7467 184.907 41 186.32 41H192V36.2H185.68C184.213 36.2 183.48 35.4667 183.48 34C183.48 32.5333 184.213 31.8 185.68 31.8H192V28.4C192 26.8533 192.787 26.08 194.36 26.08C195.907 26.08 196.68 26.8533 196.68 28.4V31.8H203.36C204.827 31.8 205.56 32.5333 205.56 34C205.56 35.4667 204.827 36.2 203.36 36.2H201.12H196.68V41H202.36C203.267 41 203.893 41.2933 204.24 41.88C204.613 42.44 204.653 43.28 204.36 44.4C202.973 48.7467 200.827 52.4 197.92 55.36C199.653 56.5867 201.547 57.5733 203.6 58.32C205.893 59.04 206.427 60.24 205.2 61.92ZM173.84 63.2C173.12 63.2267 172.493 63.0933 171.96 62.8C171.347 62.5067 170.947 62.0533 170.76 61.44C170.227 59.7333 171.027 58.9067 173.16 58.96C173.347 58.96 173.52 58.96 173.68 58.96C174.16 58.96 174.4 58.6933 174.4 58.16V49.92L172.8 50.32C171.307 50.6933 170.36 50.1467 169.96 48.68C169.56 47.16 170.093 46.2267 171.56 45.88C171.96 45.8 172.587 45.6533 173.44 45.44C173.867 45.3333 174.187 45.2533 174.4 45.2V38.12H172.08C170.613 38.12 169.88 37.3867 169.88 35.92C169.88 34.4533 170.613 33.72 172.08 33.72H174.4V28.44C174.4 26.8933 175.187 26.12 176.76 26.12C178.307 26.12 179.08 26.8933 179.08 28.44V33.72H180.76C182.227 33.72 182.96 34.4533 182.96 35.92C182.96 37.3867 182.227 38.12 180.76 38.12H179.08V44.04L180.44 43.68C181.96 43.3067 182.827 43.9067 183.04 45.48C183.2 46.8133 182.667 47.6533 181.44 48C180.933 48.16 180.147 48.3733 179.08 48.64V53.44V58.2C179.08 59.3733 178.947 60.2667 178.68 60.88C178.44 61.52 177.987 62.0267 177.32 62.4C176.573 62.8 175.413 63.0667 173.84 63.2ZM194.32 52.36C196.453 50.3067 198.107 47.9467 199.28 45.28H194.48H189.68C190.747 47.8933 192.293 50.2533 194.32 52.36ZM220.2 63.56C218.813 63.56 218.12 62.8667 218.12 61.48V50.2C217.613 54.3333 216.453 57.88 214.64 60.84C214.08 61.5867 213.547 62.0267 213.04 62.16C212.507 62.2933 211.92 62.0667 211.28 61.48C210.213 60.52 210.2 59.28 211.24 57.76C213.24 54.2933 214.24 49.4667 214.24 43.28V38.32C214.24 37.44 214.493 36.8 215 36.4C215.533 35.9733 216.227 35.8533 217.08 36.04L217.28 36.08C221.413 35.9467 225.267 35.7467 228.84 35.48C228.547 35.32 228.067 35.0533 227.4 34.68C227.08 34.4933 226.84 34.36 226.68 34.28C226.253 34.0667 226.027 33.8 226 33.48C225.973 33.16 226.187 32.8 226.64 32.4L221.76 32.48C222.32 33.6533 221.947 34.4267 220.64 34.8C219.147 35.2533 218.12 34.8 217.56 33.44C217.453 33.2267 217.267 32.88 217 32.4H216.36C215.933 33.0133 215.373 33.72 214.68 34.52C213.72 35.5067 212.68 35.6267 211.56 34.88C210.787 34.3467 210.387 33.8133 210.36 33.28C210.36 32.7467 210.72 32.1467 211.44 31.48C212.56 30.28 213.493 29.0133 214.24 27.68C214.853 26.4267 215.907 26 217.4 26.4C218.84 26.8 219.24 27.6267 218.6 28.88H225.8C226.307 28.88 226.707 29.0267 227 29.32C227.293 29.6133 227.44 30.0133 227.44 30.52V30.64C227.44 31.2533 227.653 31.3333 228.08 30.88C228.96 29.84 229.707 28.76 230.32 27.64C230.907 26.4133 231.933 25.9733 233.4 26.32C234.093 26.48 234.56 26.7867 234.8 27.24C235.067 27.6667 235.04 28.2133 234.72 28.88H244.04C245.213 28.88 245.8 29.4667 245.8 30.64C245.8 31.8133 245.213 32.4 244.04 32.4H239.84C240.08 32.7467 240.32 33.1067 240.56 33.48C240.693 33.6667 240.707 33.8533 240.6 34.04C240.52 34.2267 240.347 34.36 240.08 34.44L239.68 34.56L241.16 36.08C241.56 36.48 241.72 36.8267 241.64 37.12C241.587 37.4133 241.333 37.6 240.88 37.68C234.613 38.6133 227.173 39.1467 218.56 39.28V40.36H240C240.773 40.36 241.4 40.6 241.88 41.08C242.36 41.56 242.6 42.1867 242.6 42.96V46.04C242.6 46.8133 242.36 47.44 241.88 47.92C241.4 48.4 240.773 48.64 240 48.64H218.32C218.32 48.8 218.293 49.04 218.24 49.36C218.213 49.6533 218.187 49.88 218.16 50.04H231.04H241.32C242.093 50.04 242.72 50.28 243.2 50.76C243.68 51.24 243.92 51.8667 243.92 52.64V59.72C243.92 60.68 243.827 61.3867 243.64 61.84C243.427 62.32 243.027 62.6933 242.44 62.96C241.88 63.2533 240.96 63.4267 239.68 63.48C238.4 63.5333 237.613 63.08 237.32 62.12C236.867 60.7867 237.44 60.1467 239.04 60.2C239.36 60.1733 239.52 60.0133 239.52 59.72V58.28H236.28V61.32C236.28 62.6 235.64 63.24 234.36 63.24C233.08 63.24 232.44 62.6 232.44 61.32V58.28H229.28V61.32C229.28 62.6 228.64 63.24 227.36 63.24C226.08 63.24 225.44 62.6 225.44 61.32V58.28H222.28V61.48C222.28 62.8667 221.587 63.56 220.2 63.56ZM222.28 55.16H223.84H225.44V53.4H222.28V55.16ZM229.28 55.16H232.44V53.4H230.84H229.28V55.16ZM236.28 55.16H237.88H239.52V54.16C239.52 53.6533 239.267 53.4 238.76 53.4H236.28V55.16ZM218.52 45.48H228.32H237.2C237.84 45.48 238.16 45.16 238.16 44.52V44.4C238.16 43.84 237.88 43.56 237.32 43.56H218.56C218.56 44.3867 218.547 45.0267 218.52 45.48ZM229.8 35.44C230.147 35.4133 230.667 35.36 231.36 35.28C232.16 35.2267 232.76 35.1733 233.16 35.12C234.013 35.0667 235.04 34.96 236.24 34.8C235.92 34.24 235.4 33.44 234.68 32.4H232.48C231.733 33.3867 230.84 34.4 229.8 35.44Z" fill="white"/>
<defs>
<linearGradient id="paint0_linear_238_2203" x1="145.667" y1="0" x2="145.667" y2="290" gradientUnits="userSpaceOnUse">
<stop stop-color="#FF922E"/>
<stop offset="1" stop-color="#FDB471"/>
</linearGradient>
<linearGradient id="paint1_linear_238_2203" x1="123.744" y1="170.288" x2="171.908" y2="188.985" gradientUnits="userSpaceOnUse">
<stop stop-color="#FE7A00"/>
<stop offset="1" stop-color="#FFC188"/>
</linearGradient>
<linearGradient id="paint2_linear_238_2203" x1="197.433" y1="147.205" x2="210.594" y2="152.315" gradientUnits="userSpaceOnUse">
<stop stop-color="#FE7A00"/>
<stop offset="1" stop-color="#FFC188"/>
</linearGradient>
<linearGradient id="paint3_linear_238_2203" x1="176.895" y1="179.067" x2="186.871" y2="182.94" gradientUnits="userSpaceOnUse">
<stop stop-color="#FE7A00"/>
<stop offset="1" stop-color="#FFC188"/>
</linearGradient>
<linearGradient id="paint4_linear_238_2203" x1="156.709" y1="115.422" x2="169.201" y2="120.271" gradientUnits="userSpaceOnUse">
<stop stop-color="#FE7A00"/>
<stop offset="1" stop-color="#FFC188"/>
</linearGradient>
<linearGradient id="paint5_linear_238_2203" x1="131.646" y1="147.181" x2="148.949" y2="153.897" gradientUnits="userSpaceOnUse">
<stop stop-color="#FE7A00"/>
<stop offset="1" stop-color="#FFC188"/>
</linearGradient>
<linearGradient id="paint6_linear_238_2203" x1="175.12" y1="108.467" x2="219.161" y2="125.563" gradientUnits="userSpaceOnUse">
<stop stop-color="#FE7A00"/>
<stop offset="1" stop-color="#FFC188"/>
</linearGradient>
<linearGradient id="paint7_linear_238_2203" x1="94.6544" y1="205.696" x2="104.298" y2="209.44" gradientUnits="userSpaceOnUse">
<stop stop-color="#FE7A00"/>
<stop offset="1" stop-color="#FFC188"/>
</linearGradient>
<linearGradient id="paint8_linear_238_2203" x1="130.549" y1="232.245" x2="146.559" y2="238.46" gradientUnits="userSpaceOnUse">
<stop stop-color="#FE7A00"/>
<stop offset="1" stop-color="#FFC188"/>
</linearGradient>
<linearGradient id="paint9_linear_238_2203" x1="189.305" y1="98.6745" x2="221.126" y2="111.027" gradientUnits="userSpaceOnUse">
<stop stop-color="#FE7A00"/>
<stop offset="1" stop-color="#FFC188"/>
</linearGradient>
<clipPath id="clip0_238_2203">
<rect width="201" height="194.41" fill="white" transform="translate(41 86)"/>
</clipPath>
</defs>
</svg>
