<svg width="290" height="290" viewBox="0 0 290 290" fill="none" xmlns="http://www.w3.org/2000/svg">
<rect x="1.52588e-05" width="290" height="290" rx="29.0909" fill="url(#paint0_linear_238_2152)"/>
<g clip-path="url(#clip0_238_2152)">
<g opacity="0.57">
<path d="M24.8569 186.975C22.1706 186.975 20 184.827 20 182.179C20 179.53 22.1753 177.382 24.8569 177.382C27.5386 177.382 29.7185 179.53 29.7185 182.179C29.7185 184.827 27.5386 186.975 24.8569 186.975Z" fill="white"/>
<path d="M62.1183 117.184C59.432 117.184 57.2614 115.036 57.2614 112.388C57.2614 109.739 59.4367 107.591 62.1183 107.591C64.7999 107.591 66.9752 109.739 66.9752 112.388C66.9752 115.036 64.7999 117.184 62.1183 117.184Z" fill="white"/>
<path d="M99.375 263.701C96.6887 263.701 94.5181 261.553 94.5181 258.904C94.5181 256.256 96.6934 254.108 99.375 254.108C102.057 254.108 104.237 256.256 104.237 258.904C104.237 261.553 102.057 263.701 99.375 263.701Z" fill="white"/>
<path d="M227.343 263.701C224.661 263.701 222.486 261.553 222.486 258.904C222.486 256.256 224.666 254.108 227.343 254.108C230.019 254.108 232.204 256.256 232.204 258.904C232.204 261.553 230.024 263.701 227.343 263.701Z" fill="white"/>
<path d="M27.1869 137.933C24.5006 137.933 22.3253 135.785 22.3253 133.137C22.3253 130.488 24.5053 128.34 27.1869 128.34C29.8686 128.34 32.0439 130.488 32.0439 133.137C32.0439 135.785 29.8686 137.933 27.1869 137.933Z" fill="white"/>
<path d="M265.134 95.5882C262.447 95.5882 260.277 93.4403 260.277 90.7917C260.277 88.143 262.452 85.9951 265.134 85.9951C267.815 85.9951 269.995 88.143 269.995 90.7917C269.995 93.4403 267.815 95.5882 265.134 95.5882Z" fill="white"/>
</g>
<g opacity="0.57">
<path d="M170.475 259.658H170.053L87.1014 259.312L87.1061 257.894L169.636 258.235L175.557 247.412H205.566V248.83H176.401L170.475 259.658Z" fill="white"/>
<path d="M82.0468 252.493L82.0396 253.911L151.409 254.261L151.416 252.843L82.0468 252.493Z" fill="white"/>
<path d="M175.473 271.277H101.171V269.859H174.69L180.56 260.57H215.214V261.984H181.342L175.473 271.277Z" fill="white"/>
<path d="M172.81 266.017H95.3197V264.599H172.013L179.195 252.826H230.17V254.244H179.997L172.81 266.017Z" fill="white"/>
<path d="M231.454 255.905C230.146 255.905 229.082 254.842 229.082 253.537C229.082 252.231 230.146 251.169 231.454 251.169C232.762 251.169 233.826 252.231 233.826 253.537C233.826 254.842 232.762 255.905 231.454 255.905ZM231.454 252.582C230.929 252.582 230.502 253.008 230.502 253.532C230.502 254.056 230.929 254.487 231.454 254.487C231.979 254.487 232.406 254.061 232.406 253.532C232.406 253.003 231.979 252.582 231.454 252.582Z" fill="white"/>
<path d="M216.757 263.645C215.449 263.645 214.385 262.583 214.385 261.277C214.385 259.971 215.449 258.909 216.757 258.909C218.065 258.909 219.129 259.971 219.129 261.277C219.129 262.583 218.065 263.645 216.757 263.645ZM216.757 260.322C216.232 260.322 215.805 260.748 215.805 261.277C215.805 261.806 216.232 262.232 216.757 262.232C217.282 262.232 217.713 261.806 217.713 261.277C217.713 260.748 217.287 260.322 216.757 260.322Z" fill="white"/>
<path d="M207.23 250.491C205.922 250.491 204.858 249.428 204.858 248.123C204.858 246.817 205.922 245.755 207.23 245.755C208.538 245.755 209.603 246.817 209.603 248.123C209.603 249.428 208.538 250.491 207.23 250.491ZM207.23 247.168C206.705 247.168 206.279 247.594 206.279 248.118C206.279 248.642 206.705 249.073 207.23 249.073C207.756 249.073 208.182 248.647 208.182 248.118C208.182 247.589 207.756 247.168 207.23 247.168Z" fill="white"/>
<path d="M153.068 255.558C151.76 255.558 150.696 254.496 150.696 253.191C150.696 251.885 151.76 250.823 153.068 250.823C154.376 250.823 155.441 251.885 155.441 253.191C155.441 254.496 154.376 255.558 153.068 255.558ZM153.068 252.236C152.543 252.236 152.117 252.662 152.117 253.191C152.117 253.719 152.543 254.141 153.068 254.141C153.593 254.141 154.025 253.715 154.025 253.191C154.025 252.666 153.598 252.236 153.068 252.236Z" fill="white"/>
</g>
<g opacity="0.57">
<path d="M126.43 146.301L69.9194 145.809L69.9241 144.392L125.591 144.878L133.955 129.585H176.171V131.003H134.799L126.43 146.301Z" fill="white"/>
<path d="M99.661 138.65L70.7585 138.163L70.7632 136.745L99.6656 137.232L99.661 138.65Z" fill="white"/>
<path d="M133.5 162.712H89.1783V161.294H132.717L141.01 148.173H189.8V149.591H141.793L133.5 162.712Z" fill="white"/>
<path d="M129.74 155.281H96.4824V153.863H128.943L139.088 137.232H210.925V138.65H139.89L129.74 155.281Z" fill="white"/>
<path d="M212.744 140.999C211.056 140.999 209.682 139.628 209.682 137.943C209.682 136.258 211.056 134.887 212.744 134.887C214.431 134.887 215.805 136.258 215.805 137.943C215.805 139.628 214.431 140.999 212.744 140.999ZM212.744 136.305C211.839 136.305 211.103 137.04 211.103 137.943C211.103 138.846 211.839 139.581 212.744 139.581C213.648 139.581 214.385 138.846 214.385 137.943C214.385 137.04 213.648 136.305 212.744 136.305Z" fill="white"/>
<path d="M191.98 151.935C190.292 151.935 188.919 150.564 188.919 148.879C188.919 147.194 190.292 145.823 191.98 145.823C193.668 145.823 195.041 147.194 195.041 148.879C195.041 150.564 193.668 151.935 191.98 151.935ZM191.98 147.241C191.075 147.241 190.339 147.976 190.339 148.879C190.339 149.782 191.075 150.517 191.98 150.517C192.885 150.517 193.621 149.782 193.621 148.879C193.621 147.976 192.885 147.241 191.98 147.241Z" fill="white"/>
<path d="M178.525 133.348C176.837 133.348 175.464 131.977 175.464 130.292C175.464 128.607 176.837 127.236 178.525 127.236C180.213 127.236 181.586 128.607 181.586 130.292C181.586 131.977 180.213 133.348 178.525 133.348ZM178.525 128.659C177.62 128.659 176.884 129.394 176.884 130.297C176.884 131.2 177.62 131.935 178.525 131.935C179.43 131.935 180.166 131.2 180.166 130.297C180.166 129.394 179.43 128.659 178.525 128.659Z" fill="white"/>
<path d="M102.014 140.507C100.327 140.507 98.9531 139.136 98.9531 137.452C98.9531 135.767 100.327 134.396 102.014 134.396C103.702 134.396 105.076 135.767 105.076 137.452C105.076 139.136 103.702 140.507 102.014 140.507ZM102.014 135.819C101.11 135.819 100.374 136.553 100.374 137.456C100.374 138.36 101.11 139.094 102.014 139.094C102.919 139.094 103.655 138.36 103.655 137.456C103.655 136.553 102.919 135.819 102.014 135.819Z" fill="white"/>
</g>
<g opacity="0.57">
<path d="M177.128 234.22H134.906L126.543 218.927L88.5735 219.414L88.5688 217.996L127.382 217.504L135.75 232.802H177.128V234.22Z" fill="white"/>
<path d="M81.4147 227.06L81.4053 225.642L100.613 225.156L100.622 226.574L81.4147 227.06Z" fill="white"/>
<path d="M190.752 215.637H141.962L133.669 202.516H108.437V201.098H134.452L142.745 214.22H190.752V215.637Z" fill="white"/>
<path d="M211.876 226.573H140.045L129.895 209.942H91.2129V208.524H130.696L140.842 225.156H211.876V226.573Z" fill="white"/>
<path d="M213.695 228.918C212.008 228.918 210.634 227.547 210.634 225.862C210.634 224.178 212.008 222.807 213.695 222.807C215.383 222.807 216.757 224.178 216.757 225.862C216.757 227.547 215.383 228.918 213.695 228.918ZM213.695 224.225C212.791 224.225 212.055 224.959 212.055 225.862C212.055 226.766 212.791 227.5 213.695 227.5C214.6 227.5 215.336 226.766 215.336 225.862C215.336 224.959 214.6 224.225 213.695 224.225Z" fill="white"/>
<path d="M192.936 217.982C191.249 217.982 189.875 216.611 189.875 214.926C189.875 213.242 191.249 211.871 192.936 211.871C194.624 211.871 195.998 213.242 195.998 214.926C195.998 216.611 194.624 217.982 192.936 217.982ZM192.936 213.289C192.031 213.289 191.295 214.023 191.295 214.926C191.295 215.83 192.031 216.564 192.936 216.564C193.841 216.564 194.577 215.83 194.577 214.926C194.577 214.023 193.841 213.289 192.936 213.289Z" fill="white"/>
<path d="M179.477 236.565C177.789 236.565 176.415 235.194 176.415 233.509C176.415 231.824 177.789 230.453 179.477 230.453C181.164 230.453 182.538 231.824 182.538 233.509C182.538 235.194 181.164 236.565 179.477 236.565ZM179.477 231.871C178.572 231.871 177.836 232.606 177.836 233.509C177.836 234.412 178.572 235.147 179.477 235.147C180.381 235.147 181.117 234.412 181.117 233.509C181.117 232.606 180.381 231.871 179.477 231.871Z" fill="white"/>
<path d="M102.966 229.409C101.278 229.409 99.9048 228.038 99.9048 226.354C99.9048 224.669 101.278 223.298 102.966 223.298C104.654 223.298 106.027 224.669 106.027 226.354C106.027 228.038 104.654 229.409 102.966 229.409ZM102.966 224.716C102.061 224.716 101.325 225.45 101.325 226.354C101.325 227.257 102.061 227.991 102.966 227.991C103.871 227.991 104.607 227.257 104.607 226.354C104.607 225.45 103.871 224.716 102.966 224.716Z" fill="white"/>
</g>
<g opacity="0.57">
<path d="M205.566 122.631H175.557L169.636 111.807L87.1061 112.149L87.1014 110.731L170.475 110.385L176.401 121.213H205.566V122.631Z" fill="white"/>
<path d="M151.397 115.778L82.0273 116.177L82.0355 117.595L151.405 117.196L151.397 115.778Z" fill="white"/>
<path d="M215.214 109.472H180.56L174.69 100.184H101.171V98.7656H175.473L181.342 108.059H215.214V109.472Z" fill="white"/>
<path d="M230.17 117.217H179.195L172.013 105.443H95.3197V104.025H172.81L179.997 115.799H230.17V117.217Z" fill="white"/>
<path d="M231.454 118.878C230.146 118.878 229.082 117.816 229.082 116.51C229.082 115.205 230.146 114.143 231.454 114.143C232.762 114.143 233.826 115.205 233.826 116.51C233.826 117.816 232.762 118.878 231.454 118.878ZM231.454 115.556C230.929 115.556 230.502 115.982 230.502 116.51C230.502 117.039 230.929 117.46 231.454 117.46C231.979 117.46 232.406 117.035 232.406 116.51C232.406 115.986 231.979 115.556 231.454 115.556Z" fill="white"/>
<path d="M216.757 111.134C215.449 111.134 214.385 110.071 214.385 108.766C214.385 107.46 215.449 106.398 216.757 106.398C218.065 106.398 219.129 107.46 219.129 108.766C219.129 110.071 218.065 111.134 216.757 111.134ZM216.757 107.811C216.232 107.811 215.805 108.237 215.805 108.761C215.805 109.285 216.232 109.711 216.757 109.711C217.282 109.711 217.713 109.285 217.713 108.761C217.713 108.237 217.287 107.811 216.757 107.811Z" fill="white"/>
<path d="M207.23 124.292C205.922 124.292 204.858 123.23 204.858 121.924C204.858 120.619 205.922 119.557 207.23 119.557C208.538 119.557 209.603 120.619 209.603 121.924C209.603 123.23 208.538 124.292 207.23 124.292ZM207.23 120.97C206.705 120.97 206.279 121.396 206.279 121.924C206.279 122.453 206.705 122.874 207.23 122.874C207.756 122.874 208.182 122.449 208.182 121.924C208.182 121.4 207.756 120.97 207.23 120.97Z" fill="white"/>
<path d="M153.068 119.224C151.76 119.224 150.696 118.162 150.696 116.857C150.696 115.551 151.76 114.489 153.068 114.489C154.376 114.489 155.441 115.551 155.441 116.857C155.441 118.162 154.376 119.224 153.068 119.224ZM153.068 115.902C152.543 115.902 152.117 116.328 152.117 116.857C152.117 117.385 152.543 117.807 153.068 117.807C153.593 117.807 154.025 117.381 154.025 116.857C154.025 116.333 153.598 115.902 153.068 115.902Z" fill="white"/>
</g>
<path opacity="0.57" d="M55.0955 133.025C40.2247 165.351 57.7396 194.378 57.7396 194.378C57.7396 194.378 46.835 216.148 46.5021 225.385C46.1739 234.622 56.4175 229.671 58.4006 232.971C60.3837 236.27 56.4738 243.373 59.3898 244.847C65.6954 248.034 61.7433 252.859 62.9012 255.741C64.0076 258.497 70.6179 254.085 71.6118 262.33C72.6057 270.575 85.4934 290.37 104.663 273.215C123.828 256.064 137.71 229.012 137.71 229.012C137.71 229.012 123.828 207.242 118.545 186.128C113.257 165.019 121.189 142.258 130.771 128.734C140.354 115.21 141.348 94.4279 137.71 88.8218C137.71 88.8218 73.2995 93.4545 55.0955 133.025Z" fill="white"/>
<path d="M170.982 199.413L167.719 191.538H151.732L148.469 199.413H137.912L155.061 161.008H164.55L181.755 199.413H170.982ZM164.353 183.428L159.754 172.342L155.155 183.428H164.357H164.353Z" fill="url(#paint1_linear_238_2152)"/>
<path d="M164.01 161.832L180.475 198.585H171.535L168.272 190.71H151.174L147.911 198.585H139.177L155.591 161.832H164.006M153.907 184.252H165.586L159.749 170.18L153.912 184.252M165.084 160.18H154.522L154.086 161.158L137.672 197.911L136.636 200.237H149.022L149.444 199.217L152.281 192.361H167.166L170.007 199.217L170.428 200.237H183.03L181.989 197.911L165.525 161.158L165.089 160.18H165.084ZM156.388 182.6L159.749 174.495L163.11 182.6H156.383H156.388Z" fill="white"/>
<path d="M193.668 161.008H183.49V199.413H193.668V161.008Z" fill="url(#paint2_linear_238_2152)"/>
<path d="M192.838 161.832V198.585H184.315V161.832H192.838ZM194.493 160.18H182.66V200.237H194.493V160.18Z" fill="white"/>
</g>
<path d="M52.72 61.36C50.9867 62.5333 49.56 62.5733 48.44 61.48C46.9467 60.04 47.3467 58.5733 49.64 57.08C54.4667 53.4267 57.8533 48.3467 59.8 41.84C60.84 38.2133 61.4667 33.8267 61.68 28.68C61.7067 27.9333 61.96 27.4533 62.44 27.24C62.76 27.1067 63.4133 27.04 64.4 27.04C64.48 27.04 64.5467 27.04 64.6 27.04C65.3467 27.04 65.9333 27.24 66.36 27.64C66.8133 28.0133 67.0267 28.5467 67 29.24C67 29.2667 67 29.2933 67 29.32C67.2133 33.6667 68.0133 37.84 69.4 41.84C71.64 48.24 75.1333 53.16 79.88 56.6C81.0533 57.2933 81.8533 58.0267 82.28 58.8C82.7867 59.7333 82.68 60.6 81.96 61.4C80.9467 62.52 79.56 62.6 77.8 61.64C71.64 57.64 67.3067 51.44 64.8 43.04C62.5067 50.9067 58.48 57.0133 52.72 61.36ZM89.52 60.72C87.92 60.72 87.12 59.92 87.12 58.32C87.12 56.72 87.92 55.92 89.52 55.92H102.2V35.24H91.72C90.0667 35.24 89.24 34.4133 89.24 32.76C89.24 31.1067 90.0667 30.28 91.72 30.28H118.4C120.053 30.28 120.88 31.1067 120.88 32.76C120.88 34.4133 120.053 35.24 118.4 35.24H107.56V55.92H120.68C122.28 55.92 123.08 56.72 123.08 58.32C123.08 59.92 122.28 60.72 120.68 60.72H105.08H89.52ZM134.84 62.16C134.067 62.16 133.44 61.92 132.96 61.44C132.48 60.96 132.24 60.3333 132.24 59.56V49.2C132.24 48.4267 132.48 47.8 132.96 47.32C133.44 46.84 134.067 46.6 134.84 46.6H145.16H155.48C156.253 46.6 156.88 46.84 157.36 47.32C157.84 47.8 158.08 48.4267 158.08 49.2V59.56C158.08 60.3333 157.84 60.96 157.36 61.44C156.88 61.92 156.253 62.16 155.48 62.16H134.84ZM137.84 58.36H152.28C152.92 58.36 153.24 58.04 153.24 57.4V56H145.04H136.88V57.4C136.88 58.04 137.2 58.36 137.84 58.36ZM136.88 52.56H145.04H153.24V51.28C153.24 50.64 152.92 50.32 152.28 50.32H137.84C137.2 50.32 136.88 50.64 136.88 51.28V52.56ZM131.56 46.76C130.173 47.5333 129.08 47.48 128.28 46.6C127.667 45.9333 127.547 45.2667 127.92 44.6C128.24 44.04 128.88 43.52 129.84 43.04C131.573 41.92 132.813 40.6133 133.56 39.12H128.84C127.613 39.12 127 38.4933 127 37.24C127 36.0133 127.613 35.4 128.84 35.4H129.64C129.027 35.0267 128.467 34.6933 127.96 34.4C127.587 34.2133 127.373 33.9467 127.32 33.6C127.267 33.2267 127.387 32.88 127.68 32.56C128.747 31.2533 129.64 29.6933 130.36 27.88C130.787 26.5467 131.667 26.0267 133 26.32C134.44 26.6133 134.933 27.44 134.48 28.8C134.48 28.8267 134.467 28.88 134.44 28.96C134.413 29.0133 134.387 29.0667 134.36 29.12H139.24H142.32C143.547 29.12 144.16 29.7333 144.16 30.96C144.16 32.1867 143.547 32.8 142.32 32.8H139.04V34.6C139.04 34.9467 139.027 35.2133 139 35.4H143.24C144.467 35.4 145.08 36.0133 145.08 37.24C145.08 38.4933 144.467 39.12 143.24 39.12H138.56C139.92 39.8933 141.52 40.8 143.36 41.84C144.08 42.2667 144.427 42.6933 144.4 43.12C144.373 43.52 144.027 44.0267 143.36 44.64C142.827 45.12 142.347 45.3867 141.92 45.44C141.493 45.4667 141.013 45.2667 140.48 44.84C139.573 44.12 138.333 43.2133 136.76 42.12C135.533 43.88 133.8 45.4267 131.56 46.76ZM149.04 44.2C148.267 44.2 147.64 43.96 147.16 43.48C146.68 43 146.44 42.3733 146.44 41.6V31.64C146.44 30.8667 146.68 30.24 147.16 29.76C147.64 29.28 148.267 29.04 149.04 29.04H158.88C159.653 29.04 160.28 29.28 160.76 29.76C161.24 30.24 161.48 30.8667 161.48 31.64V41.6C161.48 42.3733 161.24 43 160.76 43.48C160.28 43.96 159.653 44.2 158.88 44.2H153.96H149.04ZM151.76 40H155.84C156.48 40 156.8 39.68 156.8 39.04V34.2C156.8 33.56 156.48 33.24 155.84 33.24H151.76C151.12 33.24 150.8 33.56 150.8 34.2V36.64V39.04C150.8 39.68 151.12 40 151.76 40ZM131.4 35.4H134.52C134.547 35.1867 134.56 34.8933 134.56 34.52V32.8H132.56C132.267 33.3067 131.973 33.76 131.68 34.16C131.627 34.24 131.533 34.3733 131.4 34.56C131.293 34.72 131.2 34.84 131.12 34.92C130.88 35.24 130.973 35.4 131.4 35.4ZM183.04 63.04C180.533 63.04 178.853 62.68 178 61.96C177.173 61.24 176.76 59.8667 176.76 57.84V55.88C176.76 54.3333 177.547 53.56 179.12 53.56C180.667 53.56 181.44 54.3333 181.44 55.88V57.84C181.44 58.3467 181.56 58.6667 181.8 58.8C182.067 58.9333 182.653 59 183.56 59H188.96C189.28 59 189.507 58.9867 189.64 58.96C190.467 56.9867 191.68 56.3067 193.28 56.92C194.373 57.3733 194.72 58.5333 194.32 60.4C193.973 61.3867 193.413 62.08 192.64 62.48C191.92 62.8533 190.853 63.04 189.44 63.04H186.24H183.04ZM171.6 61.68C170.72 62.4533 169.787 62.4933 168.8 61.8C167.28 60.7067 167.213 59.5467 168.6 58.32C169.347 57.4933 169.987 56.5867 170.52 55.6C171.133 54.24 172.12 53.8133 173.48 54.32C174.813 54.8 175.227 55.6933 174.72 57C174.293 57.9067 173.88 58.6933 173.48 59.36C172.947 60.24 172.32 61.0133 171.6 61.68ZM201.64 61.4C200.893 61.8267 200.253 61.9867 199.72 61.88C199.16 61.7733 198.68 61.36 198.28 60.64C197.773 60 197.333 59.4667 196.96 59.04C196.587 58.5867 196 57.9333 195.2 57.08C193.947 55.9067 194.08 54.88 195.6 54C196.533 53.44 197.427 53.5067 198.28 54.2C199.96 55.64 201.373 57.1067 202.52 58.6C202.893 59.2133 203.013 59.7467 202.88 60.2C202.72 60.6 202.307 61 201.64 61.4ZM188.2 56C187.107 56.96 186.107 56.9733 185.2 56.04C184.107 55.08 183.067 54.2933 182.08 53.68C181.813 53.52 181.667 53.32 181.64 53.08C181.64 52.84 181.773 52.6133 182.04 52.4L182.12 52.32H171.92C170.96 52.32 170.48 51.84 170.48 50.88C170.48 49.92 170.96 49.44 171.92 49.44H193.6C194.24 49.44 194.56 49.12 194.56 48.48V47.92H169.04C168.133 47.92 167.68 47.4533 167.68 46.52C167.68 45.6133 168.133 45.16 169.04 45.16H194.56V44.28C194.56 43.88 194.36 43.68 193.96 43.68H172.16C171.2 43.68 170.72 43.2 170.72 42.24C170.72 41.28 171.2 40.8 172.16 40.8H184.92H196.52C197.293 40.8 197.92 41.04 198.4 41.52C198.88 42 199.12 42.6267 199.12 43.4V45.16H201.2C202.107 45.16 202.56 45.6133 202.56 46.52C202.56 47.4533 202.107 47.92 201.2 47.92H199.12V50.24C199.12 50.88 198.933 51.3867 198.56 51.76C198.187 52.1333 197.68 52.32 197.04 52.32H187.08C187.213 52.4 187.4 52.5333 187.64 52.72C187.933 52.96 188.16 53.1333 188.32 53.24C189.28 54.1733 189.24 55.0933 188.2 56ZM175.96 40.28C175.507 40.28 175.08 40.1867 174.68 40C174.227 39.76 174 39.4667 174 39.12V39.04L170.92 39.2L169.36 39.28C168.373 39.3067 167.84 38.8133 167.76 37.8C167.68 36.76 168.107 36.2267 169.04 36.2C169.173 36.2 169.36 36.2 169.6 36.2C171.493 36.1467 172.96 36.0933 174 36.04V34.56H170.48C169.573 34.56 169.12 34.0933 169.12 33.16C169.12 32.2533 169.573 31.8 170.48 31.8H174V31.04C174 30.72 173.84 30.56 173.52 30.56H169.48C168.573 30.56 168.12 30.0933 168.12 29.16C168.12 28.2533 168.573 27.8 169.48 27.8H174V27.72C174 27.24 174.227 26.8533 174.68 26.56C175.107 26.2933 175.6 26.16 176.16 26.16C176.72 26.16 177.213 26.2933 177.64 26.56C178.093 26.8533 178.32 27.24 178.32 27.72V27.8H182.32C183.227 27.8 183.68 28.2533 183.68 29.16C183.68 30.0933 183.227 30.56 182.32 30.56H179.28C178.64 30.56 178.32 30.88 178.32 31.52V31.8H181.88C182.787 31.8 183.24 32.2533 183.24 33.16C183.24 34.0933 182.787 34.56 181.88 34.56H178.32V35.32C178.32 35.6667 178.493 35.8267 178.84 35.8L182.28 35.68C183.32 35.6267 183.813 36.1067 183.76 37.12C183.707 38.0533 183.24 38.5333 182.36 38.56C180.547 38.6667 179.2 38.7467 178.32 38.8V38.88C178.32 39.3067 178.04 39.6533 177.48 39.92C177 40.16 176.493 40.28 175.96 40.28ZM193.04 40.28C192.48 40.28 192 40.1467 191.6 39.88C191.12 39.6133 190.88 39.24 190.88 38.76V38.68H186.36C185.427 38.68 184.96 38.2133 184.96 37.28C184.96 36.3467 185.427 35.88 186.36 35.88H189.92C190.56 35.88 190.88 35.56 190.88 34.92V34.56H187.44C186.533 34.56 186.08 34.0933 186.08 33.16C186.08 32.2533 186.533 31.8 187.44 31.8H190.88V31.04C190.88 30.72 190.72 30.56 190.4 30.56H186.64C185.733 30.56 185.28 30.0933 185.28 29.16C185.28 28.2533 185.733 27.8 186.64 27.8H190.88V27.72C190.88 27.24 191.107 26.8533 191.56 26.56C191.987 26.2933 192.48 26.16 193.04 26.16C193.6 26.16 194.093 26.2933 194.52 26.56C194.973 26.8533 195.2 27.24 195.2 27.72V27.8H200.08C200.987 27.8 201.44 28.2533 201.44 29.16C201.44 30.0933 200.987 30.56 200.08 30.56H196.16C195.52 30.56 195.2 30.88 195.2 31.52V31.8H199.4C200.307 31.8 200.76 32.2533 200.76 33.16C200.76 34.0933 200.307 34.56 199.4 34.56H195.2V35.36C195.2 35.7067 195.373 35.88 195.72 35.88H200.84C201.773 35.88 202.24 36.3467 202.24 37.28C202.24 38.2133 201.773 38.68 200.84 38.68H198.72H195.2V38.76C195.2 39.24 194.96 39.6133 194.48 39.88C194.08 40.1467 193.6 40.28 193.04 40.28ZM217.2 63.56C215.813 63.56 215.12 62.8667 215.12 61.48V50.2C214.613 54.3333 213.453 57.88 211.64 60.84C211.08 61.5867 210.547 62.0267 210.04 62.16C209.507 62.2933 208.92 62.0667 208.28 61.48C207.213 60.52 207.2 59.28 208.24 57.76C210.24 54.2933 211.24 49.4667 211.24 43.28V38.32C211.24 37.44 211.493 36.8 212 36.4C212.533 35.9733 213.227 35.8533 214.08 36.04L214.28 36.08C218.413 35.9467 222.267 35.7467 225.84 35.48C225.547 35.32 225.067 35.0533 224.4 34.68C224.08 34.4933 223.84 34.36 223.68 34.28C223.253 34.0667 223.027 33.8 223 33.48C222.973 33.16 223.187 32.8 223.64 32.4L218.76 32.48C219.32 33.6533 218.947 34.4267 217.64 34.8C216.147 35.2533 215.12 34.8 214.56 33.44C214.453 33.2267 214.267 32.88 214 32.4H213.36C212.933 33.0133 212.373 33.72 211.68 34.52C210.72 35.5067 209.68 35.6267 208.56 34.88C207.787 34.3467 207.387 33.8133 207.36 33.28C207.36 32.7467 207.72 32.1467 208.44 31.48C209.56 30.28 210.493 29.0133 211.24 27.68C211.853 26.4267 212.907 26 214.4 26.4C215.84 26.8 216.24 27.6267 215.6 28.88H222.8C223.307 28.88 223.707 29.0267 224 29.32C224.293 29.6133 224.44 30.0133 224.44 30.52V30.64C224.44 31.2533 224.653 31.3333 225.08 30.88C225.96 29.84 226.707 28.76 227.32 27.64C227.907 26.4133 228.933 25.9733 230.4 26.32C231.093 26.48 231.56 26.7867 231.8 27.24C232.067 27.6667 232.04 28.2133 231.72 28.88H241.04C242.213 28.88 242.8 29.4667 242.8 30.64C242.8 31.8133 242.213 32.4 241.04 32.4H236.84C237.08 32.7467 237.32 33.1067 237.56 33.48C237.693 33.6667 237.707 33.8533 237.6 34.04C237.52 34.2267 237.347 34.36 237.08 34.44L236.68 34.56L238.16 36.08C238.56 36.48 238.72 36.8267 238.64 37.12C238.587 37.4133 238.333 37.6 237.88 37.68C231.613 38.6133 224.173 39.1467 215.56 39.28V40.36H237C237.773 40.36 238.4 40.6 238.88 41.08C239.36 41.56 239.6 42.1867 239.6 42.96V46.04C239.6 46.8133 239.36 47.44 238.88 47.92C238.4 48.4 237.773 48.64 237 48.64H215.32C215.32 48.8 215.293 49.04 215.24 49.36C215.213 49.6533 215.187 49.88 215.16 50.04H228.04H238.32C239.093 50.04 239.72 50.28 240.2 50.76C240.68 51.24 240.92 51.8667 240.92 52.64V59.72C240.92 60.68 240.827 61.3867 240.64 61.84C240.427 62.32 240.027 62.6933 239.44 62.96C238.88 63.2533 237.96 63.4267 236.68 63.48C235.4 63.5333 234.613 63.08 234.32 62.12C233.867 60.7867 234.44 60.1467 236.04 60.2C236.36 60.1733 236.52 60.0133 236.52 59.72V58.28H233.28V61.32C233.28 62.6 232.64 63.24 231.36 63.24C230.08 63.24 229.44 62.6 229.44 61.32V58.28H226.28V61.32C226.28 62.6 225.64 63.24 224.36 63.24C223.08 63.24 222.44 62.6 222.44 61.32V58.28H219.28V61.48C219.28 62.8667 218.587 63.56 217.2 63.56ZM219.28 55.16H220.84H222.44V53.4H219.28V55.16ZM226.28 55.16H229.44V53.4H227.84H226.28V55.16ZM233.28 55.16H234.88H236.52V54.16C236.52 53.6533 236.267 53.4 235.76 53.4H233.28V55.16ZM215.52 45.48H225.32H234.2C234.84 45.48 235.16 45.16 235.16 44.52V44.4C235.16 43.84 234.88 43.56 234.32 43.56H215.56C215.56 44.3867 215.547 45.0267 215.52 45.48ZM226.8 35.44C227.147 35.4133 227.667 35.36 228.36 35.28C229.16 35.2267 229.76 35.1733 230.16 35.12C231.013 35.0667 232.04 34.96 233.24 34.8C232.92 34.24 232.4 33.44 231.68 32.4H229.48C228.733 33.3867 227.84 34.4 226.8 35.44Z" fill="white"/>
<defs>
<linearGradient id="paint0_linear_238_2152" x1="145" y1="0" x2="145" y2="290" gradientUnits="userSpaceOnUse">
<stop stop-color="#FF922E"/>
<stop offset="1" stop-color="#FDB471"/>
</linearGradient>
<linearGradient id="paint1_linear_238_2152" x1="137.912" y1="180.208" x2="181.755" y2="180.208" gradientUnits="userSpaceOnUse">
<stop stop-color="#FE7A00"/>
<stop offset="1" stop-color="#FFC188"/>
</linearGradient>
<linearGradient id="paint2_linear_238_2152" x1="183.49" y1="85.9998" x2="193.668" y2="85.9998" gradientUnits="userSpaceOnUse">
<stop stop-color="#FE7A00"/>
<stop offset="1" stop-color="#FFC188"/>
</linearGradient>
<clipPath id="clip0_238_2152">
<rect width="250" height="194" fill="white" transform="translate(20 86)"/>
</clipPath>
</defs>
</svg>
