<svg width="290" height="290" viewBox="0 0 290 290" fill="none" xmlns="http://www.w3.org/2000/svg">
<rect width="290" height="290" rx="29.0909" fill="url(#paint0_linear_283_680)"/>
<path d="M52.24 63.4C50.8533 63.4 50.16 62.72 50.16 61.36V42.64C50.1067 42.6933 50.08 42.7467 50.08 42.8C49.3067 43.84 48.6267 44.3467 48.04 44.32C47.4533 44.2933 46.9333 43.7067 46.48 42.56C46.2133 41.8933 46.1067 41.3067 46.16 40.8C46.24 40.2933 46.4933 39.76 46.92 39.2C49 36.2133 50.7333 32.6533 52.12 28.52C52.3333 27.8267 52.72 27.3467 53.28 27.08C53.84 26.7867 54.4667 26.7467 55.16 26.96C56.3867 27.3333 56.8267 28.0933 56.48 29.24C56.4533 29.2667 56.44 29.2933 56.44 29.32H61.48C62.3867 29.32 63.04 29.5867 63.44 30.12C63.84 30.6267 63.8933 31.3067 63.6 32.16C62.72 34.6933 61.68 37.3867 60.48 40.24H62.92C64.3867 40.24 65.0533 41.12 64.92 42.88C64.44 47.92 63.56 52.04 62.28 55.24C63.5067 56.52 65.04 57.44 66.88 58C68.4533 58.4533 70.4267 58.6933 72.8 58.72C76.4 58.72 79.1867 58.7067 81.16 58.68C82.1733 58.6533 82.8133 58.8267 83.08 59.2C83.3733 59.5733 83.36 60.2533 83.04 61.24C82.8267 61.8533 82.52 62.28 82.12 62.52C81.72 62.7867 81.1733 62.92 80.48 62.92H77.52H72.56C69.7867 62.92 67.4667 62.6533 65.6 62.12C63.4933 61.5333 61.72 60.5467 60.28 59.16C59.6933 60.0933 59.08 60.8933 58.44 61.56C57.8533 62.12 57.2533 62.36 56.64 62.28C56.0267 62.2 55.4933 61.8133 55.04 61.12C54.9333 60.9333 54.7467 60.7067 54.48 60.44C54.4 60.3333 54.3333 60.2533 54.28 60.2V61.36C54.28 62.72 53.6 63.4 52.24 63.4ZM54.28 58.6C54.28 59.24 54.5067 59.3733 54.96 59C55.92 58.0667 56.7867 56.92 57.56 55.56C56.5733 53.72 55.76 51.5867 55.12 49.16C54.9867 48.5733 55.0267 48.0667 55.24 47.64C55.4533 47.1867 55.8267 46.88 56.36 46.72C57.64 46.3467 58.4267 46.84 58.72 48.2C58.9067 48.92 59.1733 49.7733 59.52 50.76C60.0267 49.0267 60.4533 47 60.8 44.68C60.88 44.0133 60.6 43.68 59.96 43.68H59.04L59 43.76C58.5733 44.7733 57.7867 45.16 56.64 44.92C55.2267 44.6 54.7867 43.7867 55.32 42.48C56.8133 38.9867 58.0667 35.88 59.08 33.16H57.36C56.9333 33.16 56.5867 33.0267 56.32 32.76C56.0533 32.4933 55.92 32.1467 55.92 31.72V30.76C55.28 32.4667 54.7333 33.84 54.28 34.88V47.24V58.6ZM72.88 57.72C71.4667 57.72 70.76 57.0267 70.76 55.64V54.08H66.04C64.8933 54.08 64.32 53.5067 64.32 52.36C64.32 51.2133 64.8933 50.64 66.04 50.64H70.76V48.68H67.04C65.8933 48.68 65.32 48.1067 65.32 46.96C65.32 45.8133 65.8933 45.24 67.04 45.24H70.76V43.36H67.52C66.3733 43.36 65.8 42.7867 65.8 41.64C65.8 40.4933 66.3733 39.92 67.52 39.92H70.76V38.04H64.92C63.7733 38.04 63.2 37.4533 63.2 36.28C63.2 35.1333 63.7733 34.56 64.92 34.56H70.76V32.8H67.52C66.3733 32.8 65.8 32.2267 65.8 31.08C65.8 29.9333 66.3733 29.36 67.52 29.36H70.76V28.48C70.76 27.0933 71.4667 26.4 72.88 26.4C74.2667 26.4 74.96 27.0933 74.96 28.48V29.36H79.08C79.8533 29.36 80.48 29.6 80.96 30.08C81.44 30.56 81.68 31.1867 81.68 31.96V34.56H81.88C83.0267 34.56 83.6 35.1333 83.6 36.28C83.6 37.4533 83.0267 38.04 81.88 38.04H81.68V40.84C81.68 41.5867 81.4533 42.2 81 42.68C80.5467 43.1333 79.9333 43.36 79.16 43.36H74.96V45.24H80.2C81.3467 45.24 81.92 45.8133 81.92 46.96C81.92 48.1067 81.3467 48.68 80.2 48.68H74.96V50.64H81.12C82.2667 50.64 82.84 51.2133 82.84 52.36C82.84 53.5067 82.2667 54.08 81.12 54.08H78.88H74.96V55.64C74.96 57.0267 74.2667 57.72 72.88 57.72ZM74.96 39.92H76.32H77.16C77.5333 39.92 77.72 39.7333 77.72 39.36V38.04H74.96V39.92ZM74.96 34.56H76.32H77.72V33.56C77.72 33.0533 77.4667 32.8 76.96 32.8H74.96V34.56ZM103.8 63.48C101.853 63.5067 100.653 62.7867 100.2 61.32C100.147 61.1867 100.067 61 99.96 60.76C99.8267 60.44 99.72 60.2 99.64 60.04C99.4 60.1467 99.0267 60.32 98.52 60.56C97.88 60.88 97.4 61.1067 97.08 61.24C95.9067 61.7467 95 61.4267 94.36 60.28C93.9333 59.5333 93.76 58.9733 93.84 58.6C93.9467 58.1467 94.3733 57.8 95.12 57.56C97.7333 56.6267 99.8533 55.84 101.48 55.2C102.067 54.96 102.573 54.9333 103 55.12C103.453 55.3067 103.76 55.7067 103.92 56.32C104.16 57.3333 103.827 58.0667 102.92 58.52C102.68 58.6267 102.307 58.8 101.8 59.04C101.32 59.2533 100.947 59.4267 100.68 59.56C102.467 59.64 103.733 59.6533 104.48 59.6C104.853 59.6 105.107 59.5467 105.24 59.44C105.373 59.3067 105.44 59.08 105.44 58.76V49.08H97.6C99.2 49.9067 100.573 50.7067 101.72 51.48C102.227 51.88 102.467 52.2667 102.44 52.64C102.44 53.0133 102.2 53.4533 101.72 53.96C100.84 54.8933 99.9733 55 99.12 54.28C98.48 53.7733 97.7467 53.2667 96.92 52.76C96.28 52.3867 95.92 51.9333 95.84 51.4C95.7867 50.84 96.0267 50.2933 96.56 49.76L97.24 49.08H97.16C96.84 49.08 96.68 48.8267 96.68 48.32C96.68 47.7333 96.8133 47.2 97.08 46.72C97.3733 46.1867 97.76 45.92 98.24 45.92H105.44V43.96H96.52C95.4267 43.96 94.88 43.4 94.88 42.28C94.88 41.1867 95.4267 40.64 96.52 40.64H105.44V38.8H98.68C97.64 38.8 97.12 38.2667 97.12 37.2C97.12 36.16 97.64 35.64 98.68 35.64H105.44V33.68H95.08C94.44 33.68 94.12 34 94.12 34.64V41.12C94.12 49.7333 93.12 56.4667 91.12 61.32C90.7467 62.1467 90.3067 62.6267 89.8 62.76C89.32 62.92 88.72 62.76 88 62.28C87.3333 61.8267 86.9467 61.32 86.84 60.76C86.7333 60.2533 86.8533 59.6133 87.2 58.84C88.8267 54.8667 89.64 48.96 89.64 41.12V32.12C89.64 31.3467 89.88 30.72 90.36 30.24C90.84 29.76 91.4667 29.52 92.24 29.52H103.76V28.6C103.76 26.9733 104.587 26.16 106.24 26.16C107.867 26.16 108.68 26.9733 108.68 28.6V29.52H115.8H120.88C122.267 29.52 122.96 30.2133 122.96 31.6C122.96 32.9867 122.267 33.68 120.88 33.68H109.96V35.64H117.28C118.053 35.64 118.68 35.88 119.16 36.36C119.64 36.84 119.88 37.4667 119.88 38.24V40.64H121.76C122.853 40.64 123.4 41.1867 123.4 42.28C123.4 43.4 122.853 43.96 121.76 43.96H119.88V46.64C119.88 47.3867 119.653 47.9867 119.2 48.44C118.773 48.8667 118.187 49.08 117.44 49.08H111.08C111.667 50.44 112.427 51.7333 113.36 52.96C114.373 52.3467 115.613 51.48 117.08 50.36C117.56 49.96 118.013 49.7733 118.44 49.8C118.893 49.8267 119.373 50.04 119.88 50.44C121.213 51.5333 121.12 52.5467 119.6 53.48C118.453 54.1733 117.213 54.88 115.88 55.6C117.133 56.6133 118.387 57.4133 119.64 58C120.68 58.4 121.333 58.8533 121.6 59.36C121.867 59.9467 121.693 60.6533 121.08 61.48C120.28 62.5467 119.187 62.76 117.8 62.12C114.573 60.4667 111.96 58.0667 109.96 54.92V58.8C109.96 59.9733 109.8 60.8533 109.48 61.44C109.16 62.0533 108.613 62.52 107.84 62.84C106.96 63.2133 105.613 63.4267 103.8 63.48ZM109.96 45.92H114.44C115.08 45.92 115.4 45.6 115.4 44.96V43.96H112.68H109.96V45.92ZM109.96 40.64H115.4V39.6C115.4 39.0667 115.133 38.8 114.6 38.8H112.68H109.96V40.64ZM132.44 62.68C131.667 62.68 131.04 62.44 130.56 61.96C130.08 61.48 129.84 60.8533 129.84 60.08V52.2C129.84 51.4267 130.08 50.8 130.56 50.32C131.04 49.84 131.667 49.6 132.44 49.6H139.56V48.32H129.36C128.347 48.32 127.84 47.8133 127.84 46.8C127.84 45.7867 128.347 45.28 129.36 45.28H143.68H159.52C157.12 44.8533 154.96 44.1467 153.04 43.16C152.053 43.6133 150.893 44.0267 149.56 44.4C148.813 44.5867 148.133 44.5467 147.52 44.28C146.907 43.9867 146.413 43.52 146.04 42.88C145.96 42.7467 145.813 42.56 145.6 42.32L145.52 42.2V43.28C145.52 43.84 145.24 44.12 144.68 44.12H131.44C130.667 44.12 130.04 43.88 129.56 43.4C129.08 42.92 128.84 42.2933 128.84 41.52V30.04C128.84 29.2667 129.08 28.64 129.56 28.16C130.04 27.68 130.667 27.44 131.44 27.44H143.88C144.76 27.44 145.2 27.88 145.2 28.76C145.2 29.6667 144.76 30.12 143.88 30.12H136.72L137.36 30.28C137.653 30.3333 137.747 30.48 137.64 30.72C137.64 30.7467 137.627 30.8 137.6 30.88C137.573 30.9333 137.547 30.9867 137.52 31.04C137.36 31.3333 137.44 31.48 137.76 31.48H142.84C143.56 31.48 143.92 31.84 143.92 32.56C143.92 33.28 143.56 33.64 142.84 33.64H140.4V34.84H143.52C144.267 34.84 144.64 35.2133 144.64 35.96C144.64 36.7333 144.267 37.12 143.52 37.12H141.04C141.76 37.5467 142.44 37.9867 143.08 38.44C143.48 38.7333 143.693 39.12 143.72 39.6C143.747 40.08 143.56 40.5467 143.16 41L142.8 41.4H144.92C145.32 41.4 145.52 41.6 145.52 42V42.12C146.96 41.88 148.44 41.5067 149.96 41C149.507 40.6 149 40.08 148.44 39.44C148.093 38.96 147.987 38.5467 148.12 38.2C148.253 37.8267 148.6 37.5733 149.16 37.44L149.68 37.32H148C147.573 37.32 147.227 37.1867 146.96 36.92C146.693 36.6533 146.56 36.3067 146.56 35.88V35.36C146.267 34.9333 145.84 34.4267 145.28 33.84C144.533 33.1733 144.867 32.48 146.28 31.76C147.16 31.0933 147.6 30.2133 147.6 29.12V27.96C147.6 27.3733 147.893 27.08 148.48 27.08H155.68C156.453 27.08 157.08 27.32 157.56 27.8C158.04 28.28 158.28 28.9067 158.28 29.68V30.12C158.28 30.2 158.28 30.2933 158.28 30.4C158.28 30.7467 158.307 30.9467 158.36 31C158.44 31.1067 158.56 31.16 158.72 31.16H159.28C159.52 31.16 159.667 31.1467 159.72 31.12C159.853 31.0667 159.96 30.9067 160.04 30.64C160.093 30.2133 160.267 29.9467 160.56 29.84C160.853 29.7067 161.2 29.7467 161.6 29.96C161.973 30.1733 162.253 30.48 162.44 30.88C162.653 31.2533 162.747 31.6533 162.72 32.08C162.613 32.56 162.52 32.8667 162.44 33C162.173 33.4267 161.76 33.7467 161.2 33.96C160.773 34.12 160.2 34.2 159.48 34.2H157.8C156.707 34.2 155.893 33.9333 155.36 33.4C155.013 33.0267 154.787 32.44 154.68 31.64C154.653 30.7067 154.32 30.24 153.68 30.24H151.12C150.987 31.6533 150.413 32.8667 149.4 33.88C148.813 34.36 148.84 34.6 149.48 34.6H157.64C158.547 34.6 159.16 34.88 159.48 35.44C159.8 35.9733 159.76 36.7333 159.36 37.72C158.72 38.8933 157.827 39.9467 156.68 40.88C157.56 41.1733 158.6 41.4267 159.8 41.64C160.787 41.7733 161.4 42.12 161.64 42.68C161.907 43.2133 161.76 43.8667 161.2 44.64C161.173 44.6933 161.12 44.8 161.04 44.96C160.96 45.0933 160.893 45.2 160.84 45.28H160.96C161.973 45.28 162.48 45.7867 162.48 46.8C162.48 47.8133 161.973 48.32 160.96 48.32H150.04V49.6H157.88C158.653 49.6 159.28 49.84 159.76 50.32C160.24 50.8 160.48 51.4267 160.48 52.2V60.08C160.48 60.8533 160.24 61.48 159.76 61.96C159.28 62.44 158.653 62.68 157.88 62.68H132.44ZM134.48 60.2H155.08C155.72 60.2 156.04 59.88 156.04 59.24V59.12H145.04H134.08V59.8C134.08 60.0667 134.213 60.2 134.48 60.2ZM134.08 56.8H136C135.787 56.4533 135.467 56.04 135.04 55.56C134.427 54.9467 134.64 54.5333 135.68 54.32C136.453 54.08 137.12 53.8133 137.68 53.52C138.48 53.12 139 52.64 139.24 52.08H135.04C134.4 52.08 134.08 52.4 134.08 53.04V56.8ZM137.64 56.8H146.84H156.04V55.68H155.48H150.8C149.04 55.68 147.867 55.4667 147.28 55.04C146.693 54.6133 146.4 53.7733 146.4 52.52V52.08H143C142.493 54.2133 140.707 55.7867 137.64 56.8ZM151.24 53.52H155C155.613 53.52 155.947 53.44 156 53.28H156.04V52.56C156.04 52.24 155.88 52.08 155.56 52.08H150.04V52.52C150.04 52.9733 150.107 53.2533 150.24 53.36C150.4 53.4667 150.733 53.52 151.24 53.52ZM143.12 49.6H144.76H146.4V48.32H143.12V49.6ZM133.32 41.4H134.64C134.373 41 134.067 40.6267 133.72 40.28C133.133 39.7467 133.36 39.3067 134.4 38.96C135.573 38.5067 136.427 37.8933 136.96 37.12H134.04C133.293 37.12 132.92 36.7333 132.92 35.96C132.92 35.2133 133.293 34.84 134.04 34.84H134.92C134.6 34.6 134.173 34.3467 133.64 34.08C133.347 33.92 133.173 33.7067 133.12 33.44C133.067 33.1467 133.173 32.8667 133.44 32.6C134.107 31.8 134.627 30.9733 135 30.12H133.32C132.68 30.12 132.36 30.44 132.36 31.08V35.76V40.44C132.36 41.08 132.68 41.4 133.32 41.4ZM135.28 41.4H138.96H141.68C142.32 41.4 142.44 41.2267 142.04 40.88C141.133 40.16 140.173 39.4667 139.16 38.8C138.36 39.8133 137.067 40.68 135.28 41.4ZM153.32 39.36C153.747 39.0667 154.16 38.7467 154.56 38.4C154.96 38.0267 155.32 37.6667 155.64 37.32H151C151.56 38.04 152.333 38.72 153.32 39.36ZM135 34.84H137.48V33.64H136C135.947 33.6933 135.853 33.8 135.72 33.96C135.613 34.0933 135.533 34.2 135.48 34.28C135.427 34.3333 135.347 34.4267 135.24 34.56C135.133 34.6667 135.053 34.76 135 34.84ZM186.76 63.52C185.4 63.52 184.52 63.0133 184.12 62C183.533 60.4533 184.253 59.7067 186.28 59.76C186.493 59.76 186.707 59.76 186.92 59.76C187.293 59.76 187.48 59.5733 187.48 59.2V54.24H183.36C182.587 54.24 181.96 54 181.48 53.52C181 53.04 180.76 52.4133 180.76 51.64V47.68C180.6 47.7867 180.347 47.9467 180 48.16C179.76 48.2933 179.587 48.4 179.48 48.48C178.733 48.88 178.16 48.76 177.76 48.12C177.387 47.6133 176.867 47.0533 176.2 46.44C175.747 52.8667 174.36 57.8667 172.04 61.44C171.507 62.1067 170.987 62.48 170.48 62.56C169.973 62.64 169.413 62.4 168.8 61.84C167.76 60.8267 167.72 59.6533 168.68 58.32C170.12 56.0533 171.067 53.2667 171.52 49.96C171.307 50.0933 170.973 50.2933 170.52 50.56C170.093 50.8267 169.773 51.0267 169.56 51.16C168.093 51.9867 167.12 51.6267 166.64 50.08C166.427 49.3867 166.387 48.8533 166.52 48.48C166.653 48.0533 167.027 47.6933 167.64 47.4C168.493 47 169.933 46.2933 171.96 45.28C171.987 44.56 172 43.52 172 42.16V40.8L170.16 41.64C169.68 41.8533 169.253 41.88 168.88 41.72C168.533 41.56 168.333 41.28 168.28 40.88C167.96 39.2533 167.533 37.6533 167 36.08C166.573 34.9067 166.92 34.0933 168.04 33.64C169.187 33.1867 169.987 33.52 170.44 34.64C171.16 36.4267 171.68 38.2 172 39.96V31.92C172 31.1467 172.24 30.52 172.72 30.04C173.2 29.56 173.827 29.32 174.6 29.32H184.4V28.64C184.4 26.9867 185.24 26.16 186.92 26.16C188.573 26.16 189.4 26.9867 189.4 28.64V29.32H201.24C202.573 29.32 203.24 29.9867 203.24 31.32C203.24 32.6533 202.573 33.32 201.24 33.32H195.8H188.36L189.84 33.52C190.667 33.6533 190.96 34.1067 190.72 34.88C190.64 35.2 190.52 35.52 190.36 35.84H201.12C202.293 35.84 202.88 36.4267 202.88 37.6C202.88 38.8 202.293 39.4 201.12 39.4H200.2L201.6 40.44C201.973 40.7067 202.173 41.0133 202.2 41.36C202.227 41.7067 202.067 42.0267 201.72 42.32C200.973 42.9067 200.427 43.3333 200.08 43.6C200.48 43.84 200.88 44.08 201.28 44.32C202.16 44.72 202.68 45.16 202.84 45.64C203.027 46.1467 202.827 46.76 202.24 47.48C201.52 48.3867 200.56 48.5333 199.36 47.92C199.253 47.8667 199.12 47.7867 198.96 47.68V51.64C198.96 52.4133 198.72 53.04 198.24 53.52C197.76 54 197.133 54.24 196.36 54.24H192.04V59.36C192.04 60.3733 191.92 61.1333 191.68 61.64C191.44 62.1733 190.973 62.6 190.28 62.92C189.427 63.2667 188.253 63.4667 186.76 63.52ZM200.96 62C199.733 62.64 198.773 62.44 198.08 61.4C197.947 61.2133 197.707 60.92 197.36 60.52C197.12 60.2267 196.947 60 196.84 59.84C196.707 59.6533 196.48 59.4 196.16 59.08C195.867 58.7333 195.64 58.48 195.48 58.32C194.36 57.2 194.52 56.28 195.96 55.56C196.893 55.08 197.72 55.1867 198.44 55.88C199.8 57.1867 200.907 58.36 201.76 59.4C202.187 59.9867 202.333 60.48 202.2 60.88C202.067 61.28 201.653 61.6533 200.96 62ZM180.24 61.72C179.28 62.52 178.32 62.56 177.36 61.84C176.587 61.2533 176.227 60.68 176.28 60.12C176.333 59.5867 176.76 59.0133 177.56 58.4C178.36 57.6267 179.013 56.9067 179.52 56.24C180.187 55.2267 181.12 54.8933 182.32 55.24C183.947 55.6933 184.32 56.6267 183.44 58.04C183.093 58.5467 182.64 59.1333 182.08 59.8C181.413 60.5467 180.8 61.1867 180.24 61.72ZM185.32 51.44H189.76H193.92C194.56 51.44 194.88 51.12 194.88 50.48V49.92H184.68V50.8C184.68 51.2267 184.893 51.44 185.32 51.44ZM184.68 47.24H189.76H194.88V45.8H184.68V47.24ZM176.24 45.6C177.6 44.9067 178.733 44.2 179.64 43.48L179.56 43.44C179.213 43.12 178.947 42.8933 178.76 42.76C177.827 42.04 177.8 41.28 178.68 40.48C179.347 39.8933 180.027 39.8267 180.72 40.28C181.28 40.6533 181.773 41 182.2 41.32C182.733 40.76 183.267 40.12 183.8 39.4H179.48C178.307 39.4 177.72 38.8 177.72 37.6C177.72 36.4267 178.307 35.84 179.48 35.84H185.88C186.28 34.9067 186.587 34.0667 186.8 33.32H181.56H177.28C176.64 33.32 176.32 33.64 176.32 34.28V42.16C176.32 42.8533 176.293 43.96 176.24 45.48C176.24 45.5333 176.24 45.5733 176.24 45.6ZM186.16 42.96H189.92H193.72C192.813 41.8667 192.013 40.68 191.32 39.4H188.64C187.92 40.6267 187.093 41.8133 186.16 42.96ZM197.64 41.68C198.227 41.1467 198.653 40.7467 198.92 40.48C199 40.4 199.133 40.2667 199.32 40.08C199.64 39.76 199.867 39.5333 200 39.4H195.56C196.093 40.12 196.787 40.88 197.64 41.68ZM217.2 63.56C215.813 63.56 215.12 62.8667 215.12 61.48V50.2C214.613 54.3333 213.453 57.88 211.64 60.84C211.08 61.5867 210.547 62.0267 210.04 62.16C209.507 62.2933 208.92 62.0667 208.28 61.48C207.213 60.52 207.2 59.28 208.24 57.76C210.24 54.2933 211.24 49.4667 211.24 43.28V38.32C211.24 37.44 211.493 36.8 212 36.4C212.533 35.9733 213.227 35.8533 214.08 36.04L214.28 36.08C218.413 35.9467 222.267 35.7467 225.84 35.48C225.547 35.32 225.067 35.0533 224.4 34.68C224.08 34.4933 223.84 34.36 223.68 34.28C223.253 34.0667 223.027 33.8 223 33.48C222.973 33.16 223.187 32.8 223.64 32.4L218.76 32.48C219.32 33.6533 218.947 34.4267 217.64 34.8C216.147 35.2533 215.12 34.8 214.56 33.44C214.453 33.2267 214.267 32.88 214 32.4H213.36C212.933 33.0133 212.373 33.72 211.68 34.52C210.72 35.5067 209.68 35.6267 208.56 34.88C207.787 34.3467 207.387 33.8133 207.36 33.28C207.36 32.7467 207.72 32.1467 208.44 31.48C209.56 30.28 210.493 29.0133 211.24 27.68C211.853 26.4267 212.907 26 214.4 26.4C215.84 26.8 216.24 27.6267 215.6 28.88H222.8C223.307 28.88 223.707 29.0267 224 29.32C224.293 29.6133 224.44 30.0133 224.44 30.52V30.64C224.44 31.2533 224.653 31.3333 225.08 30.88C225.96 29.84 226.707 28.76 227.32 27.64C227.907 26.4133 228.933 25.9733 230.4 26.32C231.093 26.48 231.56 26.7867 231.8 27.24C232.067 27.6667 232.04 28.2133 231.72 28.88H241.04C242.213 28.88 242.8 29.4667 242.8 30.64C242.8 31.8133 242.213 32.4 241.04 32.4H236.84C237.08 32.7467 237.32 33.1067 237.56 33.48C237.693 33.6667 237.707 33.8533 237.6 34.04C237.52 34.2267 237.347 34.36 237.08 34.44L236.68 34.56L238.16 36.08C238.56 36.48 238.72 36.8267 238.64 37.12C238.587 37.4133 238.333 37.6 237.88 37.68C231.613 38.6133 224.173 39.1467 215.56 39.28V40.36H237C237.773 40.36 238.4 40.6 238.88 41.08C239.36 41.56 239.6 42.1867 239.6 42.96V46.04C239.6 46.8133 239.36 47.44 238.88 47.92C238.4 48.4 237.773 48.64 237 48.64H215.32C215.32 48.8 215.293 49.04 215.24 49.36C215.213 49.6533 215.187 49.88 215.16 50.04H228.04H238.32C239.093 50.04 239.72 50.28 240.2 50.76C240.68 51.24 240.92 51.8667 240.92 52.64V59.72C240.92 60.68 240.827 61.3867 240.64 61.84C240.427 62.32 240.027 62.6933 239.44 62.96C238.88 63.2533 237.96 63.4267 236.68 63.48C235.4 63.5333 234.613 63.08 234.32 62.12C233.867 60.7867 234.44 60.1467 236.04 60.2C236.36 60.1733 236.52 60.0133 236.52 59.72V58.28H233.28V61.32C233.28 62.6 232.64 63.24 231.36 63.24C230.08 63.24 229.44 62.6 229.44 61.32V58.28H226.28V61.32C226.28 62.6 225.64 63.24 224.36 63.24C223.08 63.24 222.44 62.6 222.44 61.32V58.28H219.28V61.48C219.28 62.8667 218.587 63.56 217.2 63.56ZM219.28 55.16H220.84H222.44V53.4H219.28V55.16ZM226.28 55.16H229.44V53.4H227.84H226.28V55.16ZM233.28 55.16H234.88H236.52V54.16C236.52 53.6533 236.267 53.4 235.76 53.4H233.28V55.16ZM215.52 45.48H225.32H234.2C234.84 45.48 235.16 45.16 235.16 44.52V44.4C235.16 43.84 234.88 43.56 234.32 43.56H215.56C215.56 44.3867 215.547 45.0267 215.52 45.48ZM226.8 35.44C227.147 35.4133 227.667 35.36 228.36 35.28C229.16 35.2267 229.76 35.1733 230.16 35.12C231.013 35.0667 232.04 34.96 233.24 34.8C232.92 34.24 232.4 33.44 231.68 32.4H229.48C228.733 33.3867 227.84 34.4 226.8 35.44Z" fill="white"/>
<g clip-path="url(#clip0_283_680)">
<path opacity="0.3" d="M183.042 236.318C183.042 242.793 178.171 248.044 172.171 248.044H84.8704C78.8655 248.044 74 242.793 74 236.318V119.44C74 112.965 78.8655 107.713 84.8704 107.713H172.176C178.176 107.713 183.047 112.965 183.047 119.44V236.313L183.042 236.318Z" fill="white"/>
<path opacity="0.5" d="M174.329 114.922H82.7124V240.83H174.329V114.922Z" fill="white"/>
<path opacity="0.3" d="M152.034 100.013H105.008V120.006H152.034V100.013Z" fill="white"/>
<path opacity="0.3" d="M138.728 100.013C138.728 106.099 134.16 111.027 128.523 111.027C122.887 111.027 118.319 106.099 118.319 100.013C118.319 93.9274 122.887 89 128.523 89C134.16 89 138.728 93.9325 138.728 100.013Z" fill="white"/>
<path d="M141.471 137.43V148.084H133.454V156.73H123.587V148.084H115.571V137.43H123.587V128.779H133.454V137.43H141.471Z" fill="url(#paint1_linear_283_680)" stroke="white" stroke-width="3" stroke-miterlimit="10"/>
<path d="M168.365 171.37H108.845V177.876H168.365V171.37Z" fill="url(#paint2_linear_283_680)"/>
<path d="M148.197 209.636H88.677V216.137H148.197V209.636Z" fill="url(#paint3_linear_283_680)"/>
<path d="M168.365 190.508H88.6821V197.014H168.365V190.508Z" fill="url(#paint4_linear_283_680)"/>
<path d="M144.748 237.284L107.746 277.209L107.09 268.381L140.331 232.513L144.748 237.284Z" fill="url(#paint5_linear_283_680)" stroke="white" stroke-width="3" stroke-miterlimit="10"/>
<path d="M246.328 134.839L212.759 171.229L201.677 159.325L235.246 122.936L246.328 134.839Z" fill="url(#paint6_linear_283_680)"/>
<path opacity="0.3" d="M220.67 184.433L162.909 246.754L139.701 237.962L131.543 212.92L189.309 150.593L220.67 184.433Z" fill="white"/>
<path d="M161.049 237.936L178.02 219.623L156.698 196.615L139.727 214.928L145.273 231.957L161.054 237.942L161.049 237.936Z" fill="url(#paint7_linear_283_680)"/>
<path opacity="0.3" d="M156.032 197.333L177.355 220.341L181.781 215.565L160.459 192.557L156.032 197.333Z" fill="white"/>
<path opacity="0.3" d="M228.565 197.328L232.548 193.023L181.348 137.779L177.365 142.084L228.565 197.328Z" fill="white"/>
<path opacity="0.3" d="M254.017 147.563L258 143.258L227.471 110.309L223.478 114.614L254.017 147.563Z" fill="white"/>
<path opacity="0.3" d="M145.656 240.279L136.283 250.392L128.18 241.65L137.553 231.542L145.656 240.279Z" fill="white"/>
<path d="M207.798 176.06L176.649 210.026L165.536 198.147L196.69 164.187L207.798 176.06Z" fill="url(#paint8_linear_283_680)"/>
</g>
<defs>
<linearGradient id="paint0_linear_283_680" x1="145" y1="0" x2="145" y2="290" gradientUnits="userSpaceOnUse">
<stop stop-color="#FF922E"/>
<stop offset="1" stop-color="#FDB471"/>
</linearGradient>
<linearGradient id="paint1_linear_283_680" x1="115.571" y1="142.757" x2="141.471" y2="142.757" gradientUnits="userSpaceOnUse">
<stop stop-color="#FE7A00"/>
<stop offset="1" stop-color="#FFC188"/>
</linearGradient>
<linearGradient id="paint2_linear_283_680" x1="108.845" y1="174.623" x2="168.365" y2="174.623" gradientUnits="userSpaceOnUse">
<stop stop-color="#FE7A00"/>
<stop offset="1" stop-color="#FFC188"/>
</linearGradient>
<linearGradient id="paint3_linear_283_680" x1="88.677" y1="212.889" x2="148.197" y2="212.889" gradientUnits="userSpaceOnUse">
<stop stop-color="#FE7A00"/>
<stop offset="1" stop-color="#FFC188"/>
</linearGradient>
<linearGradient id="paint4_linear_283_680" x1="88.6821" y1="193.761" x2="168.365" y2="193.761" gradientUnits="userSpaceOnUse">
<stop stop-color="#FE7A00"/>
<stop offset="1" stop-color="#FFC188"/>
</linearGradient>
<linearGradient id="paint5_linear_283_680" x1="107.09" y1="254.864" x2="144.748" y2="254.864" gradientUnits="userSpaceOnUse">
<stop stop-color="#FE7A00"/>
<stop offset="1" stop-color="#FFC188"/>
</linearGradient>
<linearGradient id="paint6_linear_283_680" x1="187.816" y1="146.326" x2="233.262" y2="147.741" gradientUnits="userSpaceOnUse">
<stop stop-color="#FE7A00"/>
<stop offset="1" stop-color="#FFC188"/>
</linearGradient>
<linearGradient id="paint7_linear_283_680" x1="139.722" y1="217.276" x2="178.02" y2="217.276" gradientUnits="userSpaceOnUse">
<stop stop-color="#FE7A00"/>
<stop offset="1" stop-color="#FFC188"/>
</linearGradient>
<linearGradient id="paint8_linear_283_680" x1="106.538" y1="186.005" x2="150.512" y2="188.946" gradientUnits="userSpaceOnUse">
<stop stop-color="#FE7A00"/>
<stop offset="1" stop-color="#FFC188"/>
</linearGradient>
<clipPath id="clip0_283_680">
<rect width="184" height="190" fill="white" transform="translate(74 89)"/>
</clipPath>
</defs>
</svg>
