<svg width="290" height="290" viewBox="0 0 290 290" fill="none" xmlns="http://www.w3.org/2000/svg">
<rect width="290" height="290" rx="29.0909" fill="url(#paint0_linear_283_786)"/>
<path d="M34.363 60C32.5763 60 31.683 59.12 31.683 57.36V33C31.683 32.2267 31.923 31.6 32.403 31.12C32.883 30.64 33.5096 30.4 34.283 30.4H36.203C36.8163 30.4 37.3763 30.5733 37.883 30.92C38.3896 31.2667 38.7363 31.7333 38.923 32.32L43.283 44.24C43.5763 45.0933 43.9896 46.4 44.523 48.16C44.763 48.96 44.9496 49.56 45.083 49.96H45.283C45.4696 49.3733 45.7496 48.4933 46.123 47.32C46.523 45.9333 46.843 44.9067 47.083 44.24L51.323 32.32C51.5096 31.7333 51.8563 31.2667 52.363 30.92C52.8696 30.5733 53.4296 30.4 54.043 30.4H55.283H57.043C57.4963 30.4 57.8563 30.5467 58.123 30.84C58.4163 31.1067 58.563 31.4667 58.563 31.92V57.32C58.563 59.1067 57.6696 60 55.883 60C54.0696 60 53.163 59.1067 53.163 57.32V47.64C53.163 45.9333 53.3763 42.9333 53.803 38.64C53.8296 38.32 53.8563 38.08 53.883 37.92H53.723L51.323 44.88L47.363 55.72C47.1763 56.2 46.8696 56.5867 46.443 56.88C46.0163 57.1733 45.5496 57.32 45.043 57.32H44.923C43.883 57.32 43.1763 56.8267 42.803 55.84L38.763 44.88L36.403 37.92H36.243C36.2696 38.2133 36.323 38.68 36.403 39.32C36.803 43.2933 37.003 46.0667 37.003 47.64V57.36C37.003 59.12 36.123 60 34.363 60ZM68.7836 60C66.8103 60 65.8236 59.0133 65.8236 57.04V33C65.8236 32.2267 66.0636 31.6 66.5436 31.12C67.0236 30.64 67.6503 30.4 68.4236 30.4H70.9836H76.1436C83.5569 30.4 87.2636 33.3867 87.2636 39.36C87.2636 43.5733 85.3836 46.4133 81.6236 47.88L86.8636 57.04C87.3703 57.92 87.4636 58.64 87.1436 59.2C86.8236 59.7333 86.1569 60 85.1436 60H83.7836C83.2236 60 82.6903 59.8533 82.1836 59.56C81.7036 59.2667 81.3303 58.88 81.0636 58.4L75.8636 48.8H71.7436V57.04C71.7436 59.0133 70.7569 60 68.7836 60ZM71.7436 44.12H75.5836C79.5036 44.12 81.4636 42.5333 81.4636 39.36C81.4636 37.8133 80.9569 36.6933 79.9436 36C79.0103 35.3867 77.5569 35.08 75.5836 35.08H71.7436V39.6V44.12ZM92.2892 67.28C90.7959 67.28 90.2226 66.5467 90.5692 65.08L99.5292 29.4C99.7959 28.3333 100.476 27.8 101.569 27.8C103.063 27.8 103.636 28.5333 103.289 30L98.8892 47.56L94.3292 65.68C94.0626 66.7467 93.3826 67.28 92.2892 67.28ZM112.077 62.12C110.29 63 108.984 62.88 108.157 61.76C107.57 60.9867 107.504 60.2133 107.957 59.44C108.357 58.7733 109.09 58.1867 110.157 57.68C112.397 56.2133 113.984 54.28 114.917 51.88C115.584 50.1467 116.037 47.64 116.277 44.36H109.637C108.09 44.36 107.317 43.5867 107.317 42.04C107.317 40.4933 108.09 39.72 109.637 39.72H124.997H140.357C141.904 39.72 142.677 40.4933 142.677 42.04C142.677 43.5867 141.904 44.36 140.357 44.36H132.197V56.6C132.197 57.3467 132.29 57.8267 132.477 58.04C132.664 58.2533 133.09 58.36 133.757 58.36H137.317C137.984 58.36 138.424 57.92 138.637 57.04C138.744 55.6533 139.024 54.5467 139.477 53.72C140.037 52.68 140.784 52.3733 141.717 52.8C142.277 53.0667 142.677 53.6933 142.917 54.68C143.077 55.4533 143.117 56.2933 143.037 57.2C142.69 59.3067 142.117 60.76 141.317 61.56C140.544 62.3867 139.344 62.8 137.717 62.8H132.957C130.744 62.8 129.25 62.3467 128.477 61.44C127.704 60.5867 127.317 58.9733 127.317 56.6V44.36H121.397C121.024 48.68 120.29 52.0667 119.197 54.52C117.73 57.72 115.357 60.2533 112.077 62.12ZM113.197 33.52C111.677 33.52 110.917 32.7467 110.917 31.2C110.917 29.68 111.677 28.92 113.197 28.92H124.957H136.717C138.237 28.92 138.997 29.68 138.997 31.2C138.997 32.7467 138.237 33.52 136.717 33.52H113.197ZM159.477 63.44C157.717 63.4933 156.57 62.88 156.037 61.6C155.237 59.6267 156.224 58.6933 158.997 58.8C159.744 58.8 160.49 58.8 161.237 58.8C161.664 58.7733 161.957 58.7067 162.117 58.6C162.277 58.4667 162.357 58.24 162.357 57.92V51.12H150.037C148.544 51.12 147.797 50.36 147.797 48.84C147.797 47.3467 148.544 46.6 150.037 46.6H162.357V42.08H156.437C154.97 42.08 154.237 41.3467 154.237 39.88C154.237 38.4133 154.97 37.68 156.437 37.68H164.837H173.277C174.744 37.68 175.477 38.4133 175.477 39.88C175.477 41.3467 174.744 42.08 173.277 42.08H167.317V46.6H179.917C181.41 46.6 182.157 47.3467 182.157 48.84C182.157 50.36 181.41 51.12 179.917 51.12H167.317V58C167.317 59.36 167.144 60.3733 166.797 61.04C166.424 61.76 165.77 62.2933 164.837 62.64C163.637 63.12 161.85 63.3867 159.477 63.44ZM150.157 40.2C148.61 40.2 147.837 39.4267 147.837 37.88V32.68C147.837 31.9067 148.077 31.28 148.557 30.8C149.037 30.32 149.664 30.08 150.437 30.08H162.357V28.64C162.357 26.9867 163.184 26.16 164.837 26.16C166.49 26.16 167.317 26.9867 167.317 28.64V30.08H179.477C180.25 30.08 180.877 30.32 181.357 30.8C181.837 31.28 182.077 31.9067 182.077 32.68V37.76C182.077 39.3867 181.264 40.2 179.637 40.2C178.01 40.2 177.197 39.3867 177.197 37.76V35.36C177.197 34.72 176.877 34.4 176.237 34.4H164.837H153.437C152.797 34.4 152.477 34.72 152.477 35.36V37.88C152.477 39.4267 151.704 40.2 150.157 40.2ZM194.197 61.88C193.424 61.88 192.797 61.64 192.317 61.16C191.837 60.68 191.597 60.0533 191.597 59.28V43.96C191.597 43.1867 191.837 42.56 192.317 42.08C192.797 41.6 193.424 41.36 194.197 41.36H202.557V38.56C202.557 37.04 203.33 36.28 204.877 36.28C206.397 36.28 207.157 37.04 207.157 38.56V41.36H215.877C216.65 41.36 217.277 41.6 217.757 42.08C218.237 42.56 218.477 43.1867 218.477 43.96V59.28C218.477 60.0533 218.237 60.68 217.757 61.16C217.277 61.64 216.65 61.88 215.877 61.88H204.917H194.197ZM197.157 57.56H202.557V53.48H199.357H196.197V56.6C196.197 57.24 196.517 57.56 197.157 57.56ZM207.157 57.56H212.677C213.317 57.56 213.637 57.24 213.637 56.6V53.48H210.397H207.157V57.56ZM196.197 49.48H199.357H202.557V45.72H197.157C196.517 45.72 196.197 46.04 196.197 46.68V49.48ZM207.157 49.48H210.397H213.637V46.68C213.637 46.04 213.317 45.72 212.677 45.72H207.157V49.48ZM190.637 40.16C189.09 40.16 188.317 39.3867 188.317 37.84V32.88C188.317 32.1067 188.557 31.48 189.037 31C189.517 30.52 190.144 30.28 190.917 30.28H202.357V28.64C202.357 26.9867 203.184 26.16 204.837 26.16C206.49 26.16 207.317 26.9867 207.317 28.64V30.28H219.077C219.85 30.28 220.477 30.52 220.957 31C221.437 31.48 221.677 32.1067 221.677 32.88V37.72C221.677 39.3467 220.864 40.16 219.237 40.16C217.584 40.16 216.757 39.3467 216.757 37.72V35.64C216.757 35 216.437 34.68 215.797 34.68H204.837H193.917C193.277 34.68 192.957 35 192.957 35.64V37.84C192.957 39.3867 192.184 40.16 190.637 40.16ZM237.157 63.56C235.77 63.56 235.077 62.8667 235.077 61.48V50.2C234.57 54.3333 233.41 57.88 231.597 60.84C231.037 61.5867 230.504 62.0267 229.997 62.16C229.464 62.2933 228.877 62.0667 228.237 61.48C227.17 60.52 227.157 59.28 228.197 57.76C230.197 54.2933 231.197 49.4667 231.197 43.28V38.32C231.197 37.44 231.45 36.8 231.957 36.4C232.49 35.9733 233.184 35.8533 234.037 36.04L234.237 36.08C238.37 35.9467 242.224 35.7467 245.797 35.48C245.504 35.32 245.024 35.0533 244.357 34.68C244.037 34.4933 243.797 34.36 243.637 34.28C243.21 34.0667 242.984 33.8 242.957 33.48C242.93 33.16 243.144 32.8 243.597 32.4L238.717 32.48C239.277 33.6533 238.904 34.4267 237.597 34.8C236.104 35.2533 235.077 34.8 234.517 33.44C234.41 33.2267 234.224 32.88 233.957 32.4H233.317C232.89 33.0133 232.33 33.72 231.637 34.52C230.677 35.5067 229.637 35.6267 228.517 34.88C227.744 34.3467 227.344 33.8133 227.317 33.28C227.317 32.7467 227.677 32.1467 228.397 31.48C229.517 30.28 230.45 29.0133 231.197 27.68C231.81 26.4267 232.864 26 234.357 26.4C235.797 26.8 236.197 27.6267 235.557 28.88H242.757C243.264 28.88 243.664 29.0267 243.957 29.32C244.25 29.6133 244.397 30.0133 244.397 30.52V30.64C244.397 31.2533 244.61 31.3333 245.037 30.88C245.917 29.84 246.664 28.76 247.277 27.64C247.864 26.4133 248.89 25.9733 250.357 26.32C251.05 26.48 251.517 26.7867 251.757 27.24C252.024 27.6667 251.997 28.2133 251.677 28.88H260.997C262.17 28.88 262.757 29.4667 262.757 30.64C262.757 31.8133 262.17 32.4 260.997 32.4H256.797C257.037 32.7467 257.277 33.1067 257.517 33.48C257.65 33.6667 257.664 33.8533 257.557 34.04C257.477 34.2267 257.304 34.36 257.037 34.44L256.637 34.56L258.117 36.08C258.517 36.48 258.677 36.8267 258.597 37.12C258.544 37.4133 258.29 37.6 257.837 37.68C251.57 38.6133 244.13 39.1467 235.517 39.28V40.36H256.957C257.73 40.36 258.357 40.6 258.837 41.08C259.317 41.56 259.557 42.1867 259.557 42.96V46.04C259.557 46.8133 259.317 47.44 258.837 47.92C258.357 48.4 257.73 48.64 256.957 48.64H235.277C235.277 48.8 235.25 49.04 235.197 49.36C235.17 49.6533 235.144 49.88 235.117 50.04H247.997H258.277C259.05 50.04 259.677 50.28 260.157 50.76C260.637 51.24 260.877 51.8667 260.877 52.64V59.72C260.877 60.68 260.784 61.3867 260.597 61.84C260.384 62.32 259.984 62.6933 259.397 62.96C258.837 63.2533 257.917 63.4267 256.637 63.48C255.357 63.5333 254.57 63.08 254.277 62.12C253.824 60.7867 254.397 60.1467 255.997 60.2C256.317 60.1733 256.477 60.0133 256.477 59.72V58.28H253.237V61.32C253.237 62.6 252.597 63.24 251.317 63.24C250.037 63.24 249.397 62.6 249.397 61.32V58.28H246.237V61.32C246.237 62.6 245.597 63.24 244.317 63.24C243.037 63.24 242.397 62.6 242.397 61.32V58.28H239.237V61.48C239.237 62.8667 238.544 63.56 237.157 63.56ZM239.237 55.16H240.797H242.397V53.4H239.237V55.16ZM246.237 55.16H249.397V53.4H247.797H246.237V55.16ZM253.237 55.16H254.837H256.477V54.16C256.477 53.6533 256.224 53.4 255.717 53.4H253.237V55.16ZM235.477 45.48H245.277H254.157C254.797 45.48 255.117 45.16 255.117 44.52V44.4C255.117 43.84 254.837 43.56 254.277 43.56H235.517C235.517 44.3867 235.504 45.0267 235.477 45.48ZM246.757 35.44C247.104 35.4133 247.624 35.36 248.317 35.28C249.117 35.2267 249.717 35.1733 250.117 35.12C250.97 35.0667 251.997 34.96 253.197 34.8C252.877 34.24 252.357 33.44 251.637 32.4H249.437C248.69 33.3867 247.797 34.4 246.757 35.44Z" fill="white"/>
<g clip-path="url(#clip0_283_786)">
<path opacity="0.59" d="M220.009 107.08C224.476 107.08 228.096 110.657 228.096 115.073C228.096 119.489 224.472 123.066 220.009 123.066C215.546 123.066 211.918 119.489 211.918 115.073C211.918 110.657 215.538 107.08 220.009 107.08Z" fill="white"/>
<path opacity="0.59" d="M79.8604 110.698C86.201 110.698 91.3424 115.777 91.3424 122.043C91.3424 128.31 86.201 133.385 79.8604 133.385C73.5198 133.385 68.3784 128.306 68.3784 122.043C68.3784 115.781 73.5198 110.698 79.8604 110.698Z" fill="white"/>
<path opacity="0.59" d="M227.312 144.21C228.609 144.21 229.662 145.247 229.662 146.528C229.662 147.809 228.609 148.851 227.312 148.851C226.016 148.851 224.963 147.809 224.963 146.528C224.963 145.247 226.012 144.21 227.312 144.21Z" fill="white"/>
<path opacity="0.59" d="M215.133 207.12C216.43 207.12 217.483 208.157 217.483 209.438C217.483 210.719 216.43 211.76 215.133 211.76C213.837 211.76 212.784 210.719 212.784 209.438C212.784 208.157 213.837 207.12 215.133 207.12Z" fill="white"/>
<path opacity="0.59" d="M194.695 103.986C195.992 103.986 197.041 105.028 197.041 106.309C197.041 107.59 195.992 108.631 194.695 108.631C193.398 108.631 192.345 107.59 192.345 106.309C192.345 105.028 193.395 103.986 194.695 103.986Z" fill="white"/>
<path opacity="0.59" d="M75.5959 148.584C76.8925 148.584 77.9418 149.622 77.9418 150.903C77.9418 152.184 76.8925 153.221 75.5959 153.221C74.2994 153.221 73.2463 152.184 73.2463 150.903C73.2463 149.622 74.2956 148.584 75.5959 148.584Z" fill="white"/>
<path opacity="0.59" d="M100.996 101.664C102.292 101.664 103.345 102.705 103.345 103.986C103.345 105.267 102.292 106.309 100.996 106.309C99.699 106.309 98.646 105.267 98.646 103.986C98.646 102.705 99.6953 101.664 100.996 101.664Z" fill="white"/>
<path opacity="0.59" d="M82.2101 211.757C83.5067 211.757 84.5597 212.798 84.5597 214.079C84.5597 215.36 83.5067 216.401 82.2101 216.401C80.9135 216.401 79.8643 215.36 79.8643 214.079C79.8643 212.798 80.9173 211.757 82.2101 211.757Z" fill="white"/>
<g opacity="0.59">
<path d="M80.7599 119.261L80.7297 119.253L80.7975 119.186V119.295C80.7975 119.295 80.7448 119.272 80.7599 119.257V119.261Z" fill="white"/>
<path d="M80.8955 119.096C80.8578 119.126 80.8276 119.156 80.7974 119.187V119.096H80.8955Z" fill="white"/>
<path d="M68.8094 143.989C68.5396 144.558 68.2698 143.989 68 143.989H68.8094Z" fill="white"/>
<path d="M202.433 264.883C201.961 264.883 201.497 264.67 201.193 264.262C200.683 263.576 200.83 262.614 201.512 262.104C226.81 243.335 241.916 213.352 241.916 181.905C241.916 126.86 197.116 82.0826 142.048 82.0826C122.843 82.0826 104.188 87.5436 88.1084 97.8812C87.3926 98.3419 86.437 98.1359 85.9761 97.4168C85.5152 96.7014 85.7213 95.7463 86.4408 95.2856C103.019 84.6333 122.247 79 142.048 79C198.817 79 245 125.16 245 181.901C245 198.468 241.181 214.285 233.653 228.915C226.469 242.871 215.991 255.201 203.352 264.58C203.074 264.786 202.752 264.883 202.433 264.883Z" fill="white"/>
<path d="M68.8094 143.989C68.5396 144.558 68.2698 143.989 68 143.989H68.8094Z" fill="white"/>
<path d="M68.8094 143.989C68.5396 144.558 68.2698 143.989 68 143.989H68.8094Z" fill="white"/>
</g>
<path opacity="0.59" d="M182.336 174.946L181.107 174.998C179.979 175.043 179.08 175.961 179.054 177.088L178.731 190.456C178.664 193.366 176.73 195.849 174.025 196.692C173.684 196.797 173.328 196.879 172.964 196.932L162.487 197.685C159.638 198.134 157.255 200.082 156.243 202.782L157.401 214.933L149.614 216.832C146.455 217.603 143.247 217.873 140.096 217.671C132.065 217.162 124.394 213.596 118.796 207.491L120.265 201.689L120.182 199.513C120.175 199.355 120.167 199.194 120.156 199.037C119.98 196.805 119.26 194.643 118.136 192.703C117.709 191.965 117.319 191.261 117.267 191.066C117.263 191.051 117.263 191.044 117.259 191.036C116.87 189.591 116.386 188.171 115.813 186.785L113.276 180.661C111.713 176.878 110.671 172.889 110.304 168.814C110.181 167.432 110.124 166.05 110.128 164.66C110.147 160.106 110.863 155.551 112.268 151.158C113.527 147.221 115.457 143.618 117.908 140.472C119.47 138.464 121.25 136.644 123.199 135.033C123.611 134.692 124.031 134.359 124.462 134.037C129.24 130.464 134.947 128.108 141.115 127.37L143.997 127.025L145.286 126.872C148.685 126.467 152.031 126.669 155.209 127.403C162.374 129.052 168.681 133.396 172.773 139.524C174.403 141.966 175.685 144.693 176.524 147.648L178.923 155.15L184.244 171.784L184.341 172.088C184.783 173.47 183.79 174.893 182.34 174.953L182.336 174.946Z" fill="white"/>
<path opacity="0.59" d="M172.766 139.52C170.202 141.277 166.983 142.307 164.649 143.019C158.657 144.847 160.485 150.836 160.485 150.836L160.309 173.159C160.302 174.058 159.627 174.807 158.735 174.916L151.717 175.725C150.967 175.807 150.244 175.414 149.914 174.736C141.224 157.042 133.175 161.499 130.207 166.503C127.179 171.612 130.87 177.287 124.338 181.635C120.1 184.459 120.673 196.284 120.254 201.681L120.171 199.509C120.164 199.352 120.156 199.191 120.145 199.033C119.969 196.801 119.249 194.64 118.125 192.7C117.698 191.962 117.308 191.258 117.256 191.063C117.252 191.048 117.252 191.04 117.248 191.033C116.858 189.587 116.375 188.168 115.802 186.782L113.265 180.658C111.702 176.875 110.66 172.886 110.293 168.811C110.169 167.428 110.113 166.046 110.117 164.657C110.136 160.102 110.851 155.548 112.257 151.154C113.516 147.218 115.446 143.614 117.896 140.468C119.736 139.037 121.464 136.535 124.451 134.033C125.59 133.078 126.916 132.123 128.502 131.232C133.321 128.512 138.975 127.355 143.986 127.025C147.336 126.804 150.397 126.958 152.725 127.261C153.527 127.366 154.358 127.407 155.202 127.404C162.367 129.052 168.673 133.397 172.766 139.524V139.52Z" fill="white"/>
<path opacity="0.59" d="M184.24 171.781C175.808 172.41 162.408 169.709 161.34 171.754C160.583 173.361 161.655 173.754 153.2 174.638C144.75 175.519 146.672 182.141 138.848 183.467C131.027 184.793 130.27 179.747 126.107 180.504C123.476 180.98 119.74 186.789 117.252 191.036C116.862 189.591 116.379 188.171 115.805 186.785L113.268 180.661C111.706 176.878 110.664 172.889 110.297 168.814C110.173 167.432 110.117 166.05 110.121 164.66L132.163 159.199L178.915 155.15L184.236 171.784L184.24 171.781Z" fill="white"/>
<path opacity="0.59" d="M164.083 140.277C158.091 142.105 159.919 148.094 159.919 148.094L159.743 170.417C159.736 171.316 159.061 172.065 158.169 172.174L151.372 172.957L151.151 172.983C150.401 173.065 149.678 172.672 149.348 171.994C147.763 168.766 146.2 166.279 144.686 164.394C137.892 155.945 132.069 159.668 129.641 163.762C126.613 168.87 130.304 174.545 123.772 178.893C119.511 181.736 117.908 185.744 117.312 188.186C116.993 189.482 116.959 190.34 116.959 190.34C116.959 190.34 110.81 180.691 108.726 167.357C106.643 154.023 114.689 140.329 114.689 140.329C114.089 139.798 113.909 138.932 113.909 138.932C118.545 139.12 119.894 133.022 127.935 128.482C135.977 123.943 146.358 123.752 152.159 124.508C157.96 125.265 165.469 123.31 165.469 123.31C164.956 126.748 163.551 126.905 163.296 126.905C167.77 127.063 173.354 121.549 173.354 121.549C174.328 123.01 175.036 124.355 175.523 125.598C179.357 135.37 169.397 138.655 164.083 140.277Z" fill="white"/>
<path opacity="0.59" d="M164.083 140.277C158.091 142.105 159.919 148.094 159.919 148.094L159.743 170.417C159.736 171.316 159.061 172.065 158.169 172.174L151.372 172.957C149.052 168.713 146.796 166.001 144.686 164.394C137.892 155.944 132.069 159.667 129.641 163.761C126.613 168.87 130.304 174.545 123.772 178.893C119.511 181.736 117.907 185.744 117.312 188.186C115.408 184.073 113.028 177.852 111.882 170.507C109.798 157.173 117.844 143.483 117.844 143.483C117.244 142.947 117.064 142.086 117.064 142.086C121.7 142.273 123.049 136.172 131.091 131.632C139.133 127.092 149.513 126.901 155.314 127.658C161.119 128.415 167.009 127.25 167.009 127.25C166.496 130.688 165.342 130.595 165.095 130.595C168.422 130.711 173.728 127.152 175.527 125.594C179.361 135.366 169.4 138.651 164.086 140.273L164.083 140.277Z" fill="white"/>
<path opacity="0.59" d="M189.16 168.204C189.104 168.563 188.988 168.897 188.812 169.2C188.647 169.492 188.433 169.751 188.179 169.968C187.669 170.406 187.006 170.668 186.286 170.668L159.788 168.294C156.749 168.02 154.186 165.919 153.332 162.99C152.762 161.053 152.481 159.053 152.481 157.049C152.481 155.046 152.766 153.045 153.332 151.109L153.343 151.064C153.774 149.581 154.647 148.311 155.801 147.378C156.903 146.487 158.259 145.906 159.732 145.764L183.333 143.431C184.514 143.431 185.574 144.142 186.02 145.232L186.586 146.611C189.385 153.442 190.277 160.907 189.164 168.207L189.16 168.204Z" fill="white"/>
<path d="M189.16 168.203C189.134 168.376 189.093 168.548 189.037 168.705C188.977 168.874 188.906 169.042 188.812 169.196C188.388 169.44 187.898 169.574 187.377 169.574L160.875 167.203C157.836 166.93 155.273 164.825 154.418 161.896C153.849 159.96 153.572 157.959 153.572 155.956C153.572 153.952 153.853 151.959 154.418 150.019L154.433 149.97C154.718 149 155.187 148.124 155.801 147.375C156.903 146.483 158.26 145.903 159.732 145.76L183.333 143.427C184.502 143.427 185.552 144.123 186.005 145.195C186.009 145.206 186.016 145.217 186.02 145.228L186.586 146.607C189.385 153.439 190.277 160.903 189.164 168.203H189.16Z" fill="url(#paint1_linear_283_786)" stroke="white" stroke-width="8.81" stroke-miterlimit="10"/>
<path d="M189.16 168.204C189.134 168.376 189.093 168.548 189.037 168.706C188.658 168.923 188.224 169.046 187.763 169.046L164.409 166.953C161.73 166.713 159.474 164.855 158.717 162.278C158.222 160.57 157.971 158.81 157.971 157.046C157.971 155.282 158.222 153.521 158.717 151.813L158.732 151.772C159.477 149.21 161.707 147.364 164.36 147.101L185.154 145.049C185.45 145.049 185.739 145.098 186.005 145.195C186.009 145.206 186.016 145.217 186.02 145.229L186.586 146.607C189.385 153.439 190.277 160.904 189.164 168.204H189.16Z" fill="url(#paint2_linear_283_786)" stroke="white" stroke-width="8.81" stroke-miterlimit="10"/>
<path d="M190.449 165.69C190.401 166.087 190.348 166.481 190.288 166.878C190.213 167.383 189.985 167.84 189.666 168.2C189.494 168.256 189.306 168.29 189.115 168.294L187.781 168.174L178.21 167.32L165.799 166.207C163.416 165.99 161.437 164.372 160.766 162.072C159.807 158.787 159.807 155.315 160.766 152.03L160.781 151.989C161.358 150.012 162.91 148.532 164.851 148.019C165.147 147.944 165.451 147.888 165.758 147.858L173.2 147.124L177.311 146.716L182.509 146.206L186.515 145.809C186.706 145.813 186.889 145.847 187.062 145.903C187.257 146.116 187.41 146.36 187.523 146.637L188.017 147.85C189.321 151.03 190.157 154.364 190.506 157.754C190.783 160.387 190.768 163.046 190.453 165.69H190.449Z" fill="url(#paint3_linear_283_786)" stroke="white" stroke-width="8.81" stroke-miterlimit="10"/>
<path d="M140.478 152.746L131.653 153.705L130.128 153.869L128.265 136.76L129.794 136.591L138.616 135.636L140.478 152.746Z" fill="url(#paint4_linear_283_786)" stroke="white" stroke-width="8.81" stroke-miterlimit="10"/>
<path d="M140.478 152.746L131.653 153.705L129.794 136.591L138.616 135.636L140.478 152.746Z" fill="url(#paint5_linear_283_786)" stroke="white" stroke-width="8.81" stroke-miterlimit="10"/>
<path d="M140.242 134.741C140.126 135.531 139.489 136.179 138.661 136.265L130.266 137.179L128.46 137.374C127.478 137.479 126.59 136.767 126.485 135.778L125.455 126.31C125.35 125.347 126.024 124.478 126.976 124.343C126.999 124.336 127.017 124.336 127.044 124.332L128.685 124.156L137.244 123.227C138.226 123.119 139.11 123.834 139.219 124.815L140.246 134.288C140.261 134.441 140.257 134.595 140.238 134.741H140.242Z" fill="url(#paint6_linear_283_786)" stroke="white" stroke-width="8.81" stroke-miterlimit="10"/>
<path d="M140.242 134.741C140.126 135.531 139.489 136.179 138.661 136.265L130.266 137.179C129.524 137.011 128.94 136.385 128.854 135.587L127.804 125.924C127.729 125.19 128.093 124.508 128.689 124.156L137.248 123.227C138.23 123.119 139.114 123.834 139.223 124.815L140.249 134.288C140.264 134.441 140.261 134.595 140.242 134.741Z" fill="url(#paint7_linear_283_786)" stroke="white" stroke-width="8.81" stroke-miterlimit="10"/>
<path d="M128.887 153.952L124.754 161.05L123.858 162.589L109.457 154.083C108.655 153.611 108.311 152.626 108.644 151.757L110.84 145.989C111.065 145.397 111.541 144.992 112.088 144.831C112.571 144.689 113.115 144.738 113.594 145.019L128.891 153.956L128.887 153.952Z" fill="url(#paint8_linear_283_786)" stroke="white" stroke-width="8.81" stroke-miterlimit="10"/>
<path d="M128.887 153.952L124.754 161.05L110.758 152.783C109.956 152.311 109.611 151.326 109.941 150.457L112.088 144.831C112.571 144.689 113.115 144.738 113.594 145.019L128.891 153.956L128.887 153.952Z" fill="url(#paint9_linear_283_786)" stroke="white" stroke-width="8.81" stroke-miterlimit="10"/>
<path d="M126.609 174.845L112.755 180.212C111.177 180.826 109.401 180.043 108.787 178.463L107.389 174.856C107.119 174.163 107.119 173.433 107.344 172.777C107.617 171.946 108.251 171.234 109.139 170.889L122.993 165.522L125.953 173.155L126.609 174.837V174.845Z" fill="url(#paint10_linear_283_786)" stroke="white" stroke-width="8.81" stroke-miterlimit="10"/>
<path d="M125.953 173.159L112.755 178.275C111.177 178.889 109.401 178.107 108.786 176.526L107.389 172.919C107.37 172.874 107.355 172.825 107.344 172.78C107.617 171.949 108.251 171.237 109.139 170.893L122.993 165.525L125.953 173.159Z" fill="url(#paint11_linear_283_786)" stroke="white" stroke-width="8.81" stroke-miterlimit="10"/>
<path d="M146.137 176.328C144.019 179.118 140.999 181.01 137.491 181.395C130.075 182.212 123.304 175.976 122.367 167.462C121.707 161.484 124.102 155.974 128.153 152.94C129.873 151.656 131.885 150.813 134.092 150.573C141.509 149.757 148.28 155.993 149.217 164.507C149.712 168.994 148.486 173.215 146.137 176.324V176.328Z" fill="url(#paint12_linear_283_786)" stroke="white" stroke-width="8.81" stroke-miterlimit="10"/>
<path d="M146.137 176.328C144.417 177.616 142.397 178.463 140.186 178.702C132.77 179.519 125.998 173.283 125.065 164.769C124.57 160.278 125.796 156.053 128.153 152.944C129.873 151.66 131.885 150.817 134.092 150.577C141.509 149.761 148.28 155.997 149.217 164.511C149.712 168.998 148.486 173.219 146.137 176.328Z" fill="url(#paint13_linear_283_786)" stroke="white" stroke-width="8.81" stroke-miterlimit="10"/>
<path opacity="0.59" d="M155.333 163.469L146.466 165.597C145.14 165.919 143.806 165.132 143.435 163.829C143.424 163.791 143.412 163.758 143.405 163.72L142.228 158.817C142.179 158.615 142.157 158.42 142.157 158.222C142.157 157.076 142.936 156.031 144.102 155.753L152.964 153.626C154.047 153.364 155.134 153.84 155.696 154.727C155.846 154.959 155.959 155.218 156.026 155.499L157.203 160.405C157.221 160.477 157.233 160.544 157.24 160.619C157.446 161.907 156.618 163.158 155.329 163.469H155.333Z" fill="white"/>
<path d="M157.244 160.619C156.869 161.222 156.213 161.686 155.396 161.859L145.309 163.986C144.656 164.125 144.004 164.054 143.435 163.829C143.424 163.791 143.412 163.758 143.405 163.72L142.228 158.817C142.179 158.615 142.157 158.42 142.157 158.222C142.157 157.076 142.936 156.031 144.102 155.753L152.964 153.626C154.047 153.364 155.134 153.84 155.696 154.727C155.846 154.959 155.959 155.218 156.026 155.499L157.203 160.405C157.221 160.477 157.233 160.544 157.24 160.619H157.244Z" fill="url(#paint14_linear_283_786)" stroke="white" stroke-width="8.81" stroke-miterlimit="10"/>
<g opacity="0.59">
<path d="M139.976 170.544C139.016 171.81 137.69 172.706 136.146 173.009C135.981 173.046 135.809 173.069 135.636 173.091C135.464 173.114 135.292 173.125 135.119 173.125C131.608 173.211 128.498 170.17 128.048 166.099C127.718 163.102 128.917 160.334 130.948 158.81C131.814 158.162 132.822 157.742 133.931 157.622C134.553 157.551 135.164 157.581 135.753 157.705C135.764 157.705 135.779 157.705 135.79 157.712C138.724 158.308 141.134 161.072 141.527 164.615C141.775 166.866 141.16 168.986 139.98 170.544H139.976Z" fill="white"/>
<path d="M139.976 170.545C139.016 171.811 137.69 172.706 136.146 173.009C135.981 173.047 135.809 173.069 135.636 173.092C135.464 173.114 135.292 173.125 135.119 173.125C132.189 172.522 129.787 169.758 129.401 166.226C129.071 163.226 130.27 160.458 132.301 158.937C133.167 158.289 134.175 157.866 135.284 157.746C135.453 157.727 135.621 157.716 135.794 157.712C138.728 158.308 141.137 161.072 141.531 164.615C141.778 166.866 141.164 168.986 139.983 170.545H139.976Z" fill="white"/>
</g>
<path opacity="0.59" d="M187.781 168.17L178.21 167.316L164.851 148.019C165.147 147.944 165.451 147.888 165.758 147.858L173.2 147.124L187.785 168.174L187.781 168.17Z" fill="white"/>
<path opacity="0.59" d="M190.449 165.69L177.307 146.715L182.505 146.206L190.502 157.757C190.779 160.39 190.764 163.05 190.449 165.694V165.69Z" fill="white"/>
<path opacity="0.59" d="M174.021 196.677V196.692C173.68 196.797 173.324 196.88 172.96 196.932L162.483 197.685C159.635 198.134 157.251 200.082 156.24 202.782L157.397 214.933L149.61 216.832C146.451 217.604 143.244 217.873 140.092 217.671C145.657 217.649 143.334 208.06 146.751 204.105C151.278 198.868 155.201 198.85 157.716 198.194C162.449 196.966 174.021 196.681 174.021 196.681V196.677Z" fill="white"/>
<path opacity="0.59" d="M181.497 273H86.3023C86.3023 273 85.8226 241.983 97.0048 230.462C97.9604 229.48 98.9909 228.645 100.115 227.978C104.455 225.409 107.876 222.529 110.533 219.753C116.694 213.326 118.788 207.483 118.788 207.483C142.003 219.809 157.394 214.925 157.394 214.925C179.979 237.5 181.493 272.996 181.493 272.996L181.497 273Z" fill="white"/>
<path opacity="0.59" d="M132.196 273H86.3023C86.3023 273 85.8226 241.983 97.0048 230.462C97.7168 230.398 98.4401 230.368 99.1708 230.376C115.978 230.559 126.699 254.4 132.196 273Z" fill="white"/>
</g>
<defs>
<linearGradient id="paint0_linear_283_786" x1="145" y1="0" x2="145" y2="290" gradientUnits="userSpaceOnUse">
<stop stop-color="#FF922E"/>
<stop offset="1" stop-color="#FDB471"/>
</linearGradient>
<linearGradient id="paint1_linear_283_786" x1="153.568" y1="156.502" x2="189.625" y2="156.502" gradientUnits="userSpaceOnUse">
<stop stop-color="#FE7A00"/>
<stop offset="1" stop-color="#FFC188"/>
</linearGradient>
<linearGradient id="paint2_linear_283_786" x1="157.967" y1="157.05" x2="68.3748" y2="157.05" gradientUnits="userSpaceOnUse">
<stop stop-color="#FE7A00"/>
<stop offset="1" stop-color="#FFC188"/>
</linearGradient>
<linearGradient id="paint3_linear_283_786" x1="160.047" y1="157.049" x2="190.7" y2="157.049" gradientUnits="userSpaceOnUse">
<stop stop-color="#FE7A00"/>
<stop offset="1" stop-color="#FFC188"/>
</linearGradient>
<linearGradient id="paint4_linear_283_786" x1="128.265" y1="144.753" x2="140.478" y2="144.753" gradientUnits="userSpaceOnUse">
<stop stop-color="#FE7A00"/>
<stop offset="1" stop-color="#FFC188"/>
</linearGradient>
<linearGradient id="paint5_linear_283_786" x1="129.794" y1="144.67" x2="140.478" y2="144.67" gradientUnits="userSpaceOnUse">
<stop stop-color="#FE7A00"/>
<stop offset="1" stop-color="#FFC188"/>
</linearGradient>
<linearGradient id="paint6_linear_283_786" x1="125.447" y1="130.303" x2="140.261" y2="130.303" gradientUnits="userSpaceOnUse">
<stop stop-color="#FE7A00"/>
<stop offset="1" stop-color="#FFC188"/>
</linearGradient>
<linearGradient id="paint7_linear_283_786" x1="127.789" y1="130.201" x2="140.261" y2="130.201" gradientUnits="userSpaceOnUse">
<stop stop-color="#FE7A00"/>
<stop offset="1" stop-color="#FFC188"/>
</linearGradient>
<linearGradient id="paint8_linear_283_786" x1="108.517" y1="153.671" x2="128.887" y2="153.671" gradientUnits="userSpaceOnUse">
<stop stop-color="#FE7A00"/>
<stop offset="1" stop-color="#FFC188"/>
</linearGradient>
<linearGradient id="paint9_linear_283_786" x1="109.817" y1="152.903" x2="128.887" y2="152.903" gradientUnits="userSpaceOnUse">
<stop stop-color="#FE7A00"/>
<stop offset="1" stop-color="#FFC188"/>
</linearGradient>
<linearGradient id="paint10_linear_283_786" x1="107.186" y1="172.972" x2="126.609" y2="172.972" gradientUnits="userSpaceOnUse">
<stop stop-color="#FE7A00"/>
<stop offset="1" stop-color="#FFC188"/>
</linearGradient>
<linearGradient id="paint11_linear_283_786" x1="107.347" y1="172.005" x2="125.953" y2="172.005" gradientUnits="userSpaceOnUse">
<stop stop-color="#FE7A00"/>
<stop offset="1" stop-color="#FFC188"/>
</linearGradient>
<linearGradient id="paint12_linear_283_786" x1="122.258" y1="165.986" x2="149.326" y2="165.986" gradientUnits="userSpaceOnUse">
<stop stop-color="#FE7A00"/>
<stop offset="1" stop-color="#FFC188"/>
</linearGradient>
<linearGradient id="paint13_linear_283_786" x1="124.956" y1="164.638" x2="149.326" y2="164.638" gradientUnits="userSpaceOnUse">
<stop stop-color="#FE7A00"/>
<stop offset="1" stop-color="#FFC188"/>
</linearGradient>
<linearGradient id="paint14_linear_283_786" x1="142.157" y1="158.806" x2="157.244" y2="158.806" gradientUnits="userSpaceOnUse">
<stop stop-color="#FE7A00"/>
<stop offset="1" stop-color="#FFC188"/>
</linearGradient>
<clipPath id="clip0_283_786">
<rect width="177" height="194" fill="white" transform="translate(68 79)"/>
</clipPath>
</defs>
</svg>
