<svg width="290" height="290" viewBox="0 0 290 290" fill="none" xmlns="http://www.w3.org/2000/svg">
<rect width="290" height="290" rx="29.0909" fill="url(#paint0_linear_283_724)"/>
<path d="M54.48 62.12C53.1467 63.0533 52.0533 62.9067 51.2 61.68C50.6933 60.96 50.5067 60.3333 50.64 59.8C50.7733 59.2667 51.2133 58.7467 51.96 58.24C53.5067 56.9333 54.8133 55.28 55.88 53.28C55.64 53.0667 55.28 52.7467 54.8 52.32C54.4 51.92 54.0933 51.6267 53.88 51.44V51.52C53.8 51.8667 53.56 52.0533 53.16 52.08C52.7867 52.08 52.4133 51.9733 52.04 51.76C50.5733 50.88 49.9333 49.96 50.12 49C50.84 45.88 51.56 42.3467 52.28 38.4H51.8C50.36 38.4 49.64 37.68 49.64 36.24C49.64 34.8 50.36 34.08 51.8 34.08H53.04C53.2533 32.9333 53.52 31.2533 53.84 29.04C53.8933 28.6667 53.9333 28.4 53.96 28.24C54.1467 26.88 54.96 26.2533 56.4 26.36C57.92 26.52 58.5733 27.3333 58.36 28.8C58.2 29.7333 57.9467 31.1733 57.6 33.12C57.52 33.5467 57.4667 33.8667 57.44 34.08H61.56C62.3867 34.08 63.0133 34.3333 63.44 34.84C63.8933 35.3467 64.0933 36.0667 64.04 37C63.88 39.48 63.6133 41.8933 63.24 44.24C62.76 47.1467 62.12 49.7733 61.32 52.12C62.5733 53.3733 63.4533 54.2933 63.96 54.88C64.3867 55.3867 64.5867 55.88 64.56 56.36C64.5333 56.7867 64.3067 57.28 63.88 57.84C62.68 59.36 61.52 59.3867 60.4 57.92C60.32 57.84 60.2133 57.72 60.08 57.56C59.7067 57.1333 59.4133 56.8133 59.2 56.6C58 58.68 56.4267 60.52 54.48 62.12ZM85.12 61.84C84.3733 62.9333 83.1867 63.2267 81.56 62.72C78.52 61.52 76.1867 59.44 74.56 56.48C73.1467 59.12 70.7333 61.1467 67.32 62.56C65.6667 63.1733 64.4933 62.9733 63.8 61.96C62.8667 60.5467 63.5733 59.4267 65.92 58.6C68.2133 57.56 69.8267 56.0933 70.76 54.2H65.76C64.3467 54.2 63.64 53.4933 63.64 52.08C63.64 50.6667 64.3467 49.96 65.76 49.96H72C72.0533 49.64 72.08 49.3867 72.08 49.2C72.2133 47.7867 72.9867 47.08 74.4 47.08C75.9733 47.08 76.68 47.88 76.52 49.48C76.52 49.5333 76.5067 49.6133 76.48 49.72C76.48 49.8267 76.4667 49.9067 76.44 49.96H79.32V47C79.32 46.36 79 46.04 78.36 46.04H68C67.2267 46.04 66.6 45.8 66.12 45.32C65.64 44.84 65.4 44.2133 65.4 43.44V32C65.4 30.64 66.0933 29.96 67.48 29.96C68.84 29.96 69.52 30.64 69.52 32V41C69.52 41.64 69.84 41.96 70.48 41.96H76.64H81.16C81.9333 41.96 82.56 42.2 83.04 42.68C83.52 43.16 83.76 43.7867 83.76 44.56V49.96H84.36C85.7733 49.96 86.48 50.6667 86.48 52.08C86.48 53.4933 85.7733 54.2 84.36 54.2H78C79.2 55.9867 80.84 57.32 82.92 58.2C85.5333 58.92 86.2667 60.1333 85.12 61.84ZM57.72 48.92C58.2 47.3733 58.6 45.7467 58.92 44.04C59.24 42.3867 59.4667 40.84 59.6 39.4C59.6267 38.7333 59.3333 38.4 58.72 38.4H56.64C56.24 40.4 55.6667 43.1333 54.92 46.6C55.3467 46.9467 56 47.48 56.88 48.2C57.2533 48.52 57.5333 48.76 57.72 48.92ZM73.68 39.84C72.9067 39.84 72.28 39.6 71.8 39.12C71.32 38.64 71.08 38.0133 71.08 37.24V30.2C71.08 29.4267 71.32 28.8 71.8 28.32C72.28 27.84 72.9067 27.6 73.68 27.6H77.76H81.88C82.6533 27.6 83.28 27.84 83.76 28.32C84.24 28.8 84.48 29.4267 84.48 30.2V37.24C84.48 38.0133 84.24 38.64 83.76 39.12C83.28 39.6 82.6533 39.84 81.88 39.84H73.68ZM76.2 36.04H77.64H79.12C79.76 36.04 80.08 35.72 80.08 35.08V32.36C80.08 31.72 79.76 31.4 79.12 31.4H76.2C75.56 31.4 75.24 31.72 75.24 32.36V35.08C75.24 35.72 75.56 36.04 76.2 36.04ZM107.96 63.4C106.387 63.4 105.6 62.6133 105.6 61.04V54.96C102.587 57.9733 98.9067 60.44 94.56 62.36C93.2533 62.8933 92.1733 62.64 91.32 61.6C90.6267 60.7467 90.4133 60.0267 90.68 59.44C90.8933 58.9067 91.5467 58.4533 92.64 58.08C96.2133 56.6667 99.24 54.9467 101.72 52.92H92.44C91.08 52.92 90.4 52.2267 90.4 50.84C90.4 49.48 91.08 48.8 92.44 48.8H105.6V46.28H102.6V46.36C102.627 46.4133 102.573 46.48 102.44 46.56C101.747 46.8267 101.093 46.9067 100.48 46.8C99.7333 46.6933 99.32 46.3467 99.24 45.76C99.24 45.7333 99.24 45.7067 99.24 45.68L92.44 46.6C91.1067 46.8133 90.3733 46.2267 90.24 44.84C90.1067 43.6133 90.64 42.96 91.84 42.88H91.92C92.8533 41.5733 93.7067 40.2667 94.48 38.96C93.6267 38.0533 92.5867 37.0667 91.36 36C90.96 35.6533 90.7733 35.16 90.8 34.52C90.8267 33.9333 91 33.3733 91.32 32.84C91.48 32.5733 91.68 32.3733 91.92 32.24C92.16 32.08 92.3867 32.08 92.6 32.24L92.68 32.28C93.2133 31.24 93.8 29.8667 94.44 28.16C94.8667 26.9867 95.6667 26.6133 96.84 27.04C98.0667 27.4667 98.4 28.32 97.84 29.6C96.9867 31.36 96.1333 32.96 95.28 34.4C95.7333 34.7467 96.1333 35.1067 96.48 35.48C96.8 34.8933 97.12 34.2667 97.44 33.6C97.9467 32.48 98.7733 32.1467 99.92 32.6C101.173 33.1067 101.467 33.9467 100.8 35.12C100.747 35.2267 100.653 35.3867 100.52 35.6C99.3467 37.5733 98.4533 39.0267 97.84 39.96L99.32 39.48C100.173 39.24 100.747 39.5067 101.04 40.28C101.36 41.1333 101.693 42.2133 102.04 43.52V32.48C102.04 31.7067 102.28 31.08 102.76 30.6C103.24 30.12 103.867 29.88 104.64 29.88H105.44C105.493 29.72 105.547 29.4933 105.6 29.2C105.68 28.9067 105.733 28.6933 105.76 28.56C105.867 27.7333 106.12 27.1467 106.52 26.8C106.92 26.4267 107.533 26.28 108.36 26.36C109.267 26.4667 109.827 26.76 110.04 27.24C110.28 27.6933 110.24 28.36 109.92 29.24C109.893 29.2933 109.853 29.4 109.8 29.56C109.773 29.6933 109.747 29.8 109.72 29.88H112C112.613 29.88 113.093 30.0667 113.44 30.44C113.813 30.7867 114 31.2667 114 31.88V33.08L114.64 32.2C114.933 31.7733 115.293 31.7333 115.72 32.08L115.8 32.16C116.547 30.6933 117.16 29.3467 117.64 28.12C118.067 26.9467 118.867 26.5733 120.04 27C121.267 27.4533 121.573 28.3067 120.96 29.56C119.92 31.64 119.04 33.28 118.32 34.48C118.453 34.6133 118.64 34.8133 118.88 35.08C119.147 35.3467 119.333 35.5333 119.44 35.64C119.653 35.2667 119.933 34.7333 120.28 34.04C120.36 33.8533 120.427 33.72 120.48 33.64C121.013 32.5467 121.853 32.24 123 32.72C124.227 33.2533 124.493 34.12 123.8 35.32C123.4 35.96 122.787 36.9467 121.96 38.28C121.56 38.9467 121.253 39.44 121.04 39.76L122.56 39.2C123.387 38.9067 123.973 39.16 124.32 39.96C125.067 41.8267 125.653 43.6133 126.08 45.32C126.187 45.8 126.133 46.1733 125.92 46.44C125.733 46.7067 125.4 46.9333 124.92 47.12C123.693 47.6267 122.933 47.2133 122.64 45.88C122.64 45.8533 122.64 45.8267 122.64 45.8C121.813 45.9067 120.6 46.0533 119 46.24C116.813 46.48 115.213 46.6667 114.2 46.8C113.933 46.8533 113.773 46.72 113.72 46.4V46.28H110.32V48.8H117.96H123.6C124.96 48.8 125.64 49.48 125.64 50.84C125.64 52.2267 124.96 52.92 123.6 52.92H114.16C116.747 54.8933 119.8 56.52 123.32 57.8C124.413 58.1467 125.08 58.5867 125.32 59.12C125.56 59.7067 125.347 60.4267 124.68 61.28C124.253 61.84 123.787 62.1733 123.28 62.28C122.8 62.4133 122.213 62.36 121.52 62.12C117.28 60.3867 113.547 58.04 110.32 55.08V61.04C110.32 62.6133 109.533 63.4 107.96 63.4ZM114 42.84L114.96 42.8C115.627 41.92 116.453 40.6933 117.44 39.12C116.507 37.9733 115.36 36.7733 114 35.52V39.2V42.84ZM105.96 42.72H109.96V39.72H107.96H105.96V42.72ZM96.08 42.56L98.4 42.36C98.3467 42.1733 98.2533 41.88 98.12 41.48C97.96 40.8667 97.8267 40.4267 97.72 40.16C97.4533 40.6133 97.1867 41.0267 96.92 41.4C96.84 41.5333 96.7067 41.7333 96.52 42C96.3333 42.24 96.1867 42.4267 96.08 42.56ZM119.08 42.56L121.68 42.4C121.307 41.3333 121.027 40.5467 120.84 40.04C120.707 40.28 120.48 40.6133 120.16 41.04C120.08 41.1733 120.013 41.2667 119.96 41.32C119.667 41.7733 119.373 42.1867 119.08 42.56ZM105.96 36.4H107.96H109.96V34.4C109.96 33.76 109.64 33.44 109 33.44H106.92C106.28 33.44 105.96 33.76 105.96 34.4V36.4ZM154.6 63.48C153.053 63.48 152.28 62.72 152.28 61.2V55.72C150.44 58.1733 148.493 60.12 146.44 61.56C145.187 62.3333 144.12 62.1867 143.24 61.12C142.6 60.3733 142.347 59.72 142.48 59.16C142.64 58.6 143.16 58.0933 144.04 57.64C146.413 56.1467 148.4 54.3333 150 52.2H145.28C143.947 52.2 143.28 51.5333 143.28 50.2C143.28 48.8667 143.947 48.2 145.28 48.2H152.28V45.76H149.4C148.627 45.76 148 45.52 147.52 45.04C147.04 44.56 146.8 43.9333 146.8 43.16V34.2H145.12C143.787 34.2 143.12 33.5333 143.12 32.2C143.12 30.8667 143.787 30.2 145.12 30.2H146.8V28.24C146.8 26.8267 147.52 26.12 148.96 26.12C150.373 26.12 151.08 26.8267 151.08 28.24V30.2H158.12V28.36C158.12 26.8667 158.867 26.12 160.36 26.12C161.853 26.12 162.6 26.8667 162.6 28.36V30.2H164.04C165.373 30.2 166.04 30.8667 166.04 32.2C166.04 33.5333 165.373 34.2 164.04 34.2H162.6V43.16C162.6 43.9333 162.36 44.56 161.88 45.04C161.4 45.52 160.773 45.76 160 45.76H156.88V48.2H161.52H164.2C165.533 48.2 166.2 48.8667 166.2 50.2C166.2 51.5333 165.533 52.2 164.2 52.2H159.08C160.547 54.04 162.333 55.7067 164.44 57.2C165.32 57.7333 165.813 58.28 165.92 58.84C166.053 59.3733 165.8 60.0133 165.16 60.76C164.627 61.3733 164.107 61.6933 163.6 61.72C163.093 61.7733 162.52 61.5333 161.88 61C160.093 59.4533 158.427 57.6133 156.88 55.48V61.2C156.88 62.72 156.12 63.48 154.6 63.48ZM134.4 61.92C133.733 62.4267 133.133 62.6533 132.6 62.6C132.093 62.5733 131.6 62.24 131.12 61.6C130.613 60.88 130.413 60.2667 130.52 59.76C130.627 59.2533 131.04 58.7333 131.76 58.2C133.227 56.92 134.493 55.2133 135.56 53.08C135.347 52.8667 135.04 52.5733 134.64 52.2C134.24 51.8267 133.947 51.5467 133.76 51.36V51.44C133.68 51.7867 133.427 51.96 133 51.96C132.627 51.96 132.253 51.84 131.88 51.6C130.493 50.64 129.907 49.7067 130.12 48.8C130.68 46.32 131.387 42.8533 132.24 38.4H131.68C130.24 38.4 129.52 37.68 129.52 36.24C129.52 34.8 130.24 34.08 131.68 34.08H133C133.187 32.9867 133.44 31.3733 133.76 29.24C133.84 28.7867 133.893 28.44 133.92 28.2C134.107 26.8667 134.907 26.2533 136.32 26.36C137.84 26.4667 138.48 27.2533 138.24 28.72C138.053 29.8933 137.747 31.68 137.32 34.08H141.04C141.867 34.08 142.493 34.3333 142.92 34.84C143.373 35.3467 143.573 36.0667 143.52 37C143.36 39.48 143.093 41.8933 142.72 44.24C142.24 47.28 141.587 49.92 140.76 52.16C141.747 53.2 142.44 53.96 142.84 54.44C143.48 55.2933 143.44 56.2 142.72 57.16C141.6 58.6 140.507 58.6133 139.44 57.2C139.387 57.12 139.28 57 139.12 56.84C138.987 56.68 138.88 56.56 138.8 56.48C137.627 58.56 136.16 60.3733 134.4 61.92ZM137.24 48.88C137.72 47.3333 138.12 45.7067 138.44 44C138.76 42.3467 138.987 40.8133 139.12 39.4C139.147 38.7333 138.853 38.4 138.24 38.4H136.48C136.08 40.4 135.507 43.1867 134.76 46.76C135.293 47.2133 136.12 47.92 137.24 48.88ZM152.04 41.96H157.16C157.8 41.96 158.12 41.64 158.12 41V39.8H154.6H151.08V41C151.08 41.64 151.4 41.96 152.04 41.96ZM151.08 36.32H154.6H158.12V34.2H151.08V36.32ZM181.2 63.44C179.867 63.4933 179.04 62.9733 178.72 61.88C178.32 60.52 178.853 59.8667 180.32 59.92C180.613 59.8933 180.76 59.7333 180.76 59.44V56.68H176.52V61.52C176.52 62.8267 175.867 63.48 174.56 63.48C173.227 63.48 172.56 62.8267 172.56 61.52V44.96H171.24C170.547 44.96 170.2 44.6133 170.2 43.92V40.88C170.2 40.2133 170.387 39.6933 170.76 39.32C171.16 38.92 171.693 38.72 172.36 38.72H172.48V29.96C172.48 29.1867 172.72 28.56 173.2 28.08C173.68 27.6 174.307 27.36 175.08 27.36H182.32C183.093 27.36 183.72 27.6 184.2 28.08C184.68 28.56 184.92 29.1867 184.92 29.96V38.72H186.24C186.933 38.72 187.28 39.0667 187.28 39.76V43.24H204.56C205.6 43.24 206.12 43.76 206.12 44.8C206.12 45.8667 205.6 46.4 204.56 46.4H196.68H188.56C188.16 46.4 187.84 46.28 187.6 46.04C187.36 45.8 187.24 45.48 187.24 45.08V44.96H184.76V59.48C184.76 60.3867 184.68 61.08 184.52 61.56C184.307 62.0933 183.947 62.5067 183.44 62.8C182.907 63.1467 182.16 63.36 181.2 63.44ZM188.08 63C186.96 63 186.4 62.44 186.4 61.32C186.4 60.2 186.96 59.64 188.08 59.64H191.48C191.213 58.92 190.973 58.32 190.76 57.84C190.253 56.88 190.52 56.2 191.56 55.8L192.44 55.48H190.4C189.867 55.48 189.44 55.32 189.12 55C188.8 54.68 188.64 54.2533 188.64 53.72V50.28C188.64 49.5067 188.88 48.88 189.36 48.4C189.84 47.92 190.467 47.68 191.24 47.68H202.24C203.013 47.68 203.64 47.92 204.12 48.4C204.6 48.88 204.84 49.5067 204.84 50.28V52.88C204.84 53.6533 204.6 54.28 204.12 54.76C203.64 55.24 203.013 55.48 202.24 55.48H201.12L202.44 55.8C203.133 55.96 203.293 56.3733 202.92 57.04C202.787 57.28 202.573 57.64 202.28 58.12C201.907 58.8133 201.627 59.32 201.44 59.64H204.88C206 59.64 206.56 60.2 206.56 61.32C206.56 62.44 206 63 204.88 63H196.48H188.08ZM195.2 59.64H197.92C198.72 57.7467 199.24 56.36 199.48 55.48H196.44H193.44C194.32 56.9467 194.907 58.3333 195.2 59.64ZM176.52 53.48H180.76V51.64H178.64H176.52V53.48ZM193.4 52.68H199.92C200.56 52.68 200.88 52.36 200.88 51.72V51.44C200.88 50.8 200.56 50.48 199.92 50.48H196.64H193.4C192.76 50.48 192.44 50.8 192.44 51.44V51.72C192.44 52.36 192.76 52.68 193.4 52.68ZM176.52 48.52H178.64H180.76V46.76H176.52V48.52ZM173.6 43.56H178.68H183.76V42.64C183.76 42.1867 183.533 41.96 183.08 41.96H174.56C173.92 41.96 173.6 42.28 173.6 42.92V43.56ZM190.68 41.88C189.907 41.88 189.28 41.64 188.8 41.16C188.32 40.68 188.08 40.0533 188.08 39.28V32.08C188.08 31.3067 188.32 30.68 188.8 30.2C189.28 29.72 189.907 29.48 190.68 29.48H192.48V27.8C192.48 26.7067 193.027 26.16 194.12 26.16C195.213 26.16 195.76 26.7067 195.76 27.8V29.48H197.48V27.8C197.48 26.7067 198.04 26.16 199.16 26.16C200.253 26.16 200.8 26.7067 200.8 27.8V29.48H203.24C203.907 29.48 204.427 29.68 204.8 30.08C205.2 30.4533 205.4 30.9733 205.4 31.64V39.28C205.4 40.0533 205.16 40.68 204.68 41.16C204.2 41.64 203.573 41.88 202.8 41.88H196.72H190.68ZM192.28 38.84H193.24V37.96V37.08H191.52V38.08C191.52 38.5867 191.773 38.84 192.28 38.84ZM195.76 38.84H197.48V37.96V37.08H195.76V38.84ZM200 38.84H200.88H201.44C201.653 38.84 201.76 38.7333 201.76 38.52V37.08H200V38.84ZM175.84 38.72H177.24V34.96C177.24 34.1867 177.48 33.56 177.96 33.08C178.44 32.6 179.067 32.36 179.84 32.36H181.4V31.4C181.4 30.9467 181.173 30.72 180.72 30.72H176.8C176.16 30.72 175.84 31.04 175.84 31.68V34.72V38.72ZM179.72 38.72H181.4V35.04H180.44C179.96 35.04 179.72 35.28 179.72 35.76V36.88V38.72ZM191.52 34.2H193.24V32.48H192.36H191.8C191.613 32.48 191.52 32.5733 191.52 32.76V34.2ZM195.76 34.2H197.48V32.48H195.76V33.36V34.2ZM200 34.2H200.88H201.76V33.2C201.76 32.72 201.52 32.48 201.04 32.48H200V34.2ZM220.2 63.56C218.813 63.56 218.12 62.8667 218.12 61.48V50.2C217.613 54.3333 216.453 57.88 214.64 60.84C214.08 61.5867 213.547 62.0267 213.04 62.16C212.507 62.2933 211.92 62.0667 211.28 61.48C210.213 60.52 210.2 59.28 211.24 57.76C213.24 54.2933 214.24 49.4667 214.24 43.28V38.32C214.24 37.44 214.493 36.8 215 36.4C215.533 35.9733 216.227 35.8533 217.08 36.04L217.28 36.08C221.413 35.9467 225.267 35.7467 228.84 35.48C228.547 35.32 228.067 35.0533 227.4 34.68C227.08 34.4933 226.84 34.36 226.68 34.28C226.253 34.0667 226.027 33.8 226 33.48C225.973 33.16 226.187 32.8 226.64 32.4L221.76 32.48C222.32 33.6533 221.947 34.4267 220.64 34.8C219.147 35.2533 218.12 34.8 217.56 33.44C217.453 33.2267 217.267 32.88 217 32.4H216.36C215.933 33.0133 215.373 33.72 214.68 34.52C213.72 35.5067 212.68 35.6267 211.56 34.88C210.787 34.3467 210.387 33.8133 210.36 33.28C210.36 32.7467 210.72 32.1467 211.44 31.48C212.56 30.28 213.493 29.0133 214.24 27.68C214.853 26.4267 215.907 26 217.4 26.4C218.84 26.8 219.24 27.6267 218.6 28.88H225.8C226.307 28.88 226.707 29.0267 227 29.32C227.293 29.6133 227.44 30.0133 227.44 30.52V30.64C227.44 31.2533 227.653 31.3333 228.08 30.88C228.96 29.84 229.707 28.76 230.32 27.64C230.907 26.4133 231.933 25.9733 233.4 26.32C234.093 26.48 234.56 26.7867 234.8 27.24C235.067 27.6667 235.04 28.2133 234.72 28.88H244.04C245.213 28.88 245.8 29.4667 245.8 30.64C245.8 31.8133 245.213 32.4 244.04 32.4H239.84C240.08 32.7467 240.32 33.1067 240.56 33.48C240.693 33.6667 240.707 33.8533 240.6 34.04C240.52 34.2267 240.347 34.36 240.08 34.44L239.68 34.56L241.16 36.08C241.56 36.48 241.72 36.8267 241.64 37.12C241.587 37.4133 241.333 37.6 240.88 37.68C234.613 38.6133 227.173 39.1467 218.56 39.28V40.36H240C240.773 40.36 241.4 40.6 241.88 41.08C242.36 41.56 242.6 42.1867 242.6 42.96V46.04C242.6 46.8133 242.36 47.44 241.88 47.92C241.4 48.4 240.773 48.64 240 48.64H218.32C218.32 48.8 218.293 49.04 218.24 49.36C218.213 49.6533 218.187 49.88 218.16 50.04H231.04H241.32C242.093 50.04 242.72 50.28 243.2 50.76C243.68 51.24 243.92 51.8667 243.92 52.64V59.72C243.92 60.68 243.827 61.3867 243.64 61.84C243.427 62.32 243.027 62.6933 242.44 62.96C241.88 63.2533 240.96 63.4267 239.68 63.48C238.4 63.5333 237.613 63.08 237.32 62.12C236.867 60.7867 237.44 60.1467 239.04 60.2C239.36 60.1733 239.52 60.0133 239.52 59.72V58.28H236.28V61.32C236.28 62.6 235.64 63.24 234.36 63.24C233.08 63.24 232.44 62.6 232.44 61.32V58.28H229.28V61.32C229.28 62.6 228.64 63.24 227.36 63.24C226.08 63.24 225.44 62.6 225.44 61.32V58.28H222.28V61.48C222.28 62.8667 221.587 63.56 220.2 63.56ZM222.28 55.16H223.84H225.44V53.4H222.28V55.16ZM229.28 55.16H232.44V53.4H230.84H229.28V55.16ZM236.28 55.16H237.88H239.52V54.16C239.52 53.6533 239.267 53.4 238.76 53.4H236.28V55.16ZM218.52 45.48H228.32H237.2C237.84 45.48 238.16 45.16 238.16 44.52V44.4C238.16 43.84 237.88 43.56 237.32 43.56H218.56C218.56 44.3867 218.547 45.0267 218.52 45.48ZM229.8 35.44C230.147 35.4133 230.667 35.36 231.36 35.28C232.16 35.2267 232.76 35.1733 233.16 35.12C234.013 35.0667 235.04 34.96 236.24 34.8C235.92 34.24 235.4 33.44 234.68 32.4H232.48C231.733 33.3867 230.84 34.4 229.8 35.44Z" fill="white"/>
<g clip-path="url(#clip0_283_724)">
<g opacity="0.23">
<path d="M207.766 185.376H192.424V144.149C192.424 130.815 181.592 119.964 168.276 119.964C154.961 119.964 144.124 130.812 144.124 144.149V185.376H128.783V144.149C128.783 122.343 146.5 104.602 168.276 104.602C190.053 104.602 207.77 122.343 207.77 144.149V185.376H207.766Z" fill="white"/>
</g>
<path opacity="0.23" d="M136.169 166.709C133.341 166.709 131.051 164.415 131.051 161.583V148.253C131.051 145.421 133.341 143.127 136.169 143.127C138.998 143.127 141.288 145.421 141.288 148.253V161.583C141.288 164.415 138.998 166.709 136.169 166.709Z" fill="white" stroke="#595757" stroke-width="2.54" stroke-miterlimit="10"/>
<path opacity="0.62" d="M168.273 104.598C147.728 104.598 130.805 120.391 128.956 140.487C129.132 139.93 134.343 111.726 162.54 110.876C185.018 110.2 191.438 128.164 192.309 141.828C192.382 142.589 192.424 143.361 192.424 144.145V185.372H207.766V144.145C207.766 122.339 190.049 104.598 168.273 104.598Z" fill="white" stroke="white" stroke-width="6" stroke-miterlimit="10"/>
<path opacity="0.62" d="M138.99 180.68H119.124C112.18 180.68 106.55 186.318 106.55 193.272V218.548C106.55 225.503 112.18 231.14 119.124 231.14H138.99C145.935 231.14 151.565 225.503 151.565 218.548V193.272C151.565 186.318 145.935 180.68 138.99 180.68Z" fill="white" stroke="white" stroke-width="6" stroke-miterlimit="10"/>
<path opacity="0.62" d="M147.939 180.68H128.073C121.128 180.68 115.498 186.318 115.498 193.272V218.548C115.498 225.503 121.128 231.14 128.073 231.14H147.939C154.883 231.14 160.513 225.503 160.513 218.548V193.272C160.513 186.318 154.883 180.68 147.939 180.68Z" fill="white" stroke="white" stroke-width="6" stroke-miterlimit="10"/>
<path opacity="0.62" d="M153.802 218.671V193.149C153.802 189.975 151.232 187.401 148.061 187.401H127.95C124.78 187.401 122.21 189.975 122.21 193.149V218.671C122.21 221.846 124.78 224.42 127.95 224.42H148.061C151.232 224.42 153.802 221.846 153.802 218.671Z" fill="white" stroke="white" stroke-width="6" stroke-miterlimit="10"/>
<path opacity="0.23" d="M148.161 187.401H143.472C146.584 187.401 149.113 189.937 149.113 193.049V218.768C149.113 221.884 146.584 224.416 143.472 224.416H148.161C151.273 224.416 153.802 221.88 153.802 218.768V193.049C153.802 189.933 151.273 187.401 148.161 187.401Z" fill="white"/>
<path d="M148.585 139.513L87.7712 158.247L101.61 203.292L162.424 184.558L148.585 139.513Z" fill="url(#paint1_linear_283_724)" stroke="white" stroke-width="6" stroke-miterlimit="10"/>
<path opacity="0.33" d="M104.347 177.791L105.452 230.818C105.671 241.242 96.7222 249.504 86.3615 248.443C77.7276 247.56 71.0814 240.412 70.809 231.728L69.2664 182.617L104.347 177.794V177.791Z" fill="white" stroke="white" stroke-width="6" stroke-miterlimit="10"/>
<path d="M88.5487 153.878C74.0476 158.347 65.9125 173.741 70.3715 188.258C74.8342 202.779 90.2065 210.925 104.704 206.46C119.205 201.991 127.34 186.598 122.881 172.081C118.418 157.56 103.046 149.413 88.5487 153.878Z" fill="url(#paint2_linear_283_724)" stroke="white" stroke-width="6" stroke-miterlimit="10"/>
<path d="M89.7076 157.648C77.2863 161.475 70.3139 174.663 74.1358 187.101C77.9578 199.54 91.1274 206.522 103.549 202.694C115.97 198.867 122.942 185.68 119.12 173.241C115.299 160.803 102.129 153.821 89.7076 157.648Z" fill="url(#paint3_linear_283_724)" stroke="white" stroke-width="6" stroke-miterlimit="10"/>
<path d="M104.404 186.79C103.806 184.845 104.896 182.786 106.837 182.186L114.83 179.723C114.788 178.09 114.546 176.438 114.044 174.801C113.541 173.164 112.816 171.658 111.929 170.286L103.936 172.749C101.995 173.348 99.9379 172.257 99.3392 170.313L96.7606 161.921C94.9455 161.909 93.096 162.167 91.2656 162.728C89.4352 163.293 87.7621 164.119 86.2694 165.152L88.8481 173.544C89.4467 175.489 88.3569 177.548 86.4152 178.148L78.4221 180.611C78.4643 182.244 78.7061 183.896 79.2088 185.533C79.7115 187.17 80.4367 188.676 81.3231 190.048L89.3162 187.585C91.2579 186.986 93.3147 188.077 93.9133 190.021L96.492 198.413C98.307 198.425 100.157 198.167 101.987 197.606C103.817 197.042 105.49 196.215 106.983 195.182L104.404 186.79Z" fill="url(#paint4_linear_283_724)" stroke="white" stroke-width="6" stroke-miterlimit="10"/>
<g opacity="0.23">
<path d="M92.102 165.437L90.429 168.607L95.264 167.116L92.102 165.437Z" fill="white"/>
<path d="M101.097 194.717L102.774 191.551L97.9348 193.038L101.097 194.717Z" fill="white"/>
</g>
<g opacity="0.23">
<path d="M111.22 175.573L108.058 173.898L109.543 178.74L111.22 175.573Z" fill="white"/>
<path d="M81.9832 184.58L85.1451 186.26L83.6562 181.414L81.9832 184.58Z" fill="white"/>
</g>
<path opacity="0.33" d="M146.146 164.911L174.999 209.388C180.671 218.134 192.712 219.928 200.682 213.215C207.325 207.624 208.813 197.972 204.163 190.633L177.866 149.148L146.146 164.911Z" fill="white" stroke="white" stroke-width="6" stroke-miterlimit="10"/>
<path d="M145.786 136.241C160.287 131.772 175.659 139.922 180.118 154.443C184.581 168.964 176.442 184.358 161.941 188.823C147.44 193.291 132.068 185.141 127.609 170.62C123.146 156.099 131.285 140.706 145.786 136.241Z" fill="url(#paint5_linear_283_724)" stroke="white" stroke-width="6" stroke-miterlimit="10"/>
<path d="M146.945 140.011C159.366 136.183 172.536 143.165 176.358 155.604C180.18 168.042 173.207 181.23 160.786 185.057C148.364 188.884 135.195 181.902 131.373 169.464C127.551 157.025 134.523 143.838 146.945 140.011Z" fill="url(#paint6_linear_283_724)" stroke="white" stroke-width="6" stroke-miterlimit="10"/>
<path d="M150.348 158.124C154.233 158.124 157.382 154.971 157.382 151.081C157.382 147.191 154.233 144.038 150.348 144.038C146.464 144.038 143.315 147.191 143.315 151.081C143.315 154.971 146.464 158.124 150.348 158.124Z" fill="white"/>
<path d="M157.386 181.026C161.271 181.026 164.42 177.873 164.42 173.983C164.42 170.093 161.271 166.939 157.386 166.939C153.501 166.939 150.352 170.093 150.352 173.983C150.352 177.873 153.501 181.026 157.386 181.026Z" fill="white"/>
<path d="M165.299 166.052C169.183 166.052 172.332 162.898 172.332 159.008C172.332 155.118 169.183 151.965 165.299 151.965C161.414 151.965 158.265 155.118 158.265 159.008C158.265 162.898 161.414 166.052 165.299 166.052Z" fill="white"/>
<path d="M142.432 173.099C146.317 173.099 149.466 169.946 149.466 166.056C149.466 162.166 146.317 159.012 142.432 159.012C138.547 159.012 135.398 162.166 135.398 166.056C135.398 169.946 138.547 173.099 142.432 173.099Z" fill="white"/>
<g opacity="0.33">
<path d="M205.962 180.68H186.097C179.152 180.68 173.522 186.318 173.522 193.272V218.548C173.522 225.503 179.152 231.14 186.097 231.14H205.962C212.907 231.14 218.537 225.503 218.537 218.548V193.272C218.537 186.318 212.907 180.68 205.962 180.68Z" fill="white" stroke="white" stroke-width="6" stroke-miterlimit="10"/>
</g>
<path opacity="0.33" d="M214.27 180.68H194.404C187.46 180.68 181.83 186.318 181.83 193.272V218.548C181.83 225.503 187.46 231.14 194.404 231.14H214.27C221.215 231.14 226.845 225.503 226.845 218.548V193.272C226.845 186.318 221.215 180.68 214.27 180.68Z" fill="white" stroke="white" stroke-width="6" stroke-miterlimit="10"/>
<path opacity="0.33" d="M205.379 220.835C213.61 220.835 220.283 214.153 220.283 205.91C220.283 197.668 213.61 190.986 205.379 190.986C197.148 190.986 190.475 197.668 190.475 205.91C190.475 214.153 197.148 220.835 205.379 220.835Z" fill="white" stroke="white" stroke-width="6" stroke-miterlimit="10"/>
<path opacity="0.33" d="M209.213 220.835C217.444 220.835 224.117 214.153 224.117 205.91C224.117 197.668 217.444 190.986 209.213 190.986C200.981 190.986 194.309 197.668 194.309 205.91C194.309 214.153 200.981 220.835 209.213 220.835Z" fill="white" stroke="white" stroke-width="6" stroke-miterlimit="10"/>
<g opacity="0.23">
<path d="M129.059 253.969C196.139 253.969 209.216 232.52 209.216 205.91L129.059 253.969Z" fill="white"/>
<path d="M129.059 253.969C196.139 253.969 209.216 232.52 209.216 205.91" stroke="#CCCFD0" stroke-width="12.72" stroke-miterlimit="10"/>
</g>
<path opacity="0.23" d="M143.702 252.72H139.036C136.662 252.72 134.738 254.647 134.738 257.024V261.696C134.738 264.073 136.662 266 139.036 266H143.702C146.076 266 148 264.073 148 261.696V257.024C148 254.647 146.076 252.72 143.702 252.72Z" fill="white"/>
<path opacity="0.33" d="M214.903 205.91C214.903 209.057 212.355 211.609 209.213 211.609C206.07 211.609 203.522 209.057 203.522 205.91C203.522 202.763 206.07 200.212 209.213 200.212C212.355 200.212 214.903 202.763 214.903 205.91Z" fill="white" stroke="white" stroke-width="6" stroke-miterlimit="10"/>
<path opacity="0.23" d="M205.375 148.257C205.375 145.426 203.084 143.131 200.258 143.131C197.432 143.131 195.141 145.426 195.141 148.257V161.583C195.141 164.414 197.432 166.709 200.258 166.709C203.084 166.709 205.375 164.414 205.375 161.583V148.257Z" fill="white" stroke="#595757" stroke-width="2.54" stroke-miterlimit="10"/>
<path opacity="0.23" d="M206.066 160.807H194.117C190.686 160.807 187.904 163.592 187.904 167.028V170.244C187.904 173.68 190.686 176.465 194.117 176.465H206.066C209.497 176.465 212.279 173.68 212.279 170.244V167.028C212.279 163.592 209.497 160.807 206.066 160.807Z" fill="white"/>
<path opacity="0.59" d="M141.285 86.0269C144.899 86.0269 147.831 88.928 147.831 92.5092C147.831 96.0905 144.899 98.9877 141.285 98.9877C137.67 98.9877 134.738 96.0866 134.738 92.5092C134.738 88.9318 137.67 86.0269 141.285 86.0269Z" fill="white"/>
<path opacity="0.59" d="M100.352 122.297C105.483 122.297 109.646 126.416 109.646 131.496C109.646 136.576 105.487 140.695 100.352 140.695C95.218 140.695 91.0583 136.576 91.0583 131.496C91.0583 126.416 95.218 122.297 100.352 122.297Z" fill="white"/>
<path opacity="0.59" d="M207.762 109.955C208.813 109.955 209.665 110.796 209.665 111.834C209.665 112.871 208.813 113.716 207.762 113.716C206.711 113.716 205.863 112.875 205.863 111.834C205.863 110.792 206.714 109.955 207.762 109.955Z" fill="white"/>
<path opacity="0.59" d="M194.309 86C195.36 86 196.212 86.8415 196.212 87.879C196.212 88.9165 195.36 89.7618 194.309 89.7618C193.257 89.7618 192.409 88.9203 192.409 87.879C192.409 86.8377 193.261 86 194.309 86Z" fill="white"/>
<path opacity="0.59" d="M178.407 90.6265C179.458 90.6265 180.306 91.468 180.306 92.5093C180.306 93.5506 179.454 94.3922 178.407 94.3922C177.359 94.3922 176.507 93.5506 176.507 92.5093C176.507 91.468 177.359 90.6265 178.407 90.6265Z" fill="white"/>
<path opacity="0.59" d="M122.436 102.696C123.487 102.696 124.339 103.537 124.339 104.579C124.339 105.62 123.487 106.461 122.436 106.461C121.384 106.461 120.536 105.62 120.536 104.579C120.536 103.537 121.388 102.696 122.436 102.696Z" fill="white"/>
<path opacity="0.59" d="M79.4429 149.198C80.4943 149.198 81.3462 150.04 81.3462 151.081C81.3462 152.122 80.4943 152.964 79.4429 152.964C78.3915 152.964 77.5435 152.122 77.5435 151.081C77.5435 150.04 78.3953 149.198 79.4429 149.198Z" fill="white"/>
</g>
<defs>
<linearGradient id="paint0_linear_283_724" x1="145" y1="0" x2="145" y2="290" gradientUnits="userSpaceOnUse">
<stop stop-color="#FF922E"/>
<stop offset="1" stop-color="#FDB471"/>
</linearGradient>
<linearGradient id="paint1_linear_283_724" x1="87.7748" y1="171.399" x2="162.429" y2="171.399" gradientUnits="userSpaceOnUse">
<stop stop-color="#FE7A00"/>
<stop offset="1" stop-color="#FFC188"/>
</linearGradient>
<linearGradient id="paint2_linear_283_724" x1="69.1512" y1="180.169" x2="124.105" y2="180.169" gradientUnits="userSpaceOnUse">
<stop stop-color="#FE7A00"/>
<stop offset="1" stop-color="#FFC188"/>
</linearGradient>
<linearGradient id="paint3_linear_283_724" x1="73.0921" y1="180.169" x2="120.168" y2="180.169" gradientUnits="userSpaceOnUse">
<stop stop-color="#FE7A00"/>
<stop offset="1" stop-color="#FFC188"/>
</linearGradient>
<linearGradient id="paint4_linear_283_724" x1="78.426" y1="180.169" x2="114.83" y2="180.169" gradientUnits="userSpaceOnUse">
<stop stop-color="#FE7A00"/>
<stop offset="1" stop-color="#FFC188"/>
</linearGradient>
<linearGradient id="paint5_linear_283_724" x1="126.388" y1="162.532" x2="181.342" y2="162.532" gradientUnits="userSpaceOnUse">
<stop stop-color="#FE7A00"/>
<stop offset="1" stop-color="#FFC188"/>
</linearGradient>
<linearGradient id="paint6_linear_283_724" x1="130.329" y1="162.532" x2="177.405" y2="162.532" gradientUnits="userSpaceOnUse">
<stop stop-color="#FE7A00"/>
<stop offset="1" stop-color="#FFC188"/>
</linearGradient>
<clipPath id="clip0_283_724">
<rect width="160" height="180" fill="white" transform="translate(68 86)"/>
</clipPath>
</defs>
</svg>
