<svg width="291" height="290" viewBox="0 0 291 290" fill="none" xmlns="http://www.w3.org/2000/svg">
<rect x="0.333313" width="290" height="290" rx="29.0909" fill="url(#paint0_linear_238_2242)"/>
<path d="M83.68 62.84C82.1333 63.2933 81.0267 62.92 80.36 61.72C79.8533 60.8133 79.7733 60.08 80.12 59.52C80.44 59.0133 81.1467 58.6267 82.24 58.36C84.56 57.64 86.56 56.76 88.24 55.72C86.9867 54.36 85.8533 52.8 84.84 51.04C84.4133 50.24 84.32 49.5467 84.56 48.96C84.8267 48.3467 85.36 47.9067 86.16 47.64L86.84 47.44H84.64C84 47.44 83.4667 47.08 83.04 46.36C82.6933 45.7467 82.52 45.04 82.52 44.24C82.52 43.9733 82.5867 43.7333 82.72 43.52C82.8533 43.28 83.0267 43.16 83.24 43.16H83.32C83.0533 42.68 82.5467 42.04 81.8 41.24C80.7333 40.2267 80.96 39.1333 82.48 37.96C83.8933 36.4133 84.6 34.32 84.6 31.68V29.52C84.6 28.9333 84.7733 28.4667 85.12 28.12C85.4667 27.7733 85.9333 27.6 86.52 27.6H96.04C96.8133 27.6 97.44 27.84 97.92 28.32C98.4 28.8 98.64 29.4267 98.64 30.2V36.28C98.64 36.8133 98.68 37.1467 98.76 37.28C98.84 37.4133 99 37.48 99.24 37.48H100.32C100.533 37.48 100.667 37.4133 100.72 37.28C100.827 36.1867 101.08 35.3867 101.48 34.88C101.96 34.2667 102.613 34.1333 103.44 34.48C103.973 34.72 104.32 35.24 104.48 36.04C104.613 36.68 104.627 37.3867 104.52 38.16C104.253 39.3867 103.827 40.24 103.24 40.72C102.707 41.1733 101.907 41.4 100.84 41.4H98.36C96.7333 41.4 95.6133 41.04 95 40.32C94.4133 39.6 94.12 38.2667 94.12 36.32V32.96C94.12 32.32 93.8 32 93.16 32H89.04C88.9867 37.0667 87.12 40.7867 83.44 43.16H90.88H99.4C100.307 43.16 100.933 43.44 101.28 44C101.653 44.5867 101.68 45.44 101.36 46.56C100.133 50.2933 98.3067 53.3733 95.88 55.8C97.56 56.7867 99.36 57.5733 101.28 58.16C103.787 58.8 104.4 60.0267 103.12 61.84C102.347 62.9067 101.213 63.24 99.72 62.84C96.7867 61.88 94.2 60.6 91.96 59C89.48 60.6533 86.72 61.9333 83.68 62.84ZM72.24 63.32C70.5333 63.3733 69.4933 62.8 69.12 61.6C68.6133 59.8933 69.4533 59.0667 71.64 59.12C71.8 59.12 71.9467 59.12 72.08 59.12C72.5333 59.0933 72.76 58.84 72.76 58.36V50.2C72.5467 50.2533 72.2267 50.3467 71.8 50.48C71.4 50.6133 71.0933 50.72 70.88 50.8C70.0267 51.04 69.36 51.0267 68.88 50.76C68.4 50.4667 68.0533 49.9067 67.84 49.08C67.6267 48.2 67.6533 47.5333 67.92 47.08C68.1867 46.6 68.7467 46.2667 69.6 46.08C69.92 46 70.4 45.88 71.04 45.72C71.7867 45.56 72.36 45.4267 72.76 45.32V37.92H70C68.5333 37.92 67.8 37.1867 67.8 35.72C67.8 34.2533 68.5333 33.52 70 33.52H72.76V28.48C72.76 26.9333 73.5333 26.16 75.08 26.16C76.6267 26.16 77.4 26.9333 77.4 28.48V33.52H79.12C80.5867 33.52 81.32 34.2533 81.32 35.72C81.32 37.1867 80.5867 37.92 79.12 37.92H77.4V44.16L78.48 43.88C79.9733 43.5067 80.8 44.0933 80.96 45.64C81.0933 46.8933 80.5867 47.6933 79.44 48.04L77.4 48.72V53.52V58.32C77.4 59.4933 77.2667 60.4 77 61.04C76.76 61.7067 76.3333 62.2133 75.72 62.56C74.9467 62.9867 73.7867 63.24 72.24 63.32ZM91.96 52.96C93.72 51.36 95.0933 49.52 96.08 47.44H91.96H87.88C88.84 49.44 90.2 51.28 91.96 52.96ZM113.04 63.12C112 63.44 111.093 63.2133 110.32 62.44C108.8 60.92 109.213 59.88 111.56 59.32C114.627 58.52 117.067 57.6667 118.88 56.76H115.64C114.867 56.76 114.24 56.52 113.76 56.04C113.28 55.56 113.04 54.9333 113.04 54.16V43.12C113.04 42.3467 113.28 41.72 113.76 41.24C114.24 40.76 114.867 40.52 115.64 40.52H121.32C120.973 39.7733 120.44 38.9333 119.72 38C119.48 38.08 119.12 38.1867 118.64 38.32C114.907 39.36 112.2 40.1067 110.52 40.56C109.4 40.8533 108.64 40.4 108.24 39.2C108 38.48 107.947 37.9467 108.08 37.6C108.213 37.2 108.613 36.9333 109.28 36.8C110.24 36.5867 111.867 36.2267 114.16 35.72C115.253 35.48 116.08 35.2933 116.64 35.16C117.547 34.9467 118.28 35.0267 118.84 35.4C119.427 35.7733 119.773 36.3733 119.88 37.2L119.92 37.64C122.773 37.1333 124.88 36.4267 126.24 35.52C127.467 34.6933 128.293 33.56 128.72 32.12H125.88C125.427 32.68 124.867 33.2933 124.2 33.96C123.213 34.8667 122.24 35.0133 121.28 34.4C119.867 33.52 119.947 32.4267 121.52 31.12C122.587 30.0533 123.52 28.8533 124.32 27.52C124.8 26.5867 125.653 26.2267 126.88 26.44C128.373 26.7067 128.787 27.48 128.12 28.76H133.96H140.56C141.52 28.76 142.16 29.04 142.48 29.6C142.8 30.1333 142.747 30.88 142.32 31.84C141.867 32.7733 141.293 33.6933 140.6 34.6C140.12 35.1867 139.427 35.3333 138.52 35.04C137 34.56 136.693 33.68 137.6 32.4C137.627 32.3733 137.653 32.3333 137.68 32.28C137.733 32.2 137.773 32.1467 137.8 32.12H133.4C133.747 33.2133 134.333 34.1067 135.16 34.8C136.147 35.6533 137.573 36.3467 139.44 36.88C140.72 37.12 141.72 37.5067 142.44 38.04C143.32 38.68 143.52 39.4133 143.04 40.24C142.427 41.2267 141.467 41.6 140.16 41.36C140.027 41.3067 139.827 41.2533 139.56 41.2V54.16C139.56 54.9333 139.32 55.56 138.84 56.04C138.36 56.52 137.733 56.76 136.96 56.76H132.68C135 57.56 137.627 58.6 140.56 59.88C141.813 60.4667 142.387 61 142.28 61.48C142.173 61.9333 141.427 62.4267 140.04 62.96C139.48 63.1733 139.027 63.2933 138.68 63.32C138.28 63.32 137.853 63.2 137.4 62.96C135.64 62 133.787 61.12 131.84 60.32C130.693 59.8667 130.08 59.3467 130 58.76C129.947 58.1467 130.4 57.56 131.36 57L131.8 56.76H120.2L122.16 57.6C122.667 57.84 122.933 58.1067 122.96 58.4C123.013 58.6933 122.827 58.9733 122.4 59.24C119.653 60.76 116.533 62.0533 113.04 63.12ZM118.36 53.92H133.8C134.44 53.92 134.76 53.6 134.76 52.96V52.16H126.16H117.6V53.16C117.6 53.6667 117.853 53.92 118.36 53.92ZM117.6 49.48H134.76V47.76H126.16H117.6V49.48ZM117.6 45.08H134.76V43.36H126.16H118.56C117.92 43.36 117.6 43.68 117.6 44.32V45.08ZM124.04 40.52H130.68H137.32C134.547 39.5067 132.533 38.0667 131.28 36.2C129.867 38.0933 127.453 39.5333 124.04 40.52ZM110.76 32.48C109.56 32.48 108.96 31.88 108.96 30.68C108.96 29.48 109.56 28.88 110.76 28.88H114.24H117.76C118.96 28.88 119.56 29.48 119.56 30.68C119.56 31.88 118.96 32.48 117.76 32.48H110.76ZM153.72 61.36C151.987 62.5333 150.56 62.5733 149.44 61.48C147.947 60.04 148.347 58.5733 150.64 57.08C155.467 53.4267 158.853 48.3467 160.8 41.84C161.84 38.2133 162.467 33.8267 162.68 28.68C162.707 27.9333 162.96 27.4533 163.44 27.24C163.76 27.1067 164.413 27.04 165.4 27.04C165.48 27.04 165.547 27.04 165.6 27.04C166.347 27.04 166.933 27.24 167.36 27.64C167.813 28.0133 168.027 28.5467 168 29.24C168 29.2667 168 29.2933 168 29.32C168.213 33.6667 169.013 37.84 170.4 41.84C172.64 48.24 176.133 53.16 180.88 56.6C182.053 57.2933 182.853 58.0267 183.28 58.8C183.787 59.7333 183.68 60.6 182.96 61.4C181.947 62.52 180.56 62.6 178.8 61.64C172.64 57.64 168.307 51.44 165.8 43.04C163.507 50.9067 159.48 57.0133 153.72 61.36ZM198.2 63.56C196.813 63.56 196.12 62.8667 196.12 61.48V50.2C195.613 54.3333 194.453 57.88 192.64 60.84C192.08 61.5867 191.547 62.0267 191.04 62.16C190.507 62.2933 189.92 62.0667 189.28 61.48C188.213 60.52 188.2 59.28 189.24 57.76C191.24 54.2933 192.24 49.4667 192.24 43.28V38.32C192.24 37.44 192.493 36.8 193 36.4C193.533 35.9733 194.227 35.8533 195.08 36.04L195.28 36.08C199.413 35.9467 203.267 35.7467 206.84 35.48C206.547 35.32 206.067 35.0533 205.4 34.68C205.08 34.4933 204.84 34.36 204.68 34.28C204.253 34.0667 204.027 33.8 204 33.48C203.973 33.16 204.187 32.8 204.64 32.4L199.76 32.48C200.32 33.6533 199.947 34.4267 198.64 34.8C197.147 35.2533 196.12 34.8 195.56 33.44C195.453 33.2267 195.267 32.88 195 32.4H194.36C193.933 33.0133 193.373 33.72 192.68 34.52C191.72 35.5067 190.68 35.6267 189.56 34.88C188.787 34.3467 188.387 33.8133 188.36 33.28C188.36 32.7467 188.72 32.1467 189.44 31.48C190.56 30.28 191.493 29.0133 192.24 27.68C192.853 26.4267 193.907 26 195.4 26.4C196.84 26.8 197.24 27.6267 196.6 28.88H203.8C204.307 28.88 204.707 29.0267 205 29.32C205.293 29.6133 205.44 30.0133 205.44 30.52V30.64C205.44 31.2533 205.653 31.3333 206.08 30.88C206.96 29.84 207.707 28.76 208.32 27.64C208.907 26.4133 209.933 25.9733 211.4 26.32C212.093 26.48 212.56 26.7867 212.8 27.24C213.067 27.6667 213.04 28.2133 212.72 28.88H222.04C223.213 28.88 223.8 29.4667 223.8 30.64C223.8 31.8133 223.213 32.4 222.04 32.4H217.84C218.08 32.7467 218.32 33.1067 218.56 33.48C218.693 33.6667 218.707 33.8533 218.6 34.04C218.52 34.2267 218.347 34.36 218.08 34.44L217.68 34.56L219.16 36.08C219.56 36.48 219.72 36.8267 219.64 37.12C219.587 37.4133 219.333 37.6 218.88 37.68C212.613 38.6133 205.173 39.1467 196.56 39.28V40.36H218C218.773 40.36 219.4 40.6 219.88 41.08C220.36 41.56 220.6 42.1867 220.6 42.96V46.04C220.6 46.8133 220.36 47.44 219.88 47.92C219.4 48.4 218.773 48.64 218 48.64H196.32C196.32 48.8 196.293 49.04 196.24 49.36C196.213 49.6533 196.187 49.88 196.16 50.04H209.04H219.32C220.093 50.04 220.72 50.28 221.2 50.76C221.68 51.24 221.92 51.8667 221.92 52.64V59.72C221.92 60.68 221.827 61.3867 221.64 61.84C221.427 62.32 221.027 62.6933 220.44 62.96C219.88 63.2533 218.96 63.4267 217.68 63.48C216.4 63.5333 215.613 63.08 215.32 62.12C214.867 60.7867 215.44 60.1467 217.04 60.2C217.36 60.1733 217.52 60.0133 217.52 59.72V58.28H214.28V61.32C214.28 62.6 213.64 63.24 212.36 63.24C211.08 63.24 210.44 62.6 210.44 61.32V58.28H207.28V61.32C207.28 62.6 206.64 63.24 205.36 63.24C204.08 63.24 203.44 62.6 203.44 61.32V58.28H200.28V61.48C200.28 62.8667 199.587 63.56 198.2 63.56ZM200.28 55.16H201.84H203.44V53.4H200.28V55.16ZM207.28 55.16H210.44V53.4H208.84H207.28V55.16ZM214.28 55.16H215.88H217.52V54.16C217.52 53.6533 217.267 53.4 216.76 53.4H214.28V55.16ZM196.52 45.48H206.32H215.2C215.84 45.48 216.16 45.16 216.16 44.52V44.4C216.16 43.84 215.88 43.56 215.32 43.56H196.56C196.56 44.3867 196.547 45.0267 196.52 45.48ZM207.8 35.44C208.147 35.4133 208.667 35.36 209.36 35.28C210.16 35.2267 210.76 35.1733 211.16 35.12C212.013 35.0667 213.04 34.96 214.24 34.8C213.92 34.24 213.4 33.44 212.68 32.4H210.48C209.733 33.3867 208.84 34.4 207.8 35.44Z" fill="white"/>
<g clip-path="url(#clip0_238_2242)">
<g opacity="0.44">
<path d="M232.122 96.7646C238.54 96.7646 243.748 101.929 243.748 108.298C243.748 114.667 238.545 119.831 232.122 119.831C225.7 119.831 220.496 114.667 220.496 108.298C220.496 101.929 225.7 96.7646 232.122 96.7646Z" fill="white"/>
<path d="M184.124 221.019L187.876 245.944L171.375 254.124L186.371 262.308L179.625 273.841H158.625L145.876 222.5L163.124 236.642L172.122 213.948C176.245 216.552 179.997 218.783 184.124 221.019Z" fill="white"/>
<path d="M163.872 204.65L146.247 222.136L127.123 203.537C129.37 200.56 131.622 198.329 132.746 196.466C136.873 197.956 140.996 198.702 145.871 198.702C150.37 198.702 154.869 197.956 158.992 196.466C160.116 199.447 161.991 202.046 163.867 204.65H163.872Z" fill="white"/>
<path d="M145.876 222.505L135.002 273.846H111.756L106.881 262.313L120.006 254.128L103.505 245.949L107.257 221.024C111.003 219.165 114.755 216.189 118.13 212.839L130.127 236.651L145.881 222.509L145.876 222.505Z" fill="white"/>
<path d="M63.3766 180.47C72.4888 180.47 79.8775 187.799 79.8775 196.839C79.8775 205.878 72.4888 213.207 63.3766 213.207C54.2645 213.207 46.8758 205.878 46.8758 196.839C46.8758 187.799 54.2645 180.47 63.3766 180.47Z" fill="white"/>
<path d="M242.625 150.337C244.491 150.337 246 151.832 246 153.681C246 155.53 244.486 157.03 242.625 157.03C240.763 157.03 239.249 155.53 239.249 153.681C239.249 151.832 240.758 150.337 242.625 150.337Z" fill="white"/>
<path d="M221.625 196.838C223.491 196.838 225 198.334 225 200.183C225 202.032 223.486 203.532 221.625 203.532C219.763 203.532 218.249 202.032 218.249 200.183C218.249 198.334 219.763 196.838 221.625 196.838Z" fill="white"/>
<path d="M195.75 92.2974C197.616 92.2974 199.125 93.7976 199.125 95.6465C199.125 97.4955 197.616 98.9957 195.75 98.9957C193.884 98.9957 192.375 97.4955 192.375 95.6465C192.375 93.7976 193.884 92.2974 195.75 92.2974Z" fill="white"/>
<path d="M90.375 83C92.2412 83 93.7504 84.5002 93.7504 86.3492C93.7504 88.1982 92.2412 89.6984 90.375 89.6984C88.5087 89.6984 86.9996 88.1982 86.9996 86.3492C86.9996 84.5002 88.5087 83 90.375 83Z" fill="white"/>
<path d="M69.3752 138.799C71.2414 138.799 72.7506 140.299 72.7506 142.148C72.7506 143.997 71.2367 145.497 69.3752 145.497C67.5137 145.497 65.9998 143.997 65.9998 142.148C65.9998 140.299 67.509 138.799 69.3752 138.799Z" fill="white"/>
<path d="M48.3754 241.109C50.2416 241.109 51.7508 242.609 51.7508 244.458C51.7508 246.307 50.2369 247.807 48.3754 247.807C46.5139 247.807 45 246.307 45 244.458C45 242.609 46.5139 241.109 48.3754 241.109Z" fill="white"/>
<path d="M107.623 199.442C108.371 200.183 109.875 200.183 110.999 199.442C111.751 198.697 111.751 197.206 110.999 196.093C91.8746 177.121 91.8746 146.242 110.999 127.27C130.123 108.298 161.249 108.298 180.373 127.27C199.497 146.242 199.497 177.121 180.373 196.093C179.625 196.838 179.625 198.324 180.373 199.442C181.12 200.183 182.62 200.183 183.748 199.442C204.748 178.607 204.748 144.757 183.748 123.921C162.748 103.09 128.623 103.09 107.623 123.921C97.4971 133.969 91.8699 147.36 91.8699 161.866C91.8699 176.371 97.4971 189.395 107.623 199.442Z" fill="white"/>
</g>
<path d="M205.5 273.473H180.001L186.752 261.94L171.751 253.756L188.252 245.571L184.5 220.646C184.876 220.646 184.876 221.019 185.252 221.019L210.375 231.807C216.75 234.411 222.377 241.482 226.124 249.293C229.875 257.11 232.127 266.407 232.127 273.473H205.5Z" fill="url(#paint1_linear_238_2242)" stroke="white" stroke-width="6.19824" stroke-miterlimit="10"/>
<path d="M107.999 161.866C107.999 141.403 124.872 124.662 145.495 124.662C166.119 124.662 182.996 141.403 182.996 161.866C182.996 182.329 166.124 199.07 145.495 199.07C124.867 199.07 107.999 182.329 107.999 161.866Z" fill="url(#paint2_linear_238_2242)" stroke="white" stroke-width="6.19824" stroke-miterlimit="10"/>
<path d="M172.503 213.58L163.505 236.269L146.257 222.132L163.881 204.646C166.505 207.995 169.132 210.971 172.508 213.575L172.503 213.58Z" fill="url(#paint3_linear_238_2242)" stroke="white" stroke-width="6.19824" stroke-miterlimit="10"/>
<path d="M145.876 222.504L158.625 273.473H135.379L145.876 222.504Z" fill="url(#paint4_linear_238_2242)" stroke="white" stroke-width="6.19824" stroke-linecap="round" stroke-linejoin="round"/>
<path d="M145.876 222.504L130.504 236.646L118.502 212.834C121.501 209.858 124.505 206.881 126.752 203.905L145.876 222.504Z" fill="url(#paint5_linear_238_2242)" stroke="white" stroke-width="6.19824" stroke-miterlimit="10"/>
<path d="M83.629 273.473H60.0012C60.0012 259.336 68.623 237.387 81.3771 231.807L106.5 221.019C106.876 221.019 106.876 220.646 107.252 220.646L103.5 245.571L120.001 253.756L106.876 261.94L111.751 273.473H83.6242H83.629Z" fill="url(#paint6_linear_238_2242)" stroke="white" stroke-width="6.19824" stroke-miterlimit="10"/>
<path d="M141.753 170.055C140.249 169.682 138.373 168.941 137.25 167.823C136.878 167.451 136.502 167.078 136.126 167.078L133.127 173.404C136.502 175.635 140.63 176.748 144.376 177.126V182.333H147.376V177.126C148.88 177.126 149.999 176.753 151.503 176.38C152.627 176.008 153.75 175.267 154.879 174.522C156.002 173.776 156.755 172.663 157.131 171.545C157.878 170.427 157.878 168.941 157.878 167.451C157.878 163.729 156.374 161.125 152.251 159.267C149.252 158.153 147.376 157.781 146.624 157.408V151.455C147.371 151.455 148.123 151.828 149.247 152.2C150.37 152.573 151.87 153.313 152.998 154.059C153.374 154.431 153.746 154.431 153.746 154.804L156.745 148.851C155.621 148.106 154.122 147.365 152.246 146.62C150.746 145.875 148.871 145.507 146.995 145.507V141.04H143.996V145.507C139.873 145.879 136.493 147.738 134.622 151.46C134.25 152.573 133.874 154.064 133.874 155.549C133.874 158.899 135.379 161.13 138.373 162.62C139.497 162.993 140.625 163.734 142.125 164.111L144.376 164.852V170.805C144 170.805 142.872 170.432 141.753 170.059V170.055ZM147.004 165.587C148.128 165.96 148.88 166.333 149.628 166.701C150.375 167.073 150.375 167.819 150.375 168.559C150.375 170.05 149.252 170.795 147 170.795V165.587H147.004ZM142.505 156.285C142.129 155.913 141.758 155.172 141.758 154.427C141.758 152.941 142.882 152.196 144.757 151.823V157.031C144.01 157.031 143.258 156.658 142.51 156.285H142.505Z" fill="white"/>
</g>
<defs>
<linearGradient id="paint0_linear_238_2242" x1="145.333" y1="0" x2="145.333" y2="290" gradientUnits="userSpaceOnUse">
<stop stop-color="#FF922E"/>
<stop offset="1" stop-color="#FDB471"/>
</linearGradient>
<linearGradient id="paint1_linear_238_2242" x1="171.746" y1="247.057" x2="232.122" y2="247.057" gradientUnits="userSpaceOnUse">
<stop stop-color="#FE7A00"/>
<stop offset="1" stop-color="#FFC188"/>
</linearGradient>
<linearGradient id="paint2_linear_238_2242" x1="107.999" y1="161.866" x2="183.001" y2="161.866" gradientUnits="userSpaceOnUse">
<stop stop-color="#FE7A00"/>
<stop offset="1" stop-color="#FFC188"/>
</linearGradient>
<linearGradient id="paint3_linear_238_2242" x1="146.252" y1="220.46" x2="172.503" y2="220.46" gradientUnits="userSpaceOnUse">
<stop stop-color="#FE7A00"/>
<stop offset="1" stop-color="#FFC188"/>
</linearGradient>
<linearGradient id="paint4_linear_238_2242" x1="135.379" y1="247.989" x2="158.625" y2="247.989" gradientUnits="userSpaceOnUse">
<stop stop-color="#FE7A00"/>
<stop offset="1" stop-color="#FFC188"/>
</linearGradient>
<linearGradient id="paint5_linear_238_2242" x1="118.502" y1="220.273" x2="145.876" y2="220.273" gradientUnits="userSpaceOnUse">
<stop stop-color="#FE7A00"/>
<stop offset="1" stop-color="#FFC188"/>
</linearGradient>
<linearGradient id="paint6_linear_238_2242" x1="60.0012" y1="83" x2="120.001" y2="83" gradientUnits="userSpaceOnUse">
<stop stop-color="#FE7A00"/>
<stop offset="1" stop-color="#FFC188"/>
</linearGradient>
<clipPath id="clip0_238_2242">
<rect width="201" height="192.145" fill="white" transform="translate(45 83)"/>
</clipPath>
</defs>
</svg>
