<svg width="290" height="290" viewBox="0 0 290 290" fill="none" xmlns="http://www.w3.org/2000/svg">
<rect width="290" height="290" rx="29.0909" fill="url(#paint0_linear_283_639)"/>
<path d="M109.52 63.44C108.027 63.4933 107.107 62.96 106.76 61.84C106.28 60.24 107.053 59.4667 109.08 59.52C109.24 59.52 109.387 59.52 109.52 59.52C109.947 59.52 110.16 59.3333 110.16 58.96V44.24H103.32C101.987 44.24 101.32 43.56 101.32 42.2C101.32 40.8667 101.987 40.2 103.32 40.2H107.72H114.16L114.56 38.32H107.32L107.28 38.4C107.2 38.64 107.013 38.8267 106.72 38.96C106.453 39.0933 106.173 39.1333 105.88 39.08C105 38.9467 104.32 38.6933 103.84 38.32C103.28 37.8667 103.107 37.2933 103.32 36.6C103.933 34.4133 104.64 31.6 105.44 28.16C105.733 26.8267 106.56 26.2267 107.92 26.36C109.467 26.52 110.067 27.3733 109.72 28.92L109.68 29.12H117.68C118.507 29.12 119.147 29.3733 119.6 29.88C120.053 30.3867 120.213 31.0533 120.08 31.88C119.76 34.0133 119.253 36.7867 118.56 40.2H121.04C122.373 40.2 123.04 40.8667 123.04 42.2C123.04 43.56 122.373 44.24 121.04 44.24H114.48C114.96 46.08 115.48 47.6533 116.04 48.96C116.947 48.08 117.747 47.2667 118.44 46.52C118.92 45.9333 119.387 45.6267 119.84 45.6C120.32 45.5733 120.867 45.8 121.48 46.28C122.653 47.2667 122.64 48.3067 121.44 49.4C120.027 50.68 118.853 51.6667 117.92 52.36C118.88 53.8267 120.013 55.08 121.32 56.12C122.2 56.6533 122.733 57.2133 122.92 57.8C123.133 58.4133 122.96 59.1067 122.4 59.88C121.92 60.5467 121.4 60.88 120.84 60.88C120.333 60.9067 119.72 60.6533 119 60.12C117.187 58.52 115.667 56.4533 114.44 53.92V59C114.44 60.0667 114.32 60.88 114.08 61.44C113.84 62 113.4 62.44 112.76 62.76C112.013 63.1333 110.933 63.36 109.52 63.44ZM94.2 63.48C92.84 63.48 92.16 62.8133 92.16 61.48V47.24L88.72 47.52C87.36 47.6533 86.6 47.04 86.44 45.68C86.28 44.2667 86.92 43.52 88.36 43.44L89.04 43.4C89.5733 42.76 90.1733 41.9733 90.84 41.04C90.0667 39.7867 88.9467 38.3333 87.48 36.68C87.1067 36.28 86.96 35.76 87.04 35.12C87.0933 34.56 87.3067 34.0267 87.68 33.52C87.92 33.2 88.2 32.9733 88.52 32.84C88.8667 32.7333 89.2 32.8133 89.52 33.08C90.32 31.5067 91.04 29.8533 91.68 28.12C91.92 27.4267 92.24 26.9867 92.64 26.8C93.0667 26.6133 93.64 26.64 94.36 26.88C95.7467 27.36 96.08 28.3067 95.36 29.72C94.1067 32.2267 92.9733 34.24 91.96 35.76C92.36 36.1867 92.7867 36.7067 93.24 37.32C94.3067 35.6133 95.2 34.04 95.92 32.6C96.24 31.96 96.6133 31.5867 97.04 31.48C97.4667 31.3467 98 31.4267 98.64 31.72C100 32.3333 100.267 33.2667 99.44 34.52C97.28 37.7733 95.2267 40.6533 93.28 43.16L96.72 42.96C96.6933 42.8533 96.6267 42.7067 96.52 42.52C96.44 42.3067 96.3733 42.16 96.32 42.08C95.7067 40.9333 96.0133 40.12 97.24 39.64C98.28 39.2133 99.0667 39.5067 99.6 40.52C100.72 42.76 101.547 44.7867 102.08 46.6C102.213 47.1067 102.52 47.16 103 46.76L104.08 45.84C104.64 45.36 105.187 45.36 105.72 45.84C106.707 46.72 107.6 47.6133 108.4 48.52C109.093 49.48 108.96 50.3733 108 51.2C106.773 52.2667 105.733 52.1867 104.88 50.96C103.893 49.76 102.88 48.68 101.84 47.72L101.88 47.68L100.2 48.44C99.7733 48.6267 99.4 48.6533 99.08 48.52C98.76 48.3867 98.5467 48.1067 98.44 47.68C98.3867 47.4933 98.3067 47.1867 98.2 46.76L96.2 46.92V55.2V61.48C96.2 62.8133 95.5333 63.48 94.2 63.48ZM104.08 60.08C102.747 61.04 101.613 60.6933 100.68 59.04C100.093 57.9467 100.28 57.1333 101.24 56.6L99.68 57.12C99.28 57.2533 98.9467 57.2533 98.68 57.12C98.44 56.96 98.2933 56.7067 98.24 56.36C98 55.1333 97.64 53.72 97.16 52.12C96.7333 50.9733 97.1067 50.2133 98.28 49.84C99.32 49.52 100.04 49.8667 100.44 50.88C101.16 52.8 101.627 54.5867 101.84 56.24C102.827 55.6533 104.467 54.6133 106.76 53.12C107.347 52.7467 107.867 52.6267 108.32 52.76C108.8 52.8933 109.173 53.2933 109.44 53.96C109.84 54.9467 109.64 55.76 108.84 56.4C108.52 56.64 108.04 57.0133 107.4 57.52C106.787 58 106.32 58.36 106 58.6C105.76 58.7867 105.413 59.0533 104.96 59.4C104.56 59.6933 104.267 59.92 104.08 60.08ZM89.04 59.88C88.6667 60.0133 88.16 59.9333 87.52 59.64C86.9067 59.32 86.52 58.9733 86.36 58.6C86.2 58.2267 86.2533 57.72 86.52 57.08C86.9467 55.7467 87.3067 53.9333 87.6 51.64C87.76 50.2267 88.4933 49.6267 89.8 49.84C91 50.0533 91.5333 50.7467 91.4 51.92C91.24 53.1733 91.0133 54.4667 90.72 55.8C90.4533 56.92 90.2 57.8533 89.96 58.6C89.72 59.2933 89.4133 59.72 89.04 59.88ZM108.28 34.76H111.72H115.16L115.36 33.6C115.467 32.9867 115.213 32.68 114.6 32.68H108.84L108.28 34.76ZM131.04 63.44C129.573 63.44 128.84 62.72 128.84 61.28V43.08C128.84 42.3067 129.08 41.68 129.56 41.2C130.04 40.72 130.667 40.48 131.44 40.48H136.28H141.16C141.933 40.48 142.56 40.72 143.04 41.2C143.52 41.68 143.76 42.3067 143.76 43.08V58.64C143.76 59.7067 143.64 60.5333 143.4 61.12C143.133 61.76 142.693 62.24 142.08 62.56C141.307 62.9867 140.213 63.24 138.8 63.32C137.307 63.3733 136.347 62.8267 135.92 61.68C135.333 60 136.093 59.16 138.2 59.16C138.307 59.16 138.413 59.16 138.52 59.16C138.76 59.16 138.92 59.12 139 59.04C139.08 58.96 139.12 58.8 139.12 58.56V55.88H133.2V61.28C133.2 62.72 132.48 63.44 131.04 63.44ZM152.68 63.2C150.387 63.2 148.853 62.7867 148.08 61.96C147.307 61.1867 146.92 59.68 146.92 57.44V51.16V47.16C146.92 45.64 147.693 44.88 149.24 44.88C150.76 44.88 151.52 45.64 151.52 47.16V50.28C153.973 49.2667 155.92 48.3467 157.36 47.52C157.947 47.1467 158.467 47 158.92 47.08C159.4 47.16 159.88 47.48 160.36 48.04C160.973 48.7333 161.24 49.3333 161.16 49.84C161.08 50.32 160.627 50.76 159.8 51.16C157.507 52.2267 154.747 53.2533 151.52 54.24V57.44C151.52 58.1333 151.627 58.5733 151.84 58.76C152.053 58.9467 152.56 59.04 153.36 59.04H157.88C158.413 59.04 158.8 58.8667 159.04 58.52C159.227 57.3467 159.547 56.4667 160 55.88C160.587 55.1333 161.307 54.9467 162.16 55.32C162.72 55.56 163.107 56.0933 163.32 56.92C163.48 57.6133 163.493 58.36 163.36 59.16C163.013 60.68 162.453 61.7333 161.68 62.32C160.933 62.9067 159.813 63.2 158.32 63.2H152.68ZM133.2 52.36H139.12V50H136.16H133.2V52.36ZM133.2 46.48H136.16H139.12V45.32C139.12 44.7067 138.813 44.4 138.2 44.4H134.16C133.52 44.4 133.2 44.72 133.2 45.36V46.48ZM152.64 44.08C150.373 44.08 148.84 43.6667 148.04 42.84C147.293 42.04 146.92 40.52 146.92 38.28V32.28V28.56C146.92 27.0133 147.693 26.24 149.24 26.24C150.787 26.24 151.56 27.0133 151.56 28.56V31.96C153.32 31.2933 155.187 30.4533 157.16 29.44C157.72 29.1467 158.227 29.0533 158.68 29.16C159.107 29.2933 159.547 29.6133 160 30.12C161.147 31.4267 160.947 32.4267 159.4 33.12C157.24 33.9733 154.627 34.88 151.56 35.84V38.2C151.56 38.92 151.653 39.3733 151.84 39.56C152.053 39.72 152.547 39.8 153.32 39.8H157.64C158.04 39.8 158.333 39.72 158.52 39.56C158.733 38.44 159.093 37.6267 159.6 37.12C160.187 36.5067 160.92 36.3867 161.8 36.76C162.387 37 162.773 37.5333 162.96 38.36C163.093 39.0533 163.093 39.8 162.96 40.6C162.613 41.9067 162.067 42.8133 161.32 43.32C160.6 43.8267 159.533 44.08 158.12 44.08H152.64ZM144.44 38.92C143.773 39.2133 143.187 39.2667 142.68 39.08C142.173 38.8667 141.8 38.4 141.56 37.68C140.573 37.7333 139.093 37.8267 137.12 37.96C135.627 38.0667 134.52 38.1467 133.8 38.2C133.107 38.2267 132.107 38.28 130.8 38.36C129.973 38.4133 129.36 38.4533 128.96 38.48C127.573 38.56 126.827 37.88 126.72 36.44C126.587 34.8667 127.293 34.0667 128.84 34.04C129 34.0133 129.253 34 129.6 34C130.453 32.1067 131.187 30.16 131.8 28.16C132.253 26.6933 133.24 26.12 134.76 26.44C136.547 26.7867 137.067 27.84 136.32 29.6C135.467 31.52 134.84 32.92 134.44 33.8L139.68 33.56C139.6 33.4267 139.48 33.2267 139.32 32.96C139.187 32.6667 139.08 32.4533 139 32.32C138.2 30.96 138.56 29.9867 140.08 29.4C141.227 28.9467 142.12 29.24 142.76 30.28C144.067 32.36 145.133 34.36 145.96 36.28C146.36 37.4267 145.853 38.3067 144.44 38.92ZM177.2 63.56C175.813 63.56 175.12 62.8667 175.12 61.48V50.2C174.613 54.3333 173.453 57.88 171.64 60.84C171.08 61.5867 170.547 62.0267 170.04 62.16C169.507 62.2933 168.92 62.0667 168.28 61.48C167.213 60.52 167.2 59.28 168.24 57.76C170.24 54.2933 171.24 49.4667 171.24 43.28V38.32C171.24 37.44 171.493 36.8 172 36.4C172.533 35.9733 173.227 35.8533 174.08 36.04L174.28 36.08C178.413 35.9467 182.267 35.7467 185.84 35.48C185.547 35.32 185.067 35.0533 184.4 34.68C184.08 34.4933 183.84 34.36 183.68 34.28C183.253 34.0667 183.027 33.8 183 33.48C182.973 33.16 183.187 32.8 183.64 32.4L178.76 32.48C179.32 33.6533 178.947 34.4267 177.64 34.8C176.147 35.2533 175.12 34.8 174.56 33.44C174.453 33.2267 174.267 32.88 174 32.4H173.36C172.933 33.0133 172.373 33.72 171.68 34.52C170.72 35.5067 169.68 35.6267 168.56 34.88C167.787 34.3467 167.387 33.8133 167.36 33.28C167.36 32.7467 167.72 32.1467 168.44 31.48C169.56 30.28 170.493 29.0133 171.24 27.68C171.853 26.4267 172.907 26 174.4 26.4C175.84 26.8 176.24 27.6267 175.6 28.88H182.8C183.307 28.88 183.707 29.0267 184 29.32C184.293 29.6133 184.44 30.0133 184.44 30.52V30.64C184.44 31.2533 184.653 31.3333 185.08 30.88C185.96 29.84 186.707 28.76 187.32 27.64C187.907 26.4133 188.933 25.9733 190.4 26.32C191.093 26.48 191.56 26.7867 191.8 27.24C192.067 27.6667 192.04 28.2133 191.72 28.88H201.04C202.213 28.88 202.8 29.4667 202.8 30.64C202.8 31.8133 202.213 32.4 201.04 32.4H196.84C197.08 32.7467 197.32 33.1067 197.56 33.48C197.693 33.6667 197.707 33.8533 197.6 34.04C197.52 34.2267 197.347 34.36 197.08 34.44L196.68 34.56L198.16 36.08C198.56 36.48 198.72 36.8267 198.64 37.12C198.587 37.4133 198.333 37.6 197.88 37.68C191.613 38.6133 184.173 39.1467 175.56 39.28V40.36H197C197.773 40.36 198.4 40.6 198.88 41.08C199.36 41.56 199.6 42.1867 199.6 42.96V46.04C199.6 46.8133 199.36 47.44 198.88 47.92C198.4 48.4 197.773 48.64 197 48.64H175.32C175.32 48.8 175.293 49.04 175.24 49.36C175.213 49.6533 175.187 49.88 175.16 50.04H188.04H198.32C199.093 50.04 199.72 50.28 200.2 50.76C200.68 51.24 200.92 51.8667 200.92 52.64V59.72C200.92 60.68 200.827 61.3867 200.64 61.84C200.427 62.32 200.027 62.6933 199.44 62.96C198.88 63.2533 197.96 63.4267 196.68 63.48C195.4 63.5333 194.613 63.08 194.32 62.12C193.867 60.7867 194.44 60.1467 196.04 60.2C196.36 60.1733 196.52 60.0133 196.52 59.72V58.28H193.28V61.32C193.28 62.6 192.64 63.24 191.36 63.24C190.08 63.24 189.44 62.6 189.44 61.32V58.28H186.28V61.32C186.28 62.6 185.64 63.24 184.36 63.24C183.08 63.24 182.44 62.6 182.44 61.32V58.28H179.28V61.48C179.28 62.8667 178.587 63.56 177.2 63.56ZM179.28 55.16H180.84H182.44V53.4H179.28V55.16ZM186.28 55.16H189.44V53.4H187.84H186.28V55.16ZM193.28 55.16H194.88H196.52V54.16C196.52 53.6533 196.267 53.4 195.76 53.4H193.28V55.16ZM175.52 45.48H185.32H194.2C194.84 45.48 195.16 45.16 195.16 44.52V44.4C195.16 43.84 194.88 43.56 194.32 43.56H175.56C175.56 44.3867 175.547 45.0267 175.52 45.48ZM186.8 35.44C187.147 35.4133 187.667 35.36 188.36 35.28C189.16 35.2267 189.76 35.1733 190.16 35.12C191.013 35.0667 192.04 34.96 193.24 34.8C192.92 34.24 192.4 33.44 191.68 32.4H189.48C188.733 33.3867 187.84 34.4 186.8 35.44Z" fill="white"/>
<g clip-path="url(#clip0_283_639)">
<path opacity="0.57" d="M136.118 232.164L152.745 213.553V214.426C152.745 215.344 153.481 216.088 154.391 216.088H189.824C189.973 216.093 190.526 216.113 191.426 216.113C218.885 216.113 233.791 204.249 237.706 200.611C238.211 200.142 238.374 199.428 238.127 198.784C237.879 198.14 237.276 197.721 236.594 197.721C236.337 197.721 236.08 197.781 235.852 197.901C232.738 199.483 216.709 207.024 192.059 208.312C189.715 208.437 187.505 207.214 186.334 205.163L185.74 204.129C184.015 201.11 185.038 197.252 188.025 195.51L221.109 176.194C224.101 174.448 227.927 175.481 229.658 178.5L236.263 190.05C239.199 195.185 239.199 201.564 236.263 206.7L207.088 257.714C204.152 262.849 198.679 266.039 192.805 266.039H154.396C153.486 266.039 152.75 266.782 152.75 267.701V268L136.123 249.388C131.753 244.492 131.753 237.055 136.123 232.159L136.118 232.164Z" fill="white"/>
<path opacity="0.57" d="M164.778 170.669C165.51 170.2 165.757 169.217 165.322 168.448L142.882 129.183C142.076 127.526 129.31 101.937 106.598 94.0713L106.351 93.9864H106.064C105.342 93.9864 104.709 94.4506 104.492 95.1494C104.274 95.8481 104.531 96.5968 105.125 97.011C108.002 99.0324 122.305 109.743 135.214 131.185C136.4 133.151 136.42 135.622 135.283 137.613C133.557 140.633 129.731 141.666 126.74 139.924L93.6448 120.629C90.6538 118.887 89.6304 115.024 91.3558 112.004L98.0351 100.325C100.977 95.1743 106.42 92 112.313 92H170.662C176.535 92 182.008 95.1893 184.945 100.33L209.224 142.799C209.516 143.313 210.065 143.633 210.653 143.633C210.945 143.633 211.232 143.553 211.484 143.408L211.598 143.343L204.503 167.23C202.595 173.664 196.103 177.527 189.602 176.104L164.778 170.674V170.669Z" fill="white"/>
<path opacity="0.57" d="M90.1791 266.038C87.544 266.038 84.988 265.395 82.7088 264.222C83.2081 263.962 83.5641 263.458 83.6086 262.864C83.8657 259.34 85.6999 241.512 97.3478 219.422C98.4306 217.366 100.556 216.083 102.865 216.083H114.355C117.811 216.083 120.609 218.908 120.609 222.397V259.725C120.609 263.213 117.811 266.038 114.355 266.038H90.1841H90.1791ZM80.2714 262.689C78.5213 261.362 77.0233 259.68 75.896 257.713L46.7218 206.705C43.7851 201.564 43.7851 195.18 46.7218 190.044L71.046 147.57C71.5009 146.772 71.229 145.754 70.4429 145.295L70.166 145.135L94.7078 139.779C101.155 138.372 107.597 142.165 109.559 148.519L116.951 172.441C116.773 172.376 116.585 172.346 116.397 172.346C115.809 172.346 115.26 172.666 114.968 173.18L91.6821 213.832C90.9405 214.995 87.3462 220.834 84.2118 229.189C81.0526 237.604 77.8242 250.212 80.2616 262.689H80.2714Z" fill="white"/>
<path d="M121.885 241.537L117.895 236.272C106.988 221.882 103.295 206.994 106.929 192.021C110.672 176.593 121.969 161.615 140.508 147.51C154.079 137.184 166.434 131.304 166.954 131.06L179.427 125.17L172.229 137.024C166.86 145.868 168.303 157.992 169.831 170.829C171.21 182.428 172.639 194.421 169.539 205.951C165.935 219.342 156.784 229.499 141.552 237.01C140.068 237.729 138.15 238.468 136.113 239.251C134.017 240.06 131.847 240.893 130.304 241.652L118.834 247.322L121.885 241.542V241.537ZM126.542 225.176C126.062 228.086 125.642 231.096 125.281 234.22L125.167 235.223C125.958 233.247 126.295 230.477 126.354 229.658V229.504L126.359 229.449C126.403 228.001 126.463 226.584 126.542 225.176Z" fill="white"/>
<path d="M168.704 134.838C168.704 134.838 78.5063 177.432 121.177 233.731C123.303 215.349 130.349 179.508 153.555 156.46C153.555 156.46 131.832 182.813 130.492 229.694C130.492 229.699 130.492 229.704 130.492 229.709C130.492 229.734 130.492 229.773 130.492 229.828C130.492 230.008 130.131 234.789 128.495 237.899C131.733 236.297 136.983 234.6 139.747 233.252C190.269 208.342 152.438 161.635 168.714 134.838H168.704Z" fill="url(#paint1_linear_283_639)"/>
<path opacity="0.57" d="M245.355 101.927C251.668 101.927 256.79 107.038 256.79 113.342C256.79 119.646 251.668 124.751 245.355 124.751C239.041 124.751 233.919 119.641 233.919 113.342C233.919 107.043 239.036 101.927 245.355 101.927Z" fill="white"/>
<path opacity="0.57" d="M47.231 107.093C56.1944 107.093 63.462 114.345 63.462 123.294C63.462 132.243 56.1944 139.49 47.231 139.49C38.2676 139.49 31 132.238 31 123.294C31 114.35 38.2676 107.093 47.231 107.093Z" fill="white"/>
<path opacity="0.57" d="M255.678 154.942C257.512 154.942 259 156.425 259 158.251C259 160.078 257.512 161.566 255.678 161.566C253.844 161.566 252.36 160.083 252.36 158.251C252.36 156.42 253.844 154.942 255.678 154.942Z" fill="white"/>
<path opacity="0.57" d="M238.463 244.767C240.297 244.767 241.785 246.249 241.785 248.076C241.785 249.902 240.297 251.39 238.463 251.39C236.629 251.39 235.146 249.907 235.146 248.076C235.146 246.244 236.634 244.767 238.463 244.767Z" fill="white"/>
<path opacity="0.57" d="M209.57 97.5103C211.405 97.5103 212.888 98.9976 212.888 100.824C212.888 102.651 211.405 104.138 209.57 104.138C207.736 104.138 206.253 102.656 206.253 100.824C206.253 98.9926 207.736 97.5103 209.57 97.5103Z" fill="white"/>
<path opacity="0.57" d="M41.1995 161.191C43.0337 161.191 44.5169 162.674 44.5169 164.505C44.5169 166.337 43.0337 167.82 41.1995 167.82C39.3653 167.82 37.8821 166.337 37.8821 164.505C37.8821 162.674 39.3653 161.191 41.1995 161.191Z" fill="white"/>
<path opacity="0.57" d="M77.1072 94.1963C78.9414 94.1963 80.4295 95.6836 80.4295 97.5104C80.4295 99.3371 78.9414 100.824 77.1072 100.824C75.273 100.824 73.7898 99.3421 73.7898 97.5104C73.7898 95.6786 75.273 94.1963 77.1072 94.1963Z" fill="white"/>
<path opacity="0.57" d="M50.5483 251.395C52.3825 251.395 53.8707 252.882 53.8707 254.709C53.8707 256.535 52.3825 258.023 50.5483 258.023C48.7141 258.023 47.231 256.54 47.231 254.709C47.231 252.877 48.7191 251.395 50.5483 251.395Z" fill="white"/>
</g>
<defs>
<linearGradient id="paint0_linear_283_639" x1="145" y1="0" x2="145" y2="290" gradientUnits="userSpaceOnUse">
<stop stop-color="#FF922E"/>
<stop offset="1" stop-color="#FDB471"/>
</linearGradient>
<linearGradient id="paint1_linear_283_639" x1="109.712" y1="186.371" x2="168.704" y2="186.371" gradientUnits="userSpaceOnUse">
<stop stop-color="#FE7A00"/>
<stop offset="1" stop-color="#FFC188"/>
</linearGradient>
<clipPath id="clip0_283_639">
<rect width="228" height="176" fill="white" transform="translate(31 92)"/>
</clipPath>
</defs>
</svg>
