<svg width="290" height="290" viewBox="0 0 290 290" fill="none" xmlns="http://www.w3.org/2000/svg">
<rect width="290" height="290" rx="29.0909" fill="url(#paint0_linear_283_655)"/>
<path d="M93.88 63.48C92.5467 63.48 91.88 62.8267 91.88 61.52V47.28L88.72 47.52C87.36 47.6533 86.6 47.04 86.44 45.68C86.28 44.2667 86.9067 43.52 88.32 43.44C88.4267 43.44 88.5867 43.44 88.8 43.44C89.0133 43.4133 89.1867 43.4 89.32 43.4C89.9333 42.5467 90.4667 41.7733 90.92 41.08C90.2267 39.8533 89.0667 38.32 87.44 36.48C87.0933 36.1067 86.9467 35.6267 87 35.04C87.0533 34.5067 87.2533 34 87.6 33.52C87.8667 33.1733 88.1733 32.9467 88.52 32.84C88.8933 32.7333 89.2267 32.8267 89.52 33.12C90.16 31.84 90.8933 30.16 91.72 28.08C91.9333 27.4133 92.24 26.9867 92.64 26.8C93.04 26.5867 93.5867 26.6 94.28 26.84C95.64 27.3467 95.9733 28.2933 95.28 29.68C93.9733 32.1867 92.8533 34.2 91.92 35.72C92.4267 36.3067 92.8533 36.8533 93.2 37.36C94 36.0267 94.8667 34.4267 95.8 32.56C96.3067 31.4133 97.1733 31.12 98.4 31.68C99.7067 32.2667 99.9867 33.16 99.24 34.36C98.0667 36.2267 96.7867 38.1733 95.4 40.2L97.08 39.52C98.0133 39.1467 98.72 39.4267 99.2 40.36C100.24 42.6 100.973 44.6133 101.4 46.4C101.507 46.88 101.467 47.2667 101.28 47.56C101.093 47.8 100.76 48.0267 100.28 48.24C99 48.8 98.2267 48.4 97.96 47.04C97.96 47.0133 97.9467 46.9733 97.92 46.92C97.92 46.8667 97.9067 46.8267 97.88 46.8L95.84 46.96V55.24V61.52C95.84 62.8267 95.1867 63.48 93.88 63.48ZM110.92 63.24C109.16 63.24 108 62.8933 107.44 62.2C106.907 61.56 106.64 60.2933 106.64 58.4V54.68C106.64 53.9067 106.88 53.28 107.36 52.8C107.84 52.32 108.467 52.08 109.24 52.08H110.4C110.027 51.7867 109.44 51.3733 108.64 50.84C108.187 50.5467 107.947 50.2133 107.92 49.84C107.893 49.44 108.093 49.0667 108.52 48.72L108.72 48.56H104.32C103.547 48.56 102.92 48.32 102.44 47.84C101.96 47.36 101.72 46.7333 101.72 45.96V32.44C101.72 31.6667 101.96 31.04 102.44 30.56C102.92 30.08 103.547 29.84 104.32 29.84H109.2C109.387 29.3067 109.533 28.84 109.64 28.44C109.853 27.6133 110.173 27.04 110.6 26.72C111.053 26.3733 111.693 26.2533 112.52 26.36C113.507 26.4933 114.12 26.8133 114.36 27.32C114.627 27.8267 114.547 28.5467 114.12 29.48C114.093 29.5067 114.053 29.56 114 29.64C113.973 29.72 113.947 29.7867 113.92 29.84H119.64C120.413 29.84 121.04 30.08 121.52 30.56C122 31.04 122.24 31.6667 122.24 32.44V45.96C122.24 46.7333 122 47.36 121.52 47.84C121.04 48.32 120.413 48.56 119.64 48.56H116.92H111.64C112.84 49.28 113.947 50.04 114.96 50.84C115.413 51.2933 115.613 51.72 115.56 52.12C115.507 52.4933 115.227 52.8933 114.72 53.32C113.76 54.1733 112.853 54.1867 112 53.36C111.947 53.3333 111.88 53.28 111.8 53.2C111.267 52.7733 110.867 52.4533 110.6 52.24V58.4C110.6 58.88 110.653 59.1867 110.76 59.32C110.867 59.4267 111.107 59.48 111.48 59.48H113.8C114.2 59.48 114.453 59.28 114.56 58.88C114.747 57.3333 115.2 56.7867 115.92 57.24C116.027 57.2933 116.2 57.3733 116.44 57.48C116.493 57.5067 116.533 57.52 116.56 57.52C117.76 57.92 118.187 59.0133 117.84 60.8C117.52 61.7067 117.08 62.3467 116.52 62.72C115.987 63.0667 115.24 63.24 114.28 63.24H110.92ZM103.8 61.12C103.16 61.8933 102.373 62.04 101.44 61.56C100.107 60.84 99.8533 59.8933 100.68 58.72C101.32 57.52 101.8 56.1733 102.12 54.68C102.227 54.0133 102.48 53.52 102.88 53.2C103.28 52.88 103.8 52.8 104.44 52.96C105.56 53.2533 106.027 53.9733 105.84 55.12C105.627 56.3467 105.373 57.44 105.08 58.4C104.787 59.3333 104.36 60.24 103.8 61.12ZM122.4 61.2C121.707 61.5467 121.147 61.64 120.72 61.48C120.293 61.3467 119.973 60.92 119.76 60.2C119.52 59.4267 119.213 58.6667 118.84 57.92C118.413 56.9333 117.947 56.0133 117.44 55.16C116.72 54.04 116.973 53.1733 118.2 52.56C119.213 52.0533 120.027 52.2667 120.64 53.2C121.867 55.0933 122.827 57.0267 123.52 59C123.68 59.5333 123.667 59.9733 123.48 60.32C123.293 60.64 122.933 60.9333 122.4 61.2ZM88.88 59.84C88.5333 59.9733 88.0667 59.8933 87.48 59.6C86.8933 59.3067 86.52 58.9867 86.36 58.64C86.2 58.2667 86.24 57.7867 86.48 57.2C86.96 55.6533 87.3333 53.7733 87.6 51.56C87.76 50.2267 88.48 49.6533 89.76 49.84C90.9067 50.0267 91.4133 50.7067 91.28 51.88C91.0933 53.4533 90.8667 54.7333 90.6 55.72C90.36 56.7867 90.08 57.7867 89.76 58.72C89.52 59.3067 89.2267 59.68 88.88 59.84ZM99.76 57.04C98.5067 57.44 97.7867 57.0267 97.6 55.8C97.52 55.2667 97.4 54.6933 97.24 54.08C97.2133 53.9733 97.1733 53.8133 97.12 53.6C96.9067 52.8267 96.7333 52.24 96.6 51.84C96.2267 50.8 96.5867 50.12 97.68 49.8C98.6667 49.5067 99.3333 49.8133 99.68 50.72C100.213 52.1333 100.64 53.64 100.96 55.24C101.093 56.12 100.693 56.72 99.76 57.04ZM106.36 45.08H108.6C108.28 44.6533 108.04 44.3467 107.88 44.16C107.48 43.76 107.547 43.44 108.08 43.2C109.28 42.6667 110.4 41.8933 111.44 40.88C111.227 40.72 110.867 40.48 110.36 40.16C110.12 40.0267 109.947 39.92 109.84 39.84C109.333 40.4 108.933 40.8 108.64 41.04C107.893 41.6533 107.227 41.68 106.64 41.12C106.213 40.72 106.013 40.36 106.04 40.04C106.093 39.6933 106.36 39.32 106.84 38.92C106.92 38.84 107.027 38.7333 107.16 38.6C107.24 38.52 107.293 38.4667 107.32 38.44C107.24 38.3867 107.16 38.3467 107.08 38.32C106.013 37.7867 105.893 37.1333 106.72 36.36C107.227 35.8533 107.827 35.76 108.52 36.08C108.573 36.1067 108.653 36.16 108.76 36.24C108.893 36.2933 108.987 36.3333 109.04 36.36C109.733 35.3733 110.267 34.3467 110.64 33.28H106.36C105.72 33.28 105.4 33.6 105.4 34.24V39.2V44.12C105.4 44.76 105.72 45.08 106.36 45.08ZM110.56 45.08H114.44H117.4C118.04 45.08 118.36 44.76 118.36 44.12V34.24C118.36 33.6 118.04 33.28 117.4 33.28H111.8L112.8 33.4C113.253 33.48 113.4 33.7333 113.24 34.16C113.16 34.3467 113.08 34.5467 113 34.76H115.64C116.36 34.76 116.867 34.9867 117.16 35.44C117.453 35.8667 117.48 36.4933 117.24 37.32C116.867 38.36 116.347 39.36 115.68 40.32C115.733 40.3733 115.827 40.44 115.96 40.52C116.333 40.7867 116.613 40.9867 116.8 41.12C117.6 41.7333 117.64 42.4133 116.92 43.16C116.227 43.88 115.52 43.92 114.8 43.28C114.533 43.04 114.213 42.8 113.84 42.56C112.88 43.52 111.787 44.36 110.56 45.08ZM93.32 43.16L96.6 42.96C96.2 41.8667 95.8 40.9467 95.4 40.2C95.1067 40.7067 94.76 41.2133 94.36 41.72C94.1467 42.04 93.8 42.52 93.32 43.16ZM113.28 38.76C113.52 38.44 113.72 38.12 113.88 37.8C114.147 37.2933 114 37.04 113.44 37.04H111.84C111.813 37.0667 111.787 37.12 111.76 37.2C111.627 37.4133 111.52 37.5733 111.44 37.68C111.6 37.76 111.827 37.88 112.12 38.04C112.227 38.12 112.307 38.1733 112.36 38.2C112.44 38.2533 112.56 38.32 112.72 38.4C112.987 38.56 113.173 38.68 113.28 38.76ZM131.64 63.12C130.84 63.2 130.107 63.1733 129.44 63.04C128.533 62.88 127.947 62.56 127.68 62.08C127.253 61.3067 127.493 60.68 128.4 60.2C129.093 59.8267 130.053 59.5867 131.28 59.48C133.173 59.24 134.6 58.9067 135.56 58.48C136.467 58.08 137.12 57.52 137.52 56.8H134.88C134.16 56.8 133.573 56.5867 133.12 56.16C132.693 55.7067 132.48 55.12 132.48 54.4V46C132.48 45.2267 132.72 44.6 133.2 44.12C133.68 43.64 134.307 43.4 135.08 43.4H145H154.96C155.733 43.4 156.36 43.64 156.84 44.12C157.32 44.6 157.56 45.2267 157.56 46V54.2C157.56 54.9733 157.32 55.6 156.84 56.08C156.36 56.56 155.733 56.8 154.96 56.8H151.2V58.36C151.2 58.84 151.307 59.1467 151.52 59.28C151.76 59.4133 152.293 59.48 153.12 59.48H157.92C158.213 59.48 158.413 59.4533 158.52 59.4C159.187 57.4533 160.28 56.7467 161.8 57.28C162.893 57.6533 163.24 58.76 162.84 60.6C162.52 61.5067 162 62.1467 161.28 62.52C160.64 62.8667 159.68 63.04 158.4 63.04H152.52C150.2 63.04 148.64 62.7067 147.84 62.04C147.067 61.4267 146.68 60.2133 146.68 58.4V56.8H142.32C141.76 58.56 140.733 59.9067 139.24 60.84C137.613 61.8533 135.08 62.6133 131.64 63.12ZM137.48 54.36H151.92C152.56 54.36 152.88 54.04 152.88 53.4V53.04H144.92H136.96V53.84C136.96 54.1867 137.133 54.36 137.48 54.36ZM136.96 50.72H152.88V49.44H144.92H136.96V50.72ZM136.96 47.12H152.88V46.36C152.88 46.0133 152.707 45.84 152.36 45.84H144.92H137.92C137.28 45.84 136.96 46.16 136.96 46.8V47.12ZM149 42.28C148.227 42.28 147.6 42.04 147.12 41.56C146.64 41.08 146.4 40.4533 146.4 39.68V38.52C146.4 37.7467 146.64 37.12 147.12 36.64C147.6 36.16 148.227 35.92 149 35.92H159.52C160.293 35.92 160.92 36.16 161.4 36.64C161.88 37.12 162.12 37.7467 162.12 38.52V39.68C162.12 40.4533 161.88 41.08 161.4 41.56C160.92 42.04 160.293 42.28 159.52 42.28H154.24H149ZM131 42.2C130.227 42.2 129.6 41.96 129.12 41.48C128.64 41 128.4 40.3733 128.4 39.6V29.92C128.4 29.1467 128.64 28.52 129.12 28.04C129.6 27.56 130.227 27.32 131 27.32H143.24C144.147 27.32 144.6 27.7733 144.6 28.68C144.6 29.5867 144.147 30.04 143.24 30.04H138.92V31.4H143.04C143.547 31.4 143.8 31.6533 143.8 32.16V32.28C145.373 31.0533 146.653 29.5067 147.64 27.64C147.853 27.1333 148.253 26.7867 148.84 26.6C149.347 26.44 149.92 26.4133 150.56 26.52C151.067 26.6 151.44 26.7733 151.68 27.04C151.92 27.3333 151.947 27.7067 151.76 28.16H161.24C162.227 28.16 162.72 28.6533 162.72 29.64C162.72 30.6267 162.227 31.12 161.24 31.12H150.2C150.04 31.3867 149.773 31.76 149.4 32.24H159.64C160.493 32.24 160.92 32.6667 160.92 33.52C160.92 34.4 160.493 34.84 159.64 34.84H150.36C149.853 34.84 149.453 34.6933 149.16 34.4C148.867 34.1067 148.72 33.7067 148.72 33.2V33.08C148.293 33.56 147.933 33.9333 147.64 34.2C147.027 34.7867 146.427 34.7867 145.84 34.2C145.067 33.48 144.387 32.9333 143.8 32.56V35.36C143.8 36.1333 143.56 36.76 143.08 37.24C142.627 37.6933 142.013 37.92 141.24 37.92H138.92V39.56H143.6C144.48 39.56 144.92 40 144.92 40.88C144.92 41.76 144.48 42.2 143.6 42.2H136.64H131ZM150.4 40.12H151V39.12V38.08H150.12C149.72 38.08 149.52 38.28 149.52 38.68V39.24C149.52 39.8267 149.813 40.12 150.4 40.12ZM153.32 40.12H154.92V39.12V38.08H153.32V40.12ZM157.24 40.12H158.16C158.613 40.12 158.84 39.8933 158.84 39.44V39.12V38.48C158.84 38.2133 158.707 38.08 158.44 38.08H157.24V40.12ZM133.08 39.56H135.2V37.92H133.8H132.4V38.88C132.4 39.3333 132.627 39.56 133.08 39.56ZM132.4 35.44H136.12H139.08C139.587 35.44 139.84 35.1867 139.84 34.68V34.56C139.84 34.1333 139.627 33.92 139.2 33.92H132.4V35.44ZM132.4 31.4H133.8H135.2V30.04H133.36C132.72 30.04 132.4 30.36 132.4 31V31.4ZM177.2 63.56C175.813 63.56 175.12 62.8667 175.12 61.48V50.2C174.613 54.3333 173.453 57.88 171.64 60.84C171.08 61.5867 170.547 62.0267 170.04 62.16C169.507 62.2933 168.92 62.0667 168.28 61.48C167.213 60.52 167.2 59.28 168.24 57.76C170.24 54.2933 171.24 49.4667 171.24 43.28V38.32C171.24 37.44 171.493 36.8 172 36.4C172.533 35.9733 173.227 35.8533 174.08 36.04L174.28 36.08C178.413 35.9467 182.267 35.7467 185.84 35.48C185.547 35.32 185.067 35.0533 184.4 34.68C184.08 34.4933 183.84 34.36 183.68 34.28C183.253 34.0667 183.027 33.8 183 33.48C182.973 33.16 183.187 32.8 183.64 32.4L178.76 32.48C179.32 33.6533 178.947 34.4267 177.64 34.8C176.147 35.2533 175.12 34.8 174.56 33.44C174.453 33.2267 174.267 32.88 174 32.4H173.36C172.933 33.0133 172.373 33.72 171.68 34.52C170.72 35.5067 169.68 35.6267 168.56 34.88C167.787 34.3467 167.387 33.8133 167.36 33.28C167.36 32.7467 167.72 32.1467 168.44 31.48C169.56 30.28 170.493 29.0133 171.24 27.68C171.853 26.4267 172.907 26 174.4 26.4C175.84 26.8 176.24 27.6267 175.6 28.88H182.8C183.307 28.88 183.707 29.0267 184 29.32C184.293 29.6133 184.44 30.0133 184.44 30.52V30.64C184.44 31.2533 184.653 31.3333 185.08 30.88C185.96 29.84 186.707 28.76 187.32 27.64C187.907 26.4133 188.933 25.9733 190.4 26.32C191.093 26.48 191.56 26.7867 191.8 27.24C192.067 27.6667 192.04 28.2133 191.72 28.88H201.04C202.213 28.88 202.8 29.4667 202.8 30.64C202.8 31.8133 202.213 32.4 201.04 32.4H196.84C197.08 32.7467 197.32 33.1067 197.56 33.48C197.693 33.6667 197.707 33.8533 197.6 34.04C197.52 34.2267 197.347 34.36 197.08 34.44L196.68 34.56L198.16 36.08C198.56 36.48 198.72 36.8267 198.64 37.12C198.587 37.4133 198.333 37.6 197.88 37.68C191.613 38.6133 184.173 39.1467 175.56 39.28V40.36H197C197.773 40.36 198.4 40.6 198.88 41.08C199.36 41.56 199.6 42.1867 199.6 42.96V46.04C199.6 46.8133 199.36 47.44 198.88 47.92C198.4 48.4 197.773 48.64 197 48.64H175.32C175.32 48.8 175.293 49.04 175.24 49.36C175.213 49.6533 175.187 49.88 175.16 50.04H188.04H198.32C199.093 50.04 199.72 50.28 200.2 50.76C200.68 51.24 200.92 51.8667 200.92 52.64V59.72C200.92 60.68 200.827 61.3867 200.64 61.84C200.427 62.32 200.027 62.6933 199.44 62.96C198.88 63.2533 197.96 63.4267 196.68 63.48C195.4 63.5333 194.613 63.08 194.32 62.12C193.867 60.7867 194.44 60.1467 196.04 60.2C196.36 60.1733 196.52 60.0133 196.52 59.72V58.28H193.28V61.32C193.28 62.6 192.64 63.24 191.36 63.24C190.08 63.24 189.44 62.6 189.44 61.32V58.28H186.28V61.32C186.28 62.6 185.64 63.24 184.36 63.24C183.08 63.24 182.44 62.6 182.44 61.32V58.28H179.28V61.48C179.28 62.8667 178.587 63.56 177.2 63.56ZM179.28 55.16H180.84H182.44V53.4H179.28V55.16ZM186.28 55.16H189.44V53.4H187.84H186.28V55.16ZM193.28 55.16H194.88H196.52V54.16C196.52 53.6533 196.267 53.4 195.76 53.4H193.28V55.16ZM175.52 45.48H185.32H194.2C194.84 45.48 195.16 45.16 195.16 44.52V44.4C195.16 43.84 194.88 43.56 194.32 43.56H175.56C175.56 44.3867 175.547 45.0267 175.52 45.48ZM186.8 35.44C187.147 35.4133 187.667 35.36 188.36 35.28C189.16 35.2267 189.76 35.1733 190.16 35.12C191.013 35.0667 192.04 34.96 193.24 34.8C192.92 34.24 192.4 33.44 191.68 32.4H189.48C188.733 33.3867 187.84 34.4 186.8 35.44Z" fill="white"/>
<g clip-path="url(#clip0_283_655)">
<path d="M190.369 249.071C203.557 249.071 214.105 238.495 214.105 225.274C214.105 212.052 203.553 201.477 190.369 201.477C177.186 201.477 166.63 212.052 166.63 225.274C166.63 238.495 177.182 249.071 190.369 249.071Z" fill="url(#paint1_linear_283_655)" stroke="white" stroke-width="7" stroke-miterlimit="10"/>
<path d="M133.512 151.524C146.699 151.524 157.247 140.948 157.247 127.727C157.247 114.505 146.695 103.93 133.512 103.93C120.319 103.93 109.772 114.505 109.772 127.727C109.772 140.656 120.324 151.524 133.512 151.524Z" fill="url(#paint2_linear_283_655)" stroke="white" stroke-width="7" stroke-miterlimit="10"/>
<path d="M131.168 133.014C130.287 132.722 129.117 132.134 128.236 131.545C127.943 131.253 127.651 131.253 127.651 130.957L125.6 135.072C127.651 136.541 130.287 137.129 132.927 137.421V140.652H134.978V137.421C135.859 137.421 136.737 137.129 137.618 137.129C138.5 137.129 139.08 136.541 139.669 135.952C140.254 135.364 140.839 134.775 141.135 134.191C141.428 133.311 141.72 132.43 141.72 131.545C141.72 129.196 140.546 127.43 138.203 126.257C137.321 125.965 136.444 125.669 135.563 125.377L134.686 125.085V121.266C136.737 121.558 138.788 122.735 139.08 123.027L141.135 119.209C140.254 118.62 139.377 118.328 138.495 118.032C137.326 117.74 136.152 117.443 134.978 117.151V114.213H132.927V117.151C130.291 117.443 128.24 118.62 127.066 120.97C126.481 122.439 126.481 124.2 126.774 125.669C127.359 126.846 128.24 127.726 129.41 128.315C130.876 129.196 132.635 129.492 133.219 129.492V133.311C132.338 133.603 131.753 133.311 131.168 133.019V133.014ZM134.389 130.368C134.973 130.66 135.558 130.957 135.855 131.249C136.147 131.541 136.44 131.837 136.44 132.426C136.44 133.306 135.855 133.895 134.389 133.895V130.368ZM131.753 124.2C131.461 123.908 131.168 123.611 131.168 123.023C131.168 122.142 131.753 121.554 133.219 121.262V125.08C132.338 124.788 132.045 124.492 131.753 124.2Z" fill="white"/>
<path d="M194.764 223.804C193.882 223.512 193.005 223.216 192.128 222.924L191.246 222.632V218.813C193.297 219.105 195.348 220.282 195.641 220.574L197.692 216.755C196.81 216.167 195.933 215.875 195.056 215.578C193.882 215.286 192.713 214.99 191.534 214.698V211.76H189.483V214.698C186.848 214.99 184.796 216.167 183.623 218.517C183.33 219.397 183.033 220.278 183.033 221.163C183.033 223.22 183.915 224.689 185.966 225.862C187.432 226.742 188.899 227.039 189.776 227.039V230.858C189.191 230.858 188.309 230.566 187.725 230.269C186.843 229.977 185.674 229.389 184.792 228.8C184.5 228.508 184.207 228.508 184.207 228.212L182.156 232.327C184.207 233.796 186.843 234.384 189.483 234.676V237.906H191.534V234.676C192.416 234.676 193.293 234.384 194.175 234.384C195.056 234.092 195.641 233.796 196.226 233.207C196.81 232.619 197.395 232.03 197.692 231.446C197.984 230.566 198.277 229.685 198.277 228.8C198.277 227.915 198.277 227.039 197.984 226.45C197.399 225.57 196.518 224.689 194.764 223.804ZM190.077 222.335C189.488 222.043 188.903 221.747 188.611 221.747C188.318 221.455 188.021 221.158 188.021 220.57C188.021 219.689 188.611 219.101 190.077 218.809V222.335ZM191.246 230.858V227.627C191.831 227.919 192.416 228.216 192.713 228.508C193.005 228.8 193.297 229.097 193.297 229.685C193.59 230.274 192.713 230.862 191.246 230.862V230.858Z" fill="white"/>
<g opacity="0.57">
<path d="M139.076 241.725C144.095 241.725 148.161 245.804 148.161 250.831C148.161 255.859 144.095 259.938 139.076 259.938C134.057 259.938 129.99 255.859 129.99 250.831C129.99 245.804 134.057 241.725 139.076 241.725Z" fill="white"/>
<path d="M74.8954 133.014C80.8846 133.014 85.7397 128.147 85.7397 122.142C85.7397 116.138 80.8846 111.271 74.8954 111.271C68.9062 111.271 64.051 116.138 64.051 122.142C64.051 128.147 68.9062 133.014 74.8954 133.014Z" fill="white"/>
<path d="M226.411 111.567L227 158.869L212.346 144.178L195.056 126.55L180.402 112.155L226.411 111.567Z" fill="white"/>
<path d="M212.346 144.178C211.761 144.767 130.871 225.858 130.871 225.858C130.287 225.269 134.974 229.973 107.721 202.645L81.6332 228.796L64.051 211.167C65.5173 209.698 103.322 171.799 107.721 167.391L130.871 190.605L194.759 126.554L212.341 144.183L212.346 144.178Z" fill="white"/>
<path d="M222.606 173.856C224.063 173.856 225.241 175.038 225.241 176.502C225.241 177.967 224.063 179.148 222.606 179.148C221.148 179.148 219.965 177.967 219.965 176.502C219.965 175.038 221.148 173.856 222.606 173.856Z" fill="white"/>
<path d="M222.606 245.544C224.063 245.544 225.241 246.725 225.241 248.19C225.241 249.655 224.063 250.836 222.606 250.836C221.148 250.836 219.965 249.655 219.965 248.19C219.965 246.725 221.148 245.544 222.606 245.544Z" fill="white"/>
<path d="M178.643 96.5845C180.101 96.5845 181.279 97.7705 181.279 99.2306C181.279 100.691 180.101 101.877 178.643 101.877C177.186 101.877 176.003 100.695 176.003 99.2306C176.003 97.766 177.186 96.5845 178.643 96.5845Z" fill="white"/>
<path d="M112.705 228.795C114.162 228.795 115.34 229.977 115.34 231.442C115.34 232.906 114.162 234.088 112.705 234.088C111.247 234.088 110.064 232.902 110.064 231.442C110.064 229.981 111.247 228.795 112.705 228.795Z" fill="white"/>
<path d="M95.9949 100.403C97.4523 100.403 98.6307 101.584 98.6307 103.049C98.6307 104.514 97.4523 105.695 95.9949 105.695C94.5375 105.695 93.3591 104.514 93.3591 103.049C93.3591 101.584 94.5375 100.403 95.9949 100.403Z" fill="white"/>
<path d="M81.3453 157.4C82.8027 157.4 83.981 158.581 83.981 160.046C83.981 161.511 82.8027 162.692 81.3453 162.692C79.8878 162.692 78.7095 161.511 78.7095 160.046C78.7095 158.581 79.8878 157.4 81.3453 157.4Z" fill="white"/>
<path d="M77.828 249.07C79.2854 249.07 80.4637 250.252 80.4637 251.716C80.4637 253.181 79.2854 254.363 77.828 254.363C76.3705 254.363 75.1877 253.181 75.1877 251.716C75.1877 250.252 76.3705 249.07 77.828 249.07Z" fill="white"/>
<path d="M190.365 188.547C189.483 188.547 188.606 189.427 188.606 190.308C188.606 191.188 189.483 192.069 190.365 192.069C208.536 192.069 223.19 206.76 223.19 224.977C223.19 225.858 224.072 226.738 224.949 226.738C225.826 226.738 226.708 225.858 226.708 224.977C227 204.999 210.587 188.547 190.365 188.547Z" fill="white"/>
<path d="M190.365 258.177C172.198 258.177 157.539 243.486 157.539 225.269C157.539 224.388 156.662 223.508 155.781 223.508C154.899 223.508 154.022 224.388 154.022 225.269C154.022 245.544 170.435 261.995 190.657 261.995C191.534 261.995 192.416 261.115 192.416 260.234C192.416 259.057 191.534 258.177 190.365 258.177Z" fill="white"/>
<path d="M133.507 94.8187C151.679 94.8187 166.333 109.509 166.333 127.727C166.333 128.607 167.214 129.488 168.091 129.488C168.968 129.488 169.85 128.607 169.85 127.727C169.85 107.452 153.437 91 133.219 91C132.338 91 131.461 91.8805 131.461 92.7611C131.753 93.9381 132.634 94.8187 133.512 94.8187H133.507Z" fill="white"/>
<path d="M96.8765 127.727C96.8765 147.997 113.289 164.453 133.507 164.453C134.389 164.453 135.266 163.573 135.266 162.692C135.266 161.812 134.384 160.931 133.507 160.931C115.34 160.931 100.686 146.241 100.686 128.023C100.686 127.143 99.8046 126.262 98.9275 126.262C98.0504 126.262 96.8765 126.851 96.8765 127.731V127.727Z" fill="white"/>
<path d="M74.8954 135.072C81.9301 135.072 87.7908 129.196 87.7908 122.142C87.7908 115.089 81.9301 109.213 74.8954 109.213C67.8607 109.213 62 115.094 62 122.142C62 129.191 67.8607 135.072 74.8954 135.072ZM74.8954 113.036C79.879 113.036 83.9811 117.151 83.9811 122.142C83.9811 127.134 79.879 131.249 74.8954 131.249C69.9118 131.249 65.8097 127.134 65.8097 122.142C65.8097 117.151 69.9118 113.036 74.8954 113.036Z" fill="white"/>
<path d="M139.076 239.667C132.922 239.667 127.939 244.663 127.939 250.831C127.939 257 132.922 261.995 139.076 261.995C145.229 261.995 150.212 257 150.212 250.831C150.212 244.663 145.229 239.667 139.076 239.667ZM139.076 258.177C134.974 258.177 131.749 254.947 131.749 250.831C131.749 246.716 134.969 243.486 139.076 243.486C143.182 243.486 146.403 246.716 146.403 250.831C146.403 254.947 143.182 258.177 139.076 258.177Z" fill="white"/>
</g>
</g>
<defs>
<linearGradient id="paint0_linear_283_655" x1="145" y1="0" x2="145" y2="290" gradientUnits="userSpaceOnUse">
<stop stop-color="#FF922E"/>
<stop offset="1" stop-color="#FDB471"/>
</linearGradient>
<linearGradient id="paint1_linear_283_655" x1="214.109" y1="225.274" x2="166.63" y2="225.274" gradientUnits="userSpaceOnUse">
<stop stop-color="#FE7A00"/>
<stop offset="1" stop-color="#FFC188"/>
</linearGradient>
<linearGradient id="paint2_linear_283_655" x1="157.247" y1="127.727" x2="109.772" y2="127.727" gradientUnits="userSpaceOnUse">
<stop stop-color="#FE7A00"/>
<stop offset="1" stop-color="#FFC188"/>
</linearGradient>
<clipPath id="clip0_283_655">
<rect width="165" height="171" fill="white" transform="translate(62 91)"/>
</clipPath>
</defs>
</svg>
