<svg width="290" height="290" viewBox="0 0 290 290" fill="none" xmlns="http://www.w3.org/2000/svg">
<rect width="290" height="290" rx="29.0909" fill="url(#paint0_linear_283_833)"/>
<path d="M50.32 62.32C48.96 62.32 48.28 61.64 48.28 60.28C48.28 58.92 48.96 58.24 50.32 58.24H56C55.6 57.04 55.04 55.76 54.32 54.4C53.8133 53.6 53.6667 52.8667 53.88 52.2C54.0933 51.5067 54.6 50.9867 55.4 50.64L56.32 50.24H52.32C50.96 50.24 50.28 49.56 50.28 48.2C50.28 46.84 50.96 46.16 52.32 46.16H62.32V42.2H56.88C56.32 42.2 55.8667 42.04 55.52 41.72C55.2 41.3733 55.04 40.92 55.04 40.36V40.24C53.5467 41.3067 52.2667 42.16 51.2 42.8C50.48 43.2 49.8533 43.36 49.32 43.28C48.76 43.2 48.2533 42.8533 47.8 42.24C46.7333 40.8 47.1067 39.6 48.92 38.64C51.4267 37.12 53.8133 35.3067 56.08 33.2C58.2133 31.2267 59.9867 29.2267 61.4 27.2C61.64 26.88 61.9867 26.6 62.44 26.36C62.92 26.12 63.4133 26 63.92 26H65.4C66.4933 26 67.3733 26.44 68.04 27.32C71.64 31.9067 76 35.5733 81.12 38.32C82.1333 38.7733 82.72 39.2933 82.88 39.88C83.0667 40.44 82.84 41.16 82.2 42.04C81.6933 42.7067 81.16 43.0933 80.6 43.2C80.0667 43.3067 79.4267 43.1467 78.68 42.72C77.2667 41.84 75.9867 40.9733 74.84 40.12V41.28C74.84 41.8933 74.5333 42.2 73.92 42.2H67.24V46.16H77.4C78.76 46.16 79.44 46.84 79.44 48.2C79.44 49.56 78.76 50.24 77.4 50.24H67.24V58.24H71.56L70.16 57.64C69.8133 57.5067 69.5867 57.3067 69.48 57.04C69.4 56.7733 69.4533 56.5067 69.64 56.24C70.5467 54.72 71.2667 53.4 71.8 52.28C72.1467 51.56 72.56 51.1067 73.04 50.92C73.52 50.7067 74.12 50.7333 74.84 51C76.4667 51.6133 76.7333 52.72 75.64 54.32C74.4667 56.08 73.5333 57.3867 72.84 58.24H79.76C81.12 58.24 81.8 58.92 81.8 60.28C81.8 61.64 81.12 62.32 79.76 62.32H65.04H50.32ZM56.96 58.24H62.32V54.24V50.24H56.56C57.52 51.4933 58.4533 53.0267 59.36 54.84C59.6 55.4 59.5867 55.96 59.32 56.52C59.08 57.08 58.6267 57.5067 57.96 57.8L56.96 58.24ZM57.84 38.04H64.96H71.16C71.8 38.04 71.8533 37.8133 71.32 37.36C68.6267 35.0933 66.4667 32.8533 64.84 30.64C63.0533 33.1467 60.72 35.6133 57.84 38.04ZM122.16 62.88C120.747 63.28 119.96 62.7733 119.8 61.36C119.8 61.28 119.787 61.16 119.76 61C119.733 60.8667 119.707 60.76 119.68 60.68C116.32 61.3467 112.827 62 109.2 62.64C107.867 62.9067 107.053 62.3067 106.76 60.84C106.6 60.04 106.64 59.44 106.88 59.04C107.147 58.6133 107.667 58.3467 108.44 58.24C109.747 58.08 111.093 57.88 112.48 57.64V50.08H109.6C108.827 50.08 108.2 49.84 107.72 49.36C107.24 48.88 107 48.2533 107 47.48V36.28C107 35.5067 107.24 34.88 107.72 34.4C108.2 33.92 108.827 33.68 109.6 33.68H112.44V28.72C112.44 27.36 113.12 26.68 114.48 26.68C115.84 26.68 116.52 27.36 116.52 28.72V33.68H119.84C120.613 33.68 121.24 33.92 121.72 34.4C122.2 34.88 122.44 35.5067 122.44 36.28V41.88V47.48C122.44 48.2533 122.2 48.88 121.72 49.36C121.24 49.84 120.613 50.08 119.84 50.08H116.56V57.04L118.84 56.68C118.52 55.5067 118.267 54.64 118.08 54.08C117.707 52.9333 118.147 52.2133 119.4 51.92C120.493 51.68 121.213 52.0533 121.56 53.04C122.6 55.8933 123.307 58.5467 123.68 61C123.733 61.56 123.64 61.9733 123.4 62.24C123.16 62.5067 122.747 62.72 122.16 62.88ZM102.12 63.36C100.813 63.4133 100.013 62.9467 99.72 61.96C99.32 60.5733 99.9333 59.9067 101.56 59.96C101.613 59.96 101.667 59.96 101.72 59.96C102.04 59.96 102.2 59.7867 102.2 59.44V51.8H102.04H100.16C99.0667 51.8 98.3333 51.5867 97.96 51.16C97.6133 50.7333 97.44 49.8933 97.44 48.64V46.56H95.88C95.8533 47.92 95.68 49.0533 95.36 49.96C94.9333 51.2133 94.1867 52.24 93.12 53.04H99.6C100.613 53.04 101.12 53.5467 101.12 54.56C101.12 55.6 100.613 56.12 99.6 56.12H98.32V60.76C98.32 61.8533 97.7733 62.4 96.68 62.4C95.56 62.4 95 61.8533 95 60.76V56.12H93.76C93.3067 56.12 92.9333 55.8267 92.64 55.24C92.3733 54.76 92.24 54.2267 92.24 53.64C92.24 53.24 92.36 53.04 92.6 53.04H92.68C92.3333 52.6667 91.8533 52.24 91.24 51.76V61.56C91.24 62.76 90.64 63.36 89.44 63.36C88.24 63.36 87.64 62.76 87.64 61.56V45.8C87.64 45.0267 87.88 44.4 88.36 43.92C88.84 43.44 89.4667 43.2 90.24 43.2H96.76H103.28C104.053 43.2 104.68 43.44 105.16 43.92C105.64 44.4 105.88 45.0267 105.88 45.8V59.52C105.88 60.4 105.787 61.08 105.6 61.56C105.387 62.0667 105.027 62.4667 104.52 62.76C103.96 63.08 103.16 63.28 102.12 63.36ZM91.24 50.92C92.04 50.3067 92.5867 49.6 92.88 48.8C93.1467 48.0267 93.28 47.28 93.28 46.56H92.12C91.5333 46.56 91.24 46.8533 91.24 47.44V50.92ZM100.56 49.32H101.6C101.893 49.32 102.093 49.2267 102.2 49.04V47.52C102.2 46.88 101.88 46.56 101.24 46.56H100.08V48.64C100.08 48.9067 100.107 49.0933 100.16 49.2C100.213 49.28 100.347 49.32 100.56 49.32ZM111.72 46H112.84V41.88V37.72H111.68C111.067 37.72 110.76 38.0267 110.76 38.64V45.04C110.76 45.68 111.08 46 111.72 46ZM116.24 46H117.56C118.2 46 118.52 45.68 118.52 45.04V38.68C118.52 38.04 118.2 37.72 117.56 37.72H116.24V41.88V46ZM91.92 41.72C91.1467 41.72 90.52 41.48 90.04 41C89.56 40.52 89.32 39.8933 89.32 39.12V35.64C89.32 34.8667 89.56 34.24 90.04 33.76C90.52 33.28 91.1467 33.04 91.92 33.04H96.88H101.84C102.613 33.04 103.24 33.28 103.72 33.76C104.2 34.24 104.44 34.8667 104.44 35.64V39.12C104.44 39.8933 104.2 40.52 103.72 41C103.24 41.48 102.613 41.72 101.84 41.72H91.92ZM94.24 38.6H96.72H99.2C99.84 38.6 100.16 38.28 100.16 37.64V37.08C100.16 36.44 99.84 36.12 99.2 36.12H94.24C93.6 36.12 93.28 36.44 93.28 37.08V37.64C93.28 38.28 93.6 38.6 94.24 38.6ZM89.36 31.56C88.0533 31.56 87.4 30.9067 87.4 29.6C87.4 28.2933 88.0533 27.64 89.36 27.64H104.24C105.547 27.64 106.2 28.2933 106.2 29.6C106.2 30.9067 105.547 31.56 104.24 31.56H96.8H89.36ZM134.88 63.48C133.36 63.48 132.6 62.72 132.6 61.2V49.08C131.613 51.2933 130.747 53.0667 130 54.4C129.387 55.3333 128.84 55.7867 128.36 55.76C127.907 55.7067 127.427 55.1733 126.92 54.16C126.627 53.5467 126.493 53.0133 126.52 52.56C126.573 52.1067 126.8 51.6267 127.2 51.12C129.093 48.4267 130.68 45.3067 131.96 41.76H128.84C127.373 41.76 126.64 41.0133 126.64 39.52C126.64 38.0533 127.373 37.32 128.84 37.32H132.6V32.8C132.013 32.9067 131.133 33.04 129.96 33.2C128.733 33.36 127.933 32.88 127.56 31.76C127.133 30.4533 127.667 29.6533 129.16 29.36C132.44 28.7733 135.373 28.0267 137.96 27.12C138.573 26.88 139.107 26.8533 139.56 27.04C139.96 27.2 140.36 27.5733 140.76 28.16C141.8 29.6267 141.467 30.64 139.76 31.2C139.2 31.36 138.333 31.5733 137.16 31.84V37.32H140.2C141.667 37.32 142.4 38.0533 142.4 39.52C142.4 41.0133 141.667 41.76 140.2 41.76H137.16V42.08C137.613 42.5067 138.653 43.6533 140.28 45.52C140.787 46.08 141.147 46.48 141.36 46.72C141.76 47.2 141.947 47.6267 141.92 48C141.893 48.32 141.667 48.76 141.24 49.32C140.627 50.1467 140.08 50.5467 139.6 50.52C139.147 50.4667 138.68 49.9733 138.2 49.04C137.987 48.64 137.64 48.04 137.16 47.24V55.36V61.2C137.16 62.72 136.4 63.48 134.88 63.48ZM156.76 63.44C155.213 63.44 154.44 62.68 154.44 61.16V54.2L144.72 55.88C143.227 56.1733 142.36 55.5467 142.12 54C141.88 52.5067 142.493 51.6267 143.96 51.36L154.44 49.56V37.84V28.4C154.44 26.88 155.213 26.12 156.76 26.12C158.28 26.12 159.04 26.88 159.04 28.4V48.76L160.76 48.48C162.253 48.1867 163.12 48.7867 163.36 50.28C163.6 51.7733 162.987 52.6533 161.52 52.92L159.04 53.36V61.16C159.04 62.68 158.28 63.44 156.76 63.44ZM150.84 46.16C149.693 47.2533 148.64 47.2267 147.68 46.08C147.28 45.6267 146.84 45.1867 146.36 44.76C145.773 44.2 145.173 43.64 144.56 43.08C143.413 42.12 143.4 41.1467 144.52 40.16C145.4 39.36 146.28 39.2933 147.16 39.96C148.68 41.1333 150.013 42.2933 151.16 43.44C151.613 43.9467 151.8 44.4133 151.72 44.84C151.667 45.2133 151.373 45.6533 150.84 46.16ZM151.96 35.6C150.76 36.6933 149.693 36.64 148.76 35.44C148.28 34.9067 147.907 34.5067 147.64 34.24C147.293 33.8933 146.747 33.3733 146 32.68C144.827 31.7467 144.813 30.76 145.96 29.72C146.867 28.8933 147.773 28.8533 148.68 29.6C150.013 30.64 151.24 31.7467 152.36 32.92C152.76 33.4267 152.92 33.8933 152.84 34.32C152.76 34.72 152.467 35.1467 151.96 35.6ZM202.2 61.92C201.427 62.9867 200.307 63.2667 198.84 62.76C195.853 61.6667 193.293 60.24 191.16 58.48C188.813 60.1333 186.107 61.52 183.04 62.64C181.52 63.1467 180.4 62.7867 179.68 61.56C179.147 60.68 179.04 59.96 179.36 59.4C179.653 58.8933 180.333 58.48 181.4 58.16C183.693 57.3867 185.787 56.3867 187.68 55.16C185.547 52.7067 183.827 49.8933 182.52 46.72C182.227 46 182.427 45.5333 183.12 45.32L183.24 45.28H183.16C181.853 45.28 181.2 44.6 181.2 43.24C181.2 41.7467 181.907 41 183.32 41H189V36.2H182.68C181.213 36.2 180.48 35.4667 180.48 34C180.48 32.5333 181.213 31.8 182.68 31.8H189V28.4C189 26.8533 189.787 26.08 191.36 26.08C192.907 26.08 193.68 26.8533 193.68 28.4V31.8H200.36C201.827 31.8 202.56 32.5333 202.56 34C202.56 35.4667 201.827 36.2 200.36 36.2H198.12H193.68V41H199.36C200.267 41 200.893 41.2933 201.24 41.88C201.613 42.44 201.653 43.28 201.36 44.4C199.973 48.7467 197.827 52.4 194.92 55.36C196.653 56.5867 198.547 57.5733 200.6 58.32C202.893 59.04 203.427 60.24 202.2 61.92ZM170.84 63.2C170.12 63.2267 169.493 63.0933 168.96 62.8C168.347 62.5067 167.947 62.0533 167.76 61.44C167.227 59.7333 168.027 58.9067 170.16 58.96C170.347 58.96 170.52 58.96 170.68 58.96C171.16 58.96 171.4 58.6933 171.4 58.16V49.92L169.8 50.32C168.307 50.6933 167.36 50.1467 166.96 48.68C166.56 47.16 167.093 46.2267 168.56 45.88C168.96 45.8 169.587 45.6533 170.44 45.44C170.867 45.3333 171.187 45.2533 171.4 45.2V38.12H169.08C167.613 38.12 166.88 37.3867 166.88 35.92C166.88 34.4533 167.613 33.72 169.08 33.72H171.4V28.44C171.4 26.8933 172.187 26.12 173.76 26.12C175.307 26.12 176.08 26.8933 176.08 28.44V33.72H177.76C179.227 33.72 179.96 34.4533 179.96 35.92C179.96 37.3867 179.227 38.12 177.76 38.12H176.08V44.04L177.44 43.68C178.96 43.3067 179.827 43.9067 180.04 45.48C180.2 46.8133 179.667 47.6533 178.44 48C177.933 48.16 177.147 48.3733 176.08 48.64V53.44V58.2C176.08 59.3733 175.947 60.2667 175.68 60.88C175.44 61.52 174.987 62.0267 174.32 62.4C173.573 62.8 172.413 63.0667 170.84 63.2ZM191.32 52.36C193.453 50.3067 195.107 47.9467 196.28 45.28H191.48H186.68C187.747 47.8933 189.293 50.2533 191.32 52.36ZM217.2 63.56C215.813 63.56 215.12 62.8667 215.12 61.48V50.2C214.613 54.3333 213.453 57.88 211.64 60.84C211.08 61.5867 210.547 62.0267 210.04 62.16C209.507 62.2933 208.92 62.0667 208.28 61.48C207.213 60.52 207.2 59.28 208.24 57.76C210.24 54.2933 211.24 49.4667 211.24 43.28V38.32C211.24 37.44 211.493 36.8 212 36.4C212.533 35.9733 213.227 35.8533 214.08 36.04L214.28 36.08C218.413 35.9467 222.267 35.7467 225.84 35.48C225.547 35.32 225.067 35.0533 224.4 34.68C224.08 34.4933 223.84 34.36 223.68 34.28C223.253 34.0667 223.027 33.8 223 33.48C222.973 33.16 223.187 32.8 223.64 32.4L218.76 32.48C219.32 33.6533 218.947 34.4267 217.64 34.8C216.147 35.2533 215.12 34.8 214.56 33.44C214.453 33.2267 214.267 32.88 214 32.4H213.36C212.933 33.0133 212.373 33.72 211.68 34.52C210.72 35.5067 209.68 35.6267 208.56 34.88C207.787 34.3467 207.387 33.8133 207.36 33.28C207.36 32.7467 207.72 32.1467 208.44 31.48C209.56 30.28 210.493 29.0133 211.24 27.68C211.853 26.4267 212.907 26 214.4 26.4C215.84 26.8 216.24 27.6267 215.6 28.88H222.8C223.307 28.88 223.707 29.0267 224 29.32C224.293 29.6133 224.44 30.0133 224.44 30.52V30.64C224.44 31.2533 224.653 31.3333 225.08 30.88C225.96 29.84 226.707 28.76 227.32 27.64C227.907 26.4133 228.933 25.9733 230.4 26.32C231.093 26.48 231.56 26.7867 231.8 27.24C232.067 27.6667 232.04 28.2133 231.72 28.88H241.04C242.213 28.88 242.8 29.4667 242.8 30.64C242.8 31.8133 242.213 32.4 241.04 32.4H236.84C237.08 32.7467 237.32 33.1067 237.56 33.48C237.693 33.6667 237.707 33.8533 237.6 34.04C237.52 34.2267 237.347 34.36 237.08 34.44L236.68 34.56L238.16 36.08C238.56 36.48 238.72 36.8267 238.64 37.12C238.587 37.4133 238.333 37.6 237.88 37.68C231.613 38.6133 224.173 39.1467 215.56 39.28V40.36H237C237.773 40.36 238.4 40.6 238.88 41.08C239.36 41.56 239.6 42.1867 239.6 42.96V46.04C239.6 46.8133 239.36 47.44 238.88 47.92C238.4 48.4 237.773 48.64 237 48.64H215.32C215.32 48.8 215.293 49.04 215.24 49.36C215.213 49.6533 215.187 49.88 215.16 50.04H228.04H238.32C239.093 50.04 239.72 50.28 240.2 50.76C240.68 51.24 240.92 51.8667 240.92 52.64V59.72C240.92 60.68 240.827 61.3867 240.64 61.84C240.427 62.32 240.027 62.6933 239.44 62.96C238.88 63.2533 237.96 63.4267 236.68 63.48C235.4 63.5333 234.613 63.08 234.32 62.12C233.867 60.7867 234.44 60.1467 236.04 60.2C236.36 60.1733 236.52 60.0133 236.52 59.72V58.28H233.28V61.32C233.28 62.6 232.64 63.24 231.36 63.24C230.08 63.24 229.44 62.6 229.44 61.32V58.28H226.28V61.32C226.28 62.6 225.64 63.24 224.36 63.24C223.08 63.24 222.44 62.6 222.44 61.32V58.28H219.28V61.48C219.28 62.8667 218.587 63.56 217.2 63.56ZM219.28 55.16H220.84H222.44V53.4H219.28V55.16ZM226.28 55.16H229.44V53.4H227.84H226.28V55.16ZM233.28 55.16H234.88H236.52V54.16C236.52 53.6533 236.267 53.4 235.76 53.4H233.28V55.16ZM215.52 45.48H225.32H234.2C234.84 45.48 235.16 45.16 235.16 44.52V44.4C235.16 43.84 234.88 43.56 234.32 43.56H215.56C215.56 44.3867 215.547 45.0267 215.52 45.48ZM226.8 35.44C227.147 35.4133 227.667 35.36 228.36 35.28C229.16 35.2267 229.76 35.1733 230.16 35.12C231.013 35.0667 232.04 34.96 233.24 34.8C232.92 34.24 232.4 33.44 231.68 32.4H229.48C228.733 33.3867 227.84 34.4 226.8 35.44Z" fill="white"/>
<g clip-path="url(#clip0_283_833)">
<path opacity="0.53" d="M204.76 91C210.261 91 214.72 95.439 214.72 100.913C214.72 106.387 210.261 110.822 204.76 110.822C199.258 110.822 194.799 106.387 194.799 100.913C194.799 95.439 199.258 91 204.76 91Z" fill="white"/>
<path opacity="0.53" d="M64.0221 224.96C68.4593 224.96 72.0564 221.382 72.0564 216.969C72.0564 212.555 68.4593 208.977 64.0221 208.977C59.5849 208.977 55.9878 212.555 55.9878 216.969C55.9878 221.382 59.5849 224.96 64.0221 224.96Z" fill="white"/>
<path opacity="0.76" d="M198.652 215.052V224.96L178.411 232.952V223.044L198.652 215.052Z" fill="white"/>
<path opacity="0.76" d="M154.308 215.052V224.96L134.386 232.952V223.044L154.308 215.052Z" fill="white"/>
<path opacity="0.76" d="M110.288 215.052V224.96L90.0474 232.952V223.044L110.288 215.052Z" fill="white"/>
<path opacity="0.76" d="M116.396 169.007V178.92H110.288H90.0473H84.2629V169.007H116.396Z" fill="white"/>
<path opacity="0.76" d="M160.416 169.007V178.92H154.308H134.386H128.283V169.007H160.416Z" fill="white"/>
<path d="M234.319 154.94H54.7036L144.671 100.913L234.319 154.945V154.94Z" fill="url(#paint1_linear_283_833)" stroke="white" stroke-width="7" stroke-miterlimit="10"/>
<path opacity="0.76" d="M224.677 256.933V271H62.0911V256.933H72.052H214.716H224.677Z" fill="white"/>
<path opacity="0.76" d="M214.716 154.94L218.574 169.008H204.755H172.627H160.416H128.283H116.396H84.2628H68.1987L72.052 154.94H214.716Z" fill="white"/>
<path opacity="0.25" d="M214.716 242.861V256.933H72.052V242.861H90.0472H110.288H134.386H154.308H178.411H198.652H214.716Z" fill="white"/>
<path opacity="0.76" d="M204.755 169.007V178.92H198.652H178.411H172.627V169.007H204.755Z" fill="white"/>
<path opacity="0.25" d="M198.652 224.96V242.861H178.411V232.952L198.652 224.96Z" fill="white"/>
<path opacity="0.25" d="M198.652 178.92V215.051L178.411 223.043V178.92H198.652Z" fill="white"/>
<path opacity="0.25" d="M154.308 224.96V242.861H134.386V232.952L154.308 224.96Z" fill="white"/>
<path opacity="0.25" d="M154.308 178.92V215.051L134.386 223.043V178.92H154.308Z" fill="white"/>
<path opacity="0.25" d="M110.288 224.96V242.861H90.0474V232.952L110.288 224.96Z" fill="white"/>
<path opacity="0.25" d="M110.288 178.92V215.051L90.0474 223.043V178.92H110.288Z" fill="white"/>
<path d="M139.942 138.057C138.563 137.718 136.843 137.031 135.806 136.005C135.464 135.661 135.118 135.318 134.777 135.318L132.024 141.14C135.123 143.192 138.909 144.223 142.353 144.566V149.358H145.106V144.566C146.485 144.566 147.513 144.223 148.897 143.879C149.93 143.536 150.962 142.853 151.995 142.166C153.028 141.479 153.715 140.453 154.061 139.427C154.748 138.396 154.748 137.026 154.748 135.657C154.748 132.23 153.37 129.834 149.584 128.121C146.831 127.095 145.106 126.752 144.419 126.408V120.929C145.106 120.929 145.793 121.268 146.826 121.616C147.859 121.955 149.233 122.643 150.271 123.33C150.617 123.669 150.958 123.669 150.958 124.017L153.711 118.534C152.678 117.846 151.304 117.164 149.579 116.481C148.205 115.794 146.481 115.455 144.76 115.455V111.346H142.008V115.455C138.222 115.794 135.123 117.507 133.398 120.934C133.057 121.96 132.711 123.334 132.711 124.699C132.711 127.782 134.09 129.839 136.843 131.209C137.876 131.548 138.909 132.235 140.288 132.578L142.353 133.261V138.744C142.008 138.744 140.975 138.4 139.946 138.057H139.942ZM144.76 133.948C145.789 134.291 146.481 134.635 147.168 134.974C147.855 135.318 147.855 136.005 147.855 136.687C147.855 138.057 146.822 138.744 144.756 138.744V133.948H144.76ZM140.629 125.386C140.283 125.047 139.942 124.36 139.942 123.673C139.942 122.304 140.97 121.621 142.695 121.273V126.069C142.008 126.069 141.32 125.73 140.629 125.382V125.386Z" fill="white"/>
</g>
<defs>
<linearGradient id="paint0_linear_283_833" x1="145" y1="0" x2="145" y2="290" gradientUnits="userSpaceOnUse">
<stop stop-color="#FF922E"/>
<stop offset="1" stop-color="#FDB471"/>
</linearGradient>
<linearGradient id="paint1_linear_283_833" x1="54.7036" y1="127.927" x2="234.319" y2="127.927" gradientUnits="userSpaceOnUse">
<stop stop-color="#FE7A00"/>
<stop offset="1" stop-color="#FFC188"/>
</linearGradient>
<clipPath id="clip0_283_833">
<rect width="191" height="180" fill="white" transform="translate(49 91)"/>
</clipPath>
</defs>
</svg>
