<svg width="290" height="290" viewBox="0 0 290 290" fill="none" xmlns="http://www.w3.org/2000/svg">
<rect width="290" height="290" rx="29.0909" fill="url(#paint0_linear_283_855)"/>
<path d="M43.52 63.48C42 63.48 41.24 62.72 41.24 61.2V55.92H33.76C32.6933 55.92 32.16 55.3867 32.16 54.32C32.16 53.2533 32.6933 52.72 33.76 52.72H45.4H56.04C56.8133 52.72 57.44 52.96 57.92 53.44C58.4 53.92 58.64 54.5467 58.64 55.32V57.56C58.64 58.5733 58.52 59.32 58.28 59.8C58.0133 60.36 57.52 60.7867 56.8 61.08C56.0267 61.4267 54.8133 61.6267 53.16 61.68C51.8533 61.68 51 61.2267 50.6 60.32C49.9067 58.7733 50.6 58.0267 52.68 58.08C52.8933 58.0533 53.1333 58.04 53.4 58.04C53.8533 58.04 54.08 57.88 54.08 57.56V56.6C54.08 56.1467 53.8533 55.92 53.4 55.92H45.8V61.2C45.8 62.72 45.04 63.48 43.52 63.48ZM31.24 52.48C30.0133 52.8267 29.12 52.4933 28.56 51.48C27.76 50.0667 28.32 49.12 30.24 48.64C34.9067 47.3067 38.7733 45.48 41.84 43.16H34.56C33.68 43.16 33.24 42.7067 33.24 41.8C33.24 40.92 33.68 40.48 34.56 40.48H40.2C40.8667 40.48 41.3867 40.68 41.76 41.08C42.16 41.4533 42.36 41.9733 42.36 42.64V42.76C42.68 42.4933 42.92 42.28 43.08 42.12C43.4533 41.8 43.8667 41.64 44.32 41.64H46.4C47.3333 41.64 48.1467 41.9467 48.84 42.56C48.92 42.6133 49.0267 42.6933 49.16 42.8C49.2933 42.88 49.3867 42.9467 49.44 43V41.6C49.44 40.8533 49.8133 40.48 50.56 40.48H57.36C58.24 40.48 58.68 40.92 58.68 41.8C58.68 42.7067 58.24 43.16 57.36 43.16H49.68C52.9067 45.4533 56.9467 47.1867 61.8 48.36C62.8133 48.5733 63.4533 48.9067 63.72 49.36C63.9867 49.8133 63.8667 50.4667 63.36 51.32C63.04 51.8533 62.68 52.2 62.28 52.36C61.88 52.52 61.3733 52.52 60.76 52.36C58.28 51.6933 55.7867 50.7867 53.28 49.64V50.52C53.28 50.9467 53.0667 51.16 52.64 51.16H46.04H40.24C39.8133 51.16 39.4667 51.0267 39.2 50.76C38.9333 50.4933 38.8 50.1467 38.8 49.72V49.6C36.4533 50.72 33.9333 51.68 31.24 52.48ZM41.68 48.08H45.92H49.24C49.88 48.08 49.9067 47.9067 49.32 47.56C48.0933 46.8133 46.9333 45.96 45.84 45C44.6933 46.0933 43.3067 47.12 41.68 48.08ZM45.88 41.16C44.36 41.16 43.6 40.4 43.6 38.88V35.12H33.76C33.12 35.12 32.8 35.44 32.8 36.08V37.52C32.8 38.9067 32.1067 39.6 30.72 39.6C29.3333 39.6 28.64 38.9067 28.64 37.52V34.72C28.64 33.9467 28.8667 33.3333 29.32 32.88C29.8 32.4 30.4267 32.16 31.2 32.16H43.6V30.8H33.04C31.92 30.8 31.36 30.24 31.36 29.12C31.36 28 31.92 27.44 33.04 27.44H45.92H58.84C59.96 27.44 60.52 28 60.52 29.12C60.52 30.24 59.96 30.8 58.84 30.8H48.16V32.16H60.84C61.6133 32.16 62.24 32.4 62.72 32.88C63.2 33.36 63.44 33.9867 63.44 34.76V37.44C63.44 38.88 62.72 39.6 61.28 39.6C59.8133 39.6 59.08 38.88 59.08 37.44V36.08C59.08 35.44 58.76 35.12 58.12 35.12H48.16V38.88C48.16 40.4 47.4 41.16 45.88 41.16ZM35.4 39.04C34.5467 39.04 34.12 38.6133 34.12 37.76C34.12 36.9067 34.5467 36.48 35.4 36.48H38.2H41.04C41.8933 36.48 42.32 36.9067 42.32 37.76C42.32 38.6133 41.8933 39.04 41.04 39.04H35.4ZM50.72 39.04C49.8667 39.04 49.44 38.6133 49.44 37.76C49.44 36.9067 49.8667 36.48 50.72 36.48H53.56H56.44C57.2933 36.48 57.72 36.9067 57.72 37.76C57.72 38.6133 57.2933 39.04 56.44 39.04H50.72ZM75.52 62.12C74.7467 62.12 74.12 61.88 73.64 61.4C73.16 60.92 72.92 60.2933 72.92 59.52V53.16C72.92 52.3867 73.16 51.76 73.64 51.28C74.12 50.8 74.7467 50.56 75.52 50.56H86.4H97.28C98.0533 50.56 98.68 50.8 99.16 51.28C99.64 51.76 99.88 52.3867 99.88 53.16V59.52C99.88 60.2933 99.64 60.92 99.16 61.4C98.68 61.88 98.0533 62.12 97.28 62.12H75.52ZM78.56 58.4H86.28H94C94.64 58.4 94.96 58.08 94.96 57.44V55.28C94.96 54.64 94.64 54.32 94 54.32H78.56C77.92 54.32 77.6 54.64 77.6 55.28V57.44C77.6 58.08 77.92 58.4 78.56 58.4ZM75.4 48.88C74.6267 48.88 74 48.64 73.52 48.16C73.04 47.68 72.8 47.0533 72.8 46.28V39.28C72.5867 39.5467 72.4267 39.7333 72.32 39.84C71.04 41.1467 69.8533 41.1467 68.76 39.84C68.1733 39.1467 67.9067 38.52 67.96 37.96C68.0133 37.3733 68.3733 36.7733 69.04 36.16C71.44 33.7333 73.44 30.9867 75.04 27.92C75.68 26.6133 76.6933 26.1867 78.08 26.64C79.6 27.1467 80.0267 28.1333 79.36 29.6C79.3067 29.7333 79.2 29.9333 79.04 30.2H85.12C85.2267 29.96 85.3867 29.6 85.6 29.12C85.7333 28.7733 85.84 28.5067 85.92 28.32C86.4267 26.8533 87.4133 26.2933 88.88 26.64C90.6933 27.0667 91.1467 28.1333 90.24 29.84C90.2133 29.8667 90.1733 29.92 90.12 30C90.0933 30.08 90.0667 30.1467 90.04 30.2H99.88C101 30.2 101.56 30.76 101.56 31.88C101.56 33 101 33.56 99.88 33.56H88.96V35.32H98C99.0133 35.32 99.52 35.8267 99.52 36.84C99.52 37.88 99.0133 38.4 98 38.4H88.96V40.28H98.04C99.0533 40.28 99.56 40.7867 99.56 41.8C99.56 42.8133 99.0533 43.32 98.04 43.32H88.96V45.4H101.36C102.507 45.4 103.08 45.9733 103.08 47.12C103.08 48.2933 102.507 48.88 101.36 48.88H87.92H75.4ZM78.24 45.4H84.36V43.32H80.84H77.32V44.48C77.32 45.0933 77.6267 45.4 78.24 45.4ZM77.32 40.28H80.84H84.36V38.4H77.32V40.28ZM77.32 35.32H80.84H84.36V33.56H77.32V35.32ZM113.32 62.76C112.227 63.24 111.227 63.08 110.32 62.28C108.773 60.8933 109.013 59.7733 111.04 58.92C113.973 57.5333 116.427 56.1067 118.4 54.64H110.08C108.613 54.64 107.88 53.8933 107.88 52.4C107.88 50.9333 108.613 50.2 110.08 50.2H111.56L111 31.36C110.973 30.5867 111.187 30.0267 111.64 29.68C112.093 29.3333 112.693 29.2533 113.44 29.44L113.56 29.48C114.6 28.8933 115.573 28.3067 116.48 27.72C116.987 27.3467 117.56 27.2 118.2 27.28C118.84 27.3333 119.413 27.6133 119.92 28.12L121.24 29.4V28.6C121.24 27.2667 121.907 26.6 123.24 26.6C124.573 26.6 125.24 27.2667 125.24 28.6V30.12H129.36C130.667 30.12 131.32 30.7733 131.32 32.08C131.32 33.4133 130.667 34.08 129.36 34.08H125.24V35.8C125.24 36.44 125.56 36.76 126.2 36.76H128.8C129.52 36.76 130.093 36.9733 130.52 37.4C130.947 37.8267 131.16 38.4 131.16 39.12V50.2H136.04C136.067 49.5333 136.133 48.4533 136.24 46.96H134.44C133.133 46.96 132.48 46.3067 132.48 45C132.48 43.6933 133.133 43.04 134.44 43.04H136.4C136.453 41.5467 136.493 40.4133 136.52 39.64H134.48C133.173 39.64 132.52 38.9867 132.52 37.68C132.52 36.3733 133.173 35.72 134.48 35.72H136.6C136.627 35.2133 136.64 34.48 136.64 33.52C136.64 32.88 136.32 32.56 135.68 32.56H134.08C132.72 32.56 132.04 31.8667 132.04 30.48C132.04 29.12 132.72 28.44 134.08 28.44H138.4C139.173 28.44 139.8 28.68 140.28 29.16C140.76 29.6133 141 30.2267 141 31C140.893 39.3467 140.707 45.7467 140.44 50.2H142.04C143.507 50.2 144.24 50.9333 144.24 52.4C144.24 53.8933 143.507 54.64 142.04 54.64H133.48C136.2 55.9467 138.893 57.32 141.56 58.76C142.547 59.3467 143 59.92 142.92 60.48C142.867 60.96 142.333 61.56 141.32 62.28C140.707 62.7333 140.173 62.9867 139.72 63.04C139.24 63.12 138.707 62.9733 138.12 62.6C136.067 61.2933 133.88 60.0133 131.56 58.76C130.653 58.28 130.147 57.72 130.04 57.08C129.96 56.44 130.28 55.8 131 55.16L131.56 54.64H125.6H119.68L121.52 56C122 56.3467 122.24 56.7333 122.24 57.16C122.267 57.5867 122.053 57.9467 121.6 58.24C119.36 59.68 116.6 61.1867 113.32 62.76ZM115.8 50.2H121.16V43.68C121.16 42.4533 121.787 41.84 123.04 41.84C124.267 41.84 124.88 42.4533 124.88 43.68V50.2H127.16V41.44C127.16 40.8 126.84 40.48 126.2 40.48H123.6C122.88 40.48 122.307 40.2667 121.88 39.84C121.453 39.4133 121.24 38.84 121.24 38.12V35.36V31.16C121.24 30.4933 120.96 30.3067 120.4 30.6C118.533 31.5067 116.827 32.2533 115.28 32.84L115.36 35.72H117.88C119.187 35.72 119.84 36.3733 119.84 37.68C119.84 38.9867 119.187 39.64 117.88 39.64H115.48L115.56 43H117.88C119.187 43 119.84 43.6533 119.84 44.96C119.84 46.2667 119.187 46.92 117.88 46.92H115.68L115.8 50.2ZM170.28 63.36C167.56 63.36 165.72 62.9867 164.76 62.24C163.827 61.52 163.36 60.1067 163.36 58V57.88H156.76V57.96C156.76 59.08 156.12 59.64 154.84 59.64C154.067 59.64 153.44 59.4533 152.96 59.08C152.507 58.68 152.28 58.12 152.28 57.4V47.72C152.28 46.9467 152.52 46.32 153 45.84C153.48 45.36 154.107 45.12 154.88 45.12H166H177.12C177.893 45.12 178.52 45.36 179 45.84C179.48 46.32 179.72 46.9467 179.72 47.72V55.28C179.72 56.0533 179.48 56.68 179 57.16C178.52 57.64 177.893 57.88 177.12 57.88H167.88V58C167.88 58.7467 168.04 59.2267 168.36 59.44C168.707 59.6267 169.493 59.72 170.72 59.72H178.2C179.027 59.72 179.6 59.56 179.92 59.24C180.16 58.2267 180.533 57.48 181.04 57C181.627 56.4133 182.32 56.28 183.12 56.6C184.187 57 184.547 58.1333 184.2 60C183.827 61.2533 183.213 62.1333 182.36 62.64C181.533 63.12 180.28 63.36 178.6 63.36H170.28ZM157.48 54.68H163.36V52.96H160.04H156.76V53.96C156.76 54.44 157 54.68 157.48 54.68ZM167.88 54.68H174.08C174.72 54.68 175.04 54.36 175.04 53.72V52.96H171.44H167.88V54.68ZM156.76 50.08H160.04H163.36V48.32H157.72C157.08 48.32 156.76 48.64 156.76 49.28V50.08ZM167.88 50.08H171.44H175.04V49.08C175.04 48.5733 174.787 48.32 174.28 48.32H167.88V50.08ZM165.88 44.04C164.36 44.04 163.6 43.28 163.6 41.76V35.72H153.76C153.12 35.72 152.8 36.04 152.8 36.68V38.6C152.8 39.9867 152.107 40.68 150.72 40.68C149.333 40.68 148.64 39.9867 148.64 38.6V35.16C148.64 34.3867 148.88 33.76 149.36 33.28C149.84 32.8 150.467 32.56 151.24 32.56H163.6V31.04H153.12C151.947 31.04 151.36 30.4533 151.36 29.28C151.36 28.1067 151.947 27.52 153.12 27.52H165.92H178.76C179.933 27.52 180.52 28.1067 180.52 29.28C180.52 30.4533 179.933 31.04 178.76 31.04H168.16V32.56H180.84C181.613 32.56 182.24 32.8 182.72 33.28C183.2 33.76 183.44 34.3867 183.44 35.16V38.52C183.44 39.96 182.72 40.68 181.28 40.68C179.813 40.68 179.08 39.96 179.08 38.52V36.68C179.08 36.04 178.76 35.72 178.12 35.72H168.16V41.76C168.16 43.28 167.4 44.04 165.88 44.04ZM154.88 43.64C154.027 43.64 153.6 43.2 153.6 42.32C153.6 41.4667 154.027 41.04 154.88 41.04H160.88C161.733 41.04 162.16 41.4667 162.16 42.32C162.16 43.2 161.733 43.64 160.88 43.64H157.88H154.88ZM170.96 43.64C170.107 43.64 169.68 43.2 169.68 42.32C169.68 41.4667 170.107 41.04 170.96 41.04H177.04C177.893 41.04 178.32 41.4667 178.32 42.32C178.32 43.2 177.893 43.64 177.04 43.64H174H170.96ZM155.64 39.64C154.787 39.64 154.36 39.2133 154.36 38.36C154.36 37.5067 154.787 37.08 155.64 37.08H158.24H160.88C161.733 37.08 162.16 37.5067 162.16 38.36C162.16 39.2133 161.733 39.64 160.88 39.64H155.64ZM170.96 39.64C170.107 39.64 169.68 39.2133 169.68 38.36C169.68 37.5067 170.107 37.08 170.96 37.08H176.12C176.973 37.08 177.4 37.5067 177.4 38.36C177.4 39.2133 176.973 39.64 176.12 39.64H173.52H170.96ZM216.4 63.44C214.507 63.4667 213.36 62.76 212.96 61.32C212.827 60.92 212.6 60.3467 212.28 59.6C212.253 59.52 212.227 59.4667 212.2 59.44H201C200.227 59.44 199.6 59.2 199.12 58.72C198.64 58.24 198.4 57.6133 198.4 56.84V51.68C198.4 50.9067 198.64 50.28 199.12 49.8C199.6 49.32 200.227 49.08 201 49.08H206.16H211.32C212.093 49.08 212.72 49.32 213.2 49.8C213.68 50.28 213.92 50.9067 213.92 51.68V59C214.853 59.0267 215.88 59.04 217 59.04C217.347 59.04 217.573 58.9867 217.68 58.88C217.813 58.7467 217.88 58.5333 217.88 58.24V45.96C217.347 47.0267 216.293 47.56 214.72 47.56H211.52C209.813 47.56 208.667 47.24 208.08 46.6C207.547 46.04 207.28 44.92 207.28 43.24V40.68H204.04C203.907 42.5467 203.533 44.0133 202.92 45.08C202.227 46.3067 201.093 47.28 199.52 48C197.333 48.72 195.84 48.36 195.04 46.92C194.96 46.8133 194.84 46.6667 194.68 46.48C194.6 46.4 194.547 46.3333 194.52 46.28V61.16C194.52 62.6533 193.773 63.4 192.28 63.4C190.787 63.4 190.04 62.6533 190.04 61.16V39.2C190.04 38.4267 190.28 37.8 190.76 37.32C191.24 36.84 191.867 36.6 192.64 36.6H197.08C196.787 35.6933 196.387 34.6533 195.88 33.48H190.84C189.4 33.48 188.68 32.76 188.68 31.32C188.68 29.88 189.4 29.16 190.84 29.16H203.44V28.52C203.44 26.9467 204.24 26.16 205.84 26.16C207.413 26.16 208.2 26.9467 208.2 28.52V29.16H221.2C222.64 29.16 223.36 29.88 223.36 31.32C223.36 32.76 222.64 33.48 221.2 33.48H216.28C215.693 34.6 215.12 35.64 214.56 36.6H219.84C220.613 36.6 221.24 36.84 221.72 37.32C222.2 37.8 222.44 38.4267 222.44 39.2V58.28C222.44 59.48 222.293 60.4133 222 61.08C221.707 61.7733 221.173 62.3067 220.4 62.68C219.52 63.1067 218.187 63.36 216.4 63.44ZM203.52 55.96H206.12H209.68V53.56C209.68 52.92 209.36 52.6 208.72 52.6H203.52C202.88 52.6 202.56 52.92 202.56 53.56V55C202.56 55.64 202.88 55.96 203.52 55.96ZM194.52 45.72C196.547 45.2933 197.947 44.6933 198.72 43.92C199.413 43.2267 199.827 42.1467 199.96 40.68H195.48C194.84 40.68 194.52 41 194.52 41.64V45.72ZM212.08 44.16H214.16C214.533 44.16 214.773 44 214.88 43.68C215.04 42.56 215.4 42.1333 215.96 42.4C215.987 42.4 216.027 42.4133 216.08 42.44C216.88 42.76 217.48 42.9733 217.88 43.08V41.64C217.88 41 217.56 40.68 216.92 40.68H214.6H211.32V43.2C211.32 43.6267 211.36 43.8933 211.44 44C211.547 44.1067 211.76 44.16 212.08 44.16ZM202.2 36.6H209.36C210.053 35.2133 210.547 34.1733 210.84 33.48H205.88H200.92C201.56 34.7333 201.987 35.7733 202.2 36.6ZM238.2 63.56C236.813 63.56 236.12 62.8667 236.12 61.48V50.2C235.613 54.3333 234.453 57.88 232.64 60.84C232.08 61.5867 231.547 62.0267 231.04 62.16C230.507 62.2933 229.92 62.0667 229.28 61.48C228.213 60.52 228.2 59.28 229.24 57.76C231.24 54.2933 232.24 49.4667 232.24 43.28V38.32C232.24 37.44 232.493 36.8 233 36.4C233.533 35.9733 234.227 35.8533 235.08 36.04L235.28 36.08C239.413 35.9467 243.267 35.7467 246.84 35.48C246.547 35.32 246.067 35.0533 245.4 34.68C245.08 34.4933 244.84 34.36 244.68 34.28C244.253 34.0667 244.027 33.8 244 33.48C243.973 33.16 244.187 32.8 244.64 32.4L239.76 32.48C240.32 33.6533 239.947 34.4267 238.64 34.8C237.147 35.2533 236.12 34.8 235.56 33.44C235.453 33.2267 235.267 32.88 235 32.4H234.36C233.933 33.0133 233.373 33.72 232.68 34.52C231.72 35.5067 230.68 35.6267 229.56 34.88C228.787 34.3467 228.387 33.8133 228.36 33.28C228.36 32.7467 228.72 32.1467 229.44 31.48C230.56 30.28 231.493 29.0133 232.24 27.68C232.853 26.4267 233.907 26 235.4 26.4C236.84 26.8 237.24 27.6267 236.6 28.88H243.8C244.307 28.88 244.707 29.0267 245 29.32C245.293 29.6133 245.44 30.0133 245.44 30.52V30.64C245.44 31.2533 245.653 31.3333 246.08 30.88C246.96 29.84 247.707 28.76 248.32 27.64C248.907 26.4133 249.933 25.9733 251.4 26.32C252.093 26.48 252.56 26.7867 252.8 27.24C253.067 27.6667 253.04 28.2133 252.72 28.88H262.04C263.213 28.88 263.8 29.4667 263.8 30.64C263.8 31.8133 263.213 32.4 262.04 32.4H257.84C258.08 32.7467 258.32 33.1067 258.56 33.48C258.693 33.6667 258.707 33.8533 258.6 34.04C258.52 34.2267 258.347 34.36 258.08 34.44L257.68 34.56L259.16 36.08C259.56 36.48 259.72 36.8267 259.64 37.12C259.587 37.4133 259.333 37.6 258.88 37.68C252.613 38.6133 245.173 39.1467 236.56 39.28V40.36H258C258.773 40.36 259.4 40.6 259.88 41.08C260.36 41.56 260.6 42.1867 260.6 42.96V46.04C260.6 46.8133 260.36 47.44 259.88 47.92C259.4 48.4 258.773 48.64 258 48.64H236.32C236.32 48.8 236.293 49.04 236.24 49.36C236.213 49.6533 236.187 49.88 236.16 50.04H249.04H259.32C260.093 50.04 260.72 50.28 261.2 50.76C261.68 51.24 261.92 51.8667 261.92 52.64V59.72C261.92 60.68 261.827 61.3867 261.64 61.84C261.427 62.32 261.027 62.6933 260.44 62.96C259.88 63.2533 258.96 63.4267 257.68 63.48C256.4 63.5333 255.613 63.08 255.32 62.12C254.867 60.7867 255.44 60.1467 257.04 60.2C257.36 60.1733 257.52 60.0133 257.52 59.72V58.28H254.28V61.32C254.28 62.6 253.64 63.24 252.36 63.24C251.08 63.24 250.44 62.6 250.44 61.32V58.28H247.28V61.32C247.28 62.6 246.64 63.24 245.36 63.24C244.08 63.24 243.44 62.6 243.44 61.32V58.28H240.28V61.48C240.28 62.8667 239.587 63.56 238.2 63.56ZM240.28 55.16H241.84H243.44V53.4H240.28V55.16ZM247.28 55.16H250.44V53.4H248.84H247.28V55.16ZM254.28 55.16H255.88H257.52V54.16C257.52 53.6533 257.267 53.4 256.76 53.4H254.28V55.16ZM236.52 45.48H246.32H255.2C255.84 45.48 256.16 45.16 256.16 44.52V44.4C256.16 43.84 255.88 43.56 255.32 43.56H236.56C236.56 44.3867 236.547 45.0267 236.52 45.48ZM247.8 35.44C248.147 35.4133 248.667 35.36 249.36 35.28C250.16 35.2267 250.76 35.1733 251.16 35.12C252.013 35.0667 253.04 34.96 254.24 34.8C253.92 34.24 253.4 33.44 252.68 32.4H250.48C249.733 33.3867 248.84 34.4 247.8 35.44Z" fill="white"/>
<g clip-path="url(#clip0_283_855)">
<path opacity="0.57" d="M246.096 168.438V253.133C246.096 261.073 239.593 267.5 231.559 267.5H59.8287C51.7992 267.5 45.2959 261.073 45.2959 253.133V168.438C45.2959 160.498 51.7992 154.071 59.8287 154.071H231.559C239.208 153.69 246.096 160.122 246.096 168.438Z" fill="white"/>
<path opacity="0.57" d="M219.703 168.062V253.133H71.3047V168.062H219.703Z" fill="white"/>
<path opacity="0.57" d="M226.967 87.5254C234.992 87.5254 241.505 93.9571 241.505 101.893C241.505 109.828 234.997 116.26 226.967 116.26C218.938 116.26 212.435 109.828 212.435 101.893C212.435 93.9571 218.942 87.5254 226.967 87.5254Z" fill="white"/>
<path opacity="0.57" d="M67.8584 111.345C73.7753 111.345 78.5689 116.085 78.5689 121.93C78.5689 127.776 73.7708 132.516 67.8584 132.516C61.9459 132.516 57.1523 127.776 57.1523 121.93C57.1523 116.085 61.9459 111.345 67.8584 111.345Z" fill="white"/>
<path d="M179.161 184.698V195.664C179.161 200.202 175.335 203.604 171.132 203.604H108.409C103.816 203.604 100.375 199.822 100.375 195.664V184.698H179.166H179.161Z" fill="url(#paint1_linear_283_855)" stroke="white" stroke-width="4.02818" stroke-miterlimit="10"/>
<path d="M160.037 111.345H171.127C175.715 111.345 179.157 115.127 179.157 119.285V184.698H99.9897V119.285C99.9897 114.751 103.812 111.345 108.019 111.345H160.037Z" fill="url(#paint2_linear_283_855)" stroke="white" stroke-width="4.02818" stroke-miterlimit="10"/>
<path opacity="0.57" d="M178.777 222.505H166.92V234.227H178.777V222.505Z" fill="white"/>
<path opacity="0.57" d="M157.365 222.505H145.504V234.227H157.365V222.505Z" fill="white"/>
<path opacity="0.57" d="M135.944 222.505H124.087V234.227H135.944V222.505Z" fill="white"/>
<path opacity="0.57" d="M114.523 222.505H102.667V234.227H114.523V222.505Z" fill="white"/>
<path opacity="0.57" d="M206.316 123.443C208.218 123.443 209.758 124.965 209.758 126.845C209.758 128.725 208.218 130.251 206.316 130.251C204.414 130.251 202.87 128.725 202.87 126.845C202.87 124.965 204.414 123.443 206.316 123.443Z" fill="white"/>
<path opacity="0.57" d="M180.307 69C182.209 69 183.749 70.5218 183.749 72.4016C183.749 74.2814 182.209 75.8032 180.307 75.8032C178.405 75.8032 176.861 74.2814 176.861 72.4016C176.861 70.5218 178.405 69 180.307 69Z" fill="white"/>
<path opacity="0.57" d="M94.252 78.4531C96.1542 78.4531 97.6939 79.9749 97.6939 81.8547C97.6939 83.7345 96.1542 85.2563 94.252 85.2563C92.3498 85.2563 90.8057 83.7345 90.8057 81.8547C90.8057 79.9749 92.3498 78.4531 94.252 78.4531Z" fill="white"/>
<path opacity="0.57" d="M46.4419 137.434C48.3441 137.434 49.8882 138.956 49.8882 140.836C49.8882 142.715 48.3441 144.237 46.4419 144.237C44.5397 144.237 43 142.715 43 140.836C43 138.956 44.5441 137.434 46.4419 137.434Z" fill="white"/>
<path opacity="0.57" d="M231.559 198.686C230.413 198.686 229.268 199.822 229.268 200.955V219.86C229.268 220.997 230.418 222.13 231.559 222.13C232.7 222.13 233.855 220.997 233.855 219.86V200.955C233.855 199.822 232.705 198.686 231.559 198.686Z" fill="white"/>
<path opacity="0.57" d="M59.4439 198.686C58.2981 198.686 57.1523 199.822 57.1523 200.955V219.86C57.1523 220.997 58.3026 222.13 59.4439 222.13C60.5853 222.13 61.74 220.997 61.74 219.86V200.955C61.74 199.822 60.5897 198.686 59.4439 198.686Z" fill="white"/>
<path d="M102.666 236.492H114.523C115.673 236.492 116.814 235.36 116.814 234.223V222.501C116.814 221.364 115.669 220.231 114.523 220.231H102.666C101.516 220.231 100.37 221.364 100.37 222.501V234.223C99.9899 235.355 101.136 236.492 102.666 236.492ZM104.958 224.774H112.222V231.958H104.958V224.774Z" fill="url(#paint3_linear_283_855)" stroke="white" stroke-width="1.7903" stroke-miterlimit="10"/>
<path d="M124.088 236.492H135.944C137.09 236.492 138.235 235.36 138.235 234.223V222.501C138.235 221.364 137.085 220.231 135.944 220.231H124.088C122.937 220.231 121.792 221.364 121.792 222.501V234.223C121.792 235.355 122.557 236.492 124.088 236.492ZM126.379 224.774H133.648V231.958H126.379V224.774Z" fill="url(#paint4_linear_283_855)" stroke="white" stroke-width="1.7903" stroke-miterlimit="10"/>
<path d="M145.504 236.492H157.365C158.511 236.492 159.656 235.36 159.656 234.223V222.501C159.656 221.364 158.506 220.231 157.365 220.231H145.504C144.358 220.231 143.212 221.364 143.212 222.501V234.223C143.212 235.355 144.363 236.492 145.504 236.492ZM147.8 224.774H155.069V231.958H147.8V224.774Z" fill="url(#paint5_linear_283_855)" stroke="white" stroke-width="1.7903" stroke-miterlimit="10"/>
<path d="M166.92 236.492H178.777C179.927 236.492 181.073 235.36 181.073 234.223V222.501C181.073 221.364 179.923 220.231 178.777 220.231H166.92C165.77 220.231 164.629 221.364 164.629 222.501V234.223C164.629 235.355 165.775 236.492 166.92 236.492ZM169.597 224.774H176.861V231.958H169.597V224.774Z" fill="url(#paint6_linear_283_855)" stroke="white" stroke-width="1.7903" stroke-miterlimit="10"/>
<path d="M159.656 125.121V109.098C159.656 97.9536 150.62 88.917 139.475 88.917C128.331 88.917 119.294 97.9536 119.294 109.098V125.121" stroke="white" stroke-width="4.92334" stroke-miterlimit="10"/>
</g>
<defs>
<linearGradient id="paint0_linear_283_855" x1="145" y1="0" x2="145" y2="290" gradientUnits="userSpaceOnUse">
<stop stop-color="#FF922E"/>
<stop offset="1" stop-color="#FDB471"/>
</linearGradient>
<linearGradient id="paint1_linear_283_855" x1="100.37" y1="194.147" x2="179.161" y2="194.147" gradientUnits="userSpaceOnUse">
<stop stop-color="#FE7A00"/>
<stop offset="1" stop-color="#FFC188"/>
</linearGradient>
<linearGradient id="paint2_linear_283_855" x1="99.9897" y1="148.02" x2="43.4475" y2="148.02" gradientUnits="userSpaceOnUse">
<stop stop-color="#FE7A00"/>
<stop offset="1" stop-color="#FFC188"/>
</linearGradient>
<linearGradient id="paint3_linear_283_855" x1="100.299" y1="228.364" x2="116.814" y2="228.364" gradientUnits="userSpaceOnUse">
<stop stop-color="#FE7A00"/>
<stop offset="1" stop-color="#FFC188"/>
</linearGradient>
<linearGradient id="paint4_linear_283_855" x1="121.792" y1="228.364" x2="138.235" y2="228.364" gradientUnits="userSpaceOnUse">
<stop stop-color="#FE7A00"/>
<stop offset="1" stop-color="#FFC188"/>
</linearGradient>
<linearGradient id="paint5_linear_283_855" x1="143.208" y1="228.364" x2="159.656" y2="228.364" gradientUnits="userSpaceOnUse">
<stop stop-color="#FE7A00"/>
<stop offset="1" stop-color="#FFC188"/>
</linearGradient>
<linearGradient id="paint6_linear_283_855" x1="164.629" y1="228.364" x2="181.073" y2="228.364" gradientUnits="userSpaceOnUse">
<stop stop-color="#FE7A00"/>
<stop offset="1" stop-color="#FFC188"/>
</linearGradient>
<clipPath id="clip0_283_855">
<rect width="203.097" height="198.5" fill="white" transform="translate(43 69)"/>
</clipPath>
</defs>
</svg>
