<svg width="290" height="290" viewBox="0 0 290 290" fill="none" xmlns="http://www.w3.org/2000/svg">
<rect width="290" height="290" rx="29.0909" fill="url(#paint0_linear_238_2265)"/>
<path d="M80.52 60.96C79.8267 61.9733 78.68 62.3333 77.08 62.04C70.04 60.4667 64.9867 57.1067 61.92 51.96H56.88V57.04C57.52 56.9867 58.5067 56.8933 59.84 56.76C61.3333 56.6267 62.4533 56.5333 63.2 56.48C64.6667 56.3467 65.4 57 65.4 58.44C65.4 59.7467 64.7333 60.4667 63.4 60.6C62.8933 60.6533 62.1333 60.7333 61.12 60.84C56.1867 61.32 52.68 61.6667 50.6 61.88C49.9067 61.96 49.3867 61.84 49.04 61.52C48.7467 61.2267 48.5467 60.7067 48.44 59.96C48.2 58.4667 48.8533 57.6533 50.4 57.52L52.2 57.4V47.8V38.16C51.48 38.56 50.7467 38.9467 50 39.32C48.64 39.96 47.5733 39.72 46.8 38.6C45.76 37.08 46.2133 35.8933 48.16 35.04C50.5867 33.8133 52.88 32.4 55.04 30.8C57.2267 29.2 59.0267 27.6 60.44 26C60.6533 25.7067 60.9867 25.4667 61.44 25.28C61.8933 25.0933 62.36 25 62.84 25H64.52C65.5333 25 66.36 25.36 67 26.08C70.4933 29.7333 74.7867 32.64 79.88 34.8C80.92 35.1733 81.5467 35.6533 81.76 36.24C81.9733 36.8 81.7733 37.52 81.16 38.4C80.7067 39.04 80.2133 39.4133 79.68 39.52C79.1467 39.6267 78.52 39.5067 77.8 39.16C77.5333 39.0267 77.12 38.8133 76.56 38.52C76.16 38.3333 75.8667 38.1867 75.68 38.08L75.76 50.6C76.72 49.8 77.68 49.76 78.64 50.48C80 51.4933 79.96 52.48 78.52 53.44C77.1333 54.3467 75.4667 55.32 73.52 56.36C74.96 56.92 76.6533 57.3867 78.6 57.76C81.0533 58.1333 81.6933 59.2 80.52 60.96ZM69.72 54.48C71.08 53.7067 72.4533 52.8667 73.84 51.96H70.28H66.76C67.5067 52.7867 68.4933 53.6267 69.72 54.48ZM56.88 48.56H70.92V46.4H63.88H56.88V48.56ZM56.88 43.28H70.92V41.32H63.88H56.88V43.28ZM52.6 37.92H64H75.4C73.16 36.64 71.2933 35.4533 69.8 34.36V35.52C69.8 36.1067 69.5067 36.4 68.92 36.4H59.72C59.1867 36.4 58.7467 36.24 58.4 35.92C58.08 35.5733 57.92 35.1333 57.92 34.6V34.48C56.4 35.6267 54.6267 36.7733 52.6 37.92ZM59.56 33.24H63.92H68.32C66.48 31.8267 64.9867 30.4667 63.84 29.16C62.5867 30.5733 61.16 31.9333 59.56 33.24ZM120.96 61.04C120.32 62 119.267 62.36 117.8 62.12C113.293 61.2667 109.747 59.68 107.16 57.36L107.2 58.92C107.227 59.32 107.12 59.6533 106.88 59.92C106.64 60.2133 106.307 60.3733 105.88 60.4C104.04 60.64 101.333 60.9467 97.76 61.32C96.5333 61.48 95.6267 61.5867 95.04 61.64C94.4267 61.72 93.9733 61.6133 93.68 61.32C93.3867 61.0533 93.2 60.5867 93.12 59.92C92.96 58.6133 93.5467 57.8933 94.88 57.76L96.04 57.64V52.8H93.4C92.92 55.7867 92.08 58.3733 90.88 60.56C90.4267 61.2267 89.96 61.6267 89.48 61.76C89 61.92 88.4267 61.8 87.76 61.4C86.3467 60.5467 86.16 59.3067 87.2 57.68C88.72 54.6933 89.48 50.68 89.48 45.64V42.96C89.48 42.2133 89.6933 41.6267 90.12 41.2C90.5733 40.7467 91.1733 40.52 91.92 40.52H105.12H119.12C120.24 40.52 120.8 41.08 120.8 42.2C120.8 43.32 120.24 43.88 119.12 43.88H94.92C94.28 43.88 93.96 44.2 93.96 44.84V45.72C93.96 46.84 93.92 48.0667 93.84 49.4H120.16C121.28 49.4 121.84 49.96 121.84 51.08C121.84 52.2267 121.28 52.8 120.16 52.8H118.68L119.84 53.76C120.507 54.32 120.413 54.7733 119.56 55.12C118.147 55.7067 116.52 56.3067 114.68 56.92C115.907 57.3733 117.373 57.7467 119.08 58.04C120.253 58.1733 121 58.4667 121.32 58.92C121.667 59.4267 121.547 60.1333 120.96 61.04ZM100.64 57.16L106.36 56.6C105.907 56.12 105.413 55.52 104.88 54.8C104.427 54.24 103.987 53.5733 103.56 52.8H100.64V57.16ZM110.96 55.12C112.107 54.6667 113.72 53.8933 115.8 52.8H112.04H108.32C109.04 53.6533 109.92 54.4267 110.96 55.12ZM97.4 48.08C96.4133 48.08 95.92 47.5733 95.92 46.56C95.92 45.5733 96.4133 45.08 97.4 45.08H106.84H116.28C117.267 45.08 117.76 45.5733 117.76 46.56C117.76 47.5733 117.267 48.08 116.28 48.08H97.4ZM92.36 39.28C91.5867 39.28 90.96 39.04 90.48 38.56C90 38.08 89.76 37.4533 89.76 36.68V30.16C89.76 29.3867 90 28.76 90.48 28.28C90.96 27.8 91.5867 27.56 92.36 27.56H97.76V27.36C97.76 25.8667 98.52 25.12 100.04 25.12C101.533 25.12 102.28 25.8667 102.28 27.36V27.56H106.12V27.44C106.12 25.8933 106.893 25.12 108.44 25.12C109.987 25.12 110.76 25.8933 110.76 27.44V27.56H116.6C117.373 27.56 118 27.8 118.48 28.28C118.96 28.76 119.2 29.3867 119.2 30.16V36.68C119.2 37.4533 118.96 38.08 118.48 38.56C118 39.04 117.373 39.28 116.6 39.28H104.48H92.36ZM94.76 36.36H97.76V34.76H95.92H94.08V35.68C94.08 36.1333 94.3067 36.36 94.76 36.36ZM102.28 36.36H104.2H106.12V34.76H102.28V36.36ZM110.76 36.36H112.72H113.84C114.4 36.36 114.68 36.08 114.68 35.52V34.76H110.76V36.36ZM94.08 32.04H97.76V30.44H95.92H94.88C94.3467 30.44 94.08 30.7067 94.08 31.24V32.04ZM102.28 32.04H104.2H106.12V30.44H102.28V32.04ZM110.76 32.04H112.72H114.68V31.12C114.68 30.6667 114.453 30.44 114 30.44H110.76V32.04ZM133.88 62.48C132.36 62.48 131.6 61.72 131.6 60.2V48.08C130.613 50.2933 129.747 52.0667 129 53.4C128.387 54.3333 127.84 54.7867 127.36 54.76C126.907 54.7067 126.427 54.1733 125.92 53.16C125.627 52.5467 125.493 52.0133 125.52 51.56C125.573 51.1067 125.8 50.6267 126.2 50.12C128.093 47.4267 129.68 44.3067 130.96 40.76H127.84C126.373 40.76 125.64 40.0133 125.64 38.52C125.64 37.0533 126.373 36.32 127.84 36.32H131.6V31.8C131.013 31.9067 130.133 32.04 128.96 32.2C127.733 32.36 126.933 31.88 126.56 30.76C126.133 29.4533 126.667 28.6533 128.16 28.36C131.44 27.7733 134.373 27.0267 136.96 26.12C137.573 25.88 138.107 25.8533 138.56 26.04C138.96 26.2 139.36 26.5733 139.76 27.16C140.8 28.6267 140.467 29.64 138.76 30.2C138.2 30.36 137.333 30.5733 136.16 30.84V36.32H139.2C140.667 36.32 141.4 37.0533 141.4 38.52C141.4 40.0133 140.667 40.76 139.2 40.76H136.16V41.08C136.613 41.5067 137.653 42.6533 139.28 44.52C139.787 45.08 140.147 45.48 140.36 45.72C140.76 46.2 140.947 46.6267 140.92 47C140.893 47.32 140.667 47.76 140.24 48.32C139.627 49.1467 139.08 49.5467 138.6 49.52C138.147 49.4667 137.68 48.9733 137.2 48.04C136.987 47.64 136.64 47.04 136.16 46.24V54.36V60.2C136.16 61.72 135.4 62.48 133.88 62.48ZM155.76 62.44C154.213 62.44 153.44 61.68 153.44 60.16V53.2L143.72 54.88C142.227 55.1733 141.36 54.5467 141.12 53C140.88 51.5067 141.493 50.6267 142.96 50.36L153.44 48.56V36.84V27.4C153.44 25.88 154.213 25.12 155.76 25.12C157.28 25.12 158.04 25.88 158.04 27.4V47.76L159.76 47.48C161.253 47.1867 162.12 47.7867 162.36 49.28C162.6 50.7733 161.987 51.6533 160.52 51.92L158.04 52.36V60.16C158.04 61.68 157.28 62.44 155.76 62.44ZM149.84 45.16C148.693 46.2533 147.64 46.2267 146.68 45.08C146.28 44.6267 145.84 44.1867 145.36 43.76C144.773 43.2 144.173 42.64 143.56 42.08C142.413 41.12 142.4 40.1467 143.52 39.16C144.4 38.36 145.28 38.2933 146.16 38.96C147.68 40.1333 149.013 41.2933 150.16 42.44C150.613 42.9467 150.8 43.4133 150.72 43.84C150.667 44.2133 150.373 44.6533 149.84 45.16ZM150.96 34.6C149.76 35.6933 148.693 35.64 147.76 34.44C147.28 33.9067 146.907 33.5067 146.64 33.24C146.293 32.8933 145.747 32.3733 145 31.68C143.827 30.7467 143.813 29.76 144.96 28.72C145.867 27.8933 146.773 27.8533 147.68 28.6C149.013 29.64 150.24 30.7467 151.36 31.92C151.76 32.4267 151.92 32.8933 151.84 33.32C151.76 33.72 151.467 34.1467 150.96 34.6ZM201.2 60.92C200.427 61.9867 199.307 62.2667 197.84 61.76C194.853 60.6667 192.293 59.24 190.16 57.48C187.813 59.1333 185.107 60.52 182.04 61.64C180.52 62.1467 179.4 61.7867 178.68 60.56C178.147 59.68 178.04 58.96 178.36 58.4C178.653 57.8933 179.333 57.48 180.4 57.16C182.693 56.3867 184.787 55.3867 186.68 54.16C184.547 51.7067 182.827 48.8933 181.52 45.72C181.227 45 181.427 44.5333 182.12 44.32L182.24 44.28H182.16C180.853 44.28 180.2 43.6 180.2 42.24C180.2 40.7467 180.907 40 182.32 40H188V35.2H181.68C180.213 35.2 179.48 34.4667 179.48 33C179.48 31.5333 180.213 30.8 181.68 30.8H188V27.4C188 25.8533 188.787 25.08 190.36 25.08C191.907 25.08 192.68 25.8533 192.68 27.4V30.8H199.36C200.827 30.8 201.56 31.5333 201.56 33C201.56 34.4667 200.827 35.2 199.36 35.2H197.12H192.68V40H198.36C199.267 40 199.893 40.2933 200.24 40.88C200.613 41.44 200.653 42.28 200.36 43.4C198.973 47.7467 196.827 51.4 193.92 54.36C195.653 55.5867 197.547 56.5733 199.6 57.32C201.893 58.04 202.427 59.24 201.2 60.92ZM169.84 62.2C169.12 62.2267 168.493 62.0933 167.96 61.8C167.347 61.5067 166.947 61.0533 166.76 60.44C166.227 58.7333 167.027 57.9067 169.16 57.96C169.347 57.96 169.52 57.96 169.68 57.96C170.16 57.96 170.4 57.6933 170.4 57.16V48.92L168.8 49.32C167.307 49.6933 166.36 49.1467 165.96 47.68C165.56 46.16 166.093 45.2267 167.56 44.88C167.96 44.8 168.587 44.6533 169.44 44.44C169.867 44.3333 170.187 44.2533 170.4 44.2V37.12H168.08C166.613 37.12 165.88 36.3867 165.88 34.92C165.88 33.4533 166.613 32.72 168.08 32.72H170.4V27.44C170.4 25.8933 171.187 25.12 172.76 25.12C174.307 25.12 175.08 25.8933 175.08 27.44V32.72H176.76C178.227 32.72 178.96 33.4533 178.96 34.92C178.96 36.3867 178.227 37.12 176.76 37.12H175.08V43.04L176.44 42.68C177.96 42.3067 178.827 42.9067 179.04 44.48C179.2 45.8133 178.667 46.6533 177.44 47C176.933 47.16 176.147 47.3733 175.08 47.64V52.44V57.2C175.08 58.3733 174.947 59.2667 174.68 59.88C174.44 60.52 173.987 61.0267 173.32 61.4C172.573 61.8 171.413 62.0667 169.84 62.2ZM190.32 51.36C192.453 49.3067 194.107 46.9467 195.28 44.28H190.48H185.68C186.747 46.8933 188.293 49.2533 190.32 51.36ZM216.2 62.56C214.813 62.56 214.12 61.8667 214.12 60.48V49.2C213.613 53.3333 212.453 56.88 210.64 59.84C210.08 60.5867 209.547 61.0267 209.04 61.16C208.507 61.2933 207.92 61.0667 207.28 60.48C206.213 59.52 206.2 58.28 207.24 56.76C209.24 53.2933 210.24 48.4667 210.24 42.28V37.32C210.24 36.44 210.493 35.8 211 35.4C211.533 34.9733 212.227 34.8533 213.08 35.04L213.28 35.08C217.413 34.9467 221.267 34.7467 224.84 34.48C224.547 34.32 224.067 34.0533 223.4 33.68C223.08 33.4933 222.84 33.36 222.68 33.28C222.253 33.0667 222.027 32.8 222 32.48C221.973 32.16 222.187 31.8 222.64 31.4L217.76 31.48C218.32 32.6533 217.947 33.4267 216.64 33.8C215.147 34.2533 214.12 33.8 213.56 32.44C213.453 32.2267 213.267 31.88 213 31.4H212.36C211.933 32.0133 211.373 32.72 210.68 33.52C209.72 34.5067 208.68 34.6267 207.56 33.88C206.787 33.3467 206.387 32.8133 206.36 32.28C206.36 31.7467 206.72 31.1467 207.44 30.48C208.56 29.28 209.493 28.0133 210.24 26.68C210.853 25.4267 211.907 25 213.4 25.4C214.84 25.8 215.24 26.6267 214.6 27.88H221.8C222.307 27.88 222.707 28.0267 223 28.32C223.293 28.6133 223.44 29.0133 223.44 29.52V29.64C223.44 30.2533 223.653 30.3333 224.08 29.88C224.96 28.84 225.707 27.76 226.32 26.64C226.907 25.4133 227.933 24.9733 229.4 25.32C230.093 25.48 230.56 25.7867 230.8 26.24C231.067 26.6667 231.04 27.2133 230.72 27.88H240.04C241.213 27.88 241.8 28.4667 241.8 29.64C241.8 30.8133 241.213 31.4 240.04 31.4H235.84C236.08 31.7467 236.32 32.1067 236.56 32.48C236.693 32.6667 236.707 32.8533 236.6 33.04C236.52 33.2267 236.347 33.36 236.08 33.44L235.68 33.56L237.16 35.08C237.56 35.48 237.72 35.8267 237.64 36.12C237.587 36.4133 237.333 36.6 236.88 36.68C230.613 37.6133 223.173 38.1467 214.56 38.28V39.36H236C236.773 39.36 237.4 39.6 237.88 40.08C238.36 40.56 238.6 41.1867 238.6 41.96V45.04C238.6 45.8133 238.36 46.44 237.88 46.92C237.4 47.4 236.773 47.64 236 47.64H214.32C214.32 47.8 214.293 48.04 214.24 48.36C214.213 48.6533 214.187 48.88 214.16 49.04H227.04H237.32C238.093 49.04 238.72 49.28 239.2 49.76C239.68 50.24 239.92 50.8667 239.92 51.64V58.72C239.92 59.68 239.827 60.3867 239.64 60.84C239.427 61.32 239.027 61.6933 238.44 61.96C237.88 62.2533 236.96 62.4267 235.68 62.48C234.4 62.5333 233.613 62.08 233.32 61.12C232.867 59.7867 233.44 59.1467 235.04 59.2C235.36 59.1733 235.52 59.0133 235.52 58.72V57.28H232.28V60.32C232.28 61.6 231.64 62.24 230.36 62.24C229.08 62.24 228.44 61.6 228.44 60.32V57.28H225.28V60.32C225.28 61.6 224.64 62.24 223.36 62.24C222.08 62.24 221.44 61.6 221.44 60.32V57.28H218.28V60.48C218.28 61.8667 217.587 62.56 216.2 62.56ZM218.28 54.16H219.84H221.44V52.4H218.28V54.16ZM225.28 54.16H228.44V52.4H226.84H225.28V54.16ZM232.28 54.16H233.88H235.52V53.16C235.52 52.6533 235.267 52.4 234.76 52.4H232.28V54.16ZM214.52 44.48H224.32H233.2C233.84 44.48 234.16 44.16 234.16 43.52V43.4C234.16 42.84 233.88 42.56 233.32 42.56H214.56C214.56 43.3867 214.547 44.0267 214.52 44.48ZM225.8 34.44C226.147 34.4133 226.667 34.36 227.36 34.28C228.16 34.2267 228.76 34.1733 229.16 34.12C230.013 34.0667 231.04 33.96 232.24 33.8C231.92 33.24 231.4 32.44 230.68 31.4H228.48C227.733 32.3867 226.84 33.4 225.8 34.44Z" fill="white"/>
<path opacity="0.57" d="M221.897 100C228.03 100 233 104.962 233 111.082C233 117.203 228.03 122.16 221.897 122.16C215.764 122.16 210.795 117.198 210.795 111.082C210.795 104.967 215.764 100 221.897 100Z" fill="white"/>
<path opacity="0.57" d="M84.4472 135.7C91.9613 135.7 98.0546 141.781 98.0546 149.281C98.0546 156.781 91.9613 162.861 84.4472 162.861C76.9332 162.861 70.8398 156.781 70.8398 149.281C70.8398 141.781 76.9332 135.7 84.4472 135.7Z" fill="white"/>
<path opacity="0.57" d="M133.075 206.501L136.659 207.93C150.623 214.006 166.384 214.006 179.996 207.93L198.618 199.71C199.692 199.356 200.771 198.996 201.84 198.641C209.72 197.212 216.883 203.643 216.883 211.148C216.883 216.149 214.017 220.796 209.364 222.939L164.592 243.31C157.786 246.523 150.267 247.957 142.743 247.957C135.219 247.957 128.056 246.528 121.255 243.31C113.736 240.092 104.782 243.31 101.198 250.815L90.8128 274.404L55 269.662L67.1769 231.873C78.2796 206.856 107.648 195.418 133.075 206.501Z" fill="white"/>
<path d="M201.484 198.637C200.41 198.991 199.335 198.991 198.261 199.706L179.635 207.925C166.027 214.001 150.267 214.356 136.298 207.925L132.714 206.496C126.269 203.633 119.463 202.209 112.657 202.209C114.805 192.916 123.042 186.125 132.714 186.125C139.52 186.125 145.965 189.698 149.549 194.699C154.563 184.336 167.814 181.478 176.764 188.629C179.268 185.056 183.213 182.553 187.866 182.553C196.821 182.553 203.271 190.417 201.479 198.637H201.484Z" fill="url(#paint1_linear_238_2265)" stroke="white" stroke-width="6.84131" stroke-miterlimit="10"/>
<path d="M179.273 104.647C180.709 110.008 179.273 116.079 174.977 120.371C170.68 124.658 164.592 126.092 159.221 124.658V115.01C159.939 112.507 161.369 110.363 163.161 108.579C167.458 104.652 173.546 103.218 179.278 104.652L179.273 104.647Z" fill="url(#paint2_linear_238_2265)" stroke="white" stroke-width="6.84131" stroke-miterlimit="10"/>
<path d="M159.221 155.037V169.332C150.267 171.835 140.238 169.332 133.432 162.542C126.269 155.391 124.121 145.748 126.626 136.814C140.956 132.527 155.276 141.101 159.221 155.037Z" fill="url(#paint3_linear_238_2265)" stroke="white" stroke-width="6.84131" stroke-miterlimit="10"/>
<path d="M192.173 136.455C194.678 145.389 192.173 155.397 185.367 162.187C178.204 169.337 168.537 171.476 159.582 168.977V154.682C163.166 141.097 177.848 132.523 192.178 136.455H192.173Z" fill="url(#paint4_linear_238_2265)" stroke="white" stroke-width="6.84131" stroke-miterlimit="10"/>
<path d="M159.221 115.369V125.018C153.85 126.447 147.762 125.018 143.461 120.731C139.164 116.444 137.728 110.363 139.164 105.007C144.535 103.578 150.623 105.007 154.92 109.294C157.073 110.723 158.503 113.221 159.221 115.369Z" fill="url(#paint5_linear_238_2265)" stroke="white" stroke-width="6.84131" stroke-miterlimit="10"/>
<path d="M159.068 100V185.061" stroke="white" stroke-width="6.84131" stroke-miterlimit="10"/>
<defs>
<linearGradient id="paint0_linear_238_2265" x1="145" y1="0" x2="145" y2="290" gradientUnits="userSpaceOnUse">
<stop stop-color="#FF922E"/>
<stop offset="1" stop-color="#FDB471"/>
</linearGradient>
<linearGradient id="paint1_linear_238_2265" x1="112.662" y1="197.587" x2="201.781" y2="197.587" gradientUnits="userSpaceOnUse">
<stop stop-color="#FE7A00"/>
<stop offset="1" stop-color="#FFC188"/>
</linearGradient>
<linearGradient id="paint2_linear_238_2265" x1="159.221" y1="114.65" x2="179.813" y2="114.65" gradientUnits="userSpaceOnUse">
<stop stop-color="#FE7A00"/>
<stop offset="1" stop-color="#FFC188"/>
</linearGradient>
<linearGradient id="paint3_linear_238_2265" x1="125.621" y1="152.993" x2="159.221" y2="152.993" gradientUnits="userSpaceOnUse">
<stop stop-color="#FE7A00"/>
<stop offset="1" stop-color="#FFC188"/>
</linearGradient>
<linearGradient id="paint4_linear_238_2265" x1="159.577" y1="152.738" x2="193.123" y2="152.738" gradientUnits="userSpaceOnUse">
<stop stop-color="#FE7A00"/>
<stop offset="1" stop-color="#FFC188"/>
</linearGradient>
<linearGradient id="paint5_linear_238_2265" x1="138.629" y1="115.01" x2="159.221" y2="115.01" gradientUnits="userSpaceOnUse">
<stop stop-color="#FE7A00"/>
<stop offset="1" stop-color="#FFC188"/>
</linearGradient>
</defs>
</svg>
